<svg xmlns="http://www.w3.org/2000/svg" xmlns:xlink="http://www.w3.org/1999/xlink" width="500" zoomAndPan="magnify" viewBox="0 0 375 374.999991" height="500" preserveAspectRatio="xMidYMid meet" version="1.0"><defs><clipPath id="447d507ef5"><path d="M 352 117.671875 L 356.933594 117.671875 L 356.933594 123 L 352 123 Z M 352 117.671875 " clip-rule="nonzero"/></clipPath><clipPath id="e2f66783ef"><path d="M 210 212 L 218 212 L 218 220.421875 L 210 220.421875 Z M 210 212 " clip-rule="nonzero"/></clipPath><clipPath id="2f3600d928"><path d="M 17.933594 133 L 90 133 L 90 206 L 17.933594 206 Z M 17.933594 133 " clip-rule="nonzero"/></clipPath></defs><rect x="-37.5" width="450" fill="#ffffff" y="-37.499999" height="449.999989" fill-opacity="1"/><rect x="-37.5" width="450" fill="#ffffff" y="-37.499999" height="449.999989" fill-opacity="1"/><path fill="#000000" d="M 87.195312 156.765625 L 172.929688 156.765625 L 172.929688 158.925781 L 87.195312 158.925781 Z M 87.195312 156.765625 " fill-opacity="1" fill-rule="nonzero"/><path fill="#000000" d="M 172.710938 162.320312 C 175.171875 162.320312 177.167969 160.316406 177.167969 157.847656 C 177.167969 155.375 175.171875 153.371094 172.710938 153.371094 C 170.253906 153.371094 168.253906 155.375 168.253906 157.847656 C 168.253906 160.316406 170.253906 162.320312 172.710938 162.320312 Z M 172.710938 162.320312 " fill-opacity="1" fill-rule="nonzero"/><path fill="#000000" d="M 88.789062 178.71875 L 174.253906 178.71875 L 174.253906 180.882812 L 88.789062 180.882812 Z M 88.789062 178.71875 " fill-opacity="1" fill-rule="nonzero"/><path fill="#000000" d="M 174.027344 184.277344 C 176.488281 184.277344 178.484375 182.273438 178.484375 179.800781 C 178.484375 177.332031 176.488281 175.328125 174.027344 175.328125 C 171.566406 175.328125 169.570312 177.332031 169.570312 179.800781 C 169.570312 182.273438 171.566406 184.277344 174.027344 184.277344 Z M 174.027344 184.277344 " fill-opacity="1" fill-rule="nonzero"/><path fill="#000000" d="M 88.917969 170.414062 L 180.265625 170.414062 L 180.265625 172.578125 L 88.917969 172.578125 Z M 88.917969 170.414062 " fill-opacity="1" fill-rule="nonzero"/><path fill="#000000" d="M 180.042969 175.964844 C 182.5 175.964844 184.5 173.960938 184.5 171.492188 C 184.5 169.023438 182.5 167.019531 180.042969 167.019531 C 177.582031 167.019531 175.585938 169.023438 175.585938 171.492188 C 175.585938 173.960938 177.582031 175.964844 180.042969 175.964844 Z M 180.042969 175.964844 " fill-opacity="1" fill-rule="nonzero"/><path fill="#000000" d="M 87.695312 189.949219 L 198.78125 189.949219 L 198.78125 192.113281 L 87.695312 192.113281 Z M 87.695312 189.949219 " fill-opacity="1" fill-rule="nonzero"/><path fill="#000000" d="M 198.558594 195.507812 C 201.015625 195.507812 203.015625 193.5 203.015625 191.03125 C 203.015625 188.5625 201.015625 186.558594 198.558594 186.558594 C 196.097656 186.558594 194.101562 188.5625 194.101562 191.03125 C 194.101562 193.5 196.097656 195.507812 198.558594 195.507812 Z M 198.558594 195.507812 " fill-opacity="1" fill-rule="nonzero"/><path fill="#000000" d="M 87.078125 149.050781 L 273.773438 149.050781 L 273.773438 151.210938 L 87.078125 151.210938 Z M 87.078125 149.050781 " fill-opacity="1" fill-rule="nonzero"/><path fill="#000000" d="M 273.550781 154.605469 C 276.011719 154.605469 278.007812 152.601562 278.007812 150.128906 C 278.007812 147.660156 276.011719 145.65625 273.550781 145.65625 C 271.089844 145.65625 269.09375 147.660156 269.09375 150.128906 C 269.09375 152.601562 271.089844 154.605469 273.550781 154.605469 Z M 273.550781 154.605469 " fill-opacity="1" fill-rule="nonzero"/><path fill="#000000" d="M 275.433594 150.496094 L 304.566406 121.25 L 305.835938 122.527344 L 276.703125 151.773438 Z M 275.433594 150.496094 " fill-opacity="1" fill-rule="nonzero"/><path fill="#000000" d="M 307.691406 124.660156 C 309.144531 123.203125 309.144531 120.84375 307.691406 119.386719 C 306.242188 117.933594 303.894531 117.933594 302.441406 119.386719 C 300.992188 120.84375 300.992188 123.203125 302.441406 124.660156 C 303.894531 126.117188 306.242188 126.117188 307.691406 124.660156 Z M 307.691406 124.660156 " fill-opacity="1" fill-rule="nonzero"/><path fill="#000000" d="M 306.1875 119.351562 L 354.8125 119.351562 L 354.8125 120.433594 L 306.1875 120.433594 Z M 306.1875 119.351562 " fill-opacity="1" fill-rule="nonzero"/><g clip-path="url(#447d507ef5)"><path fill="#000000" d="M 354.699219 122.128906 C 355.933594 122.128906 356.925781 121.125 356.925781 119.894531 C 356.925781 118.660156 355.929688 117.65625 354.699219 117.65625 C 353.472656 117.65625 352.472656 118.660156 352.472656 119.894531 C 352.472656 121.125 353.472656 122.128906 354.699219 122.128906 Z M 354.699219 122.128906 " fill-opacity="1" fill-rule="nonzero"/></g><path fill="#000000" d="M 296.550781 130.007812 L 344.675781 130.007812 L 344.675781 131.089844 L 296.550781 131.089844 Z M 296.550781 130.007812 " fill-opacity="1" fill-rule="nonzero"/><path fill="#000000" d="M 344.566406 132.785156 C 345.796875 132.785156 346.792969 131.785156 346.792969 130.550781 C 346.792969 129.316406 345.792969 128.316406 344.566406 128.316406 C 343.339844 128.316406 342.339844 129.316406 342.339844 130.550781 C 342.339844 131.785156 343.339844 132.785156 344.566406 132.785156 Z M 344.566406 132.785156 " fill-opacity="1" fill-rule="nonzero"/><path fill="#000000" d="M 287.199219 140.097656 L 350.703125 140.097656 L 350.703125 141.179688 L 287.199219 141.179688 Z M 287.199219 140.097656 " fill-opacity="1" fill-rule="nonzero"/><path fill="#000000" d="M 350.59375 142.875 C 351.824219 142.875 352.820312 141.871094 352.820312 140.636719 C 352.820312 139.40625 351.820312 138.402344 350.59375 138.402344 C 349.363281 138.402344 348.367188 139.40625 348.367188 140.636719 C 348.367188 141.871094 349.363281 142.875 350.59375 142.875 Z M 350.59375 142.875 " fill-opacity="1" fill-rule="nonzero"/><path fill="#000000" d="M 200.9375 191.011719 L 232.097656 159.726562 L 233.367188 161 L 202.207031 192.285156 Z M 200.9375 191.011719 " fill-opacity="1" fill-rule="nonzero"/><path fill="#000000" d="M 235.230469 163.132812 C 236.679688 161.675781 236.679688 159.316406 235.230469 157.859375 C 233.78125 156.402344 231.429688 156.402344 229.980469 157.859375 C 228.53125 159.316406 228.53125 161.675781 229.980469 163.132812 C 231.429688 164.585938 233.78125 164.585938 235.230469 163.132812 Z M 235.230469 163.132812 " fill-opacity="1" fill-rule="nonzero"/><path fill="#000000" d="M 176.632812 180.257812 L 177.902344 178.984375 L 214.582031 215.804688 L 213.3125 217.082031 Z M 176.632812 180.257812 " fill-opacity="1" fill-rule="nonzero"/><g clip-path="url(#e2f66783ef)"><path fill="#000000" d="M 211.195312 218.949219 C 212.644531 220.40625 214.996094 220.40625 216.445312 218.949219 C 217.894531 217.492188 217.894531 215.132812 216.445312 213.675781 C 214.996094 212.21875 212.644531 212.21875 211.195312 213.675781 C 209.742188 215.132812 209.742188 217.492188 211.195312 218.949219 Z M 211.195312 218.949219 " fill-opacity="1" fill-rule="nonzero"/></g><path fill="#000000" d="M 175.457031 157.800781 L 206.398438 126.738281 L 207.667969 128.011719 L 176.726562 159.074219 Z M 175.457031 157.800781 " fill-opacity="1" fill-rule="nonzero"/><path fill="#000000" d="M 209.523438 130.144531 C 210.976562 128.6875 210.976562 126.328125 209.523438 124.871094 C 208.074219 123.414062 205.726562 123.414062 204.273438 124.871094 C 202.824219 126.328125 202.824219 128.6875 204.273438 130.144531 C 205.726562 131.597656 208.074219 131.597656 209.523438 130.144531 Z M 209.523438 130.144531 " fill-opacity="1" fill-rule="nonzero"/><path fill="#000000" d="M 182.5 171.269531 L 217.261719 136.367188 L 218.53125 137.644531 L 183.769531 172.542969 Z M 182.5 171.269531 " fill-opacity="1" fill-rule="nonzero"/><path fill="#000000" d="M 220.390625 139.773438 C 221.84375 138.316406 221.84375 135.957031 220.390625 134.5 C 218.941406 133.046875 216.59375 133.046875 215.140625 134.5 C 213.691406 135.957031 213.691406 138.316406 215.140625 139.773438 C 216.59375 141.230469 218.941406 141.230469 220.390625 139.773438 Z M 220.390625 139.773438 " fill-opacity="1" fill-rule="nonzero"/><path fill="#000000" d="M 234.695312 159.039062 L 281.226562 159.039062 L 281.226562 160.121094 L 234.695312 160.121094 Z M 234.695312 159.039062 " fill-opacity="1" fill-rule="nonzero"/><path fill="#000000" d="M 281.113281 161.820312 C 282.347656 161.820312 283.339844 160.816406 283.339844 159.582031 C 283.339844 158.351562 282.34375 157.347656 281.113281 157.347656 C 279.886719 157.347656 278.886719 158.351562 278.886719 159.582031 C 278.886719 160.816406 279.886719 161.820312 281.113281 161.820312 Z M 281.113281 161.820312 " fill-opacity="1" fill-rule="nonzero"/><path fill="#000000" d="M 224.648438 167.347656 L 247.609375 167.347656 L 247.609375 168.429688 L 224.648438 168.429688 Z M 224.648438 167.347656 " fill-opacity="1" fill-rule="nonzero"/><path fill="#000000" d="M 247.496094 170.125 C 248.730469 170.125 249.722656 169.125 249.722656 167.890625 C 249.722656 166.65625 248.726562 165.65625 247.496094 165.65625 C 246.269531 165.65625 245.269531 166.65625 245.269531 167.890625 C 245.269531 169.125 246.269531 170.125 247.496094 170.125 Z M 247.496094 170.125 " fill-opacity="1" fill-rule="nonzero"/><path fill="#000000" d="M 215.78125 176.84375 L 252.375 176.84375 L 252.375 177.921875 L 215.78125 177.921875 Z M 215.78125 176.84375 " fill-opacity="1" fill-rule="nonzero"/><path fill="#000000" d="M 252.261719 179.621094 C 253.496094 179.621094 254.488281 178.621094 254.488281 177.386719 C 254.488281 176.152344 253.492188 175.152344 252.261719 175.152344 C 251.035156 175.152344 250.035156 176.152344 250.035156 177.386719 C 250.035156 178.621094 251.035156 179.621094 252.261719 179.621094 Z M 252.261719 179.621094 " fill-opacity="1" fill-rule="nonzero"/><path fill="#000000" d="M 207.417969 125.851562 L 241.75 125.851562 L 241.75 126.933594 L 207.417969 126.933594 Z M 207.417969 125.851562 " fill-opacity="1" fill-rule="nonzero"/><path fill="#000000" d="M 241.636719 128.632812 C 242.867188 128.632812 243.863281 127.628906 243.863281 126.398438 C 243.863281 125.164062 242.863281 124.160156 241.636719 124.160156 C 240.410156 124.160156 239.410156 125.164062 239.410156 126.398438 C 239.410156 127.628906 240.410156 128.632812 241.636719 128.632812 Z M 241.636719 128.632812 " fill-opacity="1" fill-rule="nonzero"/><path fill="#000000" d="M 219.164062 135.398438 L 254.917969 135.398438 L 254.917969 136.480469 L 219.164062 136.480469 Z M 219.164062 135.398438 " fill-opacity="1" fill-rule="nonzero"/><path fill="#000000" d="M 254.808594 138.175781 C 256.042969 138.175781 257.035156 137.171875 257.035156 135.941406 C 257.035156 134.707031 256.039062 133.703125 254.808594 133.703125 C 253.582031 133.703125 252.582031 134.707031 252.582031 135.941406 C 252.582031 137.171875 253.582031 138.175781 254.808594 138.175781 Z M 254.808594 138.175781 " fill-opacity="1" fill-rule="nonzero"/><path fill="#000000" d="M 201.8125 203.351562 L 233.984375 203.351562 L 233.984375 204.433594 L 201.8125 204.433594 Z M 201.8125 203.351562 " fill-opacity="1" fill-rule="nonzero"/><path fill="#000000" d="M 233.871094 206.128906 C 235.105469 206.128906 236.097656 205.125 236.097656 203.890625 C 236.097656 202.660156 235.101562 201.65625 233.871094 201.65625 C 232.644531 201.65625 231.644531 202.660156 231.644531 203.890625 C 231.644531 205.125 232.644531 206.128906 233.871094 206.128906 Z M 233.871094 206.128906 " fill-opacity="1" fill-rule="nonzero"/><g clip-path="url(#2f3600d928)"><path fill="#000000" d="M 75.582031 205.855469 L 32.121094 205.855469 C 24.308594 205.855469 17.949219 199.472656 17.949219 191.628906 L 17.949219 147.996094 C 17.949219 140.152344 24.308594 133.765625 32.121094 133.765625 L 75.582031 133.765625 C 83.398438 133.765625 89.757812 140.152344 89.757812 147.996094 L 89.757812 191.628906 C 89.757812 199.472656 83.398438 205.855469 75.582031 205.855469 Z M 32.121094 137.371094 C 26.285156 137.371094 21.539062 142.136719 21.539062 147.996094 L 21.539062 191.628906 C 21.539062 197.484375 26.285156 202.25 32.121094 202.25 L 75.582031 202.25 C 81.417969 202.25 86.164062 197.484375 86.164062 191.628906 L 86.164062 147.996094 C 86.164062 142.136719 81.417969 137.371094 75.582031 137.371094 Z M 32.121094 137.371094 " fill-opacity="1" fill-rule="nonzero"/></g><path fill="#000000" d="M 59.761719 158.101562 C 60.171875 159.136719 61.347656 159.644531 62.386719 159.234375 C 63.425781 158.824219 63.9375 157.652344 63.527344 156.621094 L 62.285156 153.503906 C 61.570312 151.707031 59.359375 151.042969 57.765625 152.148438 L 54.476562 154.425781 C 53.5625 155.0625 53.335938 156.320312 53.972656 157.230469 C 54.613281 158.144531 55.875 158.367188 56.792969 157.730469 L 59.003906 156.199219 Z M 59.761719 158.101562 " fill-opacity="1" fill-rule="nonzero"/><path fill="#000000" d="M 50.855469 177.164062 C 50.0625 176.378906 48.78125 176.382812 47.992188 177.167969 L 46.539062 178.621094 L 45.117188 176.339844 C 44.53125 175.394531 43.28125 175.105469 42.332031 175.691406 C 41.382812 176.277344 41.089844 177.519531 41.679688 178.464844 L 43.789062 181.851562 C 44.8125 183.496094 47.109375 183.757812 48.480469 182.386719 L 50.859375 180.015625 C 51.648438 179.226562 51.648438 177.949219 50.855469 177.164062 Z M 50.855469 177.164062 " fill-opacity="1" fill-rule="nonzero"/><path fill="#000000" d="M 58.65625 170.507812 C 57.804688 171.226562 57.699219 172.496094 58.425781 173.34375 C 59.148438 174.195312 60.425781 174.296875 61.277344 173.578125 L 63.847656 171.410156 C 65.328125 170.15625 65.246094 167.859375 63.683594 166.714844 L 60.457031 164.347656 C 59.558594 163.6875 58.292969 163.878906 57.628906 164.773438 C 56.964844 165.667969 57.15625 166.929688 58.058594 167.589844 L 60.226562 169.179688 Z M 58.65625 170.507812 " fill-opacity="1" fill-rule="nonzero"/><path fill="#000000" d="M 50.203125 162.585938 C 50.472656 163.664062 49.8125 164.757812 48.730469 165.03125 L 46.734375 165.527344 L 47.972656 167.910156 C 48.484375 168.898438 48.09375 170.113281 47.101562 170.621094 C 46.109375 171.132812 44.886719 170.746094 44.375 169.757812 L 42.535156 166.21875 C 41.640625 164.5 42.59375 162.40625 44.476562 161.9375 L 47.746094 161.121094 C 48.832031 160.851562 49.929688 161.507812 50.203125 162.585938 Z M 50.203125 162.585938 " fill-opacity="1" fill-rule="nonzero"/><path fill="#000000" d="M 77.308594 147.066406 C 77.769531 146.054688 77.320312 144.859375 76.300781 144.398438 C 75.285156 143.9375 74.085938 144.386719 73.621094 145.398438 C 73.015625 146.722656 72.335938 147.910156 70.953125 148.601562 C 65.691406 144.015625 57.105469 144.066406 49.011719 148.175781 L 45.960938 147.378906 C 44.082031 146.890625 42.234375 148.273438 42.1875 150.207031 L 42.125 152.8125 C 41.460938 153.386719 40.8125 153.988281 40.175781 154.621094 C 37.710938 157.070312 35.722656 159.773438 34.21875 162.554688 C 34.199219 162.5625 34.179688 162.570312 34.15625 162.578125 L 30.398438 163.964844 C 28.578125 164.636719 27.863281 166.824219 28.941406 168.429688 C 29.613281 169.4375 30.078125 170.316406 31.078125 171.550781 C 30.625 174.335938 30.675781 177.019531 31.242188 179.425781 C 30.398438 180.890625 30.269531 182.109375 29.90625 183.304688 C 29.339844 185.152344 30.652344 187.042969 32.589844 187.167969 L 36.589844 187.425781 C 36.609375 187.425781 36.632812 187.425781 36.652344 187.425781 C 38.167969 188.410156 39.921875 189.085938 41.832031 189.449219 L 44.246094 192.023438 C 45.570312 193.4375 47.875 193.25 48.953125 191.640625 L 50.601562 189.183594 C 53.652344 188.5 56.785156 187.238281 59.78125 185.402344 L 63.035156 186.25 C 64.914062 186.738281 66.761719 185.355469 66.808594 183.421875 C 66.835938 182.21875 66.855469 181.144531 66.855469 179.65625 C 68.792969 177.613281 70.421875 175.425781 71.734375 173.183594 L 75.472656 171.804688 C 77.292969 171.132812 78.007812 168.945312 76.933594 167.335938 L 75.125 164.632812 C 76.164062 159.816406 75.671875 155.214844 73.519531 151.65625 C 75.070312 150.417969 76.476562 148.882812 77.308594 147.066406 Z M 63.246094 177.574219 C 67.808594 173.03125 70.503906 167.71875 71.328125 162.964844 C 72.15625 158.183594 71.066406 154.371094 68.710938 152.027344 C 66.355469 149.683594 62.527344 148.601562 57.722656 149.425781 C 52.175781 150.375 46.972656 153.554688 43.039062 157.46875 C 38.507812 161.976562 35.875 167.347656 35.082031 172.164062 C 34.277344 177.050781 35.398438 180.851562 37.570312 183.011719 C 39.746094 185.175781 43.566406 186.292969 48.472656 185.492188 C 53.316406 184.699219 58.714844 182.082031 63.246094 177.574219 Z M 63.246094 177.574219 " fill-opacity="1" fill-rule="evenodd"/></svg>