<svg xmlns="http://www.w3.org/2000/svg" xmlns:xlink="http://www.w3.org/1999/xlink" width="500" zoomAndPan="magnify" viewBox="0 0 375 374.999991" height="500" preserveAspectRatio="xMidYMid meet" version="1.0"><defs><clipPath id="74cf8d4b0a"><path d="M 236 359 L 241.144531 359 L 241.144531 364.160156 L 236 364.160156 Z M 236 359 " clip-rule="nonzero"/></clipPath><clipPath id="90eb8a224f"><path d="M 147 10.910156 L 226 10.910156 L 226 99 L 147 99 Z M 147 10.910156 " clip-rule="nonzero"/></clipPath><clipPath id="cf38fd7b61"><path d="M 165 33 L 209.824219 33 L 209.824219 77.929688 L 165 77.929688 Z M 165 33 " clip-rule="nonzero"/></clipPath></defs><rect x="-37.5" width="450" fill="#ffffff" y="-37.499999" height="449.999989" fill-opacity="1"/><rect x="-37.5" width="450" fill="#ffffff" y="-37.499999" height="449.999989" fill-opacity="1"/><rect x="-37.5" width="450" fill="#ffffff" y="-37.499999" height="449.999989" fill-opacity="1"/><path fill="#000000" d="M 200.339844 171.128906 L 198.082031 171.128906 L 198.082031 86.929688 L 200.339844 85.757812 Z M 200.339844 171.128906 " fill-opacity="1" fill-rule="nonzero"/><path fill="#000000" d="M 194.542969 170.894531 C 194.542969 173.476562 196.636719 175.570312 199.210938 175.570312 C 201.789062 175.570312 203.882812 173.476562 203.882812 170.894531 C 203.882812 168.316406 201.789062 166.222656 199.210938 166.222656 C 196.636719 166.222656 194.542969 168.316406 194.542969 170.894531 Z M 194.542969 170.894531 " fill-opacity="1" fill-rule="nonzero"/><path fill="#000000" d="M 177.425781 172.507812 L 175.167969 172.507812 L 175.167969 87.746094 L 177.425781 89.191406 Z M 177.425781 172.507812 " fill-opacity="1" fill-rule="nonzero"/><path fill="#000000" d="M 171.625 172.273438 C 171.625 174.851562 173.71875 176.945312 176.296875 176.945312 C 178.871094 176.945312 180.964844 174.851562 180.964844 172.273438 C 180.964844 169.695312 178.871094 167.601562 176.296875 167.601562 C 173.71875 167.601562 171.625 169.695312 171.625 172.273438 Z M 171.625 172.273438 " fill-opacity="1" fill-rule="nonzero"/><path fill="#000000" d="M 186.09375 178.8125 L 183.835938 178.8125 L 183.835938 93.292969 L 184.726562 93.859375 L 186.09375 93.148438 Z M 186.09375 178.8125 " fill-opacity="1" fill-rule="nonzero"/><path fill="#000000" d="M 180.300781 178.582031 C 180.300781 181.160156 182.390625 183.253906 184.96875 183.253906 C 187.546875 183.253906 189.640625 181.160156 189.640625 178.582031 C 189.640625 176 187.546875 173.90625 184.96875 173.90625 C 182.390625 173.90625 180.300781 176 180.300781 178.582031 Z M 180.300781 178.582031 " fill-opacity="1" fill-rule="nonzero"/><path fill="#000000" d="M 165.703125 81.746094 L 165.703125 198.230469 L 163.445312 198.230469 L 163.445312 81.746094 Z M 165.703125 81.746094 " fill-opacity="1" fill-rule="nonzero"/><path fill="#000000" d="M 159.902344 197.996094 C 159.902344 200.578125 161.996094 202.671875 164.574219 202.671875 C 167.152344 202.671875 169.242188 200.578125 169.242188 197.996094 C 169.242188 195.417969 167.152344 193.324219 164.574219 193.324219 C 161.996094 193.324219 159.902344 195.417969 159.902344 197.996094 Z M 159.902344 197.996094 " fill-opacity="1" fill-rule="nonzero"/><path fill="#000000" d="M 208.390625 276.867188 L 206.132812 276.867188 L 206.132812 82.753906 L 208.390625 81.582031 Z M 208.390625 276.867188 " fill-opacity="1" fill-rule="nonzero"/><path fill="#000000" d="M 202.597656 276.636719 C 202.597656 279.214844 204.6875 281.308594 207.265625 281.308594 C 209.84375 281.308594 211.9375 279.214844 211.9375 276.636719 C 211.9375 274.054688 209.84375 271.960938 207.265625 271.960938 C 204.6875 271.960938 202.597656 274.054688 202.597656 276.636719 Z M 202.597656 276.636719 " fill-opacity="1" fill-rule="nonzero"/><path fill="#000000" d="M 206.882812 278.609375 L 237.410156 309.15625 L 236.078125 310.488281 L 205.550781 279.941406 Z M 206.882812 278.609375 " fill-opacity="1" fill-rule="nonzero"/><path fill="#000000" d="M 233.851562 312.4375 C 235.371094 313.957031 237.835938 313.957031 239.355469 312.4375 C 240.875 310.914062 240.875 308.453125 239.355469 306.929688 C 237.835938 305.410156 235.371094 305.410156 233.851562 306.929688 C 232.332031 308.453125 232.332031 310.914062 233.851562 312.4375 Z M 233.851562 312.4375 " fill-opacity="1" fill-rule="nonzero"/><path fill="#000000" d="M 239.390625 310.859375 L 239.390625 361.84375 L 238.261719 361.84375 L 238.261719 310.859375 Z M 239.390625 310.859375 " fill-opacity="1" fill-rule="nonzero"/><g clip-path="url(#74cf8d4b0a)"><path fill="#000000" d="M 236.496094 361.726562 C 236.496094 363.019531 237.539062 364.0625 238.828125 364.0625 C 240.113281 364.0625 241.160156 363.015625 241.160156 361.726562 C 241.160156 360.441406 240.113281 359.394531 238.828125 359.394531 C 237.539062 359.394531 236.496094 360.441406 236.496094 361.726562 Z M 236.496094 361.726562 " fill-opacity="1" fill-rule="nonzero"/></g><path fill="#000000" d="M 228.269531 300.75 L 228.269531 351.214844 L 227.140625 351.214844 L 227.140625 300.75 Z M 228.269531 300.75 " fill-opacity="1" fill-rule="nonzero"/><path fill="#000000" d="M 225.371094 351.101562 C 225.371094 352.394531 226.417969 353.4375 227.703125 353.4375 C 228.992188 353.4375 230.035156 352.390625 230.035156 351.101562 C 230.035156 349.8125 228.992188 348.765625 227.703125 348.765625 C 226.417969 348.765625 225.371094 349.8125 225.371094 351.101562 Z M 225.371094 351.101562 " fill-opacity="1" fill-rule="nonzero"/><path fill="#000000" d="M 217.738281 290.945312 L 217.738281 357.539062 L 216.609375 357.539062 L 216.609375 290.945312 Z M 217.738281 290.945312 " fill-opacity="1" fill-rule="nonzero"/><path fill="#000000" d="M 214.839844 357.421875 C 214.839844 358.710938 215.886719 359.753906 217.175781 359.753906 C 218.460938 359.753906 219.507812 358.707031 219.507812 357.421875 C 219.507812 356.132812 218.460938 355.085938 217.175781 355.085938 C 215.886719 355.085938 214.839844 356.132812 214.839844 357.421875 Z M 214.839844 357.421875 " fill-opacity="1" fill-rule="nonzero"/><path fill="#000000" d="M 164.59375 200.492188 L 197.25 233.167969 L 195.921875 234.5 L 163.265625 201.820312 Z M 164.59375 200.492188 " fill-opacity="1" fill-rule="nonzero"/><path fill="#000000" d="M 193.695312 236.453125 C 195.214844 237.972656 197.675781 237.972656 199.199219 236.453125 C 200.71875 234.929688 200.71875 232.46875 199.199219 230.945312 C 197.675781 229.425781 195.214844 229.425781 193.695312 230.945312 C 192.175781 232.46875 192.175781 234.929688 193.695312 236.453125 Z M 193.695312 236.453125 " fill-opacity="1" fill-rule="nonzero"/><path fill="#000000" d="M 175.816406 175.007812 L 177.148438 176.339844 L 138.714844 214.800781 L 137.382812 213.46875 Z M 175.816406 175.007812 " fill-opacity="1" fill-rule="nonzero"/><path fill="#000000" d="M 135.433594 211.25 C 133.914062 212.769531 133.914062 215.230469 135.433594 216.753906 C 136.957031 218.273438 139.417969 218.273438 140.9375 216.753906 C 142.457031 215.230469 142.457031 212.769531 140.9375 211.25 C 139.417969 209.726562 136.957031 209.726562 135.433594 211.25 Z M 135.433594 211.25 " fill-opacity="1" fill-rule="nonzero"/><path fill="#000000" d="M 199.257812 173.773438 L 231.683594 206.21875 L 230.351562 207.546875 L 197.929688 175.101562 Z M 199.257812 173.773438 " fill-opacity="1" fill-rule="nonzero"/><path fill="#000000" d="M 228.128906 209.496094 C 229.648438 211.019531 232.109375 211.019531 233.628906 209.496094 C 235.152344 207.976562 235.152344 205.511719 233.628906 203.992188 C 232.109375 202.46875 229.648438 202.46875 228.128906 203.992188 C 226.609375 205.511719 226.609375 207.976562 228.128906 209.496094 Z M 228.128906 209.496094 " fill-opacity="1" fill-rule="nonzero"/><path fill="#000000" d="M 185.203125 181.160156 L 221.632812 217.613281 L 220.300781 218.941406 L 183.871094 182.488281 Z M 185.203125 181.160156 " fill-opacity="1" fill-rule="nonzero"/><path fill="#000000" d="M 218.078125 220.890625 C 219.597656 222.414062 222.058594 222.414062 223.578125 220.890625 C 225.097656 219.371094 225.097656 216.90625 223.578125 215.386719 C 222.058594 213.867188 219.597656 213.867188 218.078125 215.386719 C 216.558594 216.90625 216.558594 219.371094 218.078125 220.890625 Z M 218.078125 220.890625 " fill-opacity="1" fill-rule="nonzero"/><path fill="#000000" d="M 197.96875 235.890625 L 197.96875 284.683594 L 196.839844 284.683594 L 196.839844 235.890625 Z M 197.96875 235.890625 " fill-opacity="1" fill-rule="nonzero"/><path fill="#000000" d="M 195.066406 284.566406 C 195.066406 285.859375 196.113281 286.902344 197.398438 286.902344 C 198.6875 286.902344 199.730469 285.855469 199.730469 284.566406 C 199.730469 283.277344 198.6875 282.230469 197.398438 282.230469 C 196.113281 282.230469 195.066406 283.277344 195.066406 284.566406 Z M 195.066406 284.566406 " fill-opacity="1" fill-rule="nonzero"/><path fill="#000000" d="M 189.292969 225.355469 L 189.292969 249.433594 L 188.164062 249.433594 L 188.164062 225.355469 Z M 189.292969 225.355469 " fill-opacity="1" fill-rule="nonzero"/><path fill="#000000" d="M 186.394531 249.316406 C 186.394531 250.605469 187.441406 251.648438 188.730469 251.648438 C 190.015625 251.648438 191.0625 250.601562 191.0625 249.316406 C 191.0625 248.027344 190.015625 246.980469 188.730469 246.980469 C 187.441406 246.980469 186.394531 248.027344 186.394531 249.316406 Z M 186.394531 249.316406 " fill-opacity="1" fill-rule="nonzero"/><path fill="#000000" d="M 179.382812 216.058594 L 179.382812 254.429688 L 178.253906 254.429688 L 178.253906 216.058594 Z M 179.382812 216.058594 " fill-opacity="1" fill-rule="nonzero"/><path fill="#000000" d="M 176.484375 254.3125 C 176.484375 255.605469 177.53125 256.648438 178.816406 256.648438 C 180.101562 256.648438 181.148438 255.601562 181.148438 254.3125 C 181.148438 253.023438 180.101562 251.976562 178.816406 251.976562 C 177.53125 251.976562 176.484375 253.023438 176.484375 254.3125 Z M 176.484375 254.3125 " fill-opacity="1" fill-rule="nonzero"/><path fill="#000000" d="M 232.605469 207.285156 L 232.605469 243.285156 L 231.476562 243.285156 L 231.476562 207.285156 Z M 232.605469 207.285156 " fill-opacity="1" fill-rule="nonzero"/><path fill="#000000" d="M 229.707031 243.167969 C 229.707031 244.460938 230.75 245.503906 232.039062 245.503906 C 233.324219 245.503906 234.371094 244.457031 234.371094 243.167969 C 234.371094 241.882812 233.324219 240.835938 232.039062 240.835938 C 230.75 240.835938 229.707031 241.882812 229.707031 243.167969 Z M 229.707031 243.167969 " fill-opacity="1" fill-rule="nonzero"/><path fill="#000000" d="M 222.640625 219.605469 L 222.640625 257.09375 L 221.511719 257.09375 L 221.511719 219.605469 Z M 222.640625 219.605469 " fill-opacity="1" fill-rule="nonzero"/><path fill="#000000" d="M 219.746094 256.980469 C 219.746094 258.273438 220.789062 259.316406 222.078125 259.316406 C 223.363281 259.316406 224.410156 258.269531 224.410156 256.980469 C 224.410156 255.695312 223.363281 254.648438 222.078125 254.648438 C 220.789062 254.648438 219.746094 255.695312 219.746094 256.980469 Z M 219.746094 256.980469 " fill-opacity="1" fill-rule="nonzero"/><path fill="#000000" d="M 151.714844 201.410156 L 151.714844 235.144531 L 150.585938 235.144531 L 150.585938 201.410156 Z M 151.714844 201.410156 " fill-opacity="1" fill-rule="nonzero"/><path fill="#000000" d="M 148.816406 235.027344 C 148.816406 236.320312 149.863281 237.363281 151.148438 237.363281 C 152.4375 237.363281 153.484375 236.316406 153.484375 235.027344 C 153.484375 233.742188 152.4375 232.695312 151.148438 232.695312 C 149.863281 232.695312 148.816406 233.742188 148.816406 235.027344 Z M 148.816406 235.027344 " fill-opacity="1" fill-rule="nonzero"/><g clip-path="url(#90eb8a224f)"><path fill="#000000" d="M 186.09375 97.394531 L 198.082031 91.171875 L 200.339844 90 L 206.132812 86.996094 L 208.390625 85.824219 L 223.261719 78.105469 L 225.238281 34.488281 L 188.476562 10.96875 L 149.738281 31.066406 L 147.765625 74.6875 L 163.445312 84.71875 L 165.703125 86.160156 L 175.167969 92.214844 L 177.425781 93.660156 L 183.835938 97.761719 L 184.527344 98.207031 Z M 177.425781 89.191406 L 175.167969 87.746094 L 151.625 72.683594 L 153.398438 33.410156 L 188.28125 15.3125 L 221.382812 36.492188 L 219.601562 75.761719 L 208.390625 81.582031 L 206.132812 82.753906 L 200.339844 85.757812 L 198.082031 86.929688 L 186.09375 93.148438 L 184.722656 93.859375 L 183.835938 93.292969 Z M 177.425781 89.191406 " fill-opacity="1" fill-rule="nonzero"/></g><g clip-path="url(#cf38fd7b61)"><path fill="#000000" d="M 208.25 33.359375 C 209.160156 33.777344 209.5625 34.863281 209.148438 35.78125 C 208.40625 37.433594 207.148438 38.832031 205.757812 39.957031 C 207.683594 43.191406 208.125 47.375 207.195312 51.753906 L 208.8125 54.210938 C 209.777344 55.675781 209.136719 57.664062 207.507812 58.273438 L 204.15625 59.527344 C 202.984375 61.566406 201.523438 63.554688 199.789062 65.410156 C 199.789062 66.53125 199.773438 67.742188 199.746094 68.835938 C 199.707031 70.59375 198.050781 71.851562 196.371094 71.40625 L 193.457031 70.636719 C 190.769531 72.304688 187.964844 73.453125 185.234375 74.070312 L 183.757812 76.308594 C 182.792969 77.769531 180.730469 77.941406 179.542969 76.65625 L 177.382812 74.316406 C 175.652344 73.980469 174.0625 73.355469 172.695312 72.445312 L 169.5625 72.242188 C 167.824219 72.128906 166.648438 70.410156 167.15625 68.730469 L 168.035156 65.8125 C 168.039062 65.804688 168.042969 65.792969 168.046875 65.78125 C 167.402344 63.449219 167.308594 60.800781 167.753906 58.042969 C 167.144531 57.144531 166.441406 56.121094 165.839844 55.207031 C 164.875 53.746094 165.515625 51.757812 167.144531 51.148438 L 170.507812 49.886719 C 170.527344 49.878906 170.546875 49.871094 170.566406 49.867188 C 172.355469 46.503906 174.789062 43.507812 177.644531 41.011719 L 177.703125 38.640625 C 177.742188 36.882812 179.394531 35.625 181.078125 36.070312 L 183.8125 36.792969 C 191.039062 33.066406 198.710938 33.011719 203.425781 37.148438 C 204.398438 36.375 205.332031 35.417969 205.847656 34.265625 C 206.261719 33.347656 207.339844 32.941406 208.25 33.359375 Z M 180.585938 47.292969 C 186.242188 41.578125 193.339844 39.191406 197.652344 41.21875 L 174.644531 64.683594 C 172.511719 60.339844 174.863281 53.074219 180.585938 47.292969 Z M 194.636719 61.488281 C 188.785156 67.394531 181.398438 69.746094 177.140625 67.339844 L 200.347656 43.675781 C 202.859375 47.953125 200.546875 55.515625 194.636719 61.488281 Z M 194.636719 61.488281 " fill-opacity="1" fill-rule="evenodd"/></g></svg>