<svg xmlns="http://www.w3.org/2000/svg" xmlns:xlink="http://www.w3.org/1999/xlink" width="500" zoomAndPan="magnify" viewBox="0 0 375 374.999991" height="500" preserveAspectRatio="xMidYMid meet" version="1.0"><defs><clipPath id="524c91702b"><path d="M 332 175 L 340.667969 175 L 340.667969 183 L 332 183 Z M 332 175 " clip-rule="nonzero"/></clipPath><clipPath id="a58e6d13a7"><path d="M 128 141.105469 L 237 141.105469 L 237 250 L 128 250 Z M 128 141.105469 " clip-rule="nonzero"/></clipPath></defs><rect x="-37.5" width="450" fill="#ffffff" y="-37.499999" height="449.999989" fill-opacity="1"/><rect x="-37.5" width="450" fill="#ffffff" y="-37.499999" height="449.999989" fill-opacity="1"/><path fill="#000000" d="M 231.351562 272.546875 L 141.769531 272.546875 L 96.980469 195.132812 L 141.769531 117.71875 L 231.351562 117.71875 L 276.140625 195.132812 Z M 143.851562 268.945312 L 229.265625 268.945312 L 271.972656 195.132812 L 229.265625 121.320312 L 143.851562 121.320312 L 101.144531 195.132812 Z M 143.851562 268.945312 " fill-opacity="1" fill-rule="nonzero"/><path fill="#000000" d="M 309.335938 198.277344 C 309.335938 198.277344 309.304688 198.277344 309.285156 198.277344 L 272.953125 196.632812 C 272.355469 196.601562 271.890625 196.097656 271.921875 195.503906 C 271.949219 194.910156 272.453125 194.445312 273.050781 194.472656 L 309.382812 196.121094 C 309.980469 196.148438 310.445312 196.652344 310.414062 197.246094 C 310.390625 197.828125 309.910156 198.277344 309.332031 198.277344 Z M 309.335938 198.277344 " fill-opacity="1" fill-rule="nonzero"/><path fill="#000000" d="M 308.984375 200.839844 C 311.007812 200.929688 312.722656 199.371094 312.8125 197.351562 C 312.902344 195.335938 311.339844 193.625 309.316406 193.535156 C 307.296875 193.445312 305.582031 195.003906 305.492188 197.019531 C 305.402344 199.039062 306.964844 200.75 308.984375 200.839844 Z M 308.984375 200.839844 " fill-opacity="1" fill-rule="nonzero"/><path fill="#000000" d="M 323.167969 206.085938 L 323.152344 206.085938 L 268.003906 205.203125 C 267.40625 205.191406 266.929688 204.699219 266.9375 204.101562 C 266.949219 203.511719 267.429688 203.039062 268.023438 203.039062 L 268.039062 203.039062 L 323.1875 203.925781 C 323.785156 203.9375 324.261719 204.425781 324.25 205.023438 C 324.242188 205.617188 323.761719 206.085938 323.167969 206.085938 Z M 323.167969 206.085938 " fill-opacity="1" fill-rule="nonzero"/><path fill="#000000" d="M 326.160156 203.1875 C 326.402344 203.605469 326.554688 204.058594 326.617188 204.539062 C 326.679688 205.019531 326.644531 205.496094 326.519531 205.960938 C 326.390625 206.429688 326.179688 206.855469 325.882812 207.238281 C 325.585938 207.625 325.226562 207.9375 324.804688 208.175781 C 324.382812 208.417969 323.929688 208.570312 323.449219 208.628906 C 322.96875 208.691406 322.492188 208.660156 322.023438 208.53125 C 321.554688 208.40625 321.128906 208.195312 320.742188 207.898438 C 320.359375 207.601562 320.046875 207.242188 319.804688 206.820312 C 319.5625 206.402344 319.410156 205.949219 319.347656 205.46875 C 319.285156 204.988281 319.320312 204.515625 319.445312 204.046875 C 319.574219 203.578125 319.785156 203.152344 320.082031 202.769531 C 320.378906 202.386719 320.738281 202.074219 321.160156 201.832031 C 321.582031 201.589844 322.035156 201.4375 322.515625 201.378906 C 323 201.316406 323.472656 201.347656 323.941406 201.476562 C 324.410156 201.601562 324.839844 201.816406 325.222656 202.109375 C 325.605469 202.40625 325.921875 202.765625 326.160156 203.1875 Z M 326.160156 203.1875 " fill-opacity="1" fill-rule="nonzero"/><path fill="#000000" d="M 308.21875 215.773438 C 308.21875 215.773438 308.199219 215.773438 308.1875 215.773438 L 264.671875 214.476562 C 264.074219 214.460938 263.605469 213.960938 263.621094 213.363281 C 263.640625 212.78125 264.121094 212.316406 264.703125 212.316406 C 264.714844 212.316406 264.726562 212.316406 264.738281 212.316406 L 308.253906 213.613281 C 308.851562 213.628906 309.320312 214.128906 309.304688 214.726562 C 309.285156 215.308594 308.804688 215.773438 308.21875 215.773438 Z M 308.21875 215.773438 " fill-opacity="1" fill-rule="nonzero"/><path fill="#000000" d="M 307.929688 218.34375 C 309.949219 218.402344 311.640625 216.816406 311.699219 214.796875 C 311.761719 212.78125 310.167969 211.09375 308.148438 211.035156 C 306.125 210.972656 304.4375 212.5625 304.375 214.578125 C 304.316406 216.59375 305.90625 218.28125 307.929688 218.34375 Z M 307.929688 218.34375 " fill-opacity="1" fill-rule="nonzero"/><path fill="#000000" d="M 310.921875 199.03125 C 310.59375 199.03125 310.261719 198.878906 310.050781 198.59375 C 309.691406 198.117188 309.789062 197.4375 310.269531 197.082031 L 336.023438 177.902344 C 336.503906 177.546875 337.179688 177.644531 337.539062 178.125 C 337.894531 178.601562 337.800781 179.28125 337.320312 179.636719 L 311.566406 198.816406 C 311.371094 198.957031 311.144531 199.03125 310.921875 199.03125 Z M 310.921875 199.03125 " fill-opacity="1" fill-rule="nonzero"/><g clip-path="url(#524c91702b)"><path fill="#000000" d="M 338.714844 181.8125 C 340.335938 180.605469 340.671875 178.316406 339.460938 176.695312 C 338.25 175.078125 335.953125 174.742188 334.328125 175.953125 C 332.710938 177.160156 332.375 179.449219 333.585938 181.070312 C 334.796875 182.6875 337.089844 183.023438 338.714844 181.8125 Z M 338.714844 181.8125 " fill-opacity="1" fill-rule="nonzero"/></g><path fill="#000000" d="M 324.59375 206.316406 C 324.269531 206.316406 323.949219 206.175781 323.734375 205.898438 C 323.371094 205.425781 323.457031 204.742188 323.929688 204.378906 L 333.339844 197.125 C 333.8125 196.761719 334.496094 196.847656 334.859375 197.320312 C 335.226562 197.792969 335.136719 198.472656 334.664062 198.835938 L 325.253906 206.089844 C 325.054688 206.242188 324.824219 206.316406 324.59375 206.316406 Z M 324.59375 206.316406 " fill-opacity="1" fill-rule="nonzero"/><path fill="#000000" d="M 336.101562 200.988281 C 337.703125 199.75 337.996094 197.457031 336.761719 195.859375 C 335.523438 194.257812 333.226562 193.964844 331.621094 195.199219 C 330.019531 196.433594 329.726562 198.726562 330.960938 200.328125 C 332.195312 201.925781 334.5 202.21875 336.101562 200.988281 Z M 336.101562 200.988281 " fill-opacity="1" fill-rule="nonzero"/><path fill="#000000" d="M 331.777344 226.738281 C 331.617188 226.738281 331.449219 226.703125 331.292969 226.625 L 309.191406 215.59375 C 308.65625 215.328125 308.441406 214.679688 308.707031 214.140625 C 308.976562 213.609375 309.625 213.394531 310.164062 213.660156 L 332.265625 224.6875 C 332.800781 224.957031 333.015625 225.605469 332.75 226.140625 C 332.558594 226.519531 332.175781 226.738281 331.777344 226.738281 Z M 331.777344 226.738281 " fill-opacity="1" fill-rule="nonzero"/><path fill="#000000" d="M 329.976562 228.847656 C 331.785156 229.75 333.988281 229.015625 334.894531 227.210938 C 335.800781 225.40625 335.0625 223.207031 333.253906 222.304688 C 331.445312 221.402344 329.242188 222.136719 328.335938 223.941406 C 327.429688 225.746094 328.167969 227.941406 329.976562 228.847656 Z M 329.976562 228.847656 " fill-opacity="1" fill-rule="nonzero"/><path fill="#000000" d="M 231.421875 121.703125 L 230.421875 121.703125 C 229.824219 121.703125 229.339844 121.21875 229.339844 120.621094 C 229.339844 120.023438 229.824219 119.542969 230.421875 119.542969 L 230.527344 119.542969 L 269.945312 80.207031 C 270.367188 79.785156 271.054688 79.785156 271.476562 80.207031 C 271.898438 80.628906 271.898438 81.3125 271.476562 81.734375 L 231.425781 121.699219 Z M 231.421875 121.703125 " fill-opacity="1" fill-rule="nonzero"/><path fill="#000000" d="M 273.167969 83.683594 C 274.597656 82.257812 274.597656 79.941406 273.167969 78.511719 C 271.738281 77.085938 269.417969 77.085938 267.984375 78.511719 C 266.554688 79.9375 266.554688 82.253906 267.984375 83.683594 C 269.414062 85.113281 271.738281 85.113281 273.167969 83.683594 Z M 273.167969 83.683594 " fill-opacity="1" fill-rule="nonzero"/><path fill="#000000" d="M 236.503906 132.738281 C 236.226562 132.738281 235.949219 132.636719 235.738281 132.421875 C 235.316406 132 235.316406 131.316406 235.738281 130.894531 L 259.546875 107.140625 C 259.96875 106.71875 260.65625 106.71875 261.078125 107.140625 C 261.5 107.5625 261.5 108.246094 261.078125 108.667969 L 237.269531 132.421875 C 237.058594 132.636719 236.78125 132.738281 236.503906 132.738281 Z M 236.503906 132.738281 " fill-opacity="1" fill-rule="nonzero"/><path fill="#000000" d="M 262.773438 110.617188 C 264.203125 109.1875 264.203125 106.871094 262.773438 105.441406 C 261.34375 104.011719 259.023438 104.015625 257.589844 105.441406 C 256.15625 106.867188 256.160156 109.183594 257.589844 110.617188 C 259.019531 112.046875 261.339844 112.042969 262.773438 110.617188 Z M 262.773438 110.617188 " fill-opacity="1" fill-rule="nonzero"/><path fill="#000000" d="M 218.253906 120.046875 C 217.953125 120.046875 217.652344 119.917969 217.4375 119.679688 C 217.046875 119.226562 217.09375 118.546875 217.539062 118.15625 L 221.9375 114.316406 L 241.570312 94.722656 C 241.992188 94.300781 242.679688 94.300781 243.101562 94.722656 C 243.523438 95.144531 243.523438 95.828125 243.101562 96.25 L 223.390625 115.914062 L 218.964844 119.777344 C 218.757812 119.957031 218.507812 120.042969 218.253906 120.042969 Z M 218.253906 120.046875 " fill-opacity="1" fill-rule="nonzero"/><path fill="#000000" d="M 244.796875 98.203125 C 246.226562 96.777344 246.226562 94.460938 244.796875 93.03125 C 243.367188 91.597656 241.046875 91.601562 239.613281 93.03125 C 238.179688 94.457031 238.183594 96.773438 239.613281 98.203125 C 241.042969 99.632812 243.363281 99.628906 244.796875 98.203125 Z M 244.796875 98.203125 " fill-opacity="1" fill-rule="nonzero"/><path fill="#000000" d="M 243.160156 94.855469 C 242.5625 94.855469 242.078125 94.375 242.078125 93.773438 L 242.078125 76.25 C 242.078125 75.652344 242.5625 75.167969 243.160156 75.167969 C 243.761719 75.167969 244.246094 75.652344 244.246094 76.25 L 244.246094 93.773438 C 244.246094 94.375 243.761719 94.855469 243.160156 94.855469 Z M 243.160156 94.855469 " fill-opacity="1" fill-rule="nonzero"/><path fill="#000000" d="M 246.824219 76.433594 C 246.824219 74.414062 245.183594 72.777344 243.160156 72.777344 C 241.140625 72.777344 239.496094 74.417969 239.496094 76.433594 C 239.496094 78.453125 241.140625 80.089844 243.160156 80.089844 C 245.183594 80.089844 246.824219 78.453125 246.824219 76.433594 Z M 246.824219 76.433594 " fill-opacity="1" fill-rule="nonzero"/><path fill="#000000" d="M 271.296875 79.375 C 270.695312 79.375 270.214844 78.890625 270.214844 78.292969 L 270.214844 65.582031 C 270.214844 64.984375 270.695312 64.5 271.296875 64.5 C 271.894531 64.5 272.378906 64.984375 272.378906 65.582031 L 272.378906 78.292969 C 272.378906 78.890625 271.894531 79.375 271.296875 79.375 Z M 271.296875 79.375 " fill-opacity="1" fill-rule="nonzero"/><path fill="#000000" d="M 274.960938 65.761719 C 274.960938 63.738281 273.316406 62.105469 271.296875 62.105469 C 269.273438 62.105469 267.632812 63.742188 267.632812 65.761719 C 267.632812 67.777344 269.273438 69.417969 271.296875 69.417969 C 273.316406 69.417969 274.960938 67.777344 274.960938 65.761719 Z M 274.960938 65.761719 " fill-opacity="1" fill-rule="nonzero"/><path fill="#000000" d="M 267.671875 114.476562 C 267.394531 114.476562 267.117188 114.371094 266.90625 114.160156 L 261.375 108.640625 C 260.953125 108.21875 260.953125 107.535156 261.375 107.113281 C 261.800781 106.691406 262.484375 106.691406 262.90625 107.113281 L 268.4375 112.632812 C 268.859375 113.054688 268.859375 113.738281 268.4375 114.160156 C 268.222656 114.371094 267.949219 114.476562 267.671875 114.476562 Z M 267.671875 114.476562 " fill-opacity="1" fill-rule="nonzero"/><path fill="#000000" d="M 264.949219 115.851562 C 266.378906 117.28125 268.699219 117.28125 270.132812 115.851562 C 271.5625 114.425781 271.5625 112.109375 270.132812 110.679688 C 268.703125 109.253906 266.382812 109.253906 264.949219 110.679688 C 263.519531 112.105469 263.519531 114.421875 264.949219 115.851562 Z M 264.949219 115.851562 " fill-opacity="1" fill-rule="nonzero"/><path fill="#000000" d="M 177.886719 120.597656 C 177.285156 120.597656 176.804688 120.113281 176.804688 119.515625 L 176.804688 75.519531 C 176.804688 74.921875 177.285156 74.4375 177.886719 74.4375 C 178.484375 74.4375 178.96875 74.921875 178.96875 75.519531 L 178.96875 119.515625 C 178.96875 120.113281 178.484375 120.597656 177.886719 120.597656 Z M 177.886719 120.597656 " fill-opacity="1" fill-rule="nonzero"/><path fill="#000000" d="M 181.550781 75.707031 C 181.550781 73.6875 179.90625 72.050781 177.886719 72.050781 C 175.863281 72.050781 174.222656 73.6875 174.222656 75.707031 C 174.222656 77.722656 175.863281 79.363281 177.886719 79.363281 C 179.90625 79.363281 181.550781 77.722656 181.550781 75.707031 Z M 181.550781 75.707031 " fill-opacity="1" fill-rule="nonzero"/><path fill="#000000" d="M 167.933594 120.046875 C 167.335938 120.046875 166.851562 119.5625 166.851562 118.964844 L 166.851562 92.636719 C 166.851562 92.039062 167.335938 91.554688 167.933594 91.554688 C 168.535156 91.554688 169.015625 92.039062 169.015625 92.636719 L 169.015625 118.964844 C 169.015625 119.5625 168.535156 120.046875 167.933594 120.046875 Z M 167.933594 120.046875 " fill-opacity="1" fill-rule="nonzero"/><path fill="#000000" d="M 171.597656 92.820312 C 171.597656 90.800781 169.957031 89.164062 167.933594 89.164062 C 165.914062 89.164062 164.269531 90.804688 164.269531 92.820312 C 164.269531 94.835938 165.914062 96.476562 167.933594 96.476562 C 169.957031 96.476562 171.597656 94.835938 171.597656 92.820312 Z M 171.597656 92.820312 " fill-opacity="1" fill-rule="nonzero"/><path fill="#000000" d="M 186.179688 119.496094 C 185.582031 119.496094 185.097656 119.011719 185.097656 118.414062 L 185.097656 68.742188 L 199.109375 54.761719 C 199.53125 54.34375 200.214844 54.34375 200.636719 54.761719 C 201.0625 55.183594 201.0625 55.871094 200.636719 56.289062 L 187.265625 69.636719 L 187.265625 118.414062 C 187.265625 119.011719 186.78125 119.496094 186.179688 119.496094 Z M 186.179688 119.496094 " fill-opacity="1" fill-rule="nonzero"/><path fill="#000000" d="M 202.335938 58.242188 C 203.765625 56.816406 203.765625 54.5 202.335938 53.070312 C 200.90625 51.644531 198.585938 51.644531 197.152344 53.070312 C 195.722656 54.496094 195.722656 56.8125 197.152344 58.242188 C 198.582031 59.667969 200.902344 59.667969 202.335938 58.242188 Z M 202.335938 58.242188 " fill-opacity="1" fill-rule="nonzero"/><path fill="#000000" d="M 177.519531 73.855469 C 177.238281 73.855469 176.960938 73.75 176.753906 73.539062 L 165.824219 62.632812 C 165.402344 62.210938 165.402344 61.527344 165.824219 61.105469 C 166.25 60.683594 166.933594 60.683594 167.355469 61.105469 L 178.285156 72.011719 C 178.707031 72.433594 178.707031 73.117188 178.285156 73.539062 C 178.070312 73.75 177.796875 73.855469 177.519531 73.855469 Z M 177.519531 73.855469 " fill-opacity="1" fill-rule="nonzero"/><path fill="#000000" d="M 169.3125 59.414062 C 167.882812 57.988281 165.5625 57.988281 164.128906 59.414062 C 162.699219 60.839844 162.699219 63.15625 164.128906 64.585938 C 165.558594 66.011719 167.878906 66.011719 169.3125 64.585938 C 170.742188 63.160156 170.742188 60.84375 169.3125 59.414062 Z M 169.3125 59.414062 " fill-opacity="1" fill-rule="nonzero"/><path fill="#000000" d="M 166.660156 92.050781 C 166.382812 92.050781 166.105469 91.945312 165.894531 91.734375 L 158.765625 84.617188 C 158.34375 84.195312 158.34375 83.511719 158.765625 83.089844 C 159.1875 82.667969 159.875 82.667969 160.296875 83.089844 L 167.425781 90.207031 C 167.847656 90.625 167.847656 91.3125 167.425781 91.734375 C 167.210938 91.945312 166.9375 92.050781 166.660156 92.050781 Z M 166.660156 92.050781 " fill-opacity="1" fill-rule="nonzero"/><path fill="#000000" d="M 162.25 81.398438 C 160.820312 79.972656 158.5 79.972656 157.066406 81.398438 C 155.636719 82.824219 155.636719 85.140625 157.066406 86.570312 C 158.496094 87.996094 160.816406 87.996094 162.25 86.570312 C 163.679688 85.144531 163.679688 82.828125 162.25 81.398438 Z M 162.25 81.398438 " fill-opacity="1" fill-rule="nonzero"/><path fill="#000000" d="M 97.703125 196.75 L 52.511719 196.75 C 51.914062 196.75 51.429688 196.269531 51.429688 195.671875 C 51.429688 195.070312 51.914062 194.589844 52.511719 194.589844 L 97.707031 194.589844 C 98.304688 194.589844 98.789062 195.070312 98.789062 195.671875 C 98.789062 196.269531 98.304688 196.75 97.707031 196.75 Z M 97.703125 196.75 " fill-opacity="1" fill-rule="nonzero"/><path fill="#000000" d="M 52.691406 192.015625 C 50.667969 192.015625 49.027344 193.652344 49.027344 195.671875 C 49.027344 197.6875 50.671875 199.328125 52.691406 199.328125 C 54.714844 199.328125 56.355469 197.6875 56.355469 195.671875 C 56.355469 193.652344 54.714844 192.015625 52.691406 192.015625 Z M 52.691406 192.015625 " fill-opacity="1" fill-rule="nonzero"/><path fill="#000000" d="M 102.679688 206.128906 L 62.601562 206.128906 C 62 206.128906 61.519531 205.648438 61.519531 205.050781 C 61.519531 204.453125 62 203.96875 62.601562 203.96875 L 102.679688 203.96875 C 103.28125 203.96875 103.761719 204.453125 103.761719 205.050781 C 103.761719 205.648438 103.28125 206.128906 102.679688 206.128906 Z M 102.679688 206.128906 " fill-opacity="1" fill-rule="nonzero"/><path fill="#000000" d="M 62.785156 201.394531 C 60.761719 201.394531 59.121094 203.03125 59.121094 205.050781 C 59.121094 207.066406 60.765625 208.707031 62.785156 208.707031 C 64.804688 208.707031 66.449219 207.066406 66.449219 205.050781 C 66.449219 203.03125 64.804688 201.394531 62.785156 201.394531 Z M 62.785156 201.394531 " fill-opacity="1" fill-rule="nonzero"/><path fill="#000000" d="M 103.234375 187.921875 L 60.238281 187.921875 C 59.636719 187.921875 59.152344 187.4375 59.152344 186.839844 C 59.152344 186.242188 59.636719 185.761719 60.238281 185.761719 L 103.234375 185.761719 C 103.835938 185.761719 104.320312 186.242188 104.320312 186.839844 C 104.320312 187.4375 103.835938 187.921875 103.234375 187.921875 Z M 103.234375 187.921875 " fill-opacity="1" fill-rule="nonzero"/><path fill="#000000" d="M 60.417969 183.183594 C 58.390625 183.183594 56.753906 184.824219 56.753906 186.839844 C 56.753906 188.859375 58.394531 190.496094 60.417969 190.496094 C 62.4375 190.496094 64.082031 188.859375 64.082031 186.839844 C 64.082031 184.824219 62.4375 183.183594 60.417969 183.183594 Z M 60.417969 183.183594 " fill-opacity="1" fill-rule="nonzero"/><path fill="#000000" d="M 103.054688 279.152344 C 102.777344 279.152344 102.5 279.046875 102.289062 278.832031 C 101.867188 278.414062 101.867188 277.726562 102.289062 277.304688 L 130.117188 249.539062 C 130.539062 249.117188 131.226562 249.117188 131.648438 249.539062 C 132.070312 249.957031 132.070312 250.644531 131.648438 251.066406 L 103.820312 278.832031 C 103.609375 279.046875 103.332031 279.152344 103.054688 279.152344 Z M 103.054688 279.152344 " fill-opacity="1" fill-rule="nonzero"/><path fill="#000000" d="M 100.59375 275.359375 C 99.164062 276.785156 99.164062 279.101562 100.59375 280.53125 C 102.023438 281.957031 104.34375 281.957031 105.777344 280.53125 C 107.210938 279.105469 107.207031 276.789062 105.777344 275.359375 C 104.347656 273.929688 102.027344 273.929688 100.59375 275.359375 Z M 100.59375 275.359375 " fill-opacity="1" fill-rule="nonzero"/><path fill="#000000" d="M 102.652344 292.246094 C 102.375 292.246094 102.09375 292.140625 101.886719 291.925781 C 101.464844 291.507812 101.464844 290.820312 101.886719 290.398438 L 133.988281 258.367188 C 134.410156 257.945312 135.097656 257.945312 135.519531 258.367188 C 135.941406 258.789062 135.941406 259.472656 135.519531 259.894531 L 103.417969 291.925781 C 103.203125 292.140625 102.929688 292.246094 102.652344 292.246094 Z M 102.652344 292.246094 " fill-opacity="1" fill-rule="nonzero"/><path fill="#000000" d="M 100.191406 288.449219 C 98.765625 289.875 98.765625 292.191406 100.191406 293.621094 C 101.621094 295.050781 103.945312 295.046875 105.375 293.621094 C 106.808594 292.195312 106.804688 289.878906 105.375 288.449219 C 103.949219 287.019531 101.625 287.019531 100.191406 288.449219 Z M 100.191406 288.449219 " fill-opacity="1" fill-rule="nonzero"/><path fill="#000000" d="M 124.753906 281.777344 C 124.476562 281.777344 124.199219 281.671875 123.988281 281.460938 C 123.566406 281.039062 123.566406 280.355469 123.988281 279.933594 L 138.414062 265.539062 C 138.835938 265.117188 139.523438 265.117188 139.945312 265.539062 C 140.367188 265.960938 140.367188 266.644531 139.945312 267.066406 L 125.519531 281.460938 C 125.304688 281.671875 125.03125 281.777344 124.753906 281.777344 Z M 124.753906 281.777344 " fill-opacity="1" fill-rule="nonzero"/><path fill="#000000" d="M 122.292969 277.984375 C 120.863281 279.410156 120.863281 281.726562 122.292969 283.15625 C 123.722656 284.582031 126.042969 284.582031 127.476562 283.15625 C 128.910156 281.730469 128.90625 279.414062 127.476562 277.984375 C 126.046875 276.558594 123.726562 276.558594 122.292969 277.984375 Z M 122.292969 277.984375 " fill-opacity="1" fill-rule="nonzero"/><path fill="#000000" d="M 201.113281 306.195312 C 200.511719 306.195312 200.027344 305.714844 200.027344 305.113281 L 200.027344 272.925781 C 200.027344 272.328125 200.511719 271.84375 201.113281 271.84375 C 201.710938 271.84375 202.195312 272.328125 202.195312 272.925781 L 202.195312 305.113281 C 202.195312 305.714844 201.710938 306.195312 201.113281 306.195312 Z M 201.113281 306.195312 " fill-opacity="1" fill-rule="nonzero"/><path fill="#000000" d="M 197.449219 304.929688 C 197.449219 306.953125 199.089844 308.585938 201.113281 308.585938 C 203.132812 308.585938 204.773438 306.949219 204.773438 304.929688 C 204.773438 302.914062 203.132812 301.273438 201.113281 301.273438 C 199.089844 301.273438 197.449219 302.914062 197.449219 304.929688 Z M 197.449219 304.929688 " fill-opacity="1" fill-rule="nonzero"/><path fill="#000000" d="M 206.640625 297.570312 C 206.042969 297.570312 205.558594 297.089844 205.558594 296.492188 L 205.558594 272.925781 C 205.558594 272.328125 206.042969 271.84375 206.640625 271.84375 C 207.242188 271.84375 207.722656 272.328125 207.722656 272.925781 L 207.722656 296.492188 C 207.722656 297.089844 207.242188 297.570312 206.640625 297.570312 Z M 206.640625 297.570312 " fill-opacity="1" fill-rule="nonzero"/><path fill="#000000" d="M 208.566406 293.210938 C 208.980469 293.46875 209.332031 293.792969 209.613281 294.183594 C 209.898438 294.578125 210.097656 295.011719 210.207031 295.484375 C 210.320312 295.953125 210.335938 296.429688 210.257812 296.910156 C 210.179688 297.386719 210.015625 297.832031 209.757812 298.246094 C 209.503906 298.65625 209.179688 299.003906 208.785156 299.289062 C 208.390625 299.570312 207.957031 299.769531 207.484375 299.882812 C 207.011719 299.992188 206.535156 300.007812 206.054688 299.929688 C 205.574219 299.855469 205.128906 299.6875 204.714844 299.433594 C 204.300781 299.179688 203.953125 298.855469 203.667969 298.460938 C 203.386719 298.066406 203.1875 297.632812 203.074219 297.164062 C 202.964844 296.691406 202.949219 296.214844 203.023438 295.738281 C 203.101562 295.257812 203.269531 294.8125 203.523438 294.398438 C 203.78125 293.988281 204.105469 293.640625 204.5 293.355469 C 204.894531 293.074219 205.328125 292.875 205.800781 292.765625 C 206.273438 292.652344 206.75 292.636719 207.230469 292.714844 C 207.707031 292.792969 208.15625 292.957031 208.566406 293.210938 Z M 208.566406 293.210938 " fill-opacity="1" fill-rule="nonzero"/><path fill="#000000" d="M 213.277344 319.546875 C 212.675781 319.546875 212.195312 319.0625 212.195312 318.464844 L 212.195312 272.371094 C 212.195312 271.773438 212.675781 271.289062 213.277344 271.289062 C 213.875 271.289062 214.359375 271.773438 214.359375 272.371094 L 214.359375 318.464844 C 214.359375 319.0625 213.875 319.546875 213.277344 319.546875 Z M 213.277344 319.546875 " fill-opacity="1" fill-rule="nonzero"/><path fill="#000000" d="M 216.664062 316.882812 C 216.851562 317.332031 216.945312 317.796875 216.945312 318.28125 C 216.945312 318.765625 216.851562 319.234375 216.664062 319.679688 C 216.480469 320.128906 216.214844 320.523438 215.871094 320.867188 C 215.527344 321.210938 215.128906 321.472656 214.683594 321.660156 C 214.234375 321.84375 213.765625 321.9375 213.28125 321.9375 C 212.792969 321.9375 212.328125 321.84375 211.878906 321.660156 C 211.429688 321.472656 211.03125 321.210938 210.6875 320.867188 C 210.34375 320.523438 210.082031 320.128906 209.894531 319.679688 C 209.707031 319.234375 209.617188 318.765625 209.617188 318.28125 C 209.617188 317.796875 209.707031 317.332031 209.894531 316.882812 C 210.082031 316.433594 210.34375 316.039062 210.6875 315.695312 C 211.03125 315.355469 211.429688 315.089844 211.878906 314.902344 C 212.328125 314.71875 212.792969 314.625 213.28125 314.625 C 213.765625 314.625 214.234375 314.71875 214.683594 314.902344 C 215.128906 315.089844 215.527344 315.355469 215.871094 315.695312 C 216.214844 316.039062 216.480469 316.433594 216.664062 316.882812 Z M 216.664062 316.882812 " fill-opacity="1" fill-rule="nonzero"/><path fill="#000000" d="M 282.9375 289.988281 C 282.660156 289.988281 282.382812 289.886719 282.171875 289.671875 L 242.375 249.957031 C 241.953125 249.539062 241.953125 248.851562 242.375 248.429688 C 242.796875 248.011719 243.484375 248.011719 243.90625 248.429688 L 283.703125 288.144531 C 284.125 288.566406 284.125 289.25 283.703125 289.671875 C 283.488281 289.886719 283.214844 289.988281 282.9375 289.988281 Z M 282.9375 289.988281 " fill-opacity="1" fill-rule="nonzero"/><path fill="#000000" d="M 280.214844 291.367188 C 281.644531 292.792969 283.964844 292.792969 285.398438 291.367188 C 286.832031 289.9375 286.828125 287.621094 285.398438 286.191406 C 283.96875 284.761719 281.648438 284.765625 280.214844 286.191406 C 278.78125 287.621094 278.785156 289.9375 280.214844 291.367188 Z M 280.214844 291.367188 " fill-opacity="1" fill-rule="nonzero"/><path fill="#000000" d="M 280.558594 279.894531 C 280.28125 279.894531 280.003906 279.789062 279.792969 279.574219 L 245.691406 245.546875 C 245.269531 245.125 245.269531 244.441406 245.691406 244.019531 C 246.113281 243.597656 246.800781 243.597656 247.222656 244.019531 L 281.324219 278.046875 C 281.746094 278.46875 281.746094 279.152344 281.324219 279.574219 C 281.109375 279.789062 280.835938 279.894531 280.558594 279.894531 Z M 280.558594 279.894531 " fill-opacity="1" fill-rule="nonzero"/><path fill="#000000" d="M 277.839844 281.269531 C 279.269531 282.695312 281.589844 282.695312 283.023438 281.269531 C 284.457031 279.84375 284.453125 277.527344 283.023438 276.097656 C 281.59375 274.664062 279.273438 274.667969 277.839844 276.097656 C 276.40625 277.523438 276.410156 279.839844 277.839844 281.269531 Z M 277.839844 281.269531 " fill-opacity="1" fill-rule="nonzero"/><path fill="#000000" d="M 273.949219 261.15625 C 273.671875 261.15625 273.394531 261.054688 273.183594 260.839844 L 249.007812 236.71875 C 248.585938 236.296875 248.585938 235.609375 249.007812 235.191406 C 249.433594 234.769531 250.117188 234.769531 250.539062 235.191406 L 274.714844 259.3125 C 275.136719 259.734375 275.136719 260.417969 274.714844 260.839844 C 274.5 261.054688 274.226562 261.15625 273.949219 261.15625 Z M 273.949219 261.15625 " fill-opacity="1" fill-rule="nonzero"/><path fill="#000000" d="M 271.226562 262.535156 C 272.65625 263.960938 274.976562 263.960938 276.410156 262.535156 C 277.84375 261.105469 277.839844 258.792969 276.410156 257.359375 C 274.980469 255.929688 272.660156 255.933594 271.226562 257.359375 C 269.792969 258.789062 269.796875 261.105469 271.226562 262.535156 Z M 271.226562 262.535156 " fill-opacity="1" fill-rule="nonzero"/><path fill="#000000" d="M 118.71875 158.125 C 118.441406 158.125 118.164062 158.019531 117.953125 157.808594 L 81.699219 121.628906 C 81.277344 121.210938 81.277344 120.523438 81.699219 120.105469 C 82.121094 119.683594 82.808594 119.683594 83.230469 120.105469 L 119.484375 156.28125 C 119.90625 156.703125 119.90625 157.386719 119.484375 157.808594 C 119.269531 158.019531 118.996094 158.125 118.71875 158.125 Z M 118.71875 158.125 " fill-opacity="1" fill-rule="nonzero"/><path fill="#000000" d="M 85.1875 118.410156 C 83.757812 116.984375 81.4375 116.984375 80.003906 118.410156 C 78.574219 119.835938 78.574219 122.152344 80.003906 123.582031 C 81.433594 125.007812 83.753906 125.007812 85.1875 123.582031 C 86.617188 122.15625 86.617188 119.839844 85.1875 118.410156 Z M 85.1875 118.410156 " fill-opacity="1" fill-rule="nonzero"/><path fill="#000000" d="M 123.140625 153.15625 C 122.863281 153.15625 122.585938 153.050781 122.375 152.839844 L 87.214844 117.753906 C 86.792969 117.332031 86.792969 116.648438 87.214844 116.226562 C 87.636719 115.804688 88.324219 115.804688 88.746094 116.226562 L 123.90625 151.3125 C 124.328125 151.734375 124.328125 152.417969 123.90625 152.839844 C 123.691406 153.050781 123.417969 153.15625 123.140625 153.15625 Z M 123.140625 153.15625 " fill-opacity="1" fill-rule="nonzero"/><path fill="#000000" d="M 90.703125 114.535156 C 89.273438 113.109375 86.953125 113.109375 85.519531 114.535156 C 84.089844 115.960938 84.089844 118.277344 85.519531 119.707031 C 86.949219 121.132812 89.269531 121.132812 90.703125 119.707031 C 92.132812 118.28125 92.132812 115.964844 90.703125 114.535156 Z M 90.703125 114.535156 " fill-opacity="1" fill-rule="nonzero"/><path fill="#000000" d="M 127.566406 148.742188 C 127.289062 148.742188 127.011719 148.636719 126.800781 148.425781 L 103.609375 125.28125 C 103.1875 124.859375 103.1875 124.175781 103.609375 123.753906 C 104.03125 123.332031 104.714844 123.332031 105.136719 123.753906 L 128.332031 146.898438 C 128.753906 147.316406 128.753906 148.003906 128.332031 148.425781 C 128.117188 148.636719 127.84375 148.742188 127.566406 148.742188 Z M 127.566406 148.742188 " fill-opacity="1" fill-rule="nonzero"/><path fill="#000000" d="M 107.09375 122.0625 C 105.664062 120.636719 103.34375 120.636719 101.910156 122.0625 C 100.476562 123.488281 100.480469 125.804688 101.910156 127.234375 C 103.339844 128.664062 105.660156 128.664062 107.09375 127.234375 C 108.527344 125.808594 108.523438 123.492188 107.09375 122.0625 Z M 107.09375 122.0625 " fill-opacity="1" fill-rule="nonzero"/><path fill="#000000" d="M 103.558594 123.726562 C 103.394531 123.726562 103.230469 123.691406 103.074219 123.613281 C 102.539062 123.34375 102.324219 122.695312 102.589844 122.164062 L 108.039062 111.292969 C 108.304688 110.757812 108.953125 110.542969 109.488281 110.808594 C 110.023438 111.078125 110.238281 111.726562 109.972656 112.257812 L 104.523438 123.128906 C 104.332031 123.507812 103.953125 123.726562 103.554688 123.726562 Z M 103.558594 123.726562 " fill-opacity="1" fill-rule="nonzero"/><path fill="#000000" d="M 112.199219 113.574219 C 113.105469 111.769531 112.367188 109.570312 110.558594 108.667969 C 108.75 107.761719 106.550781 108.496094 105.644531 110.300781 C 104.738281 112.105469 105.472656 114.304688 107.28125 115.207031 C 109.089844 116.113281 111.292969 115.378906 112.199219 113.574219 Z M 112.199219 113.574219 " fill-opacity="1" fill-rule="nonzero"/><path fill="#000000" d="M 87.351562 115.65625 C 87.191406 115.65625 87.027344 115.617188 86.875 115.546875 C 86.339844 115.285156 86.113281 114.640625 86.378906 114.101562 L 92.226562 102.140625 C 92.488281 101.601562 93.136719 101.378906 93.675781 101.640625 C 94.210938 101.90625 94.4375 102.550781 94.171875 103.085938 L 88.324219 115.050781 C 88.136719 115.433594 87.75 115.660156 87.351562 115.660156 Z M 87.351562 115.65625 " fill-opacity="1" fill-rule="nonzero"/><path fill="#000000" d="M 96.410156 104.378906 C 97.296875 102.566406 96.542969 100.375 94.722656 99.492188 C 92.90625 98.605469 90.710938 99.359375 89.824219 101.175781 C 88.9375 102.988281 89.691406 105.179688 91.511719 106.0625 C 93.332031 106.945312 95.527344 106.195312 96.410156 104.378906 Z M 96.410156 104.378906 " fill-opacity="1" fill-rule="nonzero"/><path fill="#000000" d="M 79.265625 121.871094 C 79.222656 121.871094 79.179688 121.871094 79.140625 121.863281 L 63.058594 120.050781 C 62.464844 119.980469 62.039062 119.449219 62.105469 118.855469 C 62.175781 118.257812 62.710938 117.835938 63.304688 117.902344 L 79.386719 119.71875 C 79.980469 119.785156 80.40625 120.320312 80.339844 120.914062 C 80.277344 121.464844 79.808594 121.871094 79.265625 121.871094 Z M 79.265625 121.871094 " fill-opacity="1" fill-rule="nonzero"/><path fill="#000000" d="M 63.777344 115.359375 C 61.765625 115.132812 59.953125 116.574219 59.722656 118.582031 C 59.496094 120.589844 60.941406 122.402344 62.953125 122.628906 C 64.964844 122.855469 66.78125 121.414062 67.007812 119.40625 C 67.234375 117.394531 65.792969 115.585938 63.78125 115.359375 Z M 63.777344 115.359375 " fill-opacity="1" fill-rule="nonzero"/><path fill="#000000" d="M 58.585938 188.105469 C 58.300781 188.105469 58.011719 187.992188 57.800781 187.765625 C 57.386719 187.335938 57.40625 186.648438 57.839844 186.238281 L 69.691406 175.019531 C 70.125 174.609375 70.808594 174.625 71.222656 175.058594 C 71.632812 175.492188 71.613281 176.175781 71.179688 176.585938 L 59.332031 187.804688 C 59.121094 188.003906 58.855469 188.101562 58.585938 188.101562 Z M 58.585938 188.105469 " fill-opacity="1" fill-rule="nonzero"/><path fill="#000000" d="M 72.832031 178.582031 C 74.300781 177.191406 74.363281 174.878906 72.96875 173.414062 C 71.574219 171.945312 69.257812 171.886719 67.789062 173.273438 C 66.320312 174.664062 66.257812 176.976562 67.652344 178.445312 C 69.042969 179.910156 71.363281 179.972656 72.832031 178.582031 Z M 72.832031 178.582031 " fill-opacity="1" fill-rule="nonzero"/><path fill="#000000" d="M 38.683594 204.65625 C 38.320312 204.65625 37.96875 204.476562 37.761719 204.148438 C 37.445312 203.640625 37.601562 202.976562 38.105469 202.660156 L 49.898438 195.304688 C 50.402344 194.988281 51.074219 195.144531 51.390625 195.648438 C 51.703125 196.152344 51.550781 196.824219 51.046875 197.136719 L 39.253906 204.492188 C 39.078125 204.605469 38.878906 204.65625 38.679688 204.65625 Z M 38.683594 204.65625 " fill-opacity="1" fill-rule="nonzero"/><path fill="#000000" d="M 36.894531 200.378906 C 35.179688 201.449219 34.65625 203.703125 35.730469 205.417969 C 36.800781 207.132812 39.0625 207.652344 40.78125 206.582031 C 42.496094 205.511719 43.019531 203.257812 41.945312 201.542969 C 40.875 199.828125 38.613281 199.308594 36.894531 200.378906 Z M 36.894531 200.378906 " fill-opacity="1" fill-rule="nonzero"/><path fill="#000000" d="M 71.496094 215.230469 C 71.234375 215.230469 70.972656 215.136719 70.765625 214.945312 L 60.429688 205.519531 C 59.992188 205.113281 59.957031 204.429688 60.363281 203.992188 C 60.765625 203.550781 61.453125 203.519531 61.894531 203.921875 L 72.226562 213.351562 C 72.667969 213.753906 72.703125 214.4375 72.296875 214.878906 C 72.082031 215.109375 71.792969 215.230469 71.5 215.230469 Z M 71.496094 215.230469 " fill-opacity="1" fill-rule="nonzero"/><path fill="#000000" d="M 68.886719 216.726562 C 70.378906 218.085938 72.699219 217.984375 74.0625 216.496094 C 75.425781 215.003906 75.320312 212.691406 73.832031 211.328125 C 72.335938 209.96875 70.019531 210.070312 68.65625 211.558594 C 67.289062 213.046875 67.394531 215.363281 68.886719 216.726562 Z M 68.886719 216.726562 " fill-opacity="1" fill-rule="nonzero"/><path fill="#000000" d="M 102.421875 279.738281 C 101.925781 279.738281 101.476562 279.394531 101.367188 278.894531 L 98.8125 267.570312 C 98.683594 266.984375 99.050781 266.410156 99.632812 266.28125 C 100.21875 266.152344 100.796875 266.515625 100.929688 267.097656 L 103.480469 278.421875 C 103.613281 279.007812 103.246094 279.582031 102.664062 279.710938 C 102.582031 279.730469 102.503906 279.738281 102.425781 279.738281 Z M 102.421875 279.738281 " fill-opacity="1" fill-rule="nonzero"/><path fill="#000000" d="M 103.480469 266.707031 C 103.039062 264.738281 101.078125 263.5 99.101562 263.941406 C 97.128906 264.386719 95.886719 266.339844 96.332031 268.3125 C 96.773438 270.28125 98.734375 271.519531 100.710938 271.078125 C 102.683594 270.636719 103.925781 268.679688 103.480469 266.707031 Z M 103.480469 266.707031 " fill-opacity="1" fill-rule="nonzero"/><path fill="#000000" d="M 110.21875 297.769531 C 110.078125 297.769531 109.933594 297.742188 109.792969 297.683594 L 101.378906 294.085938 C 100.828125 293.851562 100.570312 293.214844 100.808594 292.667969 C 101.042969 292.117188 101.675781 291.863281 102.230469 292.097656 L 110.644531 295.695312 C 111.191406 295.929688 111.449219 296.566406 111.214844 297.113281 C 111.035156 297.527344 110.640625 297.769531 110.21875 297.769531 Z M 110.21875 297.769531 " fill-opacity="1" fill-rule="nonzero"/><path fill="#000000" d="M 108.609375 299.980469 C 110.464844 300.773438 112.621094 299.914062 113.417969 298.058594 C 114.21875 296.203125 113.355469 294.054688 111.496094 293.257812 C 109.636719 292.460938 107.480469 293.320312 106.683594 295.175781 C 105.886719 297.03125 106.75 299.183594 108.609375 299.980469 Z M 108.609375 299.980469 " fill-opacity="1" fill-rule="nonzero"/><path fill="#000000" d="M 134.566406 292.3125 C 134.289062 292.3125 134.007812 292.207031 133.800781 291.996094 L 122.988281 281.207031 C 122.566406 280.785156 122.566406 280.101562 122.988281 279.679688 C 123.410156 279.257812 124.097656 279.257812 124.519531 279.679688 L 135.332031 290.46875 C 135.753906 290.890625 135.753906 291.574219 135.332031 291.996094 C 135.117188 292.207031 134.84375 292.3125 134.566406 292.3125 Z M 134.566406 292.3125 " fill-opacity="1" fill-rule="nonzero"/><path fill="#000000" d="M 131.84375 293.6875 C 133.273438 295.117188 135.59375 295.117188 137.027344 293.6875 C 138.460938 292.261719 138.457031 289.945312 137.027344 288.515625 C 135.597656 287.085938 133.277344 287.089844 131.84375 288.515625 C 130.410156 289.941406 130.414062 292.257812 131.84375 293.6875 Z M 131.84375 293.6875 " fill-opacity="1" fill-rule="nonzero"/><path fill="#000000" d="M 188.191406 306.832031 C 187.609375 306.832031 187.128906 306.375 187.109375 305.792969 C 187.085938 305.195312 187.558594 304.695312 188.152344 304.675781 L 200.433594 304.246094 C 201.046875 304.226562 201.535156 304.695312 201.550781 305.289062 C 201.574219 305.886719 201.105469 306.386719 200.507812 306.40625 L 188.226562 306.832031 C 188.226562 306.832031 188.203125 306.832031 188.1875 306.832031 Z M 188.191406 306.832031 " fill-opacity="1" fill-rule="nonzero"/><path fill="#000000" d="M 188.25 302.089844 C 186.226562 302.160156 184.644531 303.855469 184.714844 305.871094 C 184.789062 307.890625 186.484375 309.46875 188.507812 309.398438 C 190.527344 309.324219 192.113281 307.632812 192.039062 305.617188 C 191.96875 303.597656 190.269531 302.015625 188.25 302.089844 Z M 188.25 302.089844 " fill-opacity="1" fill-rule="nonzero"/><path fill="#000000" d="M 213.554688 321.785156 C 213.207031 321.785156 212.867188 321.621094 212.660156 321.3125 C 212.324219 320.820312 212.449219 320.148438 212.945312 319.8125 L 223.890625 312.382812 C 224.382812 312.050781 225.058594 312.175781 225.394531 312.667969 C 225.730469 313.164062 225.605469 313.835938 225.109375 314.171875 L 214.164062 321.597656 C 213.976562 321.726562 213.765625 321.785156 213.558594 321.785156 Z M 213.554688 321.785156 " fill-opacity="1" fill-rule="nonzero"/><path fill="#000000" d="M 226.410156 316.40625 C 228.082031 315.269531 228.515625 312.992188 227.378906 311.324219 C 226.242188 309.652344 223.960938 309.222656 222.289062 310.355469 C 220.613281 311.492188 220.183594 313.769531 221.320312 315.433594 C 222.457031 317.105469 224.738281 317.539062 226.410156 316.40625 Z M 226.410156 316.40625 " fill-opacity="1" fill-rule="nonzero"/><path fill="#000000" d="M 276.59375 260.46875 C 276.25 260.46875 275.914062 260.308594 275.703125 260 C 275.363281 259.507812 275.492188 258.839844 275.980469 258.5 L 286.386719 251.363281 C 286.875 251.023438 287.550781 251.152344 287.890625 251.640625 C 288.230469 252.132812 288.101562 252.804688 287.613281 253.144531 L 277.207031 260.277344 C 277.019531 260.410156 276.808594 260.46875 276.59375 260.46875 Z M 276.59375 260.46875 " fill-opacity="1" fill-rule="nonzero"/><path fill="#000000" d="M 288.921875 255.367188 C 290.589844 254.222656 291.011719 251.945312 289.863281 250.28125 C 288.71875 248.617188 286.433594 248.195312 284.769531 249.34375 C 283.101562 250.488281 282.679688 252.765625 283.824219 254.429688 C 284.972656 256.09375 287.253906 256.515625 288.921875 255.367188 Z M 288.921875 255.367188 " fill-opacity="1" fill-rule="nonzero"/><path fill="#000000" d="M 283.207031 279.0625 C 282.960938 279.0625 282.707031 278.976562 282.503906 278.804688 C 282.050781 278.414062 282 277.734375 282.386719 277.28125 L 290.074219 268.328125 C 290.464844 267.875 291.144531 267.824219 291.601562 268.210938 C 292.054688 268.601562 292.105469 269.28125 291.71875 269.734375 L 284.03125 278.6875 C 283.820312 278.933594 283.515625 279.0625 283.207031 279.0625 Z M 283.207031 279.0625 " fill-opacity="1" fill-rule="nonzero"/><path fill="#000000" d="M 293.558594 271.550781 C 294.875 270.015625 294.699219 267.707031 293.160156 266.394531 C 291.621094 265.082031 289.308594 265.257812 287.996094 266.792969 C 286.675781 268.324219 286.859375 270.636719 288.390625 271.945312 C 289.929688 273.261719 292.242188 273.085938 293.558594 271.550781 Z M 293.558594 271.550781 " fill-opacity="1" fill-rule="nonzero"/><path fill="#000000" d="M 275.46875 299.46875 C 275.175781 299.46875 274.886719 299.355469 274.675781 299.125 C 274.265625 298.6875 274.292969 298.003906 274.734375 297.597656 L 283.792969 289.199219 C 284.230469 288.792969 284.914062 288.820312 285.324219 289.257812 C 285.730469 289.695312 285.707031 290.378906 285.265625 290.785156 L 276.207031 299.183594 C 275.996094 299.375 275.734375 299.46875 275.46875 299.46875 Z M 275.46875 299.46875 " fill-opacity="1" fill-rule="nonzero"/><path fill="#000000" d="M 273.109375 295.585938 C 271.625 296.960938 271.539062 299.277344 272.917969 300.757812 C 274.296875 302.238281 276.613281 302.324219 278.097656 300.949219 C 279.582031 299.574219 279.667969 297.257812 278.289062 295.777344 C 276.914062 294.296875 274.59375 294.210938 273.109375 295.585938 Z M 273.109375 295.585938 " fill-opacity="1" fill-rule="nonzero"/><g clip-path="url(#a58e6d13a7)"><path fill="#000000" d="M 233.445312 142.152344 C 235.679688 143.171875 236.667969 145.8125 235.652344 148.054688 C 233.832031 152.070312 230.746094 155.472656 227.335938 158.210938 C 232.058594 166.082031 233.144531 176.257812 230.863281 186.917969 L 234.828125 192.898438 C 237.1875 196.457031 235.621094 201.292969 231.625 202.78125 L 223.421875 205.835938 C 220.546875 210.796875 216.96875 215.632812 212.71875 220.148438 C 212.71875 222.871094 212.679688 225.816406 212.617188 228.484375 C 212.511719 232.761719 208.460938 235.820312 204.339844 234.738281 L 197.199219 232.863281 C 190.621094 236.921875 183.746094 239.714844 177.054688 241.222656 L 173.4375 246.667969 C 171.074219 250.222656 166.019531 250.636719 163.113281 247.511719 L 157.8125 241.816406 C 153.574219 240.996094 149.683594 239.484375 146.332031 237.265625 L 138.652344 236.769531 C 134.398438 236.496094 131.511719 232.3125 132.757812 228.222656 L 134.914062 221.128906 C 134.921875 221.101562 134.929688 221.074219 134.9375 221.046875 C 133.367188 215.371094 133.136719 208.929688 134.222656 202.222656 C 132.730469 200.035156 131.003906 197.546875 129.53125 195.320312 C 127.167969 191.761719 128.738281 186.925781 132.730469 185.4375 L 140.976562 182.371094 C 141.019531 182.355469 141.066406 182.339844 141.113281 182.324219 C 145.5 174.136719 151.460938 166.847656 158.460938 160.773438 L 158.597656 155.003906 C 158.699219 150.730469 162.75 147.671875 166.871094 148.753906 L 173.566406 150.511719 C 191.28125 141.441406 210.078125 141.308594 221.628906 151.378906 C 224.011719 149.496094 226.300781 147.164062 227.566406 144.367188 C 228.582031 142.125 231.214844 141.136719 233.445312 142.152344 Z M 165.664062 176.0625 C 179.527344 162.15625 196.914062 156.351562 207.484375 161.285156 L 151.105469 218.375 C 145.882812 207.808594 151.644531 190.128906 165.664062 176.0625 Z M 200.089844 210.597656 C 185.757812 224.976562 167.660156 230.695312 157.222656 224.839844 L 214.089844 167.257812 C 220.242188 177.671875 214.574219 196.066406 200.089844 210.597656 Z M 200.089844 210.597656 " fill-opacity="1" fill-rule="evenodd"/></g></svg>