<svg xmlns="http://www.w3.org/2000/svg" xmlns:xlink="http://www.w3.org/1999/xlink" width="500" zoomAndPan="magnify" viewBox="0 0 375 374.999991" height="500" preserveAspectRatio="xMidYMid meet" version="1.0"><defs><clipPath id="b66c054cbb"><path d="M 127 9.621094 L 203 9.621094 L 203 85 L 127 85 Z M 127 9.621094 " clip-rule="nonzero"/></clipPath><clipPath id="965734c89f"><path d="M 221 366 L 226.65625 366 L 226.65625 371.871094 L 221 371.871094 Z M 221 366 " clip-rule="nonzero"/></clipPath><clipPath id="e962ae9187"><path d="M 111.15625 244 L 117 244 L 117 250 L 111.15625 250 Z M 111.15625 244 " clip-rule="nonzero"/></clipPath><clipPath id="50faf8aa9e"><path d="M 141.089844 25.675781 L 187.589844 25.675781 L 187.589844 71.425781 L 141.089844 71.425781 Z M 141.089844 25.675781 " clip-rule="nonzero"/></clipPath></defs><rect x="-37.5" width="450" fill="#ffffff" y="-37.499999" height="449.999989" fill-opacity="1"/><rect x="-37.5" width="450" fill="#ffffff" y="-37.499999" height="449.999989" fill-opacity="1"/><g clip-path="url(#b66c054cbb)"><path fill="#000000" d="M 127.511719 47.269531 C 127.511719 26.632812 144.300781 9.84375 164.933594 9.84375 C 185.570312 9.84375 202.359375 26.632812 202.359375 47.269531 C 202.359375 67.90625 185.570312 84.699219 164.933594 84.699219 C 144.300781 84.699219 127.511719 67.90625 127.511719 47.269531 Z M 198.339844 47.269531 C 198.339844 28.851562 183.355469 13.863281 164.933594 13.863281 C 146.515625 13.863281 131.53125 28.851562 131.53125 47.269531 C 131.53125 65.691406 146.515625 80.675781 164.933594 80.675781 C 183.355469 80.675781 198.339844 65.691406 198.339844 47.269531 Z M 198.339844 47.269531 " fill-opacity="1" fill-rule="nonzero"/></g><path fill="#000000" d="M 183.019531 80.035156 L 183.019531 176.054688 L 180.609375 176.054688 L 180.609375 80.035156 Z M 183.019531 80.035156 " fill-opacity="1" fill-rule="nonzero"/><path fill="#000000" d="M 176.824219 175.8125 C 176.824219 178.566406 179.058594 180.800781 181.8125 180.800781 C 184.570312 180.800781 186.804688 178.566406 186.804688 175.8125 C 186.804688 173.054688 184.570312 170.820312 181.8125 170.820312 C 179.058594 170.820312 176.824219 173.054688 176.824219 175.8125 Z M 176.824219 175.8125 " fill-opacity="1" fill-rule="nonzero"/><path fill="#000000" d="M 158.527344 81.824219 L 158.527344 177.535156 L 156.117188 177.535156 L 156.117188 81.824219 Z M 158.527344 81.824219 " fill-opacity="1" fill-rule="nonzero"/><path fill="#000000" d="M 152.332031 177.28125 C 152.332031 180.039062 154.566406 182.273438 157.324219 182.273438 C 160.078125 182.273438 162.3125 180.039062 162.3125 177.28125 C 162.3125 174.527344 160.078125 172.292969 157.324219 172.292969 C 154.566406 172.292969 152.332031 174.527344 152.332031 177.28125 Z M 152.332031 177.28125 " fill-opacity="1" fill-rule="nonzero"/><path fill="#000000" d="M 167.792969 81.96875 L 167.792969 184.269531 L 165.382812 184.269531 L 165.382812 81.96875 Z M 167.792969 81.96875 " fill-opacity="1" fill-rule="nonzero"/><path fill="#000000" d="M 161.601562 184.019531 C 161.601562 186.773438 163.835938 189.011719 166.59375 189.011719 C 169.347656 189.011719 171.582031 186.773438 171.582031 184.019531 C 171.582031 181.265625 169.347656 179.027344 166.59375 179.027344 C 163.835938 179.027344 161.601562 181.265625 161.601562 184.019531 Z M 161.601562 184.019531 " fill-opacity="1" fill-rule="nonzero"/><path fill="#000000" d="M 141.980469 72.550781 L 141.980469 196.960938 L 139.566406 196.960938 L 139.566406 72.550781 Z M 141.980469 72.550781 " fill-opacity="1" fill-rule="nonzero"/><path fill="#000000" d="M 135.78125 196.710938 C 135.78125 199.46875 138.019531 201.703125 140.773438 201.703125 C 143.527344 201.703125 145.765625 199.46875 145.765625 196.710938 C 145.765625 193.957031 143.527344 191.722656 140.773438 191.722656 C 138.019531 191.722656 135.78125 193.957031 135.78125 196.710938 Z M 135.78125 196.710938 " fill-opacity="1" fill-rule="nonzero"/><path fill="#000000" d="M 191.625 69.445312 L 191.625 278.539062 L 189.214844 278.539062 L 189.214844 69.445312 Z M 191.625 69.445312 " fill-opacity="1" fill-rule="nonzero"/><path fill="#000000" d="M 185.429688 278.289062 C 185.429688 281.042969 187.664062 283.28125 190.421875 283.28125 C 193.175781 283.28125 195.410156 281.042969 195.410156 278.289062 C 195.410156 275.535156 193.175781 273.296875 190.421875 273.296875 C 187.664062 273.296875 185.429688 275.535156 185.429688 278.289062 Z M 185.429688 278.289062 " fill-opacity="1" fill-rule="nonzero"/><path fill="#000000" d="M 190.011719 280.394531 L 222.632812 313.019531 L 221.210938 314.441406 L 188.589844 281.816406 Z M 190.011719 280.394531 " fill-opacity="1" fill-rule="nonzero"/><path fill="#000000" d="M 218.832031 316.527344 C 220.457031 318.148438 223.085938 318.148438 224.710938 316.527344 C 226.335938 314.902344 226.335938 312.269531 224.710938 310.644531 C 223.085938 309.019531 220.457031 309.019531 218.832031 310.644531 C 217.207031 312.269531 217.207031 314.902344 218.832031 316.527344 Z M 218.832031 316.527344 " fill-opacity="1" fill-rule="nonzero"/><path fill="#000000" d="M 224.753906 314.839844 L 224.753906 369.296875 L 223.546875 369.296875 L 223.546875 314.839844 Z M 224.753906 314.839844 " fill-opacity="1" fill-rule="nonzero"/><g clip-path="url(#965734c89f)"><path fill="#000000" d="M 221.65625 369.171875 C 221.65625 370.550781 222.773438 371.664062 224.148438 371.664062 C 225.523438 371.664062 226.644531 370.546875 226.644531 369.171875 C 226.644531 367.796875 225.523438 366.679688 224.148438 366.679688 C 222.773438 366.679688 221.65625 367.796875 221.65625 369.171875 Z M 221.65625 369.171875 " fill-opacity="1" fill-rule="nonzero"/></g><path fill="#000000" d="M 212.867188 304.050781 L 212.867188 357.945312 L 211.664062 357.945312 L 211.664062 304.050781 Z M 212.867188 304.050781 " fill-opacity="1" fill-rule="nonzero"/><path fill="#000000" d="M 209.769531 357.824219 C 209.769531 359.203125 210.886719 360.316406 212.261719 360.316406 C 213.636719 360.316406 214.753906 359.199219 214.753906 357.824219 C 214.753906 356.445312 213.636719 355.328125 212.261719 355.328125 C 210.886719 355.328125 209.769531 356.445312 209.769531 357.824219 Z M 209.769531 357.824219 " fill-opacity="1" fill-rule="nonzero"/><path fill="#000000" d="M 201.613281 294.777344 L 201.613281 365.902344 L 200.40625 365.902344 L 200.40625 294.777344 Z M 201.613281 294.777344 " fill-opacity="1" fill-rule="nonzero"/><path fill="#000000" d="M 198.515625 365.777344 C 198.515625 367.15625 199.632812 368.269531 201.007812 368.269531 C 202.382812 368.269531 203.503906 367.152344 203.503906 365.777344 C 203.503906 364.402344 202.382812 363.285156 201.007812 363.285156 C 199.632812 363.285156 198.515625 364.402344 198.515625 365.777344 Z M 198.515625 365.777344 " fill-opacity="1" fill-rule="nonzero"/><path fill="#000000" d="M 140.796875 199.375 L 175.695312 234.277344 L 174.273438 235.699219 L 139.375 200.796875 Z M 140.796875 199.375 " fill-opacity="1" fill-rule="nonzero"/><path fill="#000000" d="M 171.898438 237.785156 C 173.523438 239.410156 176.152344 239.410156 177.777344 237.785156 C 179.402344 236.160156 179.402344 233.527344 177.777344 231.902344 C 176.152344 230.28125 173.523438 230.28125 171.898438 231.902344 C 170.273438 233.527344 170.273438 236.160156 171.898438 237.785156 Z M 171.898438 237.785156 " fill-opacity="1" fill-rule="nonzero"/><path fill="#000000" d="M 156.816406 180.203125 L 158.238281 181.625 L 117.164062 222.703125 L 115.742188 221.28125 Z M 156.816406 180.203125 " fill-opacity="1" fill-rule="nonzero"/><path fill="#000000" d="M 113.65625 218.910156 C 112.03125 220.535156 112.03125 223.164062 113.65625 224.789062 C 115.28125 226.414062 117.910156 226.414062 119.535156 224.789062 C 121.160156 223.164062 121.160156 220.535156 119.535156 218.910156 C 117.910156 217.285156 115.28125 217.285156 113.65625 218.910156 Z M 113.65625 218.910156 " fill-opacity="1" fill-rule="nonzero"/><path fill="#000000" d="M 181.863281 178.882812 L 216.515625 213.535156 L 215.09375 214.957031 L 180.441406 180.304688 Z M 181.863281 178.882812 " fill-opacity="1" fill-rule="nonzero"/><path fill="#000000" d="M 212.714844 217.042969 C 214.339844 218.667969 216.972656 218.667969 218.59375 217.042969 C 220.21875 215.417969 220.21875 212.789062 218.59375 211.164062 C 216.972656 209.539062 214.339844 209.539062 212.714844 211.164062 C 211.089844 212.789062 211.089844 215.417969 212.714844 217.042969 Z M 212.714844 217.042969 " fill-opacity="1" fill-rule="nonzero"/><path fill="#000000" d="M 166.839844 186.769531 L 205.769531 225.703125 L 204.347656 227.125 L 165.417969 188.195312 Z M 166.839844 186.769531 " fill-opacity="1" fill-rule="nonzero"/><path fill="#000000" d="M 201.972656 229.210938 C 203.597656 230.835938 206.230469 230.835938 207.855469 229.210938 C 209.480469 227.585938 209.480469 224.953125 207.855469 223.328125 C 206.230469 221.703125 203.597656 221.703125 201.972656 223.328125 C 200.347656 224.953125 200.347656 227.585938 201.972656 229.210938 Z M 201.972656 229.210938 " fill-opacity="1" fill-rule="nonzero"/><path fill="#000000" d="M 176.460938 237.1875 L 176.460938 289.300781 L 175.253906 289.300781 L 175.253906 237.1875 Z M 176.460938 237.1875 " fill-opacity="1" fill-rule="nonzero"/><path fill="#000000" d="M 173.359375 289.171875 C 173.359375 290.550781 174.480469 291.664062 175.855469 291.664062 C 177.230469 291.664062 178.347656 290.546875 178.347656 289.171875 C 178.347656 287.796875 177.230469 286.679688 175.855469 286.679688 C 174.480469 286.679688 173.359375 287.796875 173.359375 289.171875 Z M 173.359375 289.171875 " fill-opacity="1" fill-rule="nonzero"/><path fill="#000000" d="M 167.191406 225.933594 L 167.191406 251.648438 L 165.984375 251.648438 L 165.984375 225.933594 Z M 167.191406 225.933594 " fill-opacity="1" fill-rule="nonzero"/><path fill="#000000" d="M 164.09375 251.523438 C 164.09375 252.902344 165.214844 254.015625 166.589844 254.015625 C 167.964844 254.015625 169.082031 252.898438 169.082031 251.523438 C 169.082031 250.148438 167.964844 249.03125 166.589844 249.03125 C 165.214844 249.03125 164.09375 250.148438 164.09375 251.523438 Z M 164.09375 251.523438 " fill-opacity="1" fill-rule="nonzero"/><path fill="#000000" d="M 156.601562 216 L 156.601562 256.984375 L 155.394531 256.984375 L 155.394531 216 Z M 156.601562 216 " fill-opacity="1" fill-rule="nonzero"/><path fill="#000000" d="M 153.507812 256.859375 C 153.507812 258.238281 154.625 259.355469 156 259.355469 C 157.375 259.355469 158.492188 258.234375 158.492188 256.859375 C 158.492188 255.484375 157.375 254.367188 156 254.367188 C 154.625 254.367188 153.507812 255.484375 153.507812 256.859375 Z M 153.507812 256.859375 " fill-opacity="1" fill-rule="nonzero"/><path fill="#000000" d="M 217.5 214.679688 L 217.5 253.128906 L 216.296875 253.128906 L 216.296875 214.679688 Z M 217.5 214.679688 " fill-opacity="1" fill-rule="nonzero"/><path fill="#000000" d="M 214.402344 253.003906 C 214.402344 254.382812 215.519531 255.496094 216.894531 255.496094 C 218.269531 255.496094 219.386719 254.378906 219.386719 253.003906 C 219.386719 251.628906 218.269531 250.507812 216.894531 250.507812 C 215.519531 250.507812 214.402344 251.628906 214.402344 253.003906 Z M 214.402344 253.003906 " fill-opacity="1" fill-rule="nonzero"/><path fill="#000000" d="M 206.851562 227.839844 L 206.851562 267.878906 L 205.644531 267.878906 L 205.644531 227.839844 Z M 206.851562 227.839844 " fill-opacity="1" fill-rule="nonzero"/><path fill="#000000" d="M 203.753906 267.753906 C 203.753906 269.136719 204.875 270.25 206.25 270.25 C 207.625 270.25 208.742188 269.132812 208.742188 267.753906 C 208.742188 266.378906 207.625 265.261719 206.25 265.261719 C 204.875 265.261719 203.753906 266.378906 203.753906 267.753906 Z M 203.753906 267.753906 " fill-opacity="1" fill-rule="nonzero"/><path fill="#000000" d="M 114.238281 223.285156 L 114.238281 272.277344 L 113.03125 272.277344 L 113.03125 223.285156 Z M 114.238281 223.285156 " fill-opacity="1" fill-rule="nonzero"/><g clip-path="url(#e962ae9187)"><path fill="#000000" d="M 111.136719 247.019531 C 111.136719 248.398438 112.257812 249.511719 113.632812 249.511719 C 115.007812 249.511719 116.125 248.394531 116.125 247.019531 C 116.125 245.644531 115.007812 244.523438 113.632812 244.523438 C 112.257812 244.523438 111.136719 245.644531 111.136719 247.019531 Z M 111.136719 247.019531 " fill-opacity="1" fill-rule="nonzero"/></g><path fill="#000000" d="M 120.195312 219.660156 L 120.195312 255.695312 L 118.988281 255.695312 L 118.988281 219.660156 Z M 120.195312 219.660156 " fill-opacity="1" fill-rule="nonzero"/><path fill="#000000" d="M 117.097656 255.570312 C 117.097656 256.949219 118.214844 258.0625 119.59375 258.0625 C 120.96875 258.0625 122.085938 256.945312 122.085938 255.570312 C 122.085938 254.195312 120.96875 253.074219 119.59375 253.074219 C 118.214844 253.074219 117.097656 254.195312 117.097656 255.570312 Z M 117.097656 255.570312 " fill-opacity="1" fill-rule="nonzero"/><path fill="#000000" d="M 152.433594 59.625 C 148.425781 55.640625 150.636719 46.980469 157.375 40.28125 C 164.113281 33.585938 172.828125 31.382812 176.835938 35.367188 C 180.847656 39.351562 178.632812 48.011719 171.894531 54.710938 C 165.15625 61.410156 156.441406 63.609375 152.433594 59.625 Z M 154.503906 51.886719 C 155.207031 49.140625 157.050781 45.871094 160.023438 42.914062 C 163 39.957031 166.289062 38.125 169.050781 37.429688 C 170.601562 37.035156 171.777344 37.035156 172.640625 37.226562 L 154.300781 55.453125 C 154.109375 54.597656 154.109375 53.429688 154.503906 51.886719 Z M 157.183594 57.855469 C 157.976562 57.941406 158.976562 57.878906 160.21875 57.566406 C 162.980469 56.867188 166.269531 55.035156 169.246094 52.078125 C 172.21875 49.121094 174.0625 45.851562 174.765625 43.105469 C 175.078125 41.871094 175.144531 40.878906 175.058594 40.089844 Z M 157.183594 57.855469 " fill-opacity="1" fill-rule="evenodd"/><g clip-path="url(#50faf8aa9e)"><path fill="#000000" d="M 186.890625 28.578125 C 187.320312 27.644531 186.902344 26.539062 185.960938 26.113281 C 185.019531 25.6875 183.910156 26.101562 183.480469 27.039062 C 183.066406 27.945312 182.257812 28.871094 181.421875 29.601562 C 181.265625 29.734375 181.117188 29.859375 180.976562 29.96875 C 176.105469 25.761719 168.179688 25.816406 160.707031 29.605469 L 157.886719 28.871094 C 156.148438 28.417969 154.4375 29.699219 154.394531 31.484375 L 154.335938 33.894531 C 153.722656 34.421875 153.121094 34.976562 152.535156 35.5625 C 150.253906 37.828125 148.414062 40.324219 147.023438 42.898438 C 147.003906 42.902344 146.984375 42.910156 146.964844 42.917969 L 143.488281 44.199219 C 141.804688 44.820312 141.140625 46.839844 142.136719 48.328125 C 142.761719 49.257812 143.339844 50.066406 144.117188 51.210938 C 143.660156 54.015625 143.753906 56.703125 144.417969 59.078125 C 144.414062 59.089844 144.410156 59.097656 144.410156 59.109375 L 143.5 62.074219 C 142.972656 63.78125 144.191406 65.53125 145.984375 65.644531 L 149.222656 65.851562 C 150.636719 66.777344 152.277344 67.410156 154.066406 67.753906 L 156.300781 70.132812 C 157.527344 71.441406 159.65625 71.265625 160.652344 69.78125 L 162.179688 67.507812 C 165 66.875 167.902344 65.707031 170.675781 64.011719 L 173.6875 64.796875 C 175.425781 65.25 177.132812 63.96875 177.175781 62.183594 C 177.203125 61.070312 177.21875 59.839844 177.21875 58.699219 C 179.011719 56.8125 180.519531 54.792969 181.734375 52.71875 L 185.195312 51.445312 C 186.878906 50.824219 187.539062 48.804688 186.542969 47.316406 L 184.871094 44.816406 C 185.832031 40.363281 185.375 36.113281 183.386719 32.824219 C 183.550781 32.691406 183.722656 32.546875 183.894531 32.398438 C 184.933594 31.492188 186.167969 30.15625 186.890625 28.578125 Z M 181.359375 43.273438 C 180.59375 47.671875 178.101562 52.578125 173.878906 56.777344 C 169.6875 60.941406 164.691406 63.363281 160.210938 64.09375 C 155.667969 64.835938 152.136719 63.804688 150.125 61.804688 C 148.113281 59.804688 147.074219 56.292969 147.820312 51.777344 C 148.554688 47.324219 150.992188 42.359375 155.183594 38.195312 C 158.820312 34.578125 163.636719 31.640625 168.769531 30.761719 C 177.4375 29.277344 182.832031 34.761719 181.359375 43.273438 Z M 181.359375 43.273438 " fill-opacity="1" fill-rule="evenodd"/></g></svg>