<svg xmlns="http://www.w3.org/2000/svg" xmlns:xlink="http://www.w3.org/1999/xlink" width="500" zoomAndPan="magnify" viewBox="0 0 375 374.999991" height="500" preserveAspectRatio="xMidYMid meet" version="1.0"><defs><clipPath id="67b0cc7eef"><path d="M 330 150 L 337.453125 150 L 337.453125 190 L 330 190 Z M 330 150 " clip-rule="nonzero"/></clipPath><clipPath id="9ac076643e"><path d="M 167 37.5 L 326 37.5 L 326 133 L 167 133 Z M 167 37.5 " clip-rule="nonzero"/></clipPath><clipPath id="e6c4a51d69"><path d="M 74.203125 280 L 280 280 L 280 335 L 74.203125 335 Z M 74.203125 280 " clip-rule="nonzero"/></clipPath><clipPath id="bd4640e7a2"><path d="M 128 141.105469 L 237 141.105469 L 237 250 L 128 250 Z M 128 141.105469 " clip-rule="nonzero"/></clipPath></defs><rect x="-37.5" width="450" fill="none" y="-37.499999" height="449.999989" fill-opacity="1"/><rect x="-37.5" width="450" fill="none" y="-37.499999" height="449.999989" fill-opacity="1"/><path fill="#000000" d="M 291.511719 83.671875 C 279.714844 71.839844 266.3125 62.242188 251.3125 54.886719 L 252.214844 53.039062 C 267.421875 60.492188 281.003906 70.21875 292.964844 82.210938 Z M 291.511719 83.671875 " fill-opacity="1" fill-rule="nonzero"/><g clip-path="url(#67b0cc7eef)"><path fill="#000000" d="M 337.453125 189.769531 L 335.402344 189.769531 C 335.410156 176.589844 333.714844 163.632812 330.324219 150.894531 L 332.308594 150.367188 C 335.746094 163.273438 337.460938 176.410156 337.453125 189.769531 Z M 337.453125 189.769531 " fill-opacity="1" fill-rule="nonzero"/></g><path fill="#000000" d="M 261.691406 321.425781 L 260.664062 319.652344 C 264.441406 317.453125 268.117188 315.097656 271.691406 312.578125 C 275.265625 310.058594 278.722656 307.390625 282.0625 304.570312 C 285.402344 301.753906 288.613281 298.792969 291.699219 295.695312 C 294.78125 292.59375 297.722656 289.367188 300.523438 286.011719 C 303.328125 282.65625 305.976562 279.183594 308.476562 275.597656 C 310.976562 272.011719 313.316406 268.320312 315.496094 264.53125 C 317.675781 260.742188 319.683594 256.863281 321.527344 252.898438 C 323.367188 248.929688 325.03125 244.890625 326.523438 240.78125 L 328.453125 241.476562 C 326.945312 245.644531 325.257812 249.738281 323.390625 253.757812 C 321.523438 257.777344 319.484375 261.710938 317.277344 265.554688 C 315.066406 269.394531 312.695312 273.132812 310.160156 276.769531 C 307.628906 280.40625 304.941406 283.925781 302.101562 287.328125 C 299.257812 290.726562 296.277344 294 293.152344 297.140625 C 290.023438 300.28125 286.769531 303.28125 283.382812 306.140625 C 279.996094 309 276.492188 311.703125 272.871094 314.257812 C 269.246094 316.808594 265.519531 319.199219 261.691406 321.425781 Z M 261.691406 321.425781 " fill-opacity="1" fill-rule="nonzero"/><path fill="#000000" d="M 185.351562 341.957031 C 153.632812 341.957031 123.242188 332.285156 97.464844 313.988281 L 98.652344 312.316406 C 124.085938 330.363281 154.066406 339.902344 185.355469 339.902344 C 189.636719 339.902344 193.957031 339.71875 198.203125 339.359375 L 198.375 341.414062 C 194.070312 341.769531 189.691406 341.957031 185.351562 341.957031 Z M 185.351562 341.957031 " fill-opacity="1" fill-rule="nonzero"/><g clip-path="url(#9ac076643e)"><path fill="#000000" d="M 324.078125 132.449219 C 318.472656 118.894531 311.035156 106.429688 301.773438 95.058594 L 295.359375 99.359375 L 294.769531 98.648438 C 290.703125 93.757812 286.328125 89.164062 281.648438 84.859375 C 276.96875 80.558594 272.023438 76.585938 266.8125 72.945312 C 261.601562 69.300781 256.171875 66.023438 250.523438 63.109375 C 244.871094 60.191406 239.054688 57.667969 233.070312 55.53125 L 232.007812 55.152344 L 235.238281 48.136719 C 227.222656 45.316406 219.027344 43.191406 210.652344 41.761719 C 202.273438 40.335938 193.835938 39.628906 185.339844 39.640625 C 179.484375 39.640625 173.644531 39.976562 167.828125 40.652344 L 167.59375 38.609375 C 173.492188 37.925781 179.410156 37.585938 185.34375 37.582031 C 194.148438 37.570312 202.890625 38.320312 211.5625 39.832031 C 220.238281 41.34375 228.71875 43.59375 237 46.582031 L 238.050781 46.960938 L 234.8125 53.96875 C 240.707031 56.125 246.4375 58.652344 252.003906 61.554688 C 257.566406 64.457031 262.921875 67.707031 268.066406 71.304688 C 273.210938 74.902344 278.097656 78.820312 282.730469 83.054688 C 287.363281 87.289062 291.707031 91.808594 295.75 96.605469 L 302.175781 92.292969 L 302.769531 93.011719 C 312.433594 104.730469 320.167969 117.609375 325.972656 131.652344 Z M 324.078125 132.449219 " fill-opacity="1" fill-rule="nonzero"/></g><path fill="#000000" d="M 329.769531 189.769531 L 327.714844 189.769531 C 327.722656 182.96875 327.246094 176.199219 326.28125 169.464844 C 325.320312 162.734375 323.878906 156.101562 321.960938 149.578125 C 320.042969 143.050781 317.671875 136.695312 314.839844 130.507812 C 312.011719 124.324219 308.753906 118.375 305.066406 112.65625 L 306.792969 111.542969 C 310.53125 117.34375 313.835938 123.378906 316.707031 129.652344 C 319.578125 135.925781 321.988281 142.375 323.929688 148.996094 C 325.875 155.617188 327.335938 162.34375 328.316406 169.171875 C 329.292969 176.003906 329.777344 182.871094 329.769531 189.769531 Z M 329.769531 189.769531 " fill-opacity="1" fill-rule="nonzero"/><path fill="#000000" d="M 310.65625 261.65625 L 308.875 260.628906 C 312.992188 253.46875 316.457031 246.007812 319.261719 238.242188 C 322.070312 230.476562 324.183594 222.523438 325.597656 214.386719 L 327.617188 214.742188 C 326.183594 222.996094 324.042969 231.0625 321.195312 238.941406 C 318.347656 246.824219 314.832031 254.394531 310.65625 261.65625 Z M 310.65625 261.65625 " fill-opacity="1" fill-rule="nonzero"/><path fill="#000000" d="M 294.410156 271.351562 L 292.769531 270.121094 C 310.222656 246.785156 319.460938 219 319.460938 189.769531 C 319.460938 115.78125 259.296875 55.589844 185.351562 55.589844 L 184.328125 55.589844 L 184.328125 47.335938 C 176.152344 47.394531 168.042969 48.140625 159.996094 49.585938 L 159.632812 47.5625 C 168.136719 46.039062 176.710938 45.277344 185.351562 45.277344 L 186.378906 45.277344 L 186.378906 53.539062 C 189.507812 53.558594 192.632812 53.6875 195.753906 53.925781 C 198.875 54.164062 201.984375 54.507812 205.082031 54.960938 C 208.179688 55.410156 211.257812 55.96875 214.316406 56.632812 C 217.375 57.296875 220.410156 58.066406 223.414062 58.9375 C 226.421875 59.8125 229.390625 60.789062 232.332031 61.867188 C 235.269531 62.945312 238.167969 64.125 241.023438 65.402344 C 243.882812 66.679688 246.691406 68.058594 249.457031 69.53125 C 252.21875 71.003906 254.925781 72.566406 257.582031 74.226562 C 260.234375 75.886719 262.828125 77.636719 265.363281 79.476562 C 267.898438 81.3125 270.367188 83.238281 272.765625 85.246094 C 275.167969 87.253906 277.496094 89.34375 279.753906 91.515625 C 282.011719 93.683594 284.191406 95.929688 286.292969 98.25 C 288.398438 100.570312 290.417969 102.957031 292.355469 105.417969 C 294.292969 107.878906 296.144531 110.402344 297.90625 112.988281 C 299.671875 115.574219 301.34375 118.222656 302.925781 120.921875 C 304.503906 123.625 305.992188 126.378906 307.382812 129.1875 C 308.773438 131.992188 310.066406 134.839844 311.261719 137.734375 C 312.457031 140.628906 313.550781 143.5625 314.542969 146.53125 C 315.535156 149.503906 316.425781 152.503906 317.210938 155.535156 C 317.996094 158.566406 318.679688 161.621094 319.253906 164.699219 C 319.828125 167.777344 320.296875 170.871094 320.660156 173.984375 C 321.019531 177.09375 321.273438 180.214844 321.421875 183.34375 C 321.566406 186.46875 321.605469 189.601562 321.539062 192.730469 C 321.46875 195.863281 321.292969 198.988281 321.007812 202.105469 C 320.722656 205.226562 320.332031 208.328125 319.832031 211.421875 C 319.332031 214.511719 318.730469 217.585938 318.019531 220.632812 C 317.308594 223.683594 316.492188 226.707031 315.574219 229.699219 C 314.65625 232.695312 313.636719 235.652344 312.511719 238.574219 C 311.390625 241.5 310.167969 244.378906 308.847656 247.21875 C 307.523438 250.058594 306.105469 252.847656 304.59375 255.589844 C 303.078125 258.332031 301.472656 261.015625 299.773438 263.648438 C 298.074219 266.277344 296.285156 268.847656 294.410156 271.351562 Z M 294.410156 271.351562 " fill-opacity="1" fill-rule="nonzero"/><g clip-path="url(#e6c4a51d69)"><path fill="#000000" d="M 185.351562 334.261719 C 142.273438 334.261719 101.765625 315.230469 74.210938 282.042969 L 75.792969 280.730469 C 102.953125 313.453125 142.886719 332.207031 185.351562 332.207031 C 189.46875 332.207031 193.578125 332.027344 197.679688 331.671875 C 201.785156 331.316406 205.863281 330.78125 209.917969 330.070312 C 213.972656 329.359375 217.992188 328.472656 221.972656 327.410156 C 225.949219 326.351562 229.875 325.121094 233.75 323.722656 C 237.621094 322.320312 241.425781 320.753906 245.164062 319.023438 C 248.898438 317.292969 252.554688 315.40625 256.128906 313.355469 C 259.703125 311.308594 263.179688 309.109375 266.5625 306.761719 C 269.945312 304.410156 273.21875 301.917969 276.386719 299.285156 L 271.835938 295 C 268.824219 297.488281 265.707031 299.839844 262.488281 302.058594 C 259.269531 304.277344 255.964844 306.351562 252.566406 308.285156 C 249.167969 310.214844 245.695312 311.996094 242.144531 313.628906 C 238.59375 315.261719 234.976562 316.734375 231.296875 318.054688 C 227.621094 319.375 223.890625 320.53125 220.113281 321.527344 C 216.335938 322.523438 212.519531 323.355469 208.667969 324.019531 C 204.820312 324.6875 200.945312 325.183594 197.050781 325.515625 C 193.160156 325.847656 189.257812 326.011719 185.351562 326.003906 C 177.289062 326.003906 169.285156 325.300781 161.347656 323.894531 L 161.707031 321.871094 C 166.511719 322.726562 171.34375 323.316406 176.210938 323.644531 C 181.078125 323.972656 185.949219 324.035156 190.820312 323.832031 C 195.695312 323.632812 200.542969 323.164062 205.363281 322.433594 C 210.1875 321.703125 214.957031 320.714844 219.671875 319.464844 C 224.386719 318.214844 229.019531 316.710938 233.570312 314.957031 C 238.121094 313.203125 242.566406 311.207031 246.898438 308.96875 C 251.234375 306.730469 255.433594 304.261719 259.5 301.566406 C 263.566406 298.871094 267.472656 295.960938 271.222656 292.839844 L 271.921875 292.257812 L 279.472656 299.371094 L 278.59375 300.113281 C 275.371094 302.847656 272.03125 305.4375 268.582031 307.875 C 265.128906 310.316406 261.578125 312.601562 257.921875 314.726562 C 254.269531 316.855469 250.53125 318.816406 246.703125 320.617188 C 242.878906 322.414062 238.980469 324.039062 235.011719 325.492188 C 231.042969 326.945312 227.015625 328.222656 222.933594 329.320312 C 218.851562 330.417969 214.730469 331.335938 210.566406 332.070312 C 206.40625 332.808594 202.21875 333.359375 198.007812 333.722656 C 193.796875 334.089844 189.578125 334.269531 185.351562 334.261719 Z M 185.351562 334.261719 " fill-opacity="1" fill-rule="nonzero"/></g><path fill="#000000" d="M 248.160156 78.09375 C 243.382812 75.40625 238.457031 73.039062 233.378906 70.984375 C 228.300781 68.933594 223.113281 67.214844 217.8125 65.828125 C 212.515625 64.441406 207.148438 63.398438 201.714844 62.699219 C 196.28125 62.003906 190.828125 61.652344 185.351562 61.65625 L 185.351562 61.246094 C 190.847656 61.238281 196.320312 61.582031 201.769531 62.277344 C 207.222656 62.976562 212.605469 64.023438 217.921875 65.414062 C 223.238281 66.804688 228.445312 68.535156 233.539062 70.597656 C 238.632812 72.660156 243.574219 75.042969 248.359375 77.742188 Z M 248.160156 78.09375 " fill-opacity="1" fill-rule="nonzero"/><path fill="#000000" d="M 185.351562 319.125 C 182.738281 319.128906 180.128906 319.050781 177.519531 318.894531 C 174.914062 318.738281 172.3125 318.5 169.71875 318.1875 C 167.125 317.871094 164.546875 317.476562 161.976562 317.007812 C 159.40625 316.535156 156.855469 315.988281 154.316406 315.359375 C 151.78125 314.734375 149.265625 314.03125 146.773438 313.253906 C 144.28125 312.472656 141.8125 311.621094 139.371094 310.691406 C 136.929688 309.761719 134.515625 308.761719 132.136719 307.683594 C 129.753906 306.609375 127.410156 305.464844 125.097656 304.246094 C 122.785156 303.027344 120.515625 301.742188 118.28125 300.386719 C 116.046875 299.03125 113.855469 297.609375 111.710938 296.121094 C 109.5625 294.632812 107.460938 293.078125 105.410156 291.464844 C 103.355469 289.847656 101.355469 288.171875 99.402344 286.433594 C 97.449219 284.695312 95.554688 282.902344 93.710938 281.046875 C 91.867188 279.195312 90.085938 277.289062 88.355469 275.328125 C 86.628906 273.367188 84.964844 271.355469 83.359375 269.292969 C 81.753906 267.230469 80.214844 265.121094 78.738281 262.964844 L 80.429688 261.800781 C 83.34375 266.046875 86.5 270.097656 89.90625 273.957031 C 93.308594 277.820312 96.933594 281.460938 100.78125 284.882812 C 104.625 288.300781 108.664062 291.476562 112.894531 294.410156 C 117.125 297.339844 121.515625 300.003906 126.070312 302.402344 C 130.625 304.800781 135.304688 306.917969 140.113281 308.746094 C 144.925781 310.578125 149.828125 312.109375 154.824219 313.34375 C 159.816406 314.582031 164.871094 315.507812 169.976562 316.132812 C 175.085938 316.753906 180.214844 317.066406 185.359375 317.066406 C 255.515625 317.066406 312.59375 259.953125 312.59375 189.765625 C 312.59375 143.882812 287.746094 101.367188 247.765625 78.804688 L 248.773438 77.015625 C 251.257812 78.414062 253.695312 79.894531 256.082031 81.453125 C 258.46875 83.015625 260.804688 84.652344 263.082031 86.367188 C 265.363281 88.082031 267.582031 89.871094 269.742188 91.734375 C 271.902344 93.59375 274 95.527344 276.035156 97.527344 C 278.066406 99.527344 280.03125 101.59375 281.929688 103.726562 C 283.824219 105.855469 285.648438 108.046875 287.398438 110.300781 C 289.152344 112.550781 290.824219 114.859375 292.425781 117.21875 C 294.023438 119.582031 295.542969 121.996094 296.980469 124.460938 C 298.421875 126.921875 299.777344 129.429688 301.050781 131.984375 C 302.324219 134.535156 303.511719 137.128906 304.613281 139.761719 C 305.714844 142.394531 306.726562 145.058594 307.652344 147.757812 C 308.578125 150.457031 309.414062 153.183594 310.160156 155.9375 C 310.902344 158.691406 311.558594 161.464844 312.117188 164.265625 C 312.679688 167.0625 313.148438 169.875 313.523438 172.703125 C 313.898438 175.53125 314.179688 178.367188 314.367188 181.214844 C 314.554688 184.0625 314.648438 186.914062 314.648438 189.765625 C 314.648438 191.882812 314.597656 194 314.496094 196.113281 C 314.394531 198.230469 314.242188 200.339844 314.035156 202.449219 C 313.828125 204.554688 313.570312 206.65625 313.261719 208.753906 C 312.953125 210.847656 312.59375 212.933594 312.179688 215.011719 C 311.769531 217.085938 311.308594 219.152344 310.792969 221.207031 C 310.28125 223.261719 309.71875 225.300781 309.105469 227.328125 C 308.492188 229.355469 307.828125 231.363281 307.117188 233.359375 C 306.402344 235.351562 305.644531 237.328125 304.835938 239.285156 C 304.023438 241.242188 303.167969 243.175781 302.265625 245.09375 C 301.359375 247.007812 300.410156 248.898438 299.414062 250.765625 C 298.414062 252.632812 297.375 254.476562 296.285156 256.292969 C 295.199219 258.109375 294.066406 259.898438 292.890625 261.65625 C 291.714844 263.417969 290.496094 265.148438 289.238281 266.851562 C 287.976562 268.550781 286.675781 270.21875 285.332031 271.855469 C 283.992188 273.496094 282.609375 275.097656 281.1875 276.667969 C 279.765625 278.234375 278.308594 279.769531 276.8125 281.265625 C 275.316406 282.761719 273.78125 284.222656 272.214844 285.644531 C 270.644531 287.066406 269.042969 288.449219 267.40625 289.792969 C 265.769531 291.136719 264.101562 292.4375 262.402344 293.699219 C 260.703125 294.960938 258.972656 296.179688 257.214844 297.355469 C 255.453125 298.53125 253.664062 299.664062 251.851562 300.75 C 250.035156 301.839844 248.191406 302.882812 246.328125 303.878906 C 244.460938 304.875 242.570312 305.828125 240.65625 306.734375 C 238.742188 307.636719 236.808594 308.496094 234.851562 309.304688 C 232.898438 310.113281 230.921875 310.875 228.929688 311.585938 C 226.9375 312.300781 224.925781 312.960938 222.902344 313.574219 C 220.875 314.1875 218.835938 314.753906 216.78125 315.265625 C 214.730469 315.78125 212.664062 316.242188 210.589844 316.652344 C 208.511719 317.066406 206.429688 317.425781 204.335938 317.734375 C 202.242188 318.042969 200.140625 318.300781 198.035156 318.507812 C 195.929688 318.714844 193.820312 318.867188 191.703125 318.972656 C 189.589844 319.074219 187.476562 319.125 185.359375 319.121094 Z M 185.351562 319.125 " fill-opacity="1" fill-rule="nonzero"/><path fill="#000000" d="M 142.523438 69.863281 L 141.832031 67.9375 C 155.902344 62.910156 170.410156 60.40625 185.351562 60.425781 L 185.351562 62.480469 C 170.648438 62.457031 156.371094 64.917969 142.523438 69.863281 Z M 142.523438 69.863281 " fill-opacity="1" fill-rule="nonzero"/><path fill="#000000" d="M 185.351562 312.179688 C 179.445312 312.191406 173.570312 311.769531 167.726562 310.925781 C 161.882812 310.078125 156.128906 308.8125 150.46875 307.128906 C 144.808594 305.449219 139.300781 303.363281 133.941406 300.878906 C 128.582031 298.394531 123.433594 295.539062 118.492188 292.304688 L 119.617188 290.585938 C 124.476562 293.761719 129.539062 296.574219 134.808594 299.015625 C 140.074219 301.457031 145.492188 303.507812 151.054688 305.160156 C 156.621094 306.816406 162.277344 308.058594 168.023438 308.890625 C 173.769531 309.722656 179.546875 310.136719 185.351562 310.128906 C 251.675781 310.128906 305.644531 256.136719 305.644531 189.769531 C 305.644531 123.40625 251.679688 69.414062 185.351562 69.414062 L 185.351562 67.359375 C 187.351562 67.359375 189.355469 67.410156 191.355469 67.507812 C 193.355469 67.605469 195.351562 67.753906 197.34375 67.949219 C 199.335938 68.144531 201.324219 68.390625 203.304688 68.683594 C 205.285156 68.976562 207.253906 69.320312 209.21875 69.710938 C 211.183594 70.101562 213.136719 70.542969 215.078125 71.027344 C 217.019531 71.515625 218.949219 72.050781 220.867188 72.628906 C 222.78125 73.210938 224.683594 73.839844 226.570312 74.515625 C 228.453125 75.191406 230.320312 75.910156 232.171875 76.675781 C 234.019531 77.445312 235.851562 78.253906 237.660156 79.113281 C 239.472656 79.96875 241.257812 80.871094 243.023438 81.8125 C 244.789062 82.757812 246.53125 83.746094 248.25 84.773438 C 249.96875 85.804688 251.660156 86.875 253.324219 87.988281 C 254.988281 89.101562 256.625 90.253906 258.234375 91.449219 C 259.839844 92.640625 261.417969 93.875 262.96875 95.144531 C 264.515625 96.417969 266.03125 97.722656 267.515625 99.070312 C 269 100.414062 270.449219 101.796875 271.863281 103.210938 C 273.28125 104.628906 274.660156 106.078125 276.003906 107.5625 C 277.347656 109.046875 278.65625 110.566406 279.925781 112.113281 C 281.195312 113.664062 282.429688 115.242188 283.621094 116.851562 C 284.8125 118.460938 285.964844 120.097656 287.078125 121.761719 C 288.191406 123.429688 289.261719 125.121094 290.292969 126.839844 C 291.320312 128.558594 292.308594 130.300781 293.25 132.066406 C 294.195312 133.832031 295.09375 135.621094 295.953125 137.433594 C 296.808594 139.242188 297.617188 141.074219 298.386719 142.925781 C 299.152344 144.777344 299.871094 146.644531 300.546875 148.53125 C 301.222656 150.417969 301.847656 152.320312 302.429688 154.238281 C 303.011719 156.152344 303.546875 158.082031 304.03125 160.027344 C 304.519531 161.96875 304.957031 163.925781 305.347656 165.890625 C 305.738281 167.855469 306.082031 169.828125 306.375 171.808594 C 306.667969 173.789062 306.914062 175.777344 307.109375 177.773438 C 307.304688 179.765625 307.453125 181.761719 307.550781 183.765625 C 307.648438 185.765625 307.699219 187.765625 307.699219 189.769531 C 307.699219 191.773438 307.648438 193.777344 307.550781 195.777344 C 307.453125 197.777344 307.304688 199.773438 307.109375 201.769531 C 306.914062 203.761719 306.667969 205.75 306.375 207.730469 C 306.082031 209.714844 305.738281 211.6875 305.347656 213.652344 C 304.957031 215.617188 304.519531 217.570312 304.03125 219.515625 C 303.546875 221.457031 303.011719 223.386719 302.429688 225.304688 C 301.847656 227.222656 301.222656 229.125 300.546875 231.007812 C 299.871094 232.894531 299.152344 234.765625 298.386719 236.613281 C 297.617188 238.464844 296.808594 240.296875 295.953125 242.109375 C 295.09375 243.917969 294.195312 245.707031 293.25 247.476562 C 292.308594 249.242188 291.320312 250.984375 290.292969 252.703125 C 289.261719 254.421875 288.191406 256.113281 287.078125 257.777344 C 285.964844 259.445312 284.8125 261.082031 283.621094 262.691406 C 282.429688 264.300781 281.195312 265.878906 279.925781 267.425781 C 278.65625 268.976562 277.347656 270.492188 276.003906 271.976562 C 274.660156 273.460938 273.28125 274.910156 271.863281 276.328125 C 270.449219 277.746094 269 279.125 267.515625 280.472656 C 266.03125 281.816406 264.515625 283.125 262.96875 284.394531 C 261.417969 285.667969 259.839844 286.898438 258.234375 288.09375 C 256.625 289.285156 254.988281 290.4375 253.324219 291.550781 C 251.660156 292.664062 249.96875 293.734375 248.25 294.765625 C 246.53125 295.796875 244.789062 296.78125 243.023438 297.726562 C 241.257812 298.671875 239.472656 299.570312 237.660156 300.429688 C 235.851562 301.285156 234.019531 302.097656 232.171875 302.863281 C 230.320312 303.628906 228.453125 304.351562 226.570312 305.027344 C 224.683594 305.699219 222.78125 306.328125 220.867188 306.910156 C 218.949219 307.492188 217.019531 308.027344 215.078125 308.511719 C 213.136719 309 211.183594 309.4375 209.21875 309.828125 C 207.253906 310.21875 205.285156 310.5625 203.304688 310.855469 C 201.324219 311.152344 199.335938 311.394531 197.34375 311.59375 C 195.351562 311.789062 193.355469 311.9375 191.355469 312.035156 C 189.355469 312.132812 187.351562 312.179688 185.351562 312.179688 Z M 185.351562 312.179688 " fill-opacity="1" fill-rule="nonzero"/><path fill="#000000" d="M 230.09375 85.253906 C 223.027344 82.21875 215.726562 79.929688 208.191406 78.386719 C 200.65625 76.847656 193.042969 76.085938 185.351562 76.097656 L 185.351562 75.6875 C 193.070312 75.671875 200.710938 76.4375 208.273438 77.984375 C 215.835938 79.53125 223.164062 81.828125 230.253906 84.875 Z M 230.09375 85.253906 " fill-opacity="1" fill-rule="nonzero"/><path fill="#000000" d="M 185.351562 304.675781 C 178.578125 304.683594 171.855469 304.097656 165.183594 302.910156 C 158.511719 301.726562 152 299.964844 145.644531 297.621094 C 139.285156 295.277344 133.183594 292.394531 127.339844 288.964844 C 121.496094 285.539062 115.996094 281.625 110.847656 277.21875 L 112.183594 275.65625 C 117.246094 279.972656 122.648438 283.8125 128.390625 287.171875 C 134.132812 290.535156 140.121094 293.363281 146.363281 295.664062 C 152.605469 297.964844 159 299.699219 165.550781 300.867188 C 172.097656 302.035156 178.699219 302.621094 185.351562 302.621094 C 247.546875 302.621094 298.140625 251.996094 298.140625 189.769531 C 298.144531 187.027344 298.042969 184.289062 297.847656 181.550781 C 297.648438 178.816406 297.351562 176.089844 296.953125 173.375 C 296.554688 170.660156 296.058594 167.964844 295.464844 165.285156 C 294.871094 162.609375 294.183594 159.957031 293.394531 157.328125 C 292.609375 154.699219 291.726562 152.105469 290.75 149.542969 C 289.773438 146.976562 288.703125 144.453125 287.542969 141.96875 C 286.382812 139.484375 285.132812 137.042969 283.792969 134.648438 C 282.457031 132.253906 281.03125 129.914062 279.523438 127.621094 C 278.011719 125.332031 276.421875 123.101562 274.75 120.925781 C 273.078125 118.75 271.328125 116.640625 269.503906 114.59375 C 267.675781 112.546875 265.777344 110.570312 263.808594 108.664062 C 261.839844 106.753906 259.800781 104.921875 257.695312 103.164062 C 255.59375 101.402344 253.425781 99.722656 251.199219 98.125 C 248.976562 96.523438 246.691406 95.003906 244.355469 93.570312 C 242.019531 92.136719 239.632812 90.789062 237.195312 89.527344 C 234.761719 88.265625 232.285156 87.097656 229.761719 86.019531 L 230.570312 84.128906 C 233.585938 85.421875 236.535156 86.835938 239.429688 88.378906 C 242.320312 89.921875 245.140625 91.585938 247.890625 93.371094 C 250.640625 95.152344 253.308594 97.050781 255.894531 99.066406 C 258.480469 101.078125 260.976562 103.195312 263.382812 105.421875 C 265.789062 107.648438 268.09375 109.976562 270.300781 112.398438 C 272.507812 114.824219 274.605469 117.335938 276.597656 119.941406 C 278.589844 122.546875 280.46875 125.230469 282.230469 127.992188 C 283.992188 130.757812 285.632812 133.59375 287.152344 136.5 C 288.671875 139.402344 290.0625 142.367188 291.328125 145.394531 C 292.59375 148.417969 293.726562 151.488281 294.730469 154.613281 C 295.734375 157.734375 296.601562 160.890625 297.332031 164.085938 C 298.066406 167.285156 298.660156 170.503906 299.117188 173.75 C 299.574219 177 299.890625 180.257812 300.070312 183.53125 C 300.246094 186.804688 300.285156 190.082031 300.183594 193.359375 C 300.082031 196.636719 299.839844 199.902344 299.457031 203.160156 C 299.074219 206.414062 298.554688 209.648438 297.894531 212.863281 C 297.238281 216.074219 296.441406 219.25 295.511719 222.394531 C 294.582031 225.539062 293.519531 228.636719 292.324219 231.691406 C 291.128906 234.742188 289.804688 237.738281 288.351562 240.679688 C 286.902344 243.617188 285.324219 246.488281 283.628906 249.292969 C 281.929688 252.097656 280.117188 254.824219 278.183594 257.476562 C 276.253906 260.125 274.214844 262.6875 272.0625 265.160156 C 269.914062 267.632812 267.660156 270.011719 265.308594 272.292969 C 262.953125 274.574219 260.507812 276.753906 257.96875 278.824219 C 255.429688 280.894531 252.804688 282.855469 250.097656 284.703125 C 247.390625 286.550781 244.609375 288.277344 241.753906 289.886719 C 238.898438 291.496094 235.980469 292.980469 232.996094 294.339844 C 230.015625 295.699219 226.980469 296.925781 223.890625 298.027344 C 220.804688 299.125 217.675781 300.089844 214.503906 300.921875 C 211.335938 301.753906 208.136719 302.445312 204.90625 303.003906 C 201.675781 303.5625 198.429688 303.980469 195.164062 304.257812 C 191.898438 304.535156 188.628906 304.675781 185.351562 304.675781 Z M 185.351562 304.675781 " fill-opacity="1" fill-rule="nonzero"/><path fill="#000000" d="M 185.351562 297.632812 C 179.066406 297.640625 172.828125 297.101562 166.636719 296.015625 C 160.445312 294.929688 154.398438 293.3125 148.492188 291.164062 C 142.585938 289.011719 136.910156 286.363281 131.46875 283.21875 C 126.027344 280.070312 120.902344 276.476562 116.089844 272.425781 L 117.410156 270.851562 C 122.136719 274.8125 127.167969 278.335938 132.507812 281.417969 C 137.847656 284.496094 143.414062 287.09375 149.207031 289.199219 C 154.996094 291.308594 160.929688 292.898438 167 293.96875 C 173.070312 295.039062 179.1875 295.574219 185.351562 295.578125 C 243.667969 295.578125 291.101562 248.117188 291.101562 189.78125 C 291.101562 131.445312 243.667969 83.984375 185.359375 83.984375 L 185.359375 81.929688 C 187.140625 81.90625 188.921875 81.925781 190.699219 81.988281 C 192.476562 82.050781 194.253906 82.160156 196.027344 82.3125 C 197.800781 82.464844 199.570312 82.660156 201.332031 82.898438 C 203.097656 83.136719 204.851562 83.417969 206.601562 83.746094 C 208.351562 84.070312 210.09375 84.441406 211.824219 84.855469 C 213.554688 85.265625 215.277344 85.722656 216.984375 86.21875 C 218.691406 86.71875 220.390625 87.257812 222.070312 87.839844 C 223.753906 88.421875 225.417969 89.042969 227.070312 89.707031 C 228.722656 90.371094 230.355469 91.078125 231.972656 91.824219 C 233.589844 92.566406 235.1875 93.351562 236.761719 94.175781 C 238.339844 95.003906 239.898438 95.867188 241.433594 96.765625 C 242.96875 97.667969 244.480469 98.609375 245.96875 99.585938 C 247.457031 100.5625 248.917969 101.574219 250.355469 102.621094 C 251.792969 103.671875 253.207031 104.753906 254.589844 105.875 C 255.976562 106.992188 257.332031 108.144531 258.660156 109.332031 C 259.984375 110.519531 261.285156 111.738281 262.550781 112.988281 C 263.816406 114.238281 265.054688 115.519531 266.257812 116.832031 C 267.460938 118.140625 268.632812 119.484375 269.769531 120.851562 C 270.90625 122.222656 272.007812 123.617188 273.078125 125.042969 C 274.144531 126.46875 275.179688 127.917969 276.175781 129.394531 C 277.171875 130.867188 278.128906 132.367188 279.050781 133.890625 C 279.976562 135.414062 280.859375 136.957031 281.703125 138.527344 C 282.550781 140.09375 283.355469 141.679688 284.125 143.285156 C 284.890625 144.894531 285.617188 146.519531 286.304688 148.160156 C 286.992188 149.804688 287.636719 151.460938 288.242188 153.136719 C 288.847656 154.8125 289.410156 156.5 289.929688 158.203125 C 290.453125 159.90625 290.929688 161.621094 291.367188 163.347656 C 291.804688 165.074219 292.195312 166.808594 292.546875 168.554688 C 292.894531 170.300781 293.203125 172.054688 293.464844 173.816406 C 293.730469 175.578125 293.949219 177.34375 294.125 179.117188 C 294.300781 180.886719 294.433594 182.664062 294.523438 184.441406 C 294.609375 186.21875 294.652344 188 294.652344 189.78125 C 294.652344 191.5625 294.609375 193.339844 294.523438 195.121094 C 294.433594 196.898438 294.300781 198.671875 294.125 200.445312 C 293.949219 202.21875 293.730469 203.984375 293.464844 205.746094 C 293.203125 207.507812 292.894531 209.261719 292.546875 211.007812 C 292.195312 212.75 291.804688 214.488281 291.367188 216.214844 C 290.929688 217.941406 290.453125 219.65625 289.929688 221.359375 C 289.410156 223.0625 288.847656 224.75 288.242188 226.425781 C 287.636719 228.097656 286.992188 229.757812 286.304688 231.402344 C 285.617188 233.042969 284.890625 234.667969 284.125 236.277344 C 283.355469 237.882812 282.550781 239.46875 281.703125 241.035156 C 280.859375 242.601562 279.976562 244.148438 279.050781 245.671875 C 278.128906 247.195312 277.171875 248.691406 276.175781 250.167969 C 275.179688 251.644531 274.144531 253.09375 273.078125 254.519531 C 272.007812 255.941406 270.90625 257.339844 269.769531 258.710938 C 268.632812 260.078125 267.460938 261.417969 266.257812 262.730469 C 265.054688 264.042969 263.816406 265.324219 262.550781 266.574219 C 261.285156 267.824219 259.984375 269.042969 258.660156 270.230469 C 257.332031 271.414062 255.976562 272.566406 254.589844 273.6875 C 253.207031 274.804688 251.792969 275.890625 250.355469 276.9375 C 248.917969 277.988281 247.457031 279 245.96875 279.976562 C 244.480469 280.953125 242.96875 281.894531 241.433594 282.792969 C 239.898438 283.695312 238.339844 284.558594 236.761719 285.382812 C 235.1875 286.207031 233.589844 286.992188 231.972656 287.738281 C 230.355469 288.484375 228.722656 289.1875 227.070312 289.851562 C 225.417969 290.519531 223.753906 291.140625 222.070312 291.722656 C 220.390625 292.304688 218.691406 292.84375 216.984375 293.34375 C 215.277344 293.839844 213.554688 294.296875 211.824219 294.707031 C 210.09375 295.121094 208.351562 295.488281 206.601562 295.816406 C 204.851562 296.140625 203.097656 296.425781 201.332031 296.664062 C 199.570312 296.902344 197.800781 297.097656 196.027344 297.25 C 194.253906 297.402344 192.476562 297.507812 190.699219 297.574219 C 188.921875 297.636719 187.140625 297.65625 185.359375 297.632812 Z M 185.351562 297.632812 " fill-opacity="1" fill-rule="nonzero"/><path fill="#000000" d="M 284.292969 189.769531 L 282.238281 189.769531 C 282.238281 136.320312 238.773438 92.832031 185.351562 92.832031 L 185.351562 90.777344 C 186.96875 90.773438 188.589844 90.8125 190.207031 90.890625 C 191.824219 90.96875 193.441406 91.089844 195.050781 91.246094 C 196.664062 91.402344 198.269531 91.601562 199.871094 91.835938 C 201.476562 92.074219 203.070312 92.351562 204.660156 92.664062 C 206.246094 92.980469 207.828125 93.335938 209.398438 93.726562 C 210.96875 94.121094 212.53125 94.550781 214.082031 95.019531 C 215.632812 95.492188 217.167969 95.996094 218.695312 96.542969 C 220.21875 97.089844 221.730469 97.671875 223.226562 98.289062 C 224.722656 98.910156 226.203125 99.566406 227.667969 100.257812 C 229.132812 100.949219 230.578125 101.679688 232.007812 102.441406 C 233.4375 103.203125 234.84375 104.003906 236.234375 104.835938 C 237.625 105.667969 238.992188 106.535156 240.339844 107.433594 C 241.6875 108.335938 243.011719 109.265625 244.3125 110.234375 C 245.613281 111.199219 246.890625 112.195312 248.140625 113.222656 C 249.394531 114.25 250.617188 115.308594 251.820312 116.394531 C 253.019531 117.484375 254.191406 118.601562 255.335938 119.746094 C 256.480469 120.894531 257.597656 122.066406 258.6875 123.265625 C 259.773438 124.46875 260.832031 125.695312 261.859375 126.949219 C 262.886719 128.199219 263.882812 129.476562 264.847656 130.777344 C 265.8125 132.082031 266.742188 133.40625 267.644531 134.753906 C 268.542969 136.101562 269.410156 137.46875 270.242188 138.859375 C 271.074219 140.25 271.871094 141.660156 272.632812 143.089844 C 273.398438 144.519531 274.125 145.964844 274.816406 147.429688 C 275.507812 148.894531 276.164062 150.378906 276.78125 151.875 C 277.402344 153.371094 277.984375 154.882812 278.527344 156.410156 C 279.074219 157.9375 279.582031 159.472656 280.050781 161.023438 C 280.519531 162.574219 280.949219 164.136719 281.34375 165.710938 C 281.734375 167.28125 282.089844 168.863281 282.402344 170.453125 C 282.71875 172.042969 282.996094 173.636719 283.230469 175.242188 C 283.46875 176.84375 283.664062 178.453125 283.824219 180.066406 C 283.980469 181.679688 284.097656 183.292969 284.175781 184.910156 C 284.253906 186.53125 284.292969 188.148438 284.292969 189.769531 Z M 284.292969 189.769531 " fill-opacity="1" fill-rule="nonzero"/><path fill="#000000" d="M 220.804688 282.222656 L 220.066406 280.304688 C 239.78125 272.734375 256.753906 258.632812 267.871094 240.59375 L 269.621094 241.671875 C 266.789062 246.265625 263.605469 250.597656 260.066406 254.671875 C 256.53125 258.746094 252.6875 262.507812 248.535156 265.953125 C 244.386719 269.398438 239.984375 272.488281 235.332031 275.21875 C 230.679688 277.949219 225.839844 280.28125 220.804688 282.222656 Z M 220.804688 282.222656 " fill-opacity="1" fill-rule="nonzero"/><path fill="#000000" d="M 185.351562 287.941406 L 185.351562 287.53125 C 197.425781 287.550781 209.097656 285.394531 220.367188 281.066406 L 220.515625 281.449219 C 209.195312 285.796875 197.472656 287.960938 185.351562 287.941406 Z M 185.351562 287.941406 " fill-opacity="1" fill-rule="nonzero"/><path fill="#000000" d="M 185.351562 288.765625 C 177.863281 288.765625 170.472656 287.9375 163.171875 286.269531 C 156.734375 284.796875 150.503906 282.695312 144.488281 279.960938 C 138.472656 277.230469 132.792969 273.921875 127.445312 270.039062 L 128.648438 268.375 C 133.882812 272.175781 139.449219 275.417969 145.339844 278.097656 C 151.234375 280.773438 157.332031 282.835938 163.640625 284.277344 C 170.785156 285.910156 178.023438 286.722656 185.351562 286.71875 Z M 185.351562 288.765625 " fill-opacity="1" fill-rule="nonzero"/><path fill="#000000" d="M 256.332031 149.515625 L 255.804688 148.609375 C 253.703125 145 251.335938 141.566406 248.703125 138.320312 C 246.070312 135.074219 243.203125 132.046875 240.105469 129.242188 C 237.007812 126.433594 233.714844 123.882812 230.222656 121.585938 C 226.730469 119.285156 223.085938 117.269531 219.285156 115.535156 L 220.140625 113.664062 C 223.953125 115.417969 227.613281 117.441406 231.125 119.742188 C 234.632812 122.042969 237.949219 124.589844 241.078125 127.390625 C 244.207031 130.1875 247.109375 133.203125 249.785156 136.433594 C 252.460938 139.667969 254.878906 143.082031 257.042969 146.675781 L 261.667969 143.855469 C 245.609375 117.195312 216.464844 100.679688 185.351562 100.679688 C 174.683594 100.664062 164.347656 102.515625 154.34375 106.230469 L 153.632812 104.304688 C 156.117188 103.378906 158.640625 102.566406 161.195312 101.863281 C 163.753906 101.160156 166.335938 100.570312 168.945312 100.09375 C 171.554688 99.617188 174.179688 99.253906 176.820312 99.007812 C 179.460938 98.757812 182.105469 98.625 184.757812 98.609375 C 187.410156 98.59375 190.058594 98.691406 192.699219 98.90625 C 195.34375 99.121094 197.972656 99.449219 200.585938 99.894531 C 203.203125 100.339844 205.792969 100.894531 208.359375 101.566406 C 210.925781 102.234375 213.457031 103.015625 215.953125 103.910156 C 218.453125 104.800781 220.90625 105.796875 223.316406 106.90625 C 225.726562 108.011719 228.085938 109.21875 230.390625 110.53125 C 232.695312 111.84375 234.9375 113.253906 237.121094 114.761719 C 239.304688 116.269531 241.414062 117.867188 243.457031 119.558594 C 245.5 121.253906 247.464844 123.03125 249.351562 124.894531 C 251.242188 126.757812 253.042969 128.699219 254.761719 130.722656 C 256.480469 132.742188 258.105469 134.835938 259.640625 137 C 261.175781 139.164062 262.613281 141.390625 263.957031 143.679688 L 264.46875 144.550781 Z M 256.332031 149.515625 " fill-opacity="1" fill-rule="nonzero"/><path fill="#000000" d="M 185.351562 280.914062 C 177.1875 280.917969 169.167969 279.84375 161.292969 277.691406 C 153.417969 275.535156 145.96875 272.378906 138.941406 268.21875 L 139.992188 266.449219 C 146.855469 270.515625 154.136719 273.601562 161.835938 275.707031 C 169.53125 277.8125 177.371094 278.863281 185.347656 278.859375 C 234.105469 278.859375 273.835938 239.453125 274.386719 190.796875 L 268.96875 190.796875 C 268.882812 197.894531 267.914062 204.863281 266.054688 211.714844 C 264.199219 218.5625 261.511719 225.066406 258 231.230469 L 256.21875 230.207031 C 259.726562 224.046875 262.390625 217.539062 264.203125 210.6875 C 266.019531 203.832031 266.925781 196.859375 266.921875 189.769531 L 266.921875 188.742188 L 276.445312 188.742188 L 276.445312 189.769531 C 276.449219 191.261719 276.414062 192.753906 276.339844 194.242188 C 276.269531 195.734375 276.160156 197.222656 276.015625 198.707031 C 275.871094 200.191406 275.6875 201.671875 275.46875 203.148438 C 275.253906 204.625 275 206.09375 274.707031 207.558594 C 274.417969 209.019531 274.09375 210.476562 273.730469 211.921875 C 273.371094 213.371094 272.972656 214.808594 272.539062 216.234375 C 272.109375 217.664062 271.640625 219.082031 271.140625 220.484375 C 270.636719 221.890625 270.101562 223.28125 269.53125 224.660156 C 268.960938 226.039062 268.359375 227.402344 267.722656 228.753906 C 267.085938 230.101562 266.414062 231.433594 265.710938 232.75 C 265.007812 234.066406 264.273438 235.363281 263.507812 236.644531 C 262.742188 237.921875 261.945312 239.183594 261.117188 240.425781 C 260.289062 241.664062 259.429688 242.882812 258.542969 244.082031 C 257.652344 245.28125 256.738281 246.457031 255.792969 247.609375 C 254.84375 248.765625 253.871094 249.894531 252.871094 251 C 251.867188 252.105469 250.839844 253.183594 249.785156 254.238281 C 248.730469 255.296875 247.652344 256.324219 246.546875 257.324219 C 245.441406 258.328125 244.3125 259.300781 243.160156 260.246094 C 242.007812 261.195312 240.832031 262.113281 239.636719 263 C 238.4375 263.886719 237.21875 264.746094 235.976562 265.574219 C 234.738281 266.40625 233.480469 267.203125 232.199219 267.96875 C 230.921875 268.734375 229.621094 269.46875 228.308594 270.171875 C 226.992188 270.875 225.660156 271.546875 224.3125 272.183594 C 222.964844 272.820312 221.601562 273.425781 220.222656 273.996094 C 218.84375 274.566406 217.453125 275.101562 216.050781 275.605469 C 214.644531 276.105469 213.230469 276.574219 211.804688 277.003906 C 210.375 277.4375 208.9375 277.835938 207.492188 278.195312 C 206.046875 278.558594 204.589844 278.882812 203.128906 279.175781 C 201.664062 279.464844 200.195312 279.71875 198.722656 279.9375 C 197.246094 280.15625 195.765625 280.335938 194.28125 280.480469 C 192.796875 280.628906 191.3125 280.734375 189.820312 280.808594 C 188.332031 280.878906 186.84375 280.914062 185.351562 280.914062 Z M 185.351562 280.914062 " fill-opacity="1" fill-rule="nonzero"/><path fill="#000000" d="M 235.492188 255.71875 L 235.242188 255.394531 C 239.652344 252.039062 243.683594 248.277344 247.335938 244.109375 C 250.988281 239.9375 254.1875 235.449219 256.933594 230.632812 L 257.289062 230.839844 C 254.53125 235.675781 251.316406 240.191406 247.648438 244.378906 C 243.976562 248.570312 239.925781 252.347656 235.492188 255.71875 Z M 235.492188 255.71875 " fill-opacity="1" fill-rule="nonzero"/><path fill="#000000" d="M 185.351562 273.441406 L 185.351562 271.386719 C 203.371094 271.386719 220.449219 265.632812 234.742188 254.726562 L 235.988281 256.371094 C 232.375 259.128906 228.566406 261.574219 224.550781 263.707031 C 220.539062 265.839844 216.382812 267.632812 212.078125 269.085938 C 207.769531 270.535156 203.375 271.628906 198.890625 272.359375 C 194.40625 273.09375 189.894531 273.457031 185.351562 273.449219 Z M 185.351562 273.441406 " fill-opacity="1" fill-rule="nonzero"/><path fill="#000000" d="M 185.351562 272.617188 C 175.5 272.632812 165.953125 270.933594 156.710938 267.527344 L 156.851562 267.144531 C 166.050781 270.53125 175.554688 272.222656 185.355469 272.207031 Z M 185.351562 272.617188 " fill-opacity="1" fill-rule="nonzero"/><path fill="#000000" d="M 219.625 114.78125 C 214.25 112.3125 208.671875 110.453125 202.894531 109.195312 C 197.113281 107.9375 191.265625 107.316406 185.351562 107.332031 L 185.351562 106.921875 C 191.296875 106.90625 197.171875 107.53125 202.980469 108.792969 C 208.789062 110.054688 214.394531 111.925781 219.796875 114.40625 Z M 219.625 114.78125 " fill-opacity="1" fill-rule="nonzero"/><g clip-path="url(#bd4640e7a2)"><path fill="#000000" d="M 233.445312 142.152344 C 235.679688 143.171875 236.667969 145.8125 235.652344 148.054688 C 233.832031 152.070312 230.746094 155.472656 227.335938 158.210938 C 232.058594 166.082031 233.144531 176.257812 230.863281 186.917969 L 234.828125 192.898438 C 237.1875 196.457031 235.621094 201.292969 231.625 202.78125 L 223.421875 205.835938 C 220.546875 210.796875 216.96875 215.632812 212.71875 220.148438 C 212.71875 222.871094 212.679688 225.816406 212.617188 228.484375 C 212.511719 232.761719 208.460938 235.820312 204.339844 234.738281 L 197.199219 232.863281 C 190.621094 236.917969 183.746094 239.714844 177.054688 241.222656 L 173.4375 246.667969 C 171.074219 250.222656 166.019531 250.636719 163.113281 247.511719 L 157.8125 241.816406 C 153.574219 240.996094 149.683594 239.484375 146.332031 237.265625 L 138.652344 236.769531 C 134.398438 236.496094 131.511719 232.3125 132.757812 228.222656 L 134.914062 221.128906 C 134.921875 221.101562 134.929688 221.074219 134.9375 221.046875 C 133.367188 215.371094 133.136719 208.929688 134.222656 202.222656 C 132.730469 200.035156 131.003906 197.546875 129.53125 195.320312 C 127.167969 191.761719 128.738281 186.925781 132.730469 185.4375 L 140.976562 182.371094 C 141.019531 182.355469 141.066406 182.335938 141.113281 182.320312 C 145.5 174.136719 151.460938 166.847656 158.460938 160.773438 L 158.597656 155.003906 C 158.699219 150.730469 162.75 147.671875 166.871094 148.753906 L 173.566406 150.511719 C 191.28125 141.441406 210.078125 141.308594 221.628906 151.378906 C 224.011719 149.496094 226.300781 147.164062 227.566406 144.367188 C 228.582031 142.125 231.214844 141.136719 233.445312 142.152344 Z M 165.664062 176.0625 C 179.527344 162.15625 196.914062 156.351562 207.484375 161.285156 L 151.105469 218.375 C 145.882812 207.808594 151.644531 190.128906 165.664062 176.0625 Z M 200.089844 210.597656 C 185.757812 224.976562 167.660156 230.695312 157.222656 224.839844 L 214.089844 167.257812 C 220.242188 177.671875 214.574219 196.066406 200.089844 210.597656 Z M 200.089844 210.597656 " fill-opacity="1" fill-rule="evenodd"/></g></svg>