<svg xmlns="http://www.w3.org/2000/svg" xmlns:xlink="http://www.w3.org/1999/xlink" width="500" zoomAndPan="magnify" viewBox="0 0 375 374.999991" height="500" preserveAspectRatio="xMidYMid meet" version="1.0"><defs><clipPath id="f08de7a74c"><path d="M 76 277 L 326 277 L 326 347.609375 L 76 347.609375 Z M 76 277 " clip-rule="nonzero"/></clipPath><clipPath id="e75ef0ce13"><path d="M 26.757812 91 L 60 91 L 60 254 L 26.757812 254 Z M 26.757812 91 " clip-rule="nonzero"/></clipPath><clipPath id="626492eba9"><path d="M 237 183 L 348.507812 183 L 348.507812 330 L 237 330 Z M 237 183 " clip-rule="nonzero"/></clipPath><clipPath id="8fd146dcb9"><path d="M 38 27.359375 L 189 27.359375 L 189 309 L 38 309 Z M 38 27.359375 " clip-rule="nonzero"/></clipPath></defs><rect x="-37.5" width="450" fill="#ffffff" y="-37.499999" height="449.999989" fill-opacity="1"/><rect x="-37.5" width="450" fill="#ffffff" y="-37.499999" height="449.999989" fill-opacity="1"/><g clip-path="url(#f08de7a74c)"><path fill="#545454" d="M 314.792969 281.003906 C 314.8125 280.980469 314.84375 280.9375 314.882812 280.882812 C 314.84375 280.933594 314.8125 280.976562 314.792969 281.003906 Z M 316.121094 287.101562 C 314.035156 285.515625 313.632812 282.527344 315.222656 280.4375 C 315.144531 280.542969 315.070312 280.640625 315 280.734375 C 315.0625 280.652344 315.132812 280.558594 315.222656 280.4375 C 315.5 280.078125 315.628906 279.90625 315.667969 279.859375 C 315.617188 279.925781 315.421875 280.183594 315.222656 280.4375 C 316.816406 278.355469 319.804688 277.953125 321.894531 279.542969 C 323.976562 281.132812 324.382812 284.121094 322.789062 286.203125 C 321.199219 288.289062 318.207031 288.691406 316.121094 287.101562 Z M 77.867188 298.539062 C 75.792969 300.746094 75.902344 304.214844 78.109375 306.289062 C 79.707031 307.789062 81.96875 308.140625 83.878906 307.390625 C 113.84375 333.355469 151.894531 347.605469 191.625 347.605469 C 217.289062 347.605469 241.890625 341.839844 264.75 330.472656 C 284.734375 320.539062 302.785156 306.363281 317.28125 289.28125 C 319.675781 289.972656 322.355469 289.179688 323.949219 287.085938 C 326.03125 284.363281 325.503906 280.457031 322.773438 278.382812 C 320.050781 276.308594 316.140625 276.832031 314.0625 279.558594 C 312.550781 281.535156 312.425781 284.144531 313.511719 286.214844 C 283.003906 322.21875 238.917969 342.746094 191.625 342.746094 C 153.101562 342.746094 116.210938 328.941406 87.144531 303.78125 C 87.679688 301.875 87.167969 299.746094 85.625 298.296875 C 83.414062 296.226562 79.941406 296.332031 77.867188 298.539062 " fill-opacity="1" fill-rule="nonzero"/></g><g clip-path="url(#e75ef0ce13)"><path fill="#545454" d="M 47.527344 246.371094 C 47.515625 246.347656 47.496094 246.304688 47.46875 246.242188 C 47.496094 246.3125 47.515625 246.351562 47.527344 246.371094 Z M 47.039062 245.289062 C 46.902344 244.988281 46.84375 244.851562 47.039062 245.289062 Z M 40.933594 243.308594 C 43.328125 242.234375 46.148438 243.304688 47.222656 245.699219 C 48.296875 248.089844 47.226562 250.90625 44.832031 251.980469 C 42.4375 253.054688 39.617188 251.984375 38.542969 249.589844 C 37.46875 247.199219 38.539062 244.382812 40.933594 243.308594 Z M 59.03125 99.707031 C 60.691406 97.175781 59.984375 93.777344 57.449219 92.117188 C 54.914062 90.460938 51.511719 91.171875 49.851562 93.703125 C 48.636719 95.550781 48.695312 97.863281 49.800781 99.621094 C 34.855469 124.875 26.976562 153.625 26.976562 183.109375 C 26.976562 203.9375 30.832031 224.164062 38.414062 243.332031 C 36.703125 245.105469 36.140625 247.808594 37.210938 250.1875 C 38.613281 253.316406 42.304688 254.714844 45.429688 253.3125 C 48.558594 251.90625 49.957031 248.222656 48.554688 245.101562 C 47.523438 242.804688 45.261719 241.445312 42.898438 241.441406 C 35.566406 222.871094 31.839844 203.28125 31.839844 183.109375 C 31.839844 154.527344 39.472656 126.65625 53.949219 102.167969 C 55.902344 102.339844 57.882812 101.460938 59.03125 99.707031 " fill-opacity="1" fill-rule="nonzero"/></g><path fill="#545454" d="M 259.5625 54.265625 C 259.613281 54.289062 259.625 54.296875 259.5625 54.265625 Z M 259.53125 54.253906 C 259.5 54.234375 259.445312 54.207031 259.382812 54.175781 C 259.441406 54.203125 259.496094 54.234375 259.53125 54.253906 Z M 263.179688 45.441406 C 265.527344 46.617188 266.480469 49.476562 265.3125 51.816406 C 264.136719 54.164062 261.273438 55.121094 258.925781 53.949219 C 256.582031 52.78125 255.625 49.917969 256.796875 47.574219 C 257.96875 45.226562 260.828125 44.273438 263.179688 45.441406 Z M 314.511719 87.171875 C 313.171875 85.40625 310.964844 84.683594 308.929688 85.144531 C 297.242188 71.207031 282.988281 59.308594 267.234375 50.300781 C 267.472656 47.816406 266.195312 45.320312 263.828125 44.140625 C 260.761719 42.613281 257.019531 43.859375 255.492188 46.925781 C 253.960938 49.988281 255.210938 53.722656 258.277344 55.253906 C 260.5 56.363281 263.066406 56.007812 264.898438 54.566406 C 280.101562 63.269531 293.859375 74.757812 305.152344 88.199219 C 304.339844 89.980469 304.503906 92.128906 305.765625 93.796875 C 307.597656 96.210938 311.039062 96.679688 313.453125 94.855469 C 315.871094 93.027344 316.34375 89.585938 314.511719 87.171875 " fill-opacity="1" fill-rule="nonzero"/><g clip-path="url(#626492eba9)"><path fill="#545454" d="M 337.269531 189.777344 C 337.265625 189.847656 337.265625 189.898438 337.265625 189.929688 C 337.265625 189.902344 337.265625 189.851562 337.269531 189.777344 Z M 337.292969 188.476562 C 337.292969 188.464844 337.292969 188.464844 337.292969 188.476562 Z M 342.132812 184.566406 C 344.753906 184.621094 346.847656 186.796875 346.792969 189.414062 C 346.738281 192.035156 344.558594 194.125 341.9375 194.070312 C 339.316406 194.019531 337.222656 191.84375 337.28125 189.222656 C 337.273438 189.421875 337.273438 189.621094 337.269531 189.765625 C 337.269531 189.644531 337.273438 189.464844 337.28125 189.21875 C 337.285156 188.832031 337.292969 188.621094 337.292969 188.527344 C 337.289062 188.648438 337.285156 188.933594 337.28125 189.21875 C 337.335938 186.601562 339.511719 184.515625 342.132812 184.566406 Z M 348.25 189.445312 C 348.320312 186.023438 345.589844 183.175781 342.164062 183.109375 C 338.734375 183.035156 335.890625 185.765625 335.820312 189.191406 C 335.769531 191.664062 337.1875 193.832031 339.265625 194.871094 C 334.851562 251.015625 299.246094 299.394531 246.777344 320.441406 C 245.339844 319.113281 243.234375 318.601562 241.257812 319.28125 C 238.394531 320.269531 236.875 323.390625 237.863281 326.253906 C 238.855469 329.117188 241.980469 330.632812 244.84375 329.644531 C 246.9375 328.921875 248.308594 327.054688 248.511719 324.980469 C 274.765625 314.449219 297.503906 296.917969 314.515625 274.023438 C 331.710938 250.882812 341.882812 223.730469 344.121094 195.160156 C 346.480469 194.320312 348.195312 192.09375 348.25 189.445312 C 348.25 189.449219 348.25 189.457031 348.25 189.460938 C 348.25 189.457031 348.25 189.449219 348.25 189.445312 C 348.253906 189.347656 348.253906 189.257812 348.257812 189.171875 C 348.253906 189.261719 348.253906 189.355469 348.25 189.445312 " fill-opacity="1" fill-rule="nonzero"/></g><g clip-path="url(#8fd146dcb9)"><path fill="#545454" d="M 102.339844 298.171875 C 102.324219 298.15625 102.324219 298.15625 102.339844 298.171875 Z M 96.28125 299.605469 C 97.839844 297.496094 100.824219 297.054688 102.933594 298.609375 C 102.695312 298.433594 102.457031 298.257812 102.367188 298.1875 C 102.4375 298.242188 102.609375 298.371094 102.933594 298.609375 C 103.3125 298.890625 103.484375 299.015625 103.53125 299.050781 C 103.46875 299.003906 103.203125 298.808594 102.933594 298.613281 C 105.042969 300.171875 105.492188 303.152344 103.929688 305.257812 C 102.371094 307.367188 99.386719 307.8125 97.277344 306.253906 C 95.167969 304.695312 94.71875 301.710938 96.28125 299.605469 Z M 177.980469 30.886719 C 140.953125 34.171875 106.59375 50.742188 80.753906 77.910156 C 53.605469 106.457031 38.652344 143.816406 38.652344 183.109375 C 38.652344 207.292969 44.167969 230.4375 55.042969 251.90625 C 64.503906 270.574219 77.945312 287.363281 94.117188 300.78125 C 93.457031 303.1875 94.285156 305.855469 96.410156 307.425781 C 99.164062 309.460938 103.066406 308.878906 105.101562 306.125 C 107.140625 303.371094 106.558594 299.472656 103.804688 297.441406 C 101.800781 295.957031 99.199219 295.871094 97.144531 296.976562 C 62.984375 268.707031 43.515625 227.539062 43.515625 183.109375 C 43.515625 106.269531 102.3125 42.511719 178.304688 35.742188 C 179.296875 37.445312 181.183594 38.558594 183.292969 38.460938 C 186.320312 38.324219 188.664062 35.761719 188.527344 32.738281 C 188.390625 29.714844 185.824219 27.371094 182.796875 27.507812 C 180.601562 27.609375 178.769531 28.988281 177.980469 30.886719 " fill-opacity="1" fill-rule="nonzero"/></g><path fill="#545454" d="M 318.28125 227.160156 C 318.269531 227.207031 318.253906 227.25 318.238281 227.292969 C 318.25 227.25 318.269531 227.207031 318.28125 227.160156 Z M 318.230469 227.320312 C 318.210938 227.375 318.195312 227.421875 318.183594 227.464844 C 318.195312 227.425781 318.210938 227.378906 318.230469 227.320312 Z M 318.148438 227.574219 C 318.144531 227.585938 318.144531 227.585938 318.148438 227.574219 Z M 318.511719 226.4375 C 318.515625 226.425781 318.519531 226.421875 318.523438 226.410156 C 318.519531 226.421875 318.515625 226.425781 318.511719 226.4375 Z M 318.570312 226.265625 C 318.589844 226.207031 318.601562 226.171875 318.605469 226.152344 C 318.597656 226.171875 318.589844 226.207031 318.570312 226.265625 Z M 324.363281 223.800781 C 326.863281 224.601562 328.238281 227.289062 327.429688 229.78125 C 326.625 232.277344 323.941406 233.652344 321.441406 232.847656 C 318.949219 232.042969 317.574219 229.359375 318.375 226.863281 C 318.414062 226.75 318.445312 226.65625 318.472656 226.570312 C 318.441406 226.664062 318.410156 226.761719 318.375 226.863281 C 319.179688 224.367188 321.867188 222.996094 324.363281 223.800781 Z M 328.949219 229.847656 C 328.90625 229.96875 328.863281 230.097656 328.820312 230.230469 C 329.875 226.96875 328.074219 223.464844 324.8125 222.410156 C 321.550781 221.363281 318.042969 223.15625 316.988281 226.414062 C 316.226562 228.769531 316.960938 231.25 318.648438 232.84375 C 298.214844 284.867188 247.90625 319.417969 191.625 319.417969 C 145.367188 319.417969 101.847656 295.5 76.816406 256.667969 C 77.851562 255.015625 77.964844 252.859375 76.929688 251.046875 C 75.429688 248.417969 72.078125 247.5 69.445312 249.003906 C 66.8125 250.5 65.898438 253.851562 67.398438 256.480469 C 68.5 258.40625 70.59375 259.410156 72.671875 259.21875 C 84.769531 278.023438 101.246094 293.820312 120.59375 305.105469 C 142.085938 317.648438 166.648438 324.277344 191.625 324.277344 C 249.949219 324.277344 302.078125 288.453125 323.21875 234.519531 C 325.722656 234.390625 328.007812 232.75 328.820312 230.230469 C 328.710938 230.566406 328.605469 230.902344 328.550781 231.066406 C 328.589844 230.9375 328.675781 230.679688 328.820312 230.230469 C 328.867188 230.078125 328.910156 229.957031 328.949219 229.847656 " fill-opacity="1" fill-rule="nonzero"/><path fill="#545454" d="M 52.808594 185.054688 C 50.183594 185.042969 48.0625 182.898438 48.074219 180.28125 C 48.085938 177.65625 50.230469 175.535156 52.855469 175.550781 C 55.476562 175.5625 57.601562 177.703125 57.589844 180.324219 C 57.59375 179.671875 57.59375 179.015625 57.589844 180.324219 C 57.585938 180.722656 57.585938 180.9375 57.585938 181.03125 C 57.585938 180.910156 57.585938 180.617188 57.589844 180.324219 C 57.574219 182.949219 55.429688 185.070312 52.808594 185.054688 Z M 191.625 44.371094 C 191.546875 41.34375 189.027344 38.949219 186 39.03125 C 183.792969 39.085938 181.929688 40.4375 181.105469 42.335938 C 146.941406 44.863281 115.0625 59.621094 90.847656 84.25 C 66.800781 108.714844 52.644531 140.570312 50.59375 174.515625 C 48.277344 175.410156 46.628906 177.648438 46.613281 180.273438 C 46.597656 183.695312 49.375 186.496094 52.800781 186.515625 C 56.230469 186.53125 59.03125 183.757812 59.046875 180.332031 C 59.058594 177.835938 57.585938 175.675781 55.457031 174.679688 C 59.605469 106.828125 113.433594 52.25 181.355469 47.195312 C 182.320312 48.90625 184.171875 50.042969 186.277344 49.992188 C 189.308594 49.914062 191.699219 47.398438 191.625 44.371094 " fill-opacity="1" fill-rule="nonzero"/><path fill="#545454" d="M 94.726562 108.449219 C 94.742188 108.425781 94.742188 108.425781 94.726562 108.449219 Z M 94.6875 108.503906 C 94.628906 108.585938 94.515625 108.738281 94.332031 108.988281 C 94.476562 108.792969 94.613281 108.601562 94.6875 108.503906 Z M 94.253906 109.09375 C 94.136719 109.253906 94.046875 109.375 93.984375 109.464844 C 94.058594 109.363281 94.15625 109.230469 94.253906 109.09375 Z M 93.957031 109.5 C 93.929688 109.535156 93.90625 109.566406 93.890625 109.589844 C 93.90625 109.566406 93.929688 109.535156 93.957031 109.5 Z M 93.863281 109.625 C 93.839844 109.65625 93.84375 109.652344 93.863281 109.625 Z M 93.269531 102.394531 C 95.382812 103.945312 95.84375 106.925781 94.292969 109.042969 C 92.742188 111.15625 89.761719 111.613281 87.644531 110.066406 C 85.527344 108.515625 85.066406 105.535156 86.617188 103.421875 C 88.167969 101.304688 91.152344 100.847656 93.269531 102.394531 Z M 280.089844 88.550781 C 255.980469 65.980469 224.769531 53.605469 191.625 53.605469 C 171.023438 53.605469 151.3125 58.316406 133.042969 67.601562 C 117.421875 75.539062 103.378906 86.761719 92.097656 100.25 C 89.683594 99.589844 87.003906 100.425781 85.441406 102.5625 C 83.414062 105.320312 84.015625 109.214844 86.78125 111.242188 C 89.546875 113.265625 93.445312 112.664062 95.46875 109.902344 C 96.9375 107.902344 97.019531 105.308594 95.910156 103.261719 C 119.734375 74.722656 154.285156 58.464844 191.625 58.464844 C 223.488281 58.464844 253.492188 70.347656 276.691406 92.023438 C 276.085938 93.882812 276.496094 96 277.941406 97.507812 C 280.035156 99.695312 283.511719 99.773438 285.699219 97.679688 C 287.890625 95.585938 287.964844 92.117188 285.871094 89.925781 C 284.332031 88.328125 282.058594 87.859375 280.089844 88.550781 " fill-opacity="1" fill-rule="nonzero"/><path fill="#545454" d="M 190.070312 293.757812 C 190.085938 293.757812 190.113281 293.757812 190.152344 293.757812 C 190.117188 293.757812 190.085938 293.757812 190.070312 293.757812 Z M 190.207031 293.757812 C 190.28125 293.753906 190.394531 293.753906 190.546875 293.75 C 190.414062 293.753906 190.292969 293.753906 190.207031 293.757812 Z M 191.398438 293.734375 C 191.429688 293.734375 191.457031 293.734375 191.476562 293.734375 C 191.453125 293.734375 191.429688 293.734375 191.398438 293.734375 Z M 191.550781 293.734375 C 191.574219 293.730469 191.574219 293.730469 191.550781 293.734375 Z M 186.140625 298.582031 C 186.09375 295.957031 188.1875 293.789062 190.808594 293.742188 C 190.808594 293.742188 190.804688 293.742188 190.800781 293.742188 C 190.804688 293.742188 190.808594 293.742188 190.808594 293.742188 C 190.925781 293.742188 191.019531 293.738281 191.105469 293.738281 C 191.011719 293.738281 190.914062 293.742188 190.808594 293.742188 C 193.4375 293.699219 195.605469 295.792969 195.652344 298.410156 C 195.699219 301.035156 193.601562 303.203125 190.980469 303.25 C 188.355469 303.296875 186.1875 301.203125 186.140625 298.582031 Z M 191.003906 304.707031 C 194.4375 304.644531 197.175781 301.808594 197.113281 298.386719 C 197.050781 294.964844 194.210938 292.222656 190.785156 292.285156 C 188.324219 292.328125 186.222656 293.808594 185.253906 295.902344 C 125.886719 292.585938 78.542969 243.183594 78.542969 183.109375 C 78.542969 141.585938 100.828125 104.144531 137.039062 84.1875 C 138.609375 85.332031 140.738281 85.605469 142.621094 84.71875 C 145.359375 83.421875 146.53125 80.15625 145.238281 77.417969 C 143.941406 74.679688 140.671875 73.511719 137.929688 74.804688 C 135.914062 75.757812 134.75 77.78125 134.792969 79.878906 C 117.398438 89.472656 102.660156 103.304688 91.960938 120.148438 C 80 138.980469 73.679688 160.75 73.679688 183.109375 C 73.679688 245.816406 123.132812 297.375 185.117188 300.769531 C 186.042969 303.109375 188.34375 304.753906 191.003906 304.707031 " fill-opacity="1" fill-rule="nonzero"/><path fill="#545454" d="M 101.015625 223.210938 C 101.019531 223.21875 101.023438 223.226562 101.027344 223.238281 C 101.023438 223.226562 101.019531 223.222656 101.015625 223.210938 Z M 101.40625 224.003906 C 101.429688 224.050781 101.449219 224.097656 101.46875 224.136719 C 101.449219 224.09375 101.425781 224.050781 101.40625 224.003906 Z M 101.597656 224.394531 C 101.628906 224.464844 101.648438 224.503906 101.660156 224.527344 C 101.648438 224.5 101.625 224.457031 101.597656 224.394531 Z M 94.964844 221.695312 C 97.320312 220.539062 100.175781 221.507812 101.335938 223.863281 C 102.492188 226.214844 101.519531 229.066406 99.164062 230.222656 C 96.808594 231.382812 93.953125 230.40625 92.796875 228.058594 C 91.636719 225.707031 92.609375 222.847656 94.964844 221.695312 Z M 85.355469 183.109375 C 85.355469 196.445312 87.792969 209.382812 92.601562 221.644531 C 90.832031 223.476562 90.300781 226.289062 91.488281 228.699219 C 91.324219 228.375 91.167969 228.050781 91.09375 227.898438 C 91.152344 228.019531 91.273438 228.261719 91.488281 228.699219 C 91.699219 229.132812 91.820312 229.375 91.878906 229.492188 C 91.804688 229.34375 91.644531 229.023438 91.488281 228.699219 C 93 231.773438 96.734375 233.042969 99.808594 231.53125 C 102.882812 230.023438 104.15625 226.289062 102.644531 223.21875 C 101.570312 221.035156 99.371094 219.769531 97.085938 219.753906 C 92.53125 208.09375 90.21875 195.792969 90.21875 183.109375 C 90.21875 127.246094 135.710938 81.796875 191.625 81.796875 C 198.867188 81.796875 206.066406 82.578125 213.09375 84.09375 C 213.519531 85.976562 214.921875 87.574219 216.902344 88.15625 C 219.8125 89.007812 222.859375 87.339844 223.714844 84.433594 C 224.5625 81.53125 222.894531 78.484375 219.988281 77.632812 C 217.835938 77.003906 215.613281 77.753906 214.253906 79.359375 C 206.847656 77.753906 199.257812 76.9375 191.625 76.9375 C 133.027344 76.9375 85.355469 124.566406 85.355469 183.109375 " fill-opacity="1" fill-rule="nonzero"/><path fill="#545454" d="M 253.625 244.582031 C 253.578125 244.632812 253.535156 244.679688 253.503906 244.71875 C 253.535156 244.683594 253.578125 244.636719 253.625 244.582031 Z M 254.117188 244.050781 C 254.160156 244.003906 254.203125 243.957031 254.238281 243.917969 C 254.199219 243.960938 254.160156 244.003906 254.117188 244.050781 Z M 254.355469 243.792969 C 254.484375 243.652344 254.460938 243.679688 254.355469 243.792969 Z M 260.652344 243.984375 C 262.578125 245.761719 262.699219 248.777344 260.917969 250.703125 C 259.140625 252.628906 256.125 252.75 254.195312 250.972656 C 252.269531 249.195312 252.148438 246.179688 253.929688 244.253906 C 253.910156 244.277344 253.890625 244.296875 253.867188 244.320312 C 253.890625 244.296875 253.910156 244.277344 253.929688 244.253906 C 253.964844 244.214844 253.996094 244.183594 254.023438 244.148438 C 253.996094 244.183594 253.964844 244.21875 253.929688 244.253906 C 255.710938 242.324219 258.726562 242.207031 260.652344 243.984375 Z M 261.992188 251.691406 C 264.320312 249.175781 264.160156 245.242188 261.640625 242.914062 C 259.125 240.589844 255.183594 240.75 252.859375 243.261719 C 251.199219 245.054688 250.808594 247.566406 251.628906 249.699219 C 235.117188 264.609375 214.035156 272.753906 191.625 272.753906 C 142.148438 272.753906 101.894531 232.539062 101.894531 183.109375 C 101.894531 137.292969 136.441406 99.121094 181.441406 94.042969 C 182.4375 95.679688 184.261719 96.753906 186.316406 96.6875 C 189.34375 96.589844 191.71875 94.058594 191.625 91.03125 C 191.527344 88.003906 188.988281 85.632812 185.960938 85.730469 C 183.707031 85.800781 181.816406 87.226562 181.035156 89.195312 C 133.523438 94.480469 97.03125 134.757812 97.03125 183.109375 C 97.03125 235.21875 139.464844 277.613281 191.625 277.613281 C 215.304688 277.613281 237.585938 268.980469 255.011719 253.195312 C 257.355469 254.179688 260.167969 253.664062 261.992188 251.691406 " fill-opacity="1" fill-rule="nonzero"/><path fill="#545454" d="M 267.144531 188.394531 C 267.144531 188.410156 267.144531 188.433594 267.144531 188.460938 C 267.144531 188.429688 267.144531 188.410156 267.144531 188.394531 Z M 267.136719 188.5625 C 267.132812 188.679688 267.125 188.835938 267.121094 189.003906 C 267.128906 188.804688 267.132812 188.664062 267.136719 188.5625 Z M 267.09375 189.75 C 267.09375 189.765625 267.09375 189.773438 267.09375 189.785156 C 267.09375 189.773438 267.09375 189.761719 267.09375 189.75 Z M 267.085938 189.875 C 267.085938 189.890625 267.085938 189.890625 267.085938 189.875 Z M 272.050781 184.566406 C 274.671875 184.664062 276.722656 186.878906 276.625 189.496094 C 276.519531 192.117188 274.3125 194.164062 271.6875 194.066406 C 269.066406 193.964844 267.015625 191.75 267.113281 189.132812 C 267.21875 186.515625 269.429688 184.464844 272.050781 184.566406 Z M 278.082031 189.550781 C 278.214844 186.132812 275.53125 183.238281 272.109375 183.109375 C 268.683594 182.976562 265.789062 185.652344 265.65625 189.078125 C 265.566406 191.46875 266.851562 193.601562 268.804688 194.710938 C 265.242188 218.292969 250.894531 239.148438 230.027344 250.980469 C 228.488281 249.867188 226.421875 249.578125 224.566406 250.410156 C 221.800781 251.648438 220.558594 254.890625 221.800781 257.652344 C 223.039062 260.417969 226.285156 261.65625 229.050781 260.417969 C 231.132812 259.488281 232.347656 257.421875 232.292969 255.28125 C 254.578125 242.699219 269.894531 220.4375 273.640625 195.261719 C 276.117188 194.523438 277.976562 192.277344 278.082031 189.550781 " fill-opacity="1" fill-rule="nonzero"/><path fill="#545454" d="M 165.671875 254.226562 C 165.667969 254.226562 165.664062 254.222656 165.660156 254.222656 C 165.664062 254.222656 165.667969 254.226562 165.671875 254.226562 Z M 163.558594 263.523438 C 161.050781 262.746094 159.644531 260.078125 160.421875 257.574219 C 161.195312 255.074219 163.867188 253.667969 166.371094 254.441406 C 166.105469 254.355469 165.839844 254.277344 165.71875 254.238281 C 165.8125 254.269531 166.015625 254.332031 166.371094 254.441406 C 166.761719 254.5625 166.96875 254.625 167.050781 254.652344 C 166.945312 254.617188 166.660156 254.53125 166.375 254.441406 C 168.878906 255.214844 170.285156 257.882812 169.511719 260.386719 C 168.734375 262.890625 166.066406 264.296875 163.558594 263.523438 Z M 114.636719 195.941406 C 116.214844 194.882812 117.199219 193.035156 117.050781 191 C 116.835938 187.980469 114.210938 185.710938 111.1875 185.925781 C 108.164062 186.144531 105.890625 188.765625 106.105469 191.785156 C 106.265625 194.050781 107.789062 195.898438 109.816406 196.585938 C 114.386719 224.292969 132.941406 247.988281 158.757812 259.164062 C 158.835938 261.742188 160.523438 264.113281 163.128906 264.914062 C 162.78125 264.808594 162.441406 264.703125 162.28125 264.652344 C 162.40625 264.691406 162.667969 264.773438 163.128906 264.914062 C 163.625 265.070312 163.894531 265.152344 164.007812 265.1875 C 163.863281 265.144531 163.496094 265.027344 163.128906 264.914062 C 166.402344 265.929688 169.890625 264.089844 170.90625 260.816406 C 171.917969 257.546875 170.078125 254.0625 166.804688 253.046875 C 164.511719 252.339844 162.117188 253.03125 160.535156 254.632812 C 136.355469 244.109375 118.972656 221.902344 114.636719 195.941406 " fill-opacity="1" fill-rule="nonzero"/><path fill="#000000" d="M 242.445312 128.652344 C 244.679688 129.671875 245.667969 132.3125 244.652344 134.554688 C 242.832031 138.570312 239.746094 141.972656 236.335938 144.710938 C 241.058594 152.582031 242.144531 162.757812 239.863281 173.417969 L 243.828125 179.398438 C 246.1875 182.957031 244.621094 187.792969 240.625 189.28125 L 232.421875 192.335938 C 229.546875 197.296875 225.96875 202.132812 221.71875 206.648438 C 221.71875 209.371094 221.679688 212.316406 221.617188 214.984375 C 221.511719 219.261719 217.460938 222.320312 213.339844 221.238281 L 206.199219 219.363281 C 199.621094 223.417969 192.746094 226.214844 186.054688 227.722656 L 182.4375 233.167969 C 180.074219 236.722656 175.019531 237.136719 172.113281 234.011719 L 166.8125 228.316406 C 162.574219 227.496094 158.683594 225.984375 155.332031 223.765625 L 147.652344 223.269531 C 143.398438 222.996094 140.511719 218.8125 141.757812 214.722656 L 143.914062 207.628906 C 143.921875 207.601562 143.929688 207.574219 143.9375 207.546875 C 142.367188 201.871094 142.136719 195.429688 143.222656 188.722656 C 141.730469 186.535156 140.003906 184.046875 138.53125 181.820312 C 136.167969 178.261719 137.738281 173.425781 141.730469 171.9375 L 149.976562 168.871094 C 150.019531 168.855469 150.066406 168.835938 150.113281 168.820312 C 154.5 160.636719 160.460938 153.347656 167.460938 147.273438 L 167.597656 141.503906 C 167.699219 137.230469 171.75 134.171875 175.871094 135.253906 L 182.566406 137.011719 C 200.28125 127.941406 219.078125 127.808594 230.628906 137.878906 C 233.011719 135.996094 235.300781 133.664062 236.566406 130.867188 C 237.582031 128.625 240.214844 127.636719 242.445312 128.652344 Z M 174.664062 162.5625 C 188.527344 148.65625 205.914062 142.851562 216.484375 147.785156 L 160.105469 204.875 C 154.882812 194.308594 160.644531 176.628906 174.664062 162.5625 Z M 209.089844 197.097656 C 194.757812 211.476562 176.660156 217.195312 166.222656 211.339844 L 223.089844 153.757812 C 229.242188 164.171875 223.574219 182.566406 209.089844 197.097656 Z M 209.089844 197.097656 " fill-opacity="1" fill-rule="evenodd"/></svg>