<svg xmlns="http://www.w3.org/2000/svg" xmlns:xlink="http://www.w3.org/1999/xlink" width="500" zoomAndPan="magnify" viewBox="0 0 375 374.999991" height="500" preserveAspectRatio="xMidYMid meet" version="1.0"><rect x="-37.5" width="450" fill="#ffffff" y="-37.499999" height="449.999989" fill-opacity="1"/><rect x="-37.5" width="450" fill="#ffffff" y="-37.499999" height="449.999989" fill-opacity="1"/><path fill="#2f8706" d="M 257.179688 114.667969 C 260.214844 116.046875 261.558594 119.625 260.175781 122.660156 C 257.851562 127.78125 253.859375 132.105469 250.515625 135.042969 C 248.804688 136.546875 247.125 137.808594 245.691406 138.734375 C 244.980469 139.1875 244.25 139.617188 243.546875 139.953125 C 243.199219 140.121094 242.773438 140.308594 242.300781 140.464844 C 241.929688 140.589844 241.085938 140.847656 240.03125 140.847656 C 236.699219 140.847656 233.996094 138.148438 233.996094 134.8125 C 233.996094 132.003906 235.914062 129.640625 238.515625 128.96875 C 238.664062 128.886719 238.878906 128.757812 239.15625 128.582031 C 240.035156 128.015625 241.238281 127.125 242.546875 125.976562 C 245.246094 123.601562 247.851562 120.601562 249.1875 117.664062 C 250.566406 114.628906 254.144531 113.289062 257.179688 114.667969 Z M 257.179688 114.667969 " fill-opacity="1" fill-rule="evenodd"/><path fill="#ffb054" d="M 229.007812 220.332031 C 229.671875 223.90625 228.953125 228.015625 228.867188 231.628906 C 228.726562 237.421875 223.222656 241.566406 217.617188 240.097656 L 207.914062 237.558594 C 198.972656 243.054688 189.628906 246.84375 180.53125 248.886719 L 175.617188 256.257812 C 172.402344 261.078125 165.535156 261.640625 161.585938 257.40625 L 154.382812 249.6875 C 148.617188 248.578125 143.335938 246.527344 138.777344 243.523438 L 128.335938 242.851562 C 122.558594 242.476562 118.636719 236.8125 120.328125 231.273438 C 121.316406 228.035156 122.246094 224.773438 123.292969 221.554688 C 121.15625 213.859375 120.84375 205.136719 122.320312 196.046875 C 119.714844 193.507812 117.945312 189.710938 115.941406 186.699219 C 112.734375 181.875 114.863281 175.324219 120.292969 173.308594 C 124.085938 171.902344 127.851562 170.371094 131.6875 169.085938 C 136.167969 160.75 142.097656 152.652344 149.445312 145.304688 C 151.339844 143.410156 153.28125 141.605469 155.261719 139.894531 L 155.449219 132.078125 C 155.585938 126.289062 161.09375 122.144531 166.695312 123.609375 L 175.792969 125.988281 C 200.902344 113.175781 227.609375 113.53125 243.078125 129 C 254.261719 140.183594 257.546875 157.238281 253.667969 175.316406 L 259.054688 183.417969 C 262.265625 188.238281 260.132812 194.792969 254.703125 196.804688 L 243.550781 200.941406 C 239.644531 207.664062 234.785156 214.214844 229.007812 220.332031 Z M 229.007812 220.332031 " fill-opacity="1" fill-rule="nonzero"/><path fill="#b8df46" d="M 221.890625 140.585938 C 207.527344 133.902344 183.894531 141.765625 165.050781 160.609375 C 145.996094 179.664062 138.167969 203.617188 145.261719 217.929688 Z M 221.890625 140.585938 " fill-opacity="1" fill-rule="nonzero"/><path fill="#b8df46" d="M 153.578125 226.691406 C 167.765625 234.621094 192.363281 226.875 211.839844 207.398438 C 231.53125 187.707031 239.230469 162.789062 230.871094 148.675781 Z M 153.578125 226.691406 " fill-opacity="1" fill-rule="nonzero"/></svg>