<svg xmlns="http://www.w3.org/2000/svg" xmlns:xlink="http://www.w3.org/1999/xlink" width="500" zoomAndPan="magnify" viewBox="0 0 375 374.999991" height="500" preserveAspectRatio="xMidYMid meet" version="1.0"><rect x="-37.5" width="450" fill="none" y="-37.499999" height="449.999989" fill-opacity="0"/><rect x="-37.5" width="450" fill="none" y="-37.499999" height="449.999989" fill-opacity="1"/><path fill="#000000" d="M 257.25 114.667969 C 260.289062 116.050781 261.632812 119.632812 260.25 122.671875 C 257.777344 128.117188 253.574219 132.730469 248.9375 136.445312 C 255.363281 147.121094 256.835938 160.921875 253.734375 175.378906 L 259.128906 183.488281 C 262.339844 188.316406 260.207031 194.875 254.773438 196.890625 L 243.609375 201.03125 C 239.699219 207.761719 234.832031 214.316406 229.050781 220.441406 C 229.050781 224.132812 228.996094 228.132812 228.90625 231.75 C 228.769531 237.546875 223.257812 241.695312 217.648438 240.226562 L 207.933594 237.6875 C 198.984375 243.1875 189.632812 246.980469 180.527344 249.023438 L 175.605469 256.40625 C 172.386719 261.230469 165.515625 261.789062 161.558594 257.554688 L 154.347656 249.828125 C 148.578125 248.71875 143.289062 246.664062 138.726562 243.65625 L 128.277344 242.984375 C 122.492188 242.609375 118.566406 236.9375 120.257812 231.390625 L 123.195312 221.773438 C 123.203125 221.734375 123.214844 221.699219 123.226562 221.664062 C 121.085938 213.964844 120.777344 205.230469 122.253906 196.132812 C 120.226562 193.164062 117.875 189.789062 115.867188 186.773438 C 112.65625 181.945312 114.789062 175.386719 120.226562 173.371094 L 131.441406 169.210938 C 131.503906 169.1875 131.566406 169.164062 131.628906 169.144531 C 137.59375 158.042969 145.707031 148.160156 155.226562 139.921875 L 155.414062 132.097656 C 155.554688 126.300781 161.066406 122.152344 166.675781 123.621094 L 175.78125 126.003906 C 199.882812 113.703125 225.457031 113.523438 241.167969 127.183594 C 244.414062 124.628906 247.527344 121.460938 249.25 117.667969 C 250.628906 114.632812 254.210938 113.289062 257.25 114.667969 Z M 165.03125 160.65625 C 183.890625 141.796875 207.546875 133.921875 221.925781 140.613281 L 145.21875 218.039062 C 138.121094 203.710938 145.953125 179.730469 165.03125 160.65625 Z M 211.863281 207.492188 C 192.367188 226.992188 167.746094 234.746094 153.542969 226.808594 L 230.914062 148.714844 C 239.285156 162.839844 231.574219 187.78125 211.863281 207.492188 Z M 211.863281 207.492188 " fill-opacity="1" fill-rule="evenodd"/></svg>