<svg xmlns="http://www.w3.org/2000/svg" xmlns:xlink="http://www.w3.org/1999/xlink" width="500" zoomAndPan="magnify" viewBox="0 0 375 374.999991" height="500" preserveAspectRatio="xMidYMid meet" version="1.0"><rect x="-37.5" width="450" fill="#ffffff" y="-37.499999" height="449.999989" fill-opacity="1"/><rect x="-37.5" width="450" fill="#ffffff" y="-37.499999" height="449.999989" fill-opacity="1"/><path fill="#ee9833" d="M 130.671875 199.160156 C 133.363281 197.367188 134.09375 193.734375 132.304688 191.039062 L 129.007812 186.085938 L 136.316406 183.375 C 139.351562 182.25 140.898438 178.878906 139.773438 175.84375 C 138.648438 172.8125 135.277344 171.265625 132.246094 172.390625 L 121.375 176.421875 C 116.105469 178.375 114.039062 184.734375 117.152344 189.414062 L 122.550781 197.527344 C 124.34375 200.222656 127.980469 200.953125 130.671875 199.160156 Z M 130.671875 199.160156 " fill-opacity="1" fill-rule="evenodd"/><path fill="#ee9833" d="M 130.097656 219.441406 C 133.191406 220.382812 134.933594 223.65625 133.992188 226.75 L 132.253906 232.445312 L 140.035156 232.945312 C 143.261719 233.152344 145.710938 235.9375 145.503906 239.164062 C 145.296875 242.394531 142.511719 244.839844 139.285156 244.632812 L 127.714844 243.890625 C 122.109375 243.527344 118.304688 238.03125 119.945312 232.65625 L 122.789062 223.332031 C 123.730469 220.238281 127.003906 218.496094 130.097656 219.441406 Z M 130.097656 219.441406 " fill-opacity="1" fill-rule="evenodd"/><path fill="#ffb054" d="M 224.679688 224.273438 C 254.132812 194.820312 261.011719 153.945312 240.5 133.433594 C 219.988281 112.921875 179.113281 119.800781 149.660156 149.25 C 120.207031 178.703125 114.253906 220.503906 133.839844 240.089844 C 153.429688 259.679688 195.230469 253.726562 224.679688 224.273438 Z M 224.679688 224.273438 " fill-opacity="1" fill-rule="nonzero"/><path fill="#ee9833" d="M 178.832031 240.667969 C 176.140625 238.875 172.503906 239.601562 170.710938 242.292969 L 167.410156 247.246094 L 162.089844 241.542969 C 159.882812 239.179688 156.175781 239.050781 153.8125 241.257812 C 151.445312 243.464844 151.316406 247.171875 153.523438 249.535156 L 161.433594 258.011719 C 165.269531 262.117188 171.933594 261.574219 175.050781 256.898438 L 180.457031 248.789062 C 182.25 246.097656 181.523438 242.460938 178.832031 240.667969 Z M 178.832031 240.667969 " fill-opacity="1" fill-rule="evenodd"/><path fill="#ee9833" d="M 221.230469 217.261719 C 217.996094 217.183594 215.3125 219.742188 215.234375 222.976562 L 215.089844 228.925781 L 207.546875 226.953125 C 204.417969 226.136719 201.21875 228.007812 200.398438 231.136719 C 199.582031 234.265625 201.453125 237.46875 204.582031 238.285156 L 215.796875 241.21875 C 221.234375 242.640625 226.574219 238.621094 226.710938 233.003906 L 226.945312 223.257812 C 227.023438 220.023438 224.464844 217.339844 221.230469 217.261719 Z M 221.230469 217.261719 " fill-opacity="1" fill-rule="evenodd"/><path fill="#ee9833" d="M 242.480469 176.480469 C 239.789062 178.269531 239.058594 181.90625 240.847656 184.597656 L 244.144531 189.554688 L 236.835938 192.265625 C 233.800781 193.390625 232.253906 196.761719 233.378906 199.792969 C 234.503906 202.828125 237.875 204.371094 240.90625 203.25 L 251.777344 199.21875 C 257.046875 197.261719 259.109375 190.90625 256 186.226562 L 250.601562 178.109375 C 248.808594 175.417969 245.175781 174.6875 242.480469 176.480469 Z M 242.480469 176.480469 " fill-opacity="1" fill-rule="evenodd"/><path fill="#ee9833" d="M 160.960938 152.160156 C 164.195312 152.238281 166.878906 149.679688 166.957031 146.445312 L 167.101562 140.496094 L 174.644531 142.46875 C 177.773438 143.289062 180.972656 141.414062 181.792969 138.285156 C 182.609375 135.15625 180.738281 131.957031 177.609375 131.136719 L 166.394531 128.203125 C 160.957031 126.78125 155.617188 130.800781 155.480469 136.421875 L 155.246094 146.164062 C 155.167969 149.398438 157.726562 152.082031 160.960938 152.160156 Z M 160.960938 152.160156 " fill-opacity="1" fill-rule="evenodd"/><path fill="#ee9833" d="M 213.921875 162.667969 C 210.914062 163.859375 207.511719 162.386719 206.320312 159.378906 L 204.128906 153.84375 L 197.734375 158.300781 C 195.078125 160.152344 191.429688 159.5 189.578125 156.847656 C 187.730469 154.195312 188.382812 150.542969 191.035156 148.695312 L 200.546875 142.066406 C 205.15625 138.851562 211.554688 140.78125 213.625 146.003906 L 217.210938 155.066406 C 218.402344 158.074219 216.929688 161.480469 213.921875 162.667969 Z M 213.921875 162.667969 " fill-opacity="1" fill-rule="evenodd"/><path fill="#ee9833" d="M 180.554688 214.804688 C 178.261719 212.523438 174.554688 212.527344 172.273438 214.820312 L 168.070312 219.035156 L 163.960938 212.410156 C 162.253906 209.660156 158.644531 208.8125 155.894531 210.519531 C 153.148438 212.222656 152.300781 215.832031 154.003906 218.582031 L 160.117188 228.433594 C 163.078125 233.207031 169.71875 233.972656 173.683594 229.992188 L 180.566406 223.089844 C 182.851562 220.796875 182.84375 217.089844 180.554688 214.804688 Z M 180.554688 214.804688 " fill-opacity="1" fill-rule="evenodd"/><path fill="#ee9833" d="M 202.453125 203.699219 C 200.359375 201.234375 200.664062 197.539062 203.128906 195.445312 L 207.667969 191.59375 L 201.390625 186.964844 C 198.785156 185.046875 198.230469 181.382812 200.152344 178.777344 C 202.070312 176.171875 205.734375 175.617188 208.339844 177.539062 L 217.671875 184.414062 C 222.195312 187.75 222.425781 194.429688 218.140625 198.066406 L 210.707031 204.375 C 208.242188 206.46875 204.546875 206.164062 202.453125 203.699219 Z M 202.453125 203.699219 " fill-opacity="1" fill-rule="evenodd"/><path fill="#ee9833" d="M 178.664062 172.417969 C 179.449219 175.554688 177.542969 178.734375 174.402344 179.519531 L 168.628906 180.964844 L 172.210938 187.890625 C 173.695312 190.765625 172.570312 194.296875 169.699219 195.785156 C 166.824219 197.269531 163.292969 196.144531 161.804688 193.269531 L 156.480469 182.972656 C 153.902344 177.980469 156.652344 171.890625 162.105469 170.523438 L 171.558594 168.15625 C 174.695312 167.371094 177.878906 169.277344 178.664062 172.417969 Z M 178.664062 172.417969 " fill-opacity="1" fill-rule="evenodd"/><path fill="#ee9833" d="M 254.175781 119.535156 C 257.121094 120.875 258.421875 124.34375 257.085938 127.289062 C 254.828125 132.257812 250.957031 136.453125 247.710938 139.304688 C 246.050781 140.761719 244.421875 141.988281 243.03125 142.882812 C 241.378906 143.945312 239.554688 144.9375 237.539062 144.9375 C 234.304688 144.9375 231.683594 142.3125 231.683594 139.078125 C 231.683594 134.402344 236.996094 133.128906 239.980469 130.503906 C 242.601562 128.203125 245.125 125.292969 246.421875 122.441406 C 247.757812 119.5 251.230469 118.195312 254.175781 119.535156 Z M 254.175781 119.535156 " fill-opacity="1" fill-rule="evenodd"/></svg>