<svg xmlns="http://www.w3.org/2000/svg" xmlns:xlink="http://www.w3.org/1999/xlink" width="500" zoomAndPan="magnify" viewBox="0 0 375 374.999991" height="500" preserveAspectRatio="xMidYMid meet" version="1.0"><defs><clipPath id="24530706ad"><path d="M 113.8125 172 L 127 172 L 127 191 L 113.8125 191 Z M 113.8125 172 " clip-rule="nonzero"/></clipPath><clipPath id="1e92570047"><path d="M 113.8125 181 L 123 181 L 123 190 L 113.8125 190 Z M 113.8125 181 " clip-rule="nonzero"/></clipPath></defs><rect x="-37.5" width="450" fill="#ffffff" y="-37.499999" height="449.999989" fill-opacity="1"/><rect x="-37.5" width="450" fill="#ffffff" y="-37.499999" height="449.999989" fill-opacity="1"/><rect x="-37.5" width="450" fill="#ffffff" y="-37.499999" height="449.999989" fill-opacity="1"/><g clip-path="url(#24530706ad)"><path fill="#faba15" d="M 113.9375 181.839844 C 114.027344 183.332031 121.457031 185.445312 122.71875 190.238281 C 123.023438 191.390625 126.96875 186.234375 126.414062 181.726562 C 125.535156 174.59375 124.542969 171.535156 124.128906 172.808594 C 123.070312 176.050781 113.847656 180.347656 113.9375 181.839844 " fill-opacity="1" fill-rule="nonzero"/></g><g clip-path="url(#1e92570047)"><path fill="#f79013" d="M 122.441406 189.429688 C 120.625 185.222656 114.085938 183.261719 113.941406 181.859375 C 114.796875 181.691406 115.769531 181.582031 116.785156 181.582031 C 118.738281 181.582031 120.855469 181.988281 122.621094 183.1875 C 122.472656 185.265625 122.410156 187.347656 122.441406 189.429688 " fill-opacity="1" fill-rule="nonzero"/></g><path fill="#faba15" d="M 256.019531 164.730469 C 256.667969 166.203125 250.613281 171.867188 251.765625 177.066406 C 252.042969 178.3125 245.734375 175.324219 244.039062 170.742188 C 241.363281 163.496094 243.5 158.058594 244.523438 159.070312 C 247.132812 161.648438 255.371094 163.257812 256.019531 164.730469 " fill-opacity="1" fill-rule="nonzero"/><path fill="#fbca89" d="M 251.636719 176.207031 C 251.585938 175.5 251.648438 174.785156 251.792969 174.082031 C 251.648438 174.785156 251.585938 175.5 251.636719 176.207031 M 251.792969 174.082031 C 251.792969 174.078125 251.796875 174.078125 251.796875 174.074219 C 251.796875 174.078125 251.792969 174.078125 251.792969 174.082031 " fill-opacity="1" fill-rule="nonzero"/><path fill="#f79013" d="M 251.636719 176.207031 C 251.3125 175.105469 251.019531 174.179688 250.78125 173.476562 C 250.269531 171.957031 249.742188 170.484375 249.195312 169.042969 C 250.996094 166.746094 253.773438 165.398438 256.023438 164.75 C 256.503906 165.964844 252.667969 169.882812 251.796875 174.074219 C 251.796875 174.078125 251.792969 174.078125 251.792969 174.082031 C 251.648438 174.785156 251.585938 175.5 251.636719 176.207031 " fill-opacity="1" fill-rule="nonzero"/><path fill="#faba15" d="M 135.25 248.375 C 134.238281 247.121094 137.480469 241.292969 135.003906 236.570312 C 134.414062 235.4375 142.414062 235.476562 145.242188 239.457031 C 149.722656 245.757812 150.992188 250.941406 149.738281 250.230469 C 146.546875 248.417969 136.261719 249.628906 135.25 248.375 " fill-opacity="1" fill-rule="nonzero"/><path fill="#f8d032" d="M 117.351562 212.699219 C 116.980469 211.132812 123.960938 206.65625 123.769531 201.332031 C 123.722656 200.054688 129.386719 204.132812 130.222656 208.941406 C 131.546875 216.554688 128.457031 221.515625 127.632812 220.335938 C 125.535156 217.332031 117.722656 214.261719 117.351562 212.699219 " fill-opacity="1" fill-rule="nonzero"/><path fill="#f8d032" d="M 243.34375 250.207031 C 242.277344 251.410156 234.582031 248.308594 230.335938 251.535156 C 229.316406 252.308594 229.386719 245.34375 232.84375 241.886719 C 238.3125 236.421875 244.160156 236.070312 243.667969 237.421875 C 242.417969 240.867188 244.410156 249 243.34375 250.207031 " fill-opacity="1" fill-rule="nonzero"/><path fill="#e0a513" d="M 236.222656 127.460938 C 238.90625 129.941406 233.71875 132.097656 234.175781 140.785156 C 234.542969 147.738281 227 141.308594 221.863281 134.882812 C 217.886719 129.90625 215.351562 124.929688 219.035156 126.15625 C 223.574219 127.671875 227.492188 127.355469 230.511719 127.035156 C 233.183594 126.753906 235.148438 126.472656 236.222656 127.460938 " fill-opacity="1" fill-rule="nonzero"/><path fill="#faba15" d="M 236.222656 127.460938 C 238.90625 129.941406 233.71875 132.097656 234.175781 140.785156 C 234.542969 147.738281 227 141.308594 221.863281 134.882812 C 217.886719 129.90625 215.351562 124.929688 219.035156 126.15625 C 223.574219 127.671875 227.492188 127.355469 230.511719 127.035156 C 233.183594 126.753906 235.148438 126.472656 236.222656 127.460938 " fill-opacity="1" fill-rule="nonzero"/><path fill="#fbca89" d="M 234.152344 140.160156 C 234.148438 140.058594 234.148438 139.960938 234.148438 139.859375 C 234.148438 139.960938 234.148438 140.058594 234.152344 140.160156 M 234.148438 139.859375 C 234.148438 139.855469 234.148438 139.847656 234.148438 139.839844 C 234.148438 139.847656 234.148438 139.851562 234.148438 139.859375 M 234.148438 139.835938 C 234.148438 139.828125 234.148438 139.824219 234.148438 139.816406 C 234.148438 139.824219 234.148438 139.828125 234.148438 139.835938 M 234.148438 139.8125 C 234.148438 139.804688 234.148438 139.800781 234.148438 139.796875 C 234.148438 139.800781 234.148438 139.804688 234.148438 139.8125 M 234.148438 139.789062 C 234.148438 139.785156 234.148438 139.78125 234.148438 139.777344 C 234.148438 139.78125 234.148438 139.785156 234.148438 139.789062 M 234.148438 139.765625 C 234.148438 139.761719 234.148438 139.757812 234.148438 139.757812 C 234.148438 139.757812 234.148438 139.761719 234.148438 139.765625 M 234.144531 139.738281 C 234.144531 139.738281 234.144531 139.738281 234.144531 139.734375 C 234.144531 139.738281 234.144531 139.738281 234.144531 139.738281 M 234.144531 139.714844 L 234.144531 139.710938 L 234.144531 139.714844 " fill-opacity="1" fill-rule="nonzero"/><path fill="#f79013" d="M 234.152344 140.160156 C 233.027344 138.636719 231.8125 137.148438 230.515625 135.714844 C 231.816406 132.648438 233.96875 129.933594 236.652344 127.949219 C 238.171875 130.148438 234.144531 132.449219 234.144531 139.710938 L 234.144531 139.714844 C 234.144531 139.71875 234.144531 139.726562 234.144531 139.734375 C 234.144531 139.738281 234.144531 139.738281 234.144531 139.738281 C 234.144531 139.746094 234.144531 139.75 234.148438 139.757812 C 234.148438 139.757812 234.148438 139.761719 234.148438 139.765625 C 234.148438 139.769531 234.148438 139.773438 234.148438 139.777344 C 234.148438 139.78125 234.148438 139.785156 234.148438 139.789062 C 234.148438 139.792969 234.148438 139.792969 234.148438 139.796875 C 234.148438 139.800781 234.148438 139.804688 234.148438 139.8125 C 234.148438 139.8125 234.148438 139.816406 234.148438 139.816406 C 234.148438 139.824219 234.148438 139.828125 234.148438 139.835938 C 234.148438 139.835938 234.148438 139.839844 234.148438 139.839844 C 234.148438 139.847656 234.148438 139.855469 234.148438 139.859375 C 234.148438 139.960938 234.148438 140.058594 234.152344 140.160156 " fill-opacity="1" fill-rule="nonzero"/><path fill="#f5b90b" d="M 256.382812 208.4375 C 254.734375 212.113281 249.460938 210.175781 243.980469 208.238281 C 239.816406 206.765625 235.535156 205.296875 232.632812 206.289062 C 220.59375 210.414062 208.480469 214.554688 195.910156 216.578125 C 177.539062 219.539062 158.769531 217.886719 140.234375 216.230469 C 134.71875 215.738281 128.523438 215.675781 125.890625 210.609375 C 123.140625 205.316406 122.734375 197.214844 122.492188 191.367188 C 122.222656 184.695312 122.875 177.976562 124.433594 171.480469 C 125.535156 166.878906 127.089844 162.390625 129.09375 158.105469 C 129.859375 156.457031 130.699219 154.839844 131.597656 153.257812 C 141.464844 135.921875 158.996094 123.117188 178.53125 118.9375 C 178.832031 118.875 179.128906 118.8125 179.425781 118.753906 C 181.214844 118.394531 183.03125 118.109375 184.851562 117.90625 C 193.78125 116.890625 202.964844 117.777344 211.132812 121.4375 C 212.722656 122.148438 214.296875 122.957031 215.851562 123.851562 C 219.089844 125.714844 222.21875 127.949219 225.121094 130.449219 C 229.871094 134.554688 234.015625 139.382812 237.023438 144.503906 C 242.753906 154.25 247.171875 162.769531 250.78125 173.476562 C 252.84375 179.582031 259.019531 202.554688 256.382812 208.4375 " fill-opacity="1" fill-rule="nonzero"/><path fill="#faba15" d="M 200.453125 117.679688 C 198.214844 119.648438 192.484375 121.980469 192.089844 123.078125 C 190.054688 128.707031 208.164062 128.8125 211.195312 125.167969 C 211.59375 124.691406 208.566406 123.425781 206.277344 121.378906 C 203.644531 119.023438 202.421875 115.949219 200.453125 117.679688 " fill-opacity="1" fill-rule="nonzero"/><path fill="#f7a30e" d="M 211.195312 125.167969 C 211.59375 124.695312 208.609375 123.445312 206.328125 121.421875 C 208.609375 123.445312 211.59375 124.695312 211.195312 125.167969 M 206.277344 121.378906 C 206.277344 121.378906 206.273438 121.375 206.269531 121.371094 C 206.273438 121.375 206.277344 121.378906 206.277344 121.378906 M 206.265625 121.367188 C 206.265625 121.367188 206.261719 121.363281 206.261719 121.363281 C 206.261719 121.363281 206.265625 121.367188 206.265625 121.367188 M 206.253906 121.359375 C 206.253906 121.355469 206.253906 121.355469 206.253906 121.355469 C 206.253906 121.355469 206.253906 121.355469 206.253906 121.359375 " fill-opacity="1" fill-rule="nonzero"/><path fill="#f8a411" d="M 201.4375 127.648438 C 199.464844 127.648438 197.511719 127.453125 195.894531 127.046875 C 195.960938 126.96875 196.03125 126.898438 196.105469 126.835938 C 196.699219 126.324219 197.453125 126.054688 198.144531 125.691406 C 199.8125 124.816406 201.144531 123.320312 201.824219 121.566406 C 202.34375 120.230469 202.480469 118.75 202.234375 117.339844 C 203.375 117.898438 204.503906 119.78125 206.253906 121.355469 C 206.253906 121.355469 206.253906 121.355469 206.253906 121.359375 C 206.257812 121.359375 206.257812 121.359375 206.261719 121.363281 C 206.261719 121.363281 206.265625 121.367188 206.265625 121.367188 C 206.269531 121.371094 206.269531 121.371094 206.269531 121.371094 C 206.273438 121.375 206.277344 121.378906 206.277344 121.378906 C 206.296875 121.394531 206.3125 121.40625 206.328125 121.421875 C 208.609375 123.445312 211.59375 124.695312 211.195312 125.167969 C 209.863281 126.769531 205.609375 127.648438 201.4375 127.648438 " fill-opacity="1" fill-rule="nonzero"/><path fill="#e7e7e6" d="M 201.910156 117.144531 C 202.628906 117.246094 203.15625 117.726562 203.085938 118.222656 C 203.019531 118.71875 202.378906 119.039062 201.660156 118.9375 C 200.941406 118.839844 200.414062 118.355469 200.484375 117.863281 C 200.550781 117.367188 201.191406 117.046875 201.910156 117.144531 " fill-opacity="1" fill-rule="nonzero"/><path fill="#e0a513" d="M 160.171875 114.164062 C 163.207031 112.507812 163.585938 117.792969 171.527344 119.992188 C 182.800781 123.117188 148.773438 135.835938 153.839844 129.132812 C 158.976562 122.335938 157.589844 115.570312 160.171875 114.164062 " fill-opacity="1" fill-rule="nonzero"/><path fill="#faba15" d="M 160.171875 114.164062 C 163.207031 112.507812 163.585938 117.792969 171.527344 119.992188 C 182.800781 123.117188 148.773438 135.835938 153.839844 129.132812 C 158.976562 122.335938 157.589844 115.570312 160.171875 114.164062 " fill-opacity="1" fill-rule="nonzero"/><path fill="#f79013" d="M 171.3125 124.910156 C 170.882812 124.777344 170.464844 124.617188 170.066406 124.441406 C 165.636719 122.488281 162.234375 118.503906 160.738281 113.925781 C 160.917969 113.871094 161.089844 113.847656 161.257812 113.847656 C 163.4375 113.847656 164.632812 118.082031 171.527344 119.992188 C 171.53125 119.992188 171.535156 119.996094 171.539062 119.996094 C 171.542969 119.996094 171.542969 119.996094 171.546875 120 C 175.085938 120.988281 174.125 122.925781 171.3125 124.910156 " fill-opacity="1" fill-rule="nonzero"/><path fill="#e7e7e6" d="M 162.234375 114.554688 C 162.410156 115.136719 161.875 115.8125 161.035156 116.066406 C 160.195312 116.320312 159.371094 116.054688 159.195312 115.476562 C 159.019531 114.894531 159.554688 114.21875 160.394531 113.964844 C 161.234375 113.710938 162.058594 113.976562 162.234375 114.554688 " fill-opacity="1" fill-rule="nonzero"/><path fill="#faba15" d="M 133.0625 140.574219 C 131.894531 141.878906 132.28125 148.421875 131.957031 153.878906 C 131.734375 157.667969 136.09375 156.90625 141.238281 150.863281 C 146.386719 144.824219 145.785156 140.300781 144.9375 140.59375 C 143.101562 141.238281 140.246094 140.9375 137.785156 140.640625 C 135.472656 140.359375 133.507812 140.078125 133.0625 140.574219 " fill-opacity="1" fill-rule="nonzero"/><path fill="#f7a30e" d="M 144.113281 140.8125 C 144.113281 140.8125 144.117188 140.8125 144.117188 140.8125 C 144.113281 140.8125 144.113281 140.8125 144.113281 140.8125 M 144.121094 140.808594 C 144.410156 140.753906 144.683594 140.683594 144.9375 140.59375 C 144.683594 140.683594 144.410156 140.753906 144.121094 140.808594 " fill-opacity="1" fill-rule="nonzero"/><path fill="#f8a411" d="M 133.675781 156.191406 C 133.128906 156.191406 132.695312 156.015625 132.398438 155.664062 C 132.683594 155.546875 132.992188 155.476562 133.292969 155.402344 C 134.886719 155 136.445312 154.375 137.746094 153.371094 C 139.046875 152.371094 140.078125 150.972656 140.445312 149.375 C 140.808594 147.777344 140.445312 145.988281 139.328125 144.78125 C 138.382812 143.757812 137.027344 143.246094 135.789062 142.601562 C 134.796875 142.085938 133.800781 141.386719 133.277344 140.433594 C 133.5 140.339844 133.832031 140.304688 134.25 140.304688 C 135.136719 140.304688 136.398438 140.472656 137.785156 140.640625 C 139.171875 140.808594 140.683594 140.976562 142.070312 140.976562 C 142.796875 140.976562 143.492188 140.929688 144.113281 140.8125 C 144.113281 140.8125 144.113281 140.8125 144.117188 140.8125 C 144.117188 140.8125 144.121094 140.808594 144.121094 140.808594 C 144.410156 140.753906 144.683594 140.683594 144.9375 140.59375 C 144.960938 140.585938 144.988281 140.582031 145.011719 140.582031 C 145.277344 140.582031 145.5 141.066406 145.5 141.921875 C 145.5 143.660156 144.578125 146.941406 141.238281 150.863281 C 138.167969 154.46875 135.378906 156.191406 133.675781 156.191406 " fill-opacity="1" fill-rule="nonzero"/><path fill="#e7e7e6" d="M 134.320312 140.234375 C 134.566406 140.480469 134.390625 141.058594 133.921875 141.519531 C 133.460938 141.980469 132.882812 142.152344 132.632812 141.90625 C 132.386719 141.65625 132.566406 141.082031 133.03125 140.621094 C 133.496094 140.160156 134.074219 139.984375 134.320312 140.234375 " fill-opacity="1" fill-rule="nonzero"/><path fill="#f69a0f" d="M 177 130.609375 C 177.097656 128.550781 177.464844 126.515625 178.011719 124.472656 C 178.507812 122.632812 178.640625 120.816406 178.53125 118.9375 C 178.832031 118.875 179.128906 118.8125 179.425781 118.753906 C 181.214844 118.394531 183.03125 118.109375 184.851562 117.90625 C 185.398438 120.050781 185.566406 122.285156 185.203125 124.488281 C 184.914062 126.253906 184.488281 127.964844 184.09375 129.6875 C 181.625 129.835938 179.269531 130.144531 177 130.609375 " fill-opacity="1" fill-rule="nonzero"/><path fill="#fbd8a6" d="M 219.941406 126.4375 C 219.941406 126.4375 219.9375 126.4375 219.9375 126.4375 C 218.605469 125.515625 217.238281 124.648438 215.855469 123.851562 C 217.238281 124.648438 218.605469 125.515625 219.941406 126.4375 " fill-opacity="1" fill-rule="nonzero"/><path fill="#f89b11" d="M 224.917969 130.273438 C 223.316406 128.910156 221.652344 127.625 219.9375 126.4375 C 219.9375 126.4375 219.941406 126.4375 219.941406 126.4375 C 221.652344 127.625 223.316406 128.910156 224.917969 130.273438 " fill-opacity="1" fill-rule="nonzero"/><path fill="#f69a0f" d="M 225.996094 139.445312 C 223.816406 138.015625 221.492188 136.761719 218.984375 135.660156 C 218.804688 134.484375 218.585938 133.3125 218.324219 132.152344 C 217.679688 129.324219 216.816406 126.578125 215.855469 123.851562 C 217.238281 124.648438 218.605469 125.515625 219.9375 126.4375 C 221.652344 127.625 223.316406 128.910156 224.917969 130.273438 C 224.984375 130.332031 225.050781 130.390625 225.121094 130.449219 C 225.351562 131.355469 225.535156 132.234375 225.671875 133.0625 C 226.007812 135.15625 226.132812 137.3125 225.996094 139.445312 " fill-opacity="1" fill-rule="nonzero"/><path fill="#f69a0f" d="M 127.859375 178.359375 C 126.738281 176.417969 125.65625 174.449219 124.789062 172.375 C 124.667969 172.078125 124.546875 171.78125 124.433594 171.480469 C 125.535156 166.878906 127.089844 162.390625 129.09375 158.105469 C 129.171875 161.457031 129.660156 164.800781 130.574219 167.945312 C 130.929688 169.171875 131.347656 170.378906 131.785156 171.578125 C 130.3125 173.929688 129 176.171875 127.859375 178.359375 " fill-opacity="1" fill-rule="nonzero"/><path fill="#f8d032" d="M 180.632812 259.671875 C 162.230469 256.835938 152.105469 253.425781 144.527344 247.515625 C 136.421875 241.191406 131.890625 232.113281 127.207031 219.519531 C 117.113281 192.394531 124.171875 182.1875 141.230469 157.527344 C 149.847656 145.070312 158.96875 137.039062 169.121094 132.972656 C 178.058594 129.394531 187.773438 128.683594 200.613281 130.660156 C 213.453125 132.636719 222.5 136.242188 229.941406 142.34375 C 238.386719 149.273438 244.65625 159.675781 249.101562 174.148438 C 257.90625 202.792969 261.546875 214.648438 243.71875 237.472656 C 235.441406 248.070312 228.378906 255.359375 218.738281 258.949219 C 209.722656 262.304688 199.042969 262.507812 180.632812 259.671875 " fill-opacity="1" fill-rule="nonzero"/><path fill="#f3fae0" d="M 244.238281 175.636719 C 235.542969 147.335938 220.984375 138.933594 199.835938 135.675781 C 178.6875 132.417969 162.269531 136.046875 145.417969 160.410156 C 128.566406 184.773438 122.816406 193.136719 131.976562 217.753906 C 141.136719 242.371094 148.167969 249.535156 181.410156 254.65625 C 214.65625 259.777344 223.527344 255.066406 239.707031 234.351562 C 255.886719 213.636719 252.933594 203.933594 244.238281 175.636719 " fill-opacity="1" fill-rule="nonzero"/><path fill="#80b329" d="M 246.75 190.191406 C 243.867188 188.765625 240.128906 191.460938 240.128906 191.460938 C 238.222656 185.601562 232.648438 188.644531 232.648438 188.644531 C 233.847656 186.257812 232.785156 184.609375 230.816406 183.902344 L 201.191406 195.375 C 197.976562 196.621094 197.316406 200.871094 200.003906 203.027344 L 232.136719 228.777344 C 234.183594 230.417969 237.207031 229.96875 238.664062 227.789062 C 243.023438 221.277344 245.789062 214.332031 246.914062 207.082031 C 247.746094 201.707031 247.683594 196.054688 246.75 190.191406 " fill-opacity="1" fill-rule="nonzero"/><path fill="#80b329" d="M 227.601562 175.683594 C 227.601562 175.683594 233.773438 174.175781 231.21875 168.570312 C 231.21875 168.570312 235.800781 168.039062 236.964844 165.050781 C 233.796875 160.257812 230.160156 156.164062 226.085938 152.820312 C 220.261719 148.046875 213.386719 144.671875 205.589844 142.75 C 203.03125 142.117188 200.476562 143.804688 200.074219 146.40625 L 193.78125 187.035156 C 193.253906 190.4375 196.617188 193.132812 199.832031 191.886719 L 229.457031 180.414062 C 230.4375 178.566406 230.101562 176.632812 227.601562 175.683594 " fill-opacity="1" fill-rule="nonzero"/><path fill="#80b329" d="M 170.660156 243.777344 C 176.699219 245.058594 176.84375 238.722656 176.84375 238.722656 C 178.3125 240.949219 180.277344 240.859375 181.875 239.507812 L 186.714844 208.179688 C 187.238281 204.777344 183.878906 202.082031 180.660156 203.332031 L 142.242188 218.226562 C 139.796875 219.175781 138.675781 222.011719 139.839844 224.359375 C 143.320312 231.378906 147.964844 237.238281 153.699219 241.832031 C 157.953125 245.238281 162.886719 248.007812 168.449219 250.128906 C 171.125 248.351562 170.660156 243.777344 170.660156 243.777344 " fill-opacity="1" fill-rule="nonzero"/><path fill="#80b329" d="M 229.800781 231.683594 L 197.660156 205.941406 C 194.96875 203.789062 190.949219 205.347656 190.425781 208.746094 L 185.585938 240.078125 C 186.699219 241.847656 188.542969 242.519531 190.617188 240.839844 C 190.617188 240.839844 188.84375 246.921875 194.992188 247.515625 C 194.992188 247.515625 193.164062 251.738281 195.183594 254.238281 C 201.125 253.886719 206.664062 252.722656 211.746094 250.753906 C 218.605469 248.097656 224.800781 243.902344 230.238281 238.25 C 232.054688 236.363281 231.84375 233.320312 229.800781 231.683594 " fill-opacity="1" fill-rule="nonzero"/><path fill="#80b329" d="M 196.261719 145.820312 C 196.660156 143.222656 194.730469 140.847656 192.101562 140.683594 C 184.105469 140.1875 176.546875 141.34375 169.574219 144.140625 C 164.660156 146.109375 159.945312 148.933594 155.464844 152.574219 C 155.675781 155.777344 159.890625 157.652344 159.890625 157.652344 C 155.765625 162.234375 161.199219 165.515625 161.199219 165.515625 C 158.53125 165.679688 157.628906 167.421875 158.007812 169.476562 L 182.820312 189.28125 C 185.511719 191.433594 189.53125 189.867188 190.050781 186.464844 L 196.261719 145.820312 " fill-opacity="1" fill-rule="nonzero"/><path fill="#80b329" d="M 180.476562 192.203125 L 155.664062 172.398438 C 153.570312 172.484375 152.0625 173.738281 152.492188 176.371094 C 152.492188 176.371094 148.085938 171.804688 144.507812 176.824219 C 144.507812 176.824219 141.75 173.136719 138.570312 173.632812 C 135.914062 178.949219 134.160156 184.320312 133.339844 189.699219 C 132.230469 196.953125 132.785156 204.402344 134.984375 211.921875 C 135.71875 214.433594 138.46875 215.765625 140.910156 214.816406 L 179.304688 199.859375 C 182.519531 198.605469 183.167969 194.355469 180.476562 192.203125 " fill-opacity="1" fill-rule="nonzero"/><path fill="#d4ec9d" d="M 243.976562 193.035156 C 243.976562 193.035156 230.566406 216.144531 238.160156 219.042969 C 245.753906 221.9375 243.976562 193.035156 243.976562 193.035156 " fill-opacity="1" fill-rule="nonzero"/><path fill="#f9fce2" d="M 236.757812 215.222656 C 236.722656 215.222656 236.683594 215.21875 236.644531 215.203125 C 235.757812 214.859375 236.9375 210.09375 238.441406 206.089844 C 238.046875 211.671875 237.574219 215.222656 236.757812 215.222656 " fill-opacity="1" fill-rule="nonzero"/><path fill="#d4ec9d" d="M 235.636719 192.0625 C 235.636719 192.0625 213.527344 209.917969 220.992188 216.398438 C 228.453125 222.875 235.636719 192.0625 235.636719 192.0625 " fill-opacity="1" fill-rule="nonzero"/><path fill="#f9fce2" d="M 220.632812 213.949219 C 220.601562 213.925781 220.5625 213.894531 220.515625 213.851562 C 220.210938 213.589844 220.027344 213.304688 220.039062 212.699219 C 220.085938 210.0625 223.222656 205.78125 227.0625 201.695312 C 226.945312 202.042969 226.820312 202.398438 226.695312 202.75 C 223.425781 211.941406 221.148438 213.664062 220.632812 213.949219 " fill-opacity="1" fill-rule="nonzero"/><path fill="#d4ec9d" d="M 229.683594 187.34375 C 229.683594 187.34375 198.929688 193.992188 205.28125 202.898438 C 211.636719 211.804688 229.683594 187.34375 229.683594 187.34375 " fill-opacity="1" fill-rule="nonzero"/><path fill="#f9fce2" d="M 207.730469 201.828125 C 207.625 201.828125 207.546875 201.820312 207.492188 201.8125 C 207.324219 201.789062 207.015625 201.738281 206.613281 201.175781 C 206.230469 200.644531 206.308594 200.445312 206.375 200.273438 C 207.238281 198.046875 213.03125 195.21875 219.828125 192.96875 C 219.363281 193.46875 218.886719 193.972656 218.398438 194.472656 C 211.832031 201.1875 208.6875 201.828125 207.730469 201.828125 " fill-opacity="1" fill-rule="nonzero"/><path fill="#d4ec9d" d="M 232.992188 164.816406 C 232.992188 164.816406 207.460938 156.785156 211.105469 149.535156 C 214.75 142.289062 232.992188 164.816406 232.992188 164.816406 " fill-opacity="1" fill-rule="nonzero"/><path fill="#f9fce2" d="M 219.359375 158.0625 C 215.53125 156.117188 211.222656 153.15625 211.871094 152.539062 C 211.925781 152.488281 212 152.464844 212.09375 152.464844 C 213.144531 152.464844 216.589844 155.449219 219.359375 158.0625 " fill-opacity="1" fill-rule="nonzero"/><path fill="#d4ec9d" d="M 227.492188 171.144531 C 227.492188 171.144531 199.097656 172.851562 200.222656 163.046875 C 201.347656 153.242188 227.492188 171.144531 227.492188 171.144531 " fill-opacity="1" fill-rule="nonzero"/><path fill="#f9fce2" d="M 214.316406 169.21875 C 212.835938 169.109375 211.320312 168.949219 209.859375 168.726562 C 204.378906 167.882812 201.097656 166.324219 201.285156 164.667969 C 201.292969 164.605469 201.300781 164.554688 201.308594 164.515625 C 201.417969 164.492188 201.605469 164.460938 201.902344 164.460938 C 202.160156 164.460938 202.5 164.484375 202.941406 164.550781 C 205.945312 165.015625 210.28125 167.019531 214.316406 169.21875 " fill-opacity="1" fill-rule="nonzero"/><path fill="#d4ec9d" d="M 226.292969 178.636719 C 226.292969 178.636719 199.101562 194.429688 197.765625 183.582031 C 196.425781 172.734375 226.292969 178.636719 226.292969 178.636719 " fill-opacity="1" fill-rule="nonzero"/><path fill="#f9fce2" d="M 200.507812 184.492188 C 200.144531 184.492188 199.808594 184.46875 199.5 184.421875 C 198.417969 184.253906 198.382812 183.945312 198.3125 183.386719 C 198.222656 182.667969 198.429688 182.402344 198.667969 182.171875 C 199.796875 181.078125 203.019531 180.296875 208.195312 180.296875 C 209.8125 180.296875 211.617188 180.375 213.613281 180.542969 C 208.796875 182.703125 203.703125 184.492188 200.507812 184.492188 " fill-opacity="1" fill-rule="nonzero"/><path fill="#d4ec9d" d="M 167.367188 246.316406 C 167.367188 246.316406 154 223.179688 147.6875 228.292969 C 141.378906 233.40625 167.367188 246.316406 167.367188 246.316406 " fill-opacity="1" fill-rule="nonzero"/><path fill="#f9fce2" d="M 154.847656 237.261719 C 149.996094 233.992188 147.300781 231.929688 147.839844 231.164062 C 147.917969 231.054688 148.035156 230.996094 148.1875 230.996094 C 149.09375 230.996094 151.320312 232.96875 154.847656 237.261719 " fill-opacity="1" fill-rule="nonzero"/><path fill="#d4ec9d" d="M 172.378906 239.59375 C 172.378906 239.59375 167.921875 211.570312 158.566406 214.78125 C 149.210938 217.992188 172.378906 239.59375 172.378906 239.59375 " fill-opacity="1" fill-rule="nonzero"/><path fill="#f9fce2" d="M 164.136719 229.679688 C 163.894531 229.40625 163.65625 229.128906 163.417969 228.851562 C 157.066406 221.429688 156.710938 218.605469 156.722656 218.015625 C 156.757812 218 156.804688 217.980469 156.863281 217.964844 C 157.066406 217.894531 157.21875 217.875 157.335938 217.875 C 157.402344 217.875 157.453125 217.878906 157.496094 217.886719 C 157.808594 217.933594 160.644531 218.648438 163.84375 228.738281 C 163.945312 229.054688 164.039062 229.367188 164.136719 229.679688 " fill-opacity="1" fill-rule="nonzero"/><path fill="#d4ec9d" d="M 179.453125 236.808594 C 179.453125 236.808594 189.046875 206.917969 178.136719 207.957031 C 167.230469 208.992188 179.453125 236.808594 179.453125 236.808594 " fill-opacity="1" fill-rule="nonzero"/><path fill="#f9fce2" d="M 176.917969 225.691406 C 175.023438 219.53125 173.863281 213.234375 175.269531 210.84375 C 175.488281 210.472656 175.734375 210.265625 176.402344 210.199219 C 176.492188 210.191406 176.574219 210.1875 176.652344 210.1875 C 176.742188 210.1875 176.824219 210.191406 176.894531 210.203125 C 177.042969 210.226562 177.195312 210.25 177.421875 210.617188 C 177.855469 211.3125 179.121094 214.359375 177.207031 224.257812 C 177.113281 224.742188 177.015625 225.222656 176.917969 225.691406 " fill-opacity="1" fill-rule="nonzero"/><path fill="#d4ec9d" d="M 197.363281 250.925781 C 197.363281 250.925781 217.09375 232.878906 221.566406 239.648438 C 226.042969 246.417969 197.363281 250.925781 197.363281 250.925781 " fill-opacity="1" fill-rule="nonzero"/><path fill="#f9fce2" d="M 206.445312 244.75 C 210.71875 241.972656 213.167969 240.777344 214.3125 240.777344 C 214.628906 240.777344 214.84375 240.867188 214.972656 241.039062 C 215.558594 241.84375 212.0625 243.089844 206.445312 244.75 " fill-opacity="1" fill-rule="nonzero"/><path fill="#d4ec9d" d="M 194.613281 243.011719 C 194.613281 243.011719 207.320312 217.625 215.273438 223.496094 C 223.226562 229.367188 194.613281 243.011719 194.613281 243.011719 " fill-opacity="1" fill-rule="nonzero"/><path fill="#f9fce2" d="M 201.167969 233.75 C 201.363281 233.460938 201.5625 233.175781 201.765625 232.886719 C 207.300781 225.042969 210.207031 224.488281 210.910156 224.488281 C 210.980469 224.488281 211.027344 224.492188 211.054688 224.496094 C 211.179688 224.515625 211.371094 224.5625 211.636719 224.761719 C 211.6875 224.796875 211.726562 224.828125 211.753906 224.855469 C 211.585938 225.421875 210.390625 228.015625 202.058594 233.199219 C 201.761719 233.386719 201.464844 233.570312 201.167969 233.75 " fill-opacity="1" fill-rule="nonzero"/><path fill="#d4ec9d" d="M 188.707031 238.230469 C 188.707031 238.230469 188.578125 206.847656 198.667969 211.113281 C 208.757812 215.375 188.707031 238.230469 188.707031 238.230469 " fill-opacity="1" fill-rule="nonzero"/><path fill="#f9fce2" d="M 190.25 227.75 C 190.296875 227.265625 190.347656 226.78125 190.40625 226.289062 C 191.566406 216.277344 193.695312 213.753906 194.320312 213.21875 C 194.554688 213.015625 194.699219 212.972656 194.816406 212.972656 C 194.863281 212.972656 194.90625 212.976562 194.945312 212.984375 C 195.082031 213.003906 195.238281 213.054688 195.414062 213.128906 C 196.035156 213.390625 196.203125 213.664062 196.300781 214.082031 C 196.921875 216.785156 193.914062 222.4375 190.25 227.75 " fill-opacity="1" fill-rule="nonzero"/><path fill="#d4ec9d" d="M 159.324219 153.539062 C 159.324219 153.539062 186.09375 153.515625 184.796875 145.511719 C 183.5 137.503906 159.324219 153.539062 159.324219 153.539062 " fill-opacity="1" fill-rule="nonzero"/><path fill="#f9fce2" d="M 170.503906 151.765625 C 173.484375 150.320312 176.917969 148.277344 178.503906 148.277344 C 178.914062 148.277344 179.199219 148.414062 179.320312 148.730469 C 179.925781 150.273438 174.746094 151.054688 170.503906 151.765625 " fill-opacity="1" fill-rule="nonzero"/><path fill="#d4ec9d" d="M 162.664062 161.222656 C 162.664062 161.222656 189.242188 171.339844 191.117188 161.652344 C 192.992188 151.960938 162.664062 161.222656 162.664062 161.222656 " fill-opacity="1" fill-rule="nonzero"/><path fill="#f9fce2" d="M 182.613281 165.128906 C 181.414062 165.128906 179.882812 165.023438 177.945312 164.722656 C 176.507812 164.503906 175.046875 164.207031 173.632812 163.878906 C 177.089844 163.191406 180.683594 162.671875 183.527344 162.671875 C 184.398438 162.671875 185.199219 162.71875 185.90625 162.828125 C 186.839844 162.972656 187.277344 163.175781 187.457031 163.28125 C 187.453125 163.320312 187.445312 163.371094 187.433594 163.429688 C 187.367188 163.769531 187.230469 164.476562 185.332031 164.886719 C 184.722656 165.019531 183.839844 165.128906 182.613281 165.128906 " fill-opacity="1" fill-rule="nonzero"/><path fill="#d4ec9d" d="M 161.5625 168.726562 C 161.5625 168.726562 182.75 191.925781 187.289062 181.976562 C 191.828125 172.027344 161.5625 168.726562 161.5625 168.726562 " fill-opacity="1" fill-rule="nonzero"/><path fill="#f9fce2" d="M 182.285156 181.71875 C 182.136719 181.71875 181.960938 181.703125 181.75 181.671875 C 178.6875 181.199219 173.839844 177.644531 169.457031 173.753906 C 177.667969 175.59375 182.246094 177.972656 183.226562 179.777344 C 183.382812 180.070312 183.5 180.382812 183.199219 181.042969 C 183.011719 181.457031 182.890625 181.71875 182.285156 181.71875 " fill-opacity="1" fill-rule="nonzero"/><path fill="#d4ec9d" d="M 140.363281 177.175781 C 140.363281 177.175781 146.207031 203.234375 138.09375 203.726562 C 129.976562 204.21875 140.363281 177.175781 140.363281 177.175781 " fill-opacity="1" fill-rule="nonzero"/><path fill="#f9fce2" d="M 136.140625 200.191406 C 136.125 200.191406 136.113281 200.191406 136.097656 200.1875 C 135.128906 200.039062 135.765625 196.652344 137.125 190.960938 C 137.351562 195.167969 137.074219 200.191406 136.140625 200.191406 " fill-opacity="1" fill-rule="nonzero"/><path fill="#d4ec9d" d="M 148.609375 178.742188 C 148.609375 178.742188 164.335938 202.390625 155.265625 206.335938 C 146.199219 210.285156 148.609375 178.742188 148.609375 178.742188 " fill-opacity="1" fill-rule="nonzero"/><path fill="#f9fce2" d="M 151.867188 204.539062 C 151.457031 204.113281 149.800781 201.785156 149.445312 191.996094 C 149.433594 191.640625 149.421875 191.285156 149.414062 190.933594 C 151.847656 195.984375 153.554688 201.003906 152.808594 203.527344 C 152.636719 204.105469 152.375 204.324219 152.007812 204.484375 C 151.949219 204.507812 151.902344 204.527344 151.867188 204.539062 " fill-opacity="1" fill-rule="nonzero"/><path fill="#d4ec9d" d="M 155.707031 176.023438 C 155.707031 176.023438 183.046875 191.558594 174.308594 198.15625 C 165.574219 204.753906 155.707031 176.023438 155.707031 176.023438 " fill-opacity="1" fill-rule="nonzero"/><path fill="#f9fce2" d="M 170.96875 196.164062 C 170.898438 196.164062 170.839844 196.15625 170.792969 196.148438 C 170.25 196.0625 167.296875 195.171875 162.566406 185.824219 C 162.261719 185.21875 161.96875 184.617188 161.6875 184.023438 C 167.496094 188.199219 172.167969 192.632812 172.324219 195.015625 C 172.335938 195.199219 172.347656 195.410156 171.828125 195.800781 C 171.429688 196.105469 171.152344 196.164062 170.96875 196.164062 " fill-opacity="1" fill-rule="nonzero"/></svg>