<svg xmlns="http://www.w3.org/2000/svg" xmlns:xlink="http://www.w3.org/1999/xlink" width="500" zoomAndPan="magnify" viewBox="0 0 375 374.999991" height="500" preserveAspectRatio="xMidYMid meet" version="1.0"><defs><clipPath id="ed9e5c77aa"><path d="M 113 113 L 262.5 113 L 262.5 262.21875 L 113 262.21875 Z M 113 113 " clip-rule="nonzero"/></clipPath></defs><rect x="-37.5" width="450" fill="#ffffff" y="-37.499999" height="449.999989" fill-opacity="1"/><rect x="-37.5" width="450" fill="#ffffff" y="-37.499999" height="449.999989" fill-opacity="1"/><path fill="#000000" d="M 202.394531 152.425781 C 193.667969 154.644531 183.28125 160.472656 173.878906 169.882812 C 164.480469 179.296875 158.660156 189.695312 156.445312 198.433594 C 155.199219 203.332031 155.195312 207.054688 155.804688 209.78125 L 213.726562 151.785156 C 211.003906 151.175781 207.289062 151.179688 202.394531 152.425781 " fill-opacity="1" fill-rule="nonzero"/><path fill="#000000" d="M 211.367188 207.417969 C 190.082031 228.730469 162.5625 235.726562 149.898438 223.050781 C 137.238281 210.371094 144.226562 182.820312 165.515625 161.507812 C 186.796875 140.191406 214.320312 133.195312 226.980469 145.871094 C 239.640625 158.550781 232.652344 186.105469 211.367188 207.417969 Z M 201.5 131.214844 C 185.285156 134.007812 170.082031 143.355469 158.585938 154.863281 C 145.347656 168.121094 137.652344 183.917969 135.328125 198.085938 C 132.972656 212.453125 136.253906 223.628906 142.605469 229.992188 C 148.960938 236.351562 160.121094 239.636719 174.46875 237.277344 C 188.621094 234.953125 204.398438 227.246094 217.636719 213.992188 C 230.976562 200.636719 238.851562 185.015625 241.257812 171.023438 C 245.917969 143.945312 228.878906 126.488281 201.5 131.214844 " fill-opacity="1" fill-rule="nonzero"/><g clip-path="url(#ed9e5c77aa)"><path fill="#000000" d="M 253.375 197.027344 L 242.445312 201.082031 C 238.617188 207.683594 233.851562 214.105469 228.191406 220.113281 C 228.191406 223.730469 228.136719 227.648438 228.054688 231.195312 C 227.914062 236.878906 222.523438 240.945312 217.03125 239.507812 L 207.519531 237.015625 C 198.757812 242.410156 189.597656 246.125 180.683594 248.128906 L 175.867188 255.367188 C 172.71875 260.097656 165.988281 260.644531 162.113281 256.488281 L 155.054688 248.917969 C 149.40625 247.828125 144.226562 245.816406 139.761719 242.867188 L 129.53125 242.207031 C 123.867188 241.84375 120.023438 236.28125 121.679688 230.847656 L 124.554688 221.417969 C 124.566406 221.378906 124.574219 221.34375 124.585938 221.308594 C 122.492188 213.761719 122.1875 205.199219 123.632812 196.28125 C 121.179688 192.632812 119.347656 190.0625 117.382812 187.105469 C 114.238281 182.375 116.328125 175.945312 121.648438 173.96875 L 132.628906 169.890625 C 132.691406 169.867188 132.75 169.847656 132.8125 169.828125 C 137.203125 161.644531 143.015625 153.699219 150.21875 146.488281 C 152.074219 144.628906 153.976562 142.859375 155.917969 141.179688 L 156.101562 133.507812 C 156.238281 127.828125 161.632812 123.761719 167.121094 125.199219 L 176.039062 127.535156 C 199.636719 115.476562 224.671875 115.304688 240.058594 128.691406 C 240.503906 128.339844 240.976562 127.949219 241.464844 127.519531 C 244.109375 125.191406 246.660156 122.25 247.96875 119.367188 C 249.320312 116.386719 252.828125 115.074219 255.800781 116.425781 C 258.777344 117.78125 260.09375 121.292969 258.738281 124.269531 C 256.457031 129.292969 252.550781 133.535156 249.273438 136.421875 C 248.730469 136.894531 248.191406 137.347656 247.664062 137.773438 C 253.953125 148.238281 255.394531 161.765625 252.359375 175.9375 L 257.640625 183.886719 C 260.785156 188.617188 258.695312 195.050781 253.375 197.027344 Z M 255.40625 175.34375 C 258.117188 161.621094 256.671875 148.660156 251.324219 138.4375 C 254.519531 135.601562 258.789062 131.089844 261.351562 125.457031 C 262.320312 123.320312 262.402344 120.929688 261.574219 118.730469 C 260.753906 116.53125 259.125 114.78125 256.988281 113.808594 C 255.832031 113.289062 254.613281 113.023438 253.355469 113.023438 C 249.921875 113.023438 246.78125 115.046875 245.359375 118.175781 C 244.410156 120.265625 242.480469 122.714844 240.023438 124.957031 C 232.125 118.890625 221.96875 115.695312 210.480469 115.695312 C 199.296875 115.695312 187.296875 118.730469 175.71875 124.480469 L 167.847656 122.421875 C 166.875 122.164062 165.875 122.035156 164.878906 122.035156 C 158.609375 122.035156 153.386719 127.152344 153.234375 133.441406 L 153.078125 139.847656 C 151.414062 141.328125 149.773438 142.875 148.191406 144.457031 C 141.257812 151.402344 135.414062 159.148438 130.8125 167.503906 L 120.648438 171.273438 C 117.285156 172.527344 114.722656 175.203125 113.613281 178.617188 C 112.503906 182.035156 113.011719 185.707031 114.996094 188.695312 C 116.050781 190.285156 117.066406 191.761719 118.160156 193.351562 C 118.929688 194.472656 119.738281 195.644531 120.628906 196.957031 C 119.371094 205.558594 119.707031 213.914062 121.605469 221.253906 L 118.9375 230.011719 C 117.890625 233.445312 118.460938 237.109375 120.503906 240.0625 C 122.542969 243.011719 125.769531 244.839844 129.347656 245.070312 L 138.832031 245.683594 C 143.164062 248.425781 148.117188 250.390625 153.585938 251.550781 L 160.019531 258.445312 C 162.25 260.839844 165.273438 262.160156 168.539062 262.160156 C 172.453125 262.160156 176.082031 260.214844 178.25 256.957031 L 182.441406 250.671875 C 191.164062 248.578125 199.742188 245.03125 207.96875 240.101562 L 216.300781 242.285156 C 217.277344 242.539062 218.277344 242.667969 219.277344 242.667969 C 225.542969 242.667969 230.765625 237.550781 230.921875 231.261719 C 230.996094 228.066406 231.050781 224.558594 231.058594 221.246094 C 236.179688 215.699219 240.664062 209.710938 244.398438 203.417969 L 254.371094 199.714844 C 257.734375 198.46875 260.300781 195.792969 261.410156 192.375 C 262.515625 188.960938 262.011719 185.285156 260.027344 182.296875 L 255.40625 175.34375 " fill-opacity="1" fill-rule="nonzero"/></g><path fill="#000000" d="M 164.902344 217.425781 C 167.40625 217.695312 170.566406 217.496094 174.488281 216.5 C 183.214844 214.277344 193.601562 208.453125 203 199.039062 C 212.398438 189.628906 218.21875 179.230469 220.4375 170.492188 C 221.429688 166.566406 221.632812 163.402344 221.363281 160.894531 L 164.902344 217.425781 " fill-opacity="1" fill-rule="nonzero"/></svg>