<svg xmlns="http://www.w3.org/2000/svg" xmlns:xlink="http://www.w3.org/1999/xlink" width="500" zoomAndPan="magnify" viewBox="0 0 375 374.999991" height="500" preserveAspectRatio="xMidYMid meet" version="1.0"><defs><clipPath id="6faa9c9f7c"><path d="M 199 24.210938 L 209 24.210938 L 209 34 L 199 34 Z M 199 24.210938 " clip-rule="nonzero"/></clipPath><clipPath id="9c33e967d7"><path d="M 121 128 L 254 128 L 254 268 L 121 268 Z M 121 128 " clip-rule="nonzero"/></clipPath><clipPath id="cc95619a73"><path d="M 115.191406 140.058594 L 247.328125 127.300781 L 260.085938 259.4375 L 127.949219 272.195312 Z M 115.191406 140.058594 " clip-rule="nonzero"/></clipPath><clipPath id="2fe0063bb5"><path d="M 115.191406 140.058594 L 247.328125 127.300781 L 260.085938 259.4375 L 127.949219 272.195312 Z M 115.191406 140.058594 " clip-rule="nonzero"/></clipPath><clipPath id="ff7b084263"><path d="M 115.191406 140.058594 L 247.328125 127.300781 L 260.085938 259.4375 L 127.949219 272.195312 Z M 115.191406 140.058594 " clip-rule="nonzero"/></clipPath><clipPath id="88e248649d"><path d="M 115.199219 140.125 L 247.335938 127.367188 L 260.089844 259.503906 L 127.957031 272.261719 Z M 115.199219 140.125 " clip-rule="nonzero"/></clipPath><clipPath id="2f07bcea79"><path d="M 115.199219 140.125 L 247.335938 127.367188 L 260.078125 259.363281 L 127.941406 272.121094 Z M 115.199219 140.125 " clip-rule="nonzero"/></clipPath><clipPath id="e43f18ac10"><path d="M 142 146 L 234 146 L 234 247 L 142 247 Z M 142 146 " clip-rule="nonzero"/></clipPath><clipPath id="fe37ff4e4f"><path d="M 115.191406 140.058594 L 247.328125 127.300781 L 260.085938 259.4375 L 127.949219 272.195312 Z M 115.191406 140.058594 " clip-rule="nonzero"/></clipPath><clipPath id="88adb32ea9"><path d="M 115.191406 140.058594 L 247.328125 127.300781 L 260.085938 259.4375 L 127.949219 272.195312 Z M 115.191406 140.058594 " clip-rule="nonzero"/></clipPath><clipPath id="27dad66748"><path d="M 115.191406 140.058594 L 247.328125 127.300781 L 260.085938 259.4375 L 127.949219 272.195312 Z M 115.191406 140.058594 " clip-rule="nonzero"/></clipPath></defs><rect x="-37.5" width="450" fill="#ffffff" y="-37.499999" height="449.999989" fill-opacity="1"/><rect x="-37.5" width="450" fill="#ffffff" y="-37.499999" height="449.999989" fill-opacity="1"/><path fill="#000000" d="M 242.472656 292.75 L 133.792969 292.75 L 79.449219 198.65625 L 133.792969 104.5625 L 242.472656 104.5625 L 296.8125 198.65625 Z M 136.320312 288.371094 L 239.941406 288.371094 L 291.753906 198.65625 L 239.941406 108.941406 L 136.320312 108.941406 L 84.503906 198.65625 Z M 136.320312 288.371094 " fill-opacity="1" fill-rule="nonzero"/><path fill="#000000" d="M 337.085938 202.480469 C 337.085938 202.480469 337.046875 202.480469 337.027344 202.480469 L 292.945312 200.480469 C 292.21875 200.445312 291.660156 199.832031 291.695312 199.109375 C 291.730469 198.386719 292.34375 197.820312 293.066406 197.855469 L 337.144531 199.855469 C 337.871094 199.890625 338.433594 200.503906 338.398438 201.226562 C 338.367188 201.933594 337.785156 202.480469 337.082031 202.480469 Z M 337.085938 202.480469 " fill-opacity="1" fill-rule="nonzero"/><path fill="#000000" d="M 336.664062 205.59375 C 339.117188 205.703125 341.195312 203.804688 341.304688 201.355469 C 341.414062 198.902344 339.519531 196.824219 337.066406 196.714844 C 334.613281 196.605469 332.53125 198.5 332.421875 200.953125 C 332.3125 203.402344 334.210938 205.484375 336.664062 205.59375 Z M 336.664062 205.59375 " fill-opacity="1" fill-rule="nonzero"/><path fill="#000000" d="M 353.871094 211.972656 L 353.847656 211.972656 L 286.941406 210.894531 C 286.214844 210.882812 285.636719 210.285156 285.652344 209.558594 C 285.664062 208.839844 286.246094 208.269531 286.964844 208.269531 L 286.984375 208.269531 L 353.890625 209.34375 C 354.617188 209.359375 355.195312 209.953125 355.183594 210.679688 C 355.171875 211.398438 354.589844 211.972656 353.871094 211.972656 Z M 353.871094 211.972656 " fill-opacity="1" fill-rule="nonzero"/><path fill="#000000" d="M 357.5 208.445312 C 357.648438 208.699219 357.765625 208.964844 357.859375 209.242188 C 357.953125 209.515625 358.015625 209.800781 358.054688 210.089844 C 358.089844 210.378906 358.097656 210.667969 358.078125 210.960938 C 358.058594 211.25 358.011719 211.539062 357.933594 211.820312 C 357.859375 212.101562 357.753906 212.371094 357.625 212.632812 C 357.496094 212.894531 357.339844 213.140625 357.160156 213.371094 C 356.984375 213.601562 356.785156 213.8125 356.5625 214.003906 C 356.34375 214.195312 356.109375 214.367188 355.855469 214.511719 C 355.601562 214.65625 355.335938 214.773438 355.058594 214.867188 C 354.78125 214.960938 354.5 215.027344 354.210938 215.0625 C 353.921875 215.101562 353.628906 215.109375 353.339844 215.089844 C 353.046875 215.066406 352.761719 215.019531 352.480469 214.945312 C 352.199219 214.867188 351.925781 214.765625 351.664062 214.632812 C 351.402344 214.503906 351.15625 214.351562 350.925781 214.171875 C 350.695312 213.992188 350.484375 213.792969 350.292969 213.574219 C 350.101562 213.355469 349.933594 213.117188 349.789062 212.863281 C 349.640625 212.609375 349.523438 212.347656 349.429688 212.070312 C 349.335938 211.792969 349.273438 211.507812 349.234375 211.21875 C 349.199219 210.929688 349.191406 210.640625 349.210938 210.347656 C 349.230469 210.058594 349.277344 209.773438 349.355469 209.492188 C 349.429688 209.207031 349.535156 208.9375 349.664062 208.675781 C 349.792969 208.414062 349.949219 208.167969 350.125 207.9375 C 350.304688 207.707031 350.503906 207.496094 350.726562 207.304688 C 350.945312 207.113281 351.179688 206.945312 351.433594 206.800781 C 351.6875 206.652344 351.953125 206.535156 352.230469 206.441406 C 352.507812 206.347656 352.789062 206.285156 353.078125 206.246094 C 353.367188 206.210938 353.660156 206.203125 353.949219 206.222656 C 354.242188 206.242188 354.527344 206.289062 354.808594 206.367188 C 355.089844 206.441406 355.363281 206.546875 355.625 206.675781 C 355.886719 206.804688 356.132812 206.960938 356.363281 207.136719 C 356.59375 207.316406 356.804688 207.515625 356.996094 207.734375 C 357.1875 207.957031 357.355469 208.191406 357.5 208.445312 Z M 357.5 208.445312 " fill-opacity="1" fill-rule="nonzero"/><path fill="#000000" d="M 335.734375 223.746094 C 335.734375 223.746094 335.707031 223.746094 335.695312 223.746094 L 282.898438 222.167969 C 282.171875 222.148438 281.605469 221.542969 281.625 220.816406 C 281.648438 220.105469 282.230469 219.542969 282.941406 219.542969 C 282.953125 219.542969 282.964844 219.542969 282.980469 219.542969 L 335.773438 221.117188 C 336.5 221.140625 337.070312 221.742188 337.046875 222.46875 C 337.027344 223.179688 336.445312 223.746094 335.734375 223.746094 Z M 335.734375 223.746094 " fill-opacity="1" fill-rule="nonzero"/><path fill="#000000" d="M 335.378906 226.867188 C 337.832031 226.941406 339.882812 225.011719 339.957031 222.558594 C 340.03125 220.105469 338.097656 218.058594 335.648438 217.984375 C 333.195312 217.910156 331.144531 219.839844 331.070312 222.292969 C 330.996094 224.742188 332.925781 226.792969 335.378906 226.867188 Z M 335.378906 226.867188 " fill-opacity="1" fill-rule="nonzero"/><path fill="#000000" d="M 339.011719 203.394531 C 338.613281 203.394531 338.214844 203.210938 337.953125 202.863281 C 337.519531 202.28125 337.640625 201.460938 338.222656 201.027344 L 369.464844 177.714844 C 370.046875 177.28125 370.871094 177.402344 371.304688 177.984375 C 371.738281 178.566406 371.621094 179.386719 371.039062 179.820312 L 339.792969 203.132812 C 339.558594 203.308594 339.28125 203.394531 339.011719 203.394531 Z M 339.011719 203.394531 " fill-opacity="1" fill-rule="nonzero"/><path fill="#000000" d="M 372.734375 182.464844 C 374.699219 181 375.105469 178.214844 373.632812 176.246094 C 372.167969 174.277344 369.382812 173.871094 367.410156 175.34375 C 365.445312 176.808594 365.039062 179.59375 366.507812 181.566406 C 367.976562 183.53125 370.761719 183.9375 372.734375 182.464844 Z M 372.734375 182.464844 " fill-opacity="1" fill-rule="nonzero"/><path fill="#000000" d="M 355.601562 212.25 C 355.207031 212.25 354.816406 212.078125 354.558594 211.738281 C 354.117188 211.167969 354.21875 210.339844 354.792969 209.894531 L 366.210938 201.078125 C 366.785156 200.636719 367.613281 200.742188 368.054688 201.316406 C 368.496094 201.886719 368.390625 202.714844 367.820312 203.15625 L 356.402344 211.976562 C 356.160156 212.160156 355.878906 212.25 355.601562 212.25 Z M 355.601562 212.25 " fill-opacity="1" fill-rule="nonzero"/><path fill="#000000" d="M 369.5625 205.773438 C 371.507812 204.269531 371.859375 201.480469 370.363281 199.539062 C 368.859375 197.59375 366.070312 197.238281 364.125 198.734375 C 362.183594 200.238281 361.828125 203.027344 363.324219 204.972656 C 364.824219 206.914062 367.617188 207.269531 369.5625 205.773438 Z M 369.5625 205.773438 " fill-opacity="1" fill-rule="nonzero"/><path fill="#000000" d="M 364.316406 237.070312 C 364.117188 237.070312 363.917969 237.027344 363.726562 236.933594 L 336.914062 223.527344 C 336.265625 223.203125 336 222.414062 336.324219 221.761719 C 336.648438 221.113281 337.4375 220.851562 338.089844 221.175781 L 364.90625 234.582031 C 365.554688 234.90625 365.816406 235.691406 365.492188 236.34375 C 365.261719 236.804688 364.796875 237.070312 364.316406 237.070312 Z M 364.316406 237.070312 " fill-opacity="1" fill-rule="nonzero"/><path fill="#000000" d="M 362.128906 239.632812 C 364.324219 240.730469 366.996094 239.839844 368.09375 237.644531 C 369.195312 235.453125 368.300781 232.78125 366.105469 231.683594 C 363.914062 230.582031 361.242188 231.476562 360.140625 233.671875 C 359.042969 235.863281 359.9375 238.535156 362.128906 239.632812 Z M 362.128906 239.632812 " fill-opacity="1" fill-rule="nonzero"/><path fill="#000000" d="M 242.5625 109.40625 L 241.347656 109.40625 C 240.621094 109.40625 240.035156 108.820312 240.035156 108.09375 C 240.035156 107.367188 240.621094 106.78125 241.347656 106.78125 L 241.472656 106.78125 L 289.296875 58.96875 C 289.8125 58.457031 290.644531 58.457031 291.15625 58.96875 C 291.667969 59.480469 291.667969 60.3125 291.15625 60.824219 L 242.566406 109.402344 Z M 242.5625 109.40625 " fill-opacity="1" fill-rule="nonzero"/><path fill="#000000" d="M 293.210938 63.199219 C 294.945312 61.464844 294.945312 58.648438 293.210938 56.910156 C 291.476562 55.175781 288.660156 55.175781 286.921875 56.910156 C 285.1875 58.644531 285.1875 61.460938 286.921875 63.199219 C 288.65625 64.933594 291.472656 64.933594 293.210938 63.199219 Z M 293.210938 63.199219 " fill-opacity="1" fill-rule="nonzero"/><path fill="#000000" d="M 248.726562 122.820312 C 248.390625 122.820312 248.050781 122.695312 247.796875 122.4375 C 247.285156 121.925781 247.285156 121.09375 247.796875 120.578125 L 276.679688 91.707031 C 277.195312 91.191406 278.027344 91.191406 278.539062 91.707031 C 279.050781 92.21875 279.050781 93.050781 278.539062 93.5625 L 249.65625 122.4375 C 249.398438 122.695312 249.0625 122.820312 248.726562 122.820312 Z M 248.726562 122.820312 " fill-opacity="1" fill-rule="nonzero"/><path fill="#000000" d="M 280.597656 95.929688 C 282.332031 94.195312 282.332031 91.382812 280.597656 89.644531 C 278.863281 87.90625 276.046875 87.910156 274.308594 89.644531 C 272.570312 91.378906 272.574219 94.191406 274.308594 95.929688 C 276.042969 97.667969 278.859375 97.664062 280.597656 95.929688 Z M 280.597656 95.929688 " fill-opacity="1" fill-rule="nonzero"/><path fill="#000000" d="M 226.585938 107.394531 C 226.222656 107.394531 225.851562 107.238281 225.59375 106.945312 C 225.117188 106.398438 225.175781 105.570312 225.71875 105.09375 L 231.050781 100.425781 L 254.871094 76.613281 C 255.382812 76.101562 256.214844 76.101562 256.726562 76.613281 C 257.242188 77.125 257.242188 77.957031 256.726562 78.46875 L 232.816406 102.371094 L 227.445312 107.0625 C 227.199219 107.28125 226.890625 107.386719 226.585938 107.386719 Z M 226.585938 107.394531 " fill-opacity="1" fill-rule="nonzero"/><path fill="#000000" d="M 258.785156 80.84375 C 260.519531 79.109375 260.519531 76.292969 258.785156 74.554688 C 257.050781 72.816406 254.238281 72.820312 252.496094 74.554688 C 250.757812 76.289062 250.761719 79.105469 252.496094 80.84375 C 254.230469 82.582031 257.046875 82.578125 258.785156 80.84375 Z M 258.785156 80.84375 " fill-opacity="1" fill-rule="nonzero"/><path fill="#000000" d="M 256.804688 76.777344 C 256.074219 76.777344 255.488281 76.1875 255.488281 75.460938 L 255.488281 54.160156 C 255.488281 53.433594 256.074219 52.847656 256.804688 52.847656 C 257.53125 52.847656 258.117188 53.433594 258.117188 54.160156 L 258.117188 75.460938 C 258.117188 76.1875 257.53125 76.777344 256.804688 76.777344 Z M 256.804688 76.777344 " fill-opacity="1" fill-rule="nonzero"/><path fill="#000000" d="M 261.246094 54.386719 C 261.246094 51.929688 259.253906 49.941406 256.804688 49.941406 C 254.351562 49.941406 252.359375 51.933594 252.359375 54.386719 C 252.359375 56.835938 254.351562 58.828125 256.804688 58.828125 C 259.253906 58.828125 261.246094 56.835938 261.246094 54.386719 Z M 261.246094 54.386719 " fill-opacity="1" fill-rule="nonzero"/><path fill="#000000" d="M 290.9375 57.957031 C 290.210938 57.957031 289.621094 57.371094 289.621094 56.644531 L 289.621094 41.195312 C 289.621094 40.464844 290.210938 39.878906 290.9375 39.878906 C 291.664062 39.878906 292.25 40.464844 292.25 41.195312 L 292.25 56.644531 C 292.25 57.371094 291.664062 57.957031 290.9375 57.957031 Z M 290.9375 57.957031 " fill-opacity="1" fill-rule="nonzero"/><path fill="#000000" d="M 295.382812 41.414062 C 295.382812 38.957031 293.390625 36.96875 290.9375 36.96875 C 288.484375 36.96875 286.492188 38.960938 286.492188 41.414062 C 286.492188 43.863281 288.484375 45.855469 290.9375 45.855469 C 293.390625 45.855469 295.382812 43.863281 295.382812 41.414062 Z M 295.382812 41.414062 " fill-opacity="1" fill-rule="nonzero"/><path fill="#000000" d="M 286.539062 100.625 C 286.203125 100.625 285.863281 100.496094 285.609375 100.238281 L 278.902344 93.53125 C 278.390625 93.019531 278.390625 92.1875 278.902344 91.675781 C 279.414062 91.164062 280.246094 91.164062 280.757812 91.675781 L 287.46875 98.382812 C 287.980469 98.894531 287.980469 99.726562 287.46875 100.238281 C 287.210938 100.496094 286.875 100.625 286.539062 100.625 Z M 286.539062 100.625 " fill-opacity="1" fill-rule="nonzero"/><path fill="#000000" d="M 283.238281 102.296875 C 284.972656 104.03125 287.789062 104.03125 289.527344 102.296875 C 291.261719 100.5625 291.261719 97.746094 289.527344 96.007812 C 287.792969 94.277344 284.976562 94.277344 283.238281 96.007812 C 281.503906 97.742188 281.503906 100.558594 283.238281 102.296875 Z M 283.238281 102.296875 " fill-opacity="1" fill-rule="nonzero"/><path fill="#000000" d="M 177.609375 108.0625 C 176.882812 108.0625 176.292969 107.476562 176.292969 106.75 L 176.292969 53.273438 C 176.292969 52.546875 176.882812 51.960938 177.609375 51.960938 C 178.335938 51.960938 178.921875 52.546875 178.921875 53.273438 L 178.921875 106.75 C 178.921875 107.476562 178.335938 108.0625 177.609375 108.0625 Z M 177.609375 108.0625 " fill-opacity="1" fill-rule="nonzero"/><path fill="#000000" d="M 182.054688 53.5 C 182.054688 51.042969 180.0625 49.058594 177.609375 49.058594 C 175.15625 49.058594 173.164062 51.050781 173.164062 53.5 C 173.164062 55.953125 175.15625 57.945312 177.609375 57.945312 C 180.0625 57.945312 182.054688 55.953125 182.054688 53.5 Z M 182.054688 53.5 " fill-opacity="1" fill-rule="nonzero"/><path fill="#000000" d="M 165.535156 107.394531 C 164.808594 107.394531 164.21875 106.804688 164.21875 106.078125 L 164.21875 74.078125 C 164.21875 73.351562 164.808594 72.765625 165.535156 72.765625 C 166.261719 72.765625 166.847656 73.351562 166.847656 74.078125 L 166.847656 106.078125 C 166.847656 106.804688 166.261719 107.394531 165.535156 107.394531 Z M 165.535156 107.394531 " fill-opacity="1" fill-rule="nonzero"/><path fill="#000000" d="M 169.980469 74.300781 C 169.980469 71.84375 167.988281 69.859375 165.535156 69.859375 C 163.082031 69.859375 161.089844 71.851562 161.089844 74.300781 C 161.089844 76.753906 163.082031 78.746094 165.535156 78.746094 C 167.988281 78.746094 169.980469 76.753906 169.980469 74.300781 Z M 169.980469 74.300781 " fill-opacity="1" fill-rule="nonzero"/><path fill="#000000" d="M 187.671875 106.722656 C 186.945312 106.722656 186.359375 106.136719 186.359375 105.410156 L 186.359375 45.039062 L 203.355469 28.046875 C 203.867188 27.535156 204.699219 27.535156 205.210938 28.046875 C 205.726562 28.558594 205.726562 29.390625 205.210938 29.902344 L 188.984375 46.125 L 188.984375 105.410156 C 188.984375 106.136719 188.398438 106.722656 187.671875 106.722656 Z M 187.671875 106.722656 " fill-opacity="1" fill-rule="nonzero"/><g clip-path="url(#6faa9c9f7c)"><path fill="#000000" d="M 207.269531 32.273438 C 209.003906 30.542969 209.003906 27.726562 207.269531 25.988281 C 205.535156 24.253906 202.71875 24.253906 200.980469 25.988281 C 199.246094 27.722656 199.246094 30.535156 200.980469 32.273438 C 202.714844 34.007812 205.53125 34.007812 207.269531 32.273438 Z M 207.269531 32.273438 " fill-opacity="1" fill-rule="nonzero"/></g><path fill="#000000" d="M 177.160156 51.25 C 176.824219 51.25 176.488281 51.125 176.234375 50.863281 L 162.976562 37.613281 C 162.464844 37.101562 162.464844 36.269531 162.976562 35.753906 C 163.488281 35.242188 164.320312 35.242188 164.832031 35.753906 L 178.089844 49.007812 C 178.601562 49.519531 178.601562 50.351562 178.089844 50.863281 C 177.832031 51.125 177.5 51.25 177.160156 51.25 Z M 177.160156 51.25 " fill-opacity="1" fill-rule="nonzero"/><path fill="#000000" d="M 167.207031 33.699219 C 165.472656 31.964844 162.65625 31.964844 160.917969 33.699219 C 159.183594 35.433594 159.183594 38.246094 160.917969 39.984375 C 162.652344 41.71875 165.46875 41.71875 167.207031 39.984375 C 168.941406 38.25 168.941406 35.4375 167.207031 33.699219 Z M 167.207031 33.699219 " fill-opacity="1" fill-rule="nonzero"/><path fill="#000000" d="M 163.988281 73.363281 C 163.652344 73.363281 163.3125 73.238281 163.058594 72.980469 L 154.410156 64.332031 C 153.898438 63.820312 153.898438 62.988281 154.410156 62.476562 C 154.921875 61.964844 155.753906 61.964844 156.265625 62.476562 L 164.917969 71.125 C 165.429688 71.636719 165.429688 72.46875 164.917969 72.980469 C 164.660156 73.238281 164.324219 73.363281 163.988281 73.363281 Z M 163.988281 73.363281 " fill-opacity="1" fill-rule="nonzero"/><path fill="#000000" d="M 158.636719 60.417969 C 156.902344 58.683594 154.085938 58.683594 152.347656 60.417969 C 150.613281 62.152344 150.613281 64.96875 152.347656 66.707031 C 154.082031 68.4375 156.898438 68.4375 158.636719 66.707031 C 160.371094 64.972656 160.371094 62.15625 158.636719 60.417969 Z M 158.636719 60.417969 " fill-opacity="1" fill-rule="nonzero"/><path fill="#000000" d="M 80.328125 200.625 L 25.5 200.625 C 24.773438 200.625 24.1875 200.035156 24.1875 199.308594 C 24.1875 198.582031 24.773438 197.996094 25.5 197.996094 L 80.332031 197.996094 C 81.058594 197.996094 81.644531 198.582031 81.644531 199.308594 C 81.644531 200.035156 81.058594 200.625 80.332031 200.625 Z M 80.328125 200.625 " fill-opacity="1" fill-rule="nonzero"/><path fill="#000000" d="M 25.71875 194.867188 C 23.261719 194.867188 21.273438 196.859375 21.273438 199.308594 C 21.273438 201.761719 23.265625 203.753906 25.71875 203.753906 C 28.171875 203.753906 30.164062 201.761719 30.164062 199.308594 C 30.164062 196.859375 28.171875 194.867188 25.71875 194.867188 Z M 25.71875 194.867188 " fill-opacity="1" fill-rule="nonzero"/><path fill="#000000" d="M 86.367188 212.023438 L 37.742188 212.023438 C 37.011719 212.023438 36.425781 211.4375 36.425781 210.710938 C 36.425781 209.984375 37.011719 209.398438 37.742188 209.398438 L 86.367188 209.398438 C 87.09375 209.398438 87.679688 209.984375 87.679688 210.710938 C 87.679688 211.4375 87.09375 212.023438 86.367188 212.023438 Z M 86.367188 212.023438 " fill-opacity="1" fill-rule="nonzero"/><path fill="#000000" d="M 37.964844 206.265625 C 35.507812 206.265625 33.519531 208.257812 33.519531 210.710938 C 33.519531 213.164062 35.511719 215.15625 37.964844 215.15625 C 40.417969 215.15625 42.410156 213.164062 42.410156 210.710938 C 42.410156 208.257812 40.417969 206.265625 37.964844 206.265625 Z M 37.964844 206.265625 " fill-opacity="1" fill-rule="nonzero"/><path fill="#000000" d="M 87.035156 189.890625 L 34.871094 189.890625 C 34.144531 189.890625 33.558594 189.304688 33.558594 188.578125 C 33.558594 187.851562 34.144531 187.265625 34.871094 187.265625 L 87.039062 187.265625 C 87.765625 187.265625 88.355469 187.851562 88.355469 188.578125 C 88.355469 189.304688 87.765625 189.890625 87.039062 189.890625 Z M 87.035156 189.890625 " fill-opacity="1" fill-rule="nonzero"/><path fill="#000000" d="M 35.089844 184.132812 C 32.632812 184.132812 30.644531 186.125 30.644531 188.578125 C 30.644531 191.03125 32.636719 193.023438 35.089844 193.023438 C 37.542969 193.023438 39.535156 191.03125 39.535156 188.578125 C 39.535156 186.125 37.542969 184.132812 35.089844 184.132812 Z M 35.089844 184.132812 " fill-opacity="1" fill-rule="nonzero"/><path fill="#000000" d="M 86.820312 300.777344 C 86.484375 300.777344 86.148438 300.648438 85.894531 300.390625 C 85.378906 299.878906 85.378906 299.046875 85.894531 298.535156 L 119.65625 264.78125 C 120.167969 264.269531 121 264.269531 121.511719 264.78125 C 122.023438 265.292969 122.023438 266.125 121.511719 266.636719 L 87.75 300.390625 C 87.492188 300.648438 87.160156 300.777344 86.820312 300.777344 Z M 86.820312 300.777344 " fill-opacity="1" fill-rule="nonzero"/><path fill="#000000" d="M 83.835938 296.164062 C 82.101562 297.898438 82.101562 300.714844 83.835938 302.453125 C 85.570312 304.1875 88.386719 304.1875 90.125 302.453125 C 91.863281 300.71875 91.859375 297.902344 90.125 296.164062 C 88.390625 294.429688 85.574219 294.429688 83.835938 296.164062 Z M 83.835938 296.164062 " fill-opacity="1" fill-rule="nonzero"/><path fill="#000000" d="M 86.332031 316.691406 C 85.992188 316.691406 85.65625 316.5625 85.402344 316.304688 C 84.890625 315.792969 84.890625 314.960938 85.402344 314.449219 L 124.347656 275.511719 C 124.863281 275 125.695312 275 126.207031 275.511719 C 126.71875 276.027344 126.71875 276.855469 126.207031 277.371094 L 87.257812 316.304688 C 87 316.5625 86.667969 316.691406 86.332031 316.691406 Z M 86.332031 316.691406 " fill-opacity="1" fill-rule="nonzero"/><path fill="#000000" d="M 83.347656 312.074219 C 81.613281 313.808594 81.613281 316.625 83.347656 318.363281 C 85.082031 320.101562 87.898438 320.097656 89.636719 318.363281 C 91.375 316.628906 91.371094 313.8125 89.636719 312.074219 C 87.902344 310.335938 85.085938 310.34375 83.347656 312.074219 Z M 83.347656 312.074219 " fill-opacity="1" fill-rule="nonzero"/><path fill="#000000" d="M 113.148438 303.96875 C 112.808594 303.96875 112.472656 303.839844 112.21875 303.582031 C 111.707031 303.070312 111.707031 302.238281 112.21875 301.726562 L 129.71875 284.230469 C 130.230469 283.71875 131.0625 283.71875 131.574219 284.230469 C 132.089844 284.742188 132.089844 285.574219 131.574219 286.085938 L 114.074219 303.582031 C 113.816406 303.839844 113.484375 303.96875 113.148438 303.96875 Z M 113.148438 303.96875 " fill-opacity="1" fill-rule="nonzero"/><path fill="#000000" d="M 110.160156 299.355469 C 108.425781 301.089844 108.425781 303.90625 110.160156 305.644531 C 111.894531 307.378906 114.710938 307.378906 116.449219 305.644531 C 118.1875 303.910156 118.183594 301.09375 116.449219 299.355469 C 114.714844 297.625 111.898438 297.625 110.160156 299.355469 Z M 110.160156 299.355469 " fill-opacity="1" fill-rule="nonzero"/><path fill="#000000" d="M 205.785156 333.648438 C 205.058594 333.648438 204.472656 333.0625 204.472656 332.335938 L 204.472656 293.210938 C 204.472656 292.484375 205.058594 291.898438 205.785156 291.898438 C 206.511719 291.898438 207.101562 292.484375 207.101562 293.210938 L 207.101562 332.335938 C 207.101562 333.0625 206.511719 333.648438 205.785156 333.648438 Z M 205.785156 333.648438 " fill-opacity="1" fill-rule="nonzero"/><path fill="#000000" d="M 201.339844 332.109375 C 201.339844 334.566406 203.332031 336.554688 205.785156 336.554688 C 208.238281 336.554688 210.230469 334.5625 210.230469 332.109375 C 210.230469 329.660156 208.238281 327.667969 205.785156 327.667969 C 203.332031 327.667969 201.339844 329.660156 201.339844 332.109375 Z M 201.339844 332.109375 " fill-opacity="1" fill-rule="nonzero"/><path fill="#000000" d="M 212.496094 323.167969 C 211.769531 323.167969 211.179688 322.578125 211.179688 321.851562 L 211.179688 293.210938 C 211.179688 292.484375 211.769531 291.898438 212.496094 291.898438 C 213.222656 291.898438 213.808594 292.484375 213.808594 293.210938 L 213.808594 321.851562 C 213.808594 322.578125 213.222656 323.167969 212.496094 323.167969 Z M 212.496094 323.167969 " fill-opacity="1" fill-rule="nonzero"/><path fill="#000000" d="M 214.832031 317.867188 C 215.082031 318.019531 215.3125 318.195312 215.527344 318.394531 C 215.738281 318.59375 215.929688 318.8125 216.101562 319.050781 C 216.273438 319.285156 216.417969 319.535156 216.539062 319.800781 C 216.660156 320.066406 216.753906 320.34375 216.820312 320.625 C 216.890625 320.910156 216.925781 321.199219 216.9375 321.488281 C 216.949219 321.78125 216.929688 322.070312 216.882812 322.359375 C 216.835938 322.648438 216.761719 322.929688 216.660156 323.203125 C 216.558594 323.476562 216.429688 323.734375 216.277344 323.984375 C 216.125 324.230469 215.945312 324.460938 215.75 324.675781 C 215.550781 324.890625 215.332031 325.082031 215.09375 325.253906 C 214.859375 325.421875 214.605469 325.570312 214.339844 325.691406 C 214.074219 325.8125 213.800781 325.90625 213.515625 325.972656 C 213.234375 326.039062 212.945312 326.078125 212.652344 326.089844 C 212.363281 326.097656 212.070312 326.082031 211.785156 326.035156 C 211.496094 325.988281 211.214844 325.914062 210.941406 325.8125 C 210.667969 325.707031 210.40625 325.582031 210.160156 325.425781 C 209.910156 325.273438 209.679688 325.097656 209.464844 324.898438 C 209.253906 324.699219 209.058594 324.480469 208.890625 324.246094 C 208.71875 324.007812 208.574219 323.757812 208.453125 323.492188 C 208.332031 323.226562 208.238281 322.953125 208.167969 322.667969 C 208.101562 322.382812 208.0625 322.097656 208.054688 321.804688 C 208.042969 321.511719 208.0625 321.222656 208.109375 320.933594 C 208.15625 320.648438 208.230469 320.367188 208.332031 320.09375 C 208.433594 319.820312 208.5625 319.558594 208.714844 319.3125 C 208.867188 319.0625 209.042969 318.832031 209.242188 318.617188 C 209.441406 318.40625 209.660156 318.210938 209.898438 318.042969 C 210.132812 317.871094 210.382812 317.726562 210.648438 317.605469 C 210.914062 317.484375 211.191406 317.390625 211.472656 317.320312 C 211.757812 317.253906 212.046875 317.214844 212.339844 317.207031 C 212.628906 317.195312 212.917969 317.214844 213.207031 317.261719 C 213.496094 317.308594 213.777344 317.382812 214.050781 317.484375 C 214.324219 317.585938 214.585938 317.714844 214.832031 317.867188 Z M 214.832031 317.867188 " fill-opacity="1" fill-rule="nonzero"/><path fill="#000000" d="M 220.546875 349.875 C 219.816406 349.875 219.230469 349.285156 219.230469 348.558594 L 219.230469 292.535156 C 219.230469 291.808594 219.816406 291.222656 220.546875 291.222656 C 221.273438 291.222656 221.859375 291.808594 221.859375 292.535156 L 221.859375 348.558594 C 221.859375 349.285156 221.273438 349.875 220.546875 349.875 Z M 220.546875 349.875 " fill-opacity="1" fill-rule="nonzero"/><path fill="#000000" d="M 224.65625 346.636719 C 224.765625 346.90625 224.851562 347.183594 224.910156 347.46875 C 224.964844 347.757812 224.996094 348.046875 224.996094 348.335938 C 224.996094 348.628906 224.964844 348.917969 224.910156 349.203125 C 224.851562 349.492188 224.765625 349.769531 224.65625 350.039062 C 224.542969 350.308594 224.40625 350.5625 224.246094 350.804688 C 224.082031 351.050781 223.898438 351.273438 223.691406 351.480469 C 223.484375 351.6875 223.261719 351.871094 223.019531 352.03125 C 222.777344 352.195312 222.519531 352.332031 222.25 352.441406 C 221.980469 352.554688 221.703125 352.640625 221.417969 352.695312 C 221.128906 352.753906 220.839844 352.78125 220.550781 352.78125 C 220.257812 352.78125 219.96875 352.753906 219.683594 352.695312 C 219.394531 352.640625 219.117188 352.554688 218.847656 352.441406 C 218.578125 352.332031 218.320312 352.195312 218.078125 352.03125 C 217.835938 351.871094 217.613281 351.6875 217.40625 351.480469 C 217.199219 351.273438 217.015625 351.050781 216.851562 350.804688 C 216.691406 350.5625 216.554688 350.308594 216.441406 350.039062 C 216.332031 349.769531 216.246094 349.492188 216.1875 349.203125 C 216.132812 348.917969 216.105469 348.628906 216.105469 348.335938 C 216.105469 348.046875 216.132812 347.757812 216.1875 347.46875 C 216.246094 347.183594 216.332031 346.90625 216.441406 346.636719 C 216.554688 346.367188 216.691406 346.109375 216.851562 345.867188 C 217.015625 345.625 217.199219 345.402344 217.40625 345.195312 C 217.613281 344.988281 217.835938 344.804688 218.078125 344.644531 C 218.320312 344.480469 218.578125 344.34375 218.847656 344.230469 C 219.117188 344.121094 219.394531 344.035156 219.683594 343.980469 C 219.96875 343.921875 220.257812 343.894531 220.550781 343.894531 C 220.839844 343.894531 221.128906 343.921875 221.417969 343.980469 C 221.703125 344.035156 221.980469 344.121094 222.25 344.230469 C 222.519531 344.34375 222.777344 344.480469 223.019531 344.644531 C 223.261719 344.804688 223.484375 344.988281 223.691406 345.195312 C 223.898438 345.402344 224.082031 345.625 224.246094 345.867188 C 224.40625 346.109375 224.542969 346.367188 224.65625 346.636719 Z M 224.65625 346.636719 " fill-opacity="1" fill-rule="nonzero"/><path fill="#000000" d="M 305.058594 313.949219 C 304.722656 313.949219 304.386719 313.824219 304.132812 313.566406 L 255.847656 265.292969 C 255.335938 264.78125 255.335938 263.949219 255.847656 263.4375 C 256.359375 262.925781 257.191406 262.925781 257.703125 263.4375 L 305.988281 311.707031 C 306.5 312.21875 306.5 313.050781 305.988281 313.566406 C 305.730469 313.824219 305.398438 313.949219 305.058594 313.949219 Z M 305.058594 313.949219 " fill-opacity="1" fill-rule="nonzero"/><path fill="#000000" d="M 301.757812 315.621094 C 303.492188 317.355469 306.308594 317.355469 308.046875 315.621094 C 309.785156 313.886719 309.78125 311.074219 308.046875 309.335938 C 306.3125 307.597656 303.496094 307.601562 301.757812 309.335938 C 300.019531 311.070312 300.023438 313.882812 301.757812 315.621094 Z M 301.757812 315.621094 " fill-opacity="1" fill-rule="nonzero"/><path fill="#000000" d="M 302.175781 301.675781 C 301.835938 301.675781 301.5 301.550781 301.246094 301.292969 L 259.871094 259.929688 C 259.359375 259.417969 259.359375 258.585938 259.871094 258.074219 C 260.386719 257.5625 261.21875 257.5625 261.730469 258.074219 L 303.101562 299.4375 C 303.617188 299.949219 303.617188 300.78125 303.101562 301.292969 C 302.84375 301.550781 302.511719 301.675781 302.175781 301.675781 Z M 302.175781 301.675781 " fill-opacity="1" fill-rule="nonzero"/><path fill="#000000" d="M 298.875 303.351562 C 300.609375 305.082031 303.425781 305.082031 305.164062 303.351562 C 306.902344 301.617188 306.898438 298.800781 305.164062 297.0625 C 303.429688 295.324219 300.617188 295.328125 298.875 297.0625 C 297.136719 298.796875 297.140625 301.613281 298.875 303.351562 Z M 298.875 303.351562 " fill-opacity="1" fill-rule="nonzero"/><path fill="#000000" d="M 294.15625 278.90625 C 293.816406 278.90625 293.480469 278.78125 293.226562 278.519531 L 263.898438 249.199219 C 263.386719 248.6875 263.386719 247.855469 263.898438 247.34375 C 264.410156 246.832031 265.242188 246.832031 265.753906 247.34375 L 295.085938 276.664062 C 295.597656 277.175781 295.597656 278.007812 295.085938 278.519531 C 294.824219 278.78125 294.492188 278.90625 294.15625 278.90625 Z M 294.15625 278.90625 " fill-opacity="1" fill-rule="nonzero"/><path fill="#000000" d="M 290.851562 280.578125 C 292.585938 282.3125 295.402344 282.3125 297.140625 280.578125 C 298.882812 278.84375 298.875 276.03125 297.140625 274.292969 C 295.40625 272.554688 292.59375 272.558594 290.851562 274.292969 C 289.113281 276.027344 289.117188 278.839844 290.851562 280.578125 Z M 290.851562 280.578125 " fill-opacity="1" fill-rule="nonzero"/><path fill="#000000" d="M 105.824219 153.675781 C 105.488281 153.675781 105.148438 153.546875 104.894531 153.289062 L 60.914062 109.320312 C 60.398438 108.808594 60.398438 107.976562 60.914062 107.460938 C 61.425781 106.949219 62.257812 106.949219 62.769531 107.460938 L 106.753906 151.433594 C 107.265625 151.945312 107.265625 152.777344 106.753906 153.289062 C 106.492188 153.546875 106.160156 153.675781 105.824219 153.675781 Z M 105.824219 153.675781 " fill-opacity="1" fill-rule="nonzero"/><path fill="#000000" d="M 65.144531 105.40625 C 63.410156 103.671875 60.59375 103.671875 58.855469 105.40625 C 57.121094 107.140625 57.121094 109.953125 58.855469 111.691406 C 60.589844 113.425781 63.402344 113.425781 65.144531 111.691406 C 66.878906 109.957031 66.878906 107.144531 65.144531 105.40625 Z M 65.144531 105.40625 " fill-opacity="1" fill-rule="nonzero"/><path fill="#000000" d="M 111.1875 147.636719 C 110.851562 147.636719 110.515625 147.511719 110.261719 147.253906 L 67.605469 104.609375 C 67.089844 104.097656 67.089844 103.265625 67.605469 102.75 C 68.117188 102.238281 68.949219 102.238281 69.460938 102.75 L 112.117188 145.394531 C 112.628906 145.90625 112.628906 146.738281 112.117188 147.253906 C 111.859375 147.511719 111.527344 147.636719 111.1875 147.636719 Z M 111.1875 147.636719 " fill-opacity="1" fill-rule="nonzero"/><path fill="#000000" d="M 71.835938 100.695312 C 70.101562 98.960938 67.285156 98.960938 65.546875 100.695312 C 63.8125 102.425781 63.8125 105.242188 65.546875 106.980469 C 67.28125 108.714844 70.097656 108.714844 71.835938 106.980469 C 73.570312 105.246094 73.570312 102.433594 71.835938 100.695312 Z M 71.835938 100.695312 " fill-opacity="1" fill-rule="nonzero"/><path fill="#000000" d="M 116.558594 142.269531 C 116.222656 142.269531 115.882812 142.144531 115.628906 141.882812 L 87.492188 113.753906 C 86.980469 113.242188 86.980469 112.410156 87.492188 111.898438 C 88.003906 111.386719 88.835938 111.386719 89.347656 111.898438 L 117.488281 140.027344 C 118 140.539062 118 141.371094 117.488281 141.882812 C 117.226562 142.144531 116.894531 142.269531 116.558594 142.269531 Z M 116.558594 142.269531 " fill-opacity="1" fill-rule="nonzero"/><path fill="#000000" d="M 91.722656 109.84375 C 89.988281 108.109375 87.171875 108.109375 85.433594 109.84375 C 83.695312 111.578125 83.699219 114.394531 85.433594 116.132812 C 87.167969 117.867188 89.984375 117.867188 91.722656 116.132812 C 93.460938 114.398438 93.457031 111.582031 91.722656 109.84375 Z M 91.722656 109.84375 " fill-opacity="1" fill-rule="nonzero"/><path fill="#000000" d="M 87.429688 111.867188 C 87.234375 111.867188 87.03125 111.824219 86.84375 111.726562 C 86.195312 111.402344 85.933594 110.613281 86.257812 109.96875 L 92.863281 96.753906 C 93.1875 96.105469 93.976562 95.84375 94.625 96.167969 C 95.273438 96.492188 95.535156 97.277344 95.210938 97.925781 L 88.605469 111.140625 C 88.371094 111.601562 87.910156 111.867188 87.425781 111.867188 Z M 87.429688 111.867188 " fill-opacity="1" fill-rule="nonzero"/><path fill="#000000" d="M 97.914062 99.523438 C 99.015625 97.332031 98.121094 94.660156 95.925781 93.5625 C 93.730469 92.460938 91.0625 93.355469 89.960938 95.550781 C 88.863281 97.742188 89.753906 100.414062 91.949219 101.511719 C 94.144531 102.613281 96.816406 101.71875 97.914062 99.523438 Z M 97.914062 99.523438 " fill-opacity="1" fill-rule="nonzero"/><path fill="#000000" d="M 67.765625 102.054688 C 67.574219 102.054688 67.375 102.011719 67.191406 101.925781 C 66.539062 101.605469 66.269531 100.820312 66.589844 100.167969 L 73.683594 85.628906 C 74.003906 84.976562 74.785156 84.703125 75.4375 85.023438 C 76.089844 85.34375 76.363281 86.128906 76.042969 86.78125 L 68.949219 101.320312 C 68.722656 101.789062 68.253906 102.058594 67.765625 102.058594 Z M 67.765625 102.054688 " fill-opacity="1" fill-rule="nonzero"/><path fill="#000000" d="M 78.757812 88.351562 C 79.835938 86.144531 78.921875 83.484375 76.714844 82.410156 C 74.507812 81.332031 71.84375 82.25 70.769531 84.453125 C 69.691406 86.660156 70.609375 89.324219 72.816406 90.394531 C 75.023438 91.46875 77.6875 90.558594 78.757812 88.351562 Z M 78.757812 88.351562 " fill-opacity="1" fill-rule="nonzero"/><path fill="#000000" d="M 57.957031 109.613281 C 57.90625 109.613281 57.855469 109.613281 57.808594 109.605469 L 38.296875 107.398438 C 37.574219 107.3125 37.058594 106.664062 37.140625 105.945312 C 37.222656 105.222656 37.871094 104.703125 38.59375 104.789062 L 58.105469 106.996094 C 58.828125 107.078125 59.34375 107.726562 59.261719 108.449219 C 59.1875 109.117188 58.617188 109.613281 57.957031 109.613281 Z M 57.957031 109.613281 " fill-opacity="1" fill-rule="nonzero"/><path fill="#000000" d="M 39.167969 101.695312 C 36.730469 101.421875 34.527344 103.171875 34.25 105.613281 C 33.972656 108.054688 35.726562 110.257812 38.167969 110.53125 C 40.609375 110.808594 42.8125 109.054688 43.085938 106.613281 C 43.363281 104.171875 41.613281 101.972656 39.171875 101.695312 Z M 39.167969 101.695312 " fill-opacity="1" fill-rule="nonzero"/><path fill="#000000" d="M 32.871094 190.117188 C 32.523438 190.117188 32.175781 189.980469 31.914062 189.703125 C 31.417969 189.179688 31.4375 188.347656 31.964844 187.847656 L 46.339844 174.210938 C 46.867188 173.710938 47.699219 173.730469 48.199219 174.257812 C 48.699219 174.78125 48.675781 175.613281 48.152344 176.113281 L 33.773438 189.753906 C 33.519531 189.992188 33.195312 190.109375 32.871094 190.109375 Z M 32.871094 190.117188 " fill-opacity="1" fill-rule="nonzero"/><path fill="#000000" d="M 50.152344 178.539062 C 51.933594 176.847656 52.007812 174.039062 50.316406 172.257812 C 48.628906 170.472656 45.816406 170.398438 44.035156 172.089844 C 42.25 173.78125 42.175781 176.589844 43.867188 178.371094 C 45.558594 180.15625 48.371094 180.230469 50.152344 178.539062 Z M 50.152344 178.539062 " fill-opacity="1" fill-rule="nonzero"/><path fill="#000000" d="M 8.722656 210.234375 C 8.285156 210.234375 7.855469 210.015625 7.605469 209.617188 C 7.21875 209 7.40625 208.1875 8.019531 207.808594 L 22.328125 198.867188 C 22.941406 198.480469 23.757812 198.671875 24.136719 199.285156 C 24.519531 199.894531 24.335938 200.710938 23.722656 201.089844 L 9.414062 210.03125 C 9.199219 210.167969 8.957031 210.234375 8.71875 210.234375 Z M 8.722656 210.234375 " fill-opacity="1" fill-rule="nonzero"/><path fill="#000000" d="M 6.554688 205.03125 C 4.472656 206.332031 3.839844 209.074219 5.140625 211.15625 C 6.441406 213.242188 9.183594 213.871094 11.265625 212.570312 C 13.347656 211.269531 13.980469 208.53125 12.679688 206.445312 C 11.378906 204.363281 8.636719 203.730469 6.554688 205.03125 Z M 6.554688 205.03125 " fill-opacity="1" fill-rule="nonzero"/><path fill="#000000" d="M 48.53125 223.082031 C 48.214844 223.082031 47.894531 222.96875 47.648438 222.738281 L 35.109375 211.28125 C 34.574219 210.789062 34.535156 209.957031 35.023438 209.421875 C 35.515625 208.890625 36.347656 208.851562 36.882812 209.339844 L 49.421875 220.796875 C 49.953125 221.289062 49.996094 222.121094 49.503906 222.65625 C 49.246094 222.9375 48.890625 223.082031 48.535156 223.082031 Z M 48.53125 223.082031 " fill-opacity="1" fill-rule="nonzero"/><path fill="#000000" d="M 45.363281 224.902344 C 47.179688 226.554688 49.988281 226.433594 51.644531 224.621094 C 53.300781 222.808594 53.171875 219.996094 51.363281 218.34375 C 49.550781 216.6875 46.742188 216.8125 45.085938 218.621094 C 43.429688 220.429688 43.554688 223.246094 45.363281 224.902344 Z M 45.363281 224.902344 " fill-opacity="1" fill-rule="nonzero"/><path fill="#000000" d="M 86.050781 301.488281 C 85.449219 301.488281 84.90625 301.074219 84.773438 300.464844 L 81.675781 286.699219 C 81.519531 285.992188 81.960938 285.289062 82.667969 285.132812 C 83.378906 284.972656 84.078125 285.417969 84.242188 286.125 L 87.339844 299.890625 C 87.496094 300.601562 87.054688 301.300781 86.34375 301.457031 C 86.246094 301.480469 86.152344 301.488281 86.054688 301.488281 Z M 86.050781 301.488281 " fill-opacity="1" fill-rule="nonzero"/><path fill="#000000" d="M 87.339844 285.652344 C 86.800781 283.257812 84.421875 281.753906 82.027344 282.289062 C 79.628906 282.828125 78.125 285.207031 78.664062 287.601562 C 79.199219 289.996094 81.578125 291.503906 83.976562 290.964844 C 86.371094 290.425781 87.875 288.046875 87.339844 285.652344 Z M 87.339844 285.652344 " fill-opacity="1" fill-rule="nonzero"/><path fill="#000000" d="M 95.511719 323.40625 C 95.339844 323.40625 95.164062 323.371094 94.992188 323.300781 L 84.785156 318.929688 C 84.121094 318.644531 83.808594 317.867188 84.09375 317.203125 C 84.378906 316.539062 85.148438 316.226562 85.820312 316.511719 L 96.027344 320.886719 C 96.691406 321.167969 97.003906 321.945312 96.71875 322.609375 C 96.503906 323.109375 96.023438 323.40625 95.511719 323.40625 Z M 95.511719 323.40625 " fill-opacity="1" fill-rule="nonzero"/><path fill="#000000" d="M 93.558594 326.089844 C 95.8125 327.058594 98.425781 326.011719 99.394531 323.757812 C 100.363281 321.503906 99.316406 318.886719 97.0625 317.921875 C 94.804688 316.953125 92.191406 318 91.222656 320.253906 C 90.253906 322.507812 91.300781 325.125 93.558594 326.089844 Z M 93.558594 326.089844 " fill-opacity="1" fill-rule="nonzero"/><path fill="#000000" d="M 125.050781 316.773438 C 124.710938 316.773438 124.375 316.648438 124.121094 316.386719 L 111.003906 303.277344 C 110.492188 302.761719 110.492188 301.929688 111.003906 301.417969 C 111.515625 300.90625 112.347656 300.90625 112.863281 301.417969 L 125.976562 314.53125 C 126.492188 315.042969 126.492188 315.875 125.976562 316.386719 C 125.71875 316.648438 125.386719 316.773438 125.050781 316.773438 Z M 125.050781 316.773438 " fill-opacity="1" fill-rule="nonzero"/><path fill="#000000" d="M 121.746094 318.445312 C 123.480469 320.179688 126.296875 320.179688 128.035156 318.445312 C 129.777344 316.710938 129.769531 313.898438 128.035156 312.160156 C 126.300781 310.421875 123.488281 310.425781 121.746094 312.160156 C 120.007812 313.894531 120.011719 316.707031 121.746094 318.445312 Z M 121.746094 318.445312 " fill-opacity="1" fill-rule="nonzero"/><path fill="#000000" d="M 190.113281 334.421875 C 189.40625 334.421875 188.824219 333.867188 188.796875 333.15625 C 188.773438 332.429688 189.339844 331.820312 190.0625 331.800781 L 204.960938 331.277344 C 205.707031 331.253906 206.296875 331.820312 206.320312 332.542969 C 206.347656 333.269531 205.777344 333.878906 205.054688 333.902344 L 190.15625 334.421875 C 190.15625 334.421875 190.125 334.421875 190.109375 334.421875 Z M 190.113281 334.421875 " fill-opacity="1" fill-rule="nonzero"/><path fill="#000000" d="M 190.183594 328.65625 C 187.730469 328.742188 185.808594 330.800781 185.894531 333.253906 C 185.980469 335.707031 188.039062 337.628906 190.492188 337.539062 C 192.945312 337.453125 194.867188 335.394531 194.78125 332.941406 C 194.691406 330.492188 192.632812 328.570312 190.183594 328.65625 Z M 190.183594 328.65625 " fill-opacity="1" fill-rule="nonzero"/><path fill="#000000" d="M 220.882812 352.597656 C 220.460938 352.597656 220.050781 352.394531 219.796875 352.023438 C 219.390625 351.421875 219.542969 350.605469 220.140625 350.199219 L 233.421875 341.167969 C 234.019531 340.761719 234.839844 340.914062 235.246094 341.515625 C 235.652344 342.113281 235.5 342.933594 234.902344 343.339844 L 221.621094 352.367188 C 221.394531 352.523438 221.140625 352.597656 220.886719 352.597656 Z M 220.882812 352.597656 " fill-opacity="1" fill-rule="nonzero"/><path fill="#000000" d="M 236.476562 346.054688 C 238.507812 344.675781 239.035156 341.910156 237.65625 339.882812 C 236.277344 337.851562 233.507812 337.324219 231.480469 338.703125 C 229.449219 340.082031 228.921875 342.851562 230.300781 344.878906 C 231.683594 346.910156 234.449219 347.433594 236.476562 346.054688 Z M 236.476562 346.054688 " fill-opacity="1" fill-rule="nonzero"/><path fill="#000000" d="M 297.367188 278.070312 C 296.945312 278.070312 296.539062 277.875 296.285156 277.5 C 295.871094 276.902344 296.027344 276.085938 296.621094 275.675781 L 309.242188 267 C 309.839844 266.589844 310.65625 266.742188 311.070312 267.339844 C 311.480469 267.9375 311.328125 268.753906 310.730469 269.164062 L 298.109375 277.839844 C 297.882812 277.996094 297.625 278.070312 297.367188 278.070312 Z M 297.367188 278.070312 " fill-opacity="1" fill-rule="nonzero"/><path fill="#000000" d="M 312.320312 271.871094 C 314.34375 270.476562 314.859375 267.710938 313.464844 265.6875 C 312.070312 263.664062 309.304688 263.152344 307.28125 264.546875 C 305.257812 265.9375 304.746094 268.703125 306.136719 270.726562 C 307.53125 272.75 310.296875 273.261719 312.320312 271.871094 Z M 312.320312 271.871094 " fill-opacity="1" fill-rule="nonzero"/><path fill="#000000" d="M 305.390625 300.671875 C 305.085938 300.671875 304.78125 300.566406 304.535156 300.355469 C 303.984375 299.882812 303.921875 299.054688 304.390625 298.503906 L 313.71875 287.625 C 314.191406 287.070312 315.019531 287.011719 315.570312 287.480469 C 316.125 287.953125 316.183594 288.78125 315.714844 289.332031 L 306.386719 300.210938 C 306.128906 300.511719 305.761719 300.671875 305.390625 300.671875 Z M 305.390625 300.671875 " fill-opacity="1" fill-rule="nonzero"/><path fill="#000000" d="M 317.945312 291.539062 C 319.542969 289.671875 319.328125 286.867188 317.464844 285.273438 C 315.597656 283.675781 312.789062 283.890625 311.195312 285.753906 C 309.597656 287.617188 309.816406 290.425781 311.679688 292.019531 C 313.542969 293.617188 316.351562 293.402344 317.945312 291.539062 Z M 317.945312 291.539062 " fill-opacity="1" fill-rule="nonzero"/><path fill="#000000" d="M 296 325.472656 C 295.644531 325.472656 295.292969 325.332031 295.035156 325.054688 C 294.539062 324.523438 294.570312 323.691406 295.105469 323.195312 L 306.097656 312.992188 C 306.628906 312.496094 307.460938 312.527344 307.957031 313.0625 C 308.449219 313.589844 308.417969 314.421875 307.886719 314.917969 L 296.894531 325.125 C 296.640625 325.359375 296.320312 325.472656 296 325.472656 Z M 296 325.472656 " fill-opacity="1" fill-rule="nonzero"/><path fill="#000000" d="M 293.136719 320.753906 C 291.335938 322.421875 291.230469 325.238281 292.902344 327.035156 C 294.574219 328.835938 297.386719 328.941406 299.1875 327.269531 C 300.988281 325.601562 301.09375 322.785156 299.417969 320.984375 C 297.75 319.1875 294.933594 319.082031 293.136719 320.753906 Z M 293.136719 320.753906 " fill-opacity="1" fill-rule="nonzero"/><g clip-path="url(#9c33e967d7)"><g clip-path="url(#cc95619a73)"><g clip-path="url(#2fe0063bb5)"><g clip-path="url(#ff7b084263)"><g clip-path="url(#88e248649d)"><g clip-path="url(#2f07bcea79)"><path fill="#000000" d="M 246.746094 202.460938 L 237.40625 206.992188 C 234.578125 213.160156 230.90625 219.253906 226.398438 225.050781 C 226.773438 228.929688 226.996094 231.730469 227.226562 234.875 C 227.589844 239.914062 223.15625 243.976562 218.167969 243.171875 L 209.523438 241.78125 C 202.222656 247.304688 194.421875 251.378906 186.695312 253.917969 L 183.042969 260.730469 C 180.65625 265.1875 174.738281 266.25 170.949219 262.902344 L 164.046875 256.804688 C 159.011719 256.332031 154.300781 255.019531 150.125 252.835938 C 150.070312 252.839844 150.019531 252.839844 149.964844 252.84375 L 139.542969 253.175781 C 134.492188 253.339844 130.613281 248.746094 131.617188 243.792969 C 132.265625 240.59375 132.292969 237.390625 134.105469 233.367188 C 132.035156 227.242188 131.226562 220.269531 131.707031 212.90625 C 128.796875 209.945312 127.375 207.769531 125.382812 205.320312 C 122.1875 201.402344 123.492188 195.53125 128.039062 193.328125 L 137.421875 188.78125 C 137.472656 188.753906 137.523438 188.730469 137.578125 188.703125 C 140.769531 181.085938 145.242188 173.558594 151.007812 166.558594 C 152.496094 164.753906 154.03125 163.023438 155.605469 161.371094 L 155.113281 154.566406 C 154.75 149.53125 159.179688 145.46875 164.171875 146.269531 L 172.273438 147.574219 C 192.203125 134.851562 214.433594 132.578125 229.210938 143.199219 C 232.613281 141.050781 234.082031 137.789062 235.316406 134.195312 C 236.257812 131.445312 239.253906 129.980469 242.003906 130.925781 C 244.757812 131.867188 246.226562 134.863281 245.28125 137.613281 C 243.589844 142.546875 240.332031 146.898438 236.621094 150.507812 C 243.089844 159.234375 245.523438 171.085938 244.042969 183.886719 L 249.402344 190.46875 C 252.59375 194.386719 251.292969 200.257812 246.746094 202.460938 Z M 246.695312 183.101562 C 247.921875 170.726562 245.535156 159.378906 239.925781 150.789062 C 243.621094 146.855469 246.230469 142.710938 247.691406 138.445312 C 248.371094 136.46875 248.242188 134.34375 247.320312 132.46875 C 246.40625 130.59375 244.808594 129.1875 242.835938 128.507812 C 241.769531 128.144531 240.664062 128.011719 239.546875 128.121094 C 236.5 128.414062 233.894531 130.472656 232.902344 133.367188 C 231.910156 136.253906 230.882812 138.460938 229.132812 140.058594 C 221.550781 135.191406 212.140625 133.152344 201.785156 134.148438 C 191.871094 135.105469 181.496094 138.820312 171.726562 144.902344 L 164.578125 143.75 C 163.691406 143.609375 162.796875 143.578125 161.914062 143.664062 C 156.355469 144.199219 152.164062 149.175781 152.566406 154.753906 L 152.976562 160.4375 C 151.632812 161.882812 150.3125 163.390625 149.039062 164.933594 C 143.484375 171.675781 138.96875 179.035156 135.605469 186.824219 L 126.925781 191.03125 C 124.050781 192.421875 122.003906 195.011719 121.316406 198.128906 C 120.625 201.246094 121.386719 204.457031 123.402344 206.933594 C 123.960938 207.621094 124.476562 208.285156 124.988281 208.957031 C 126.15625 210.46875 127.359375 212.023438 129.09375 213.871094 C 128.753906 220.839844 129.523438 227.347656 131.382812 233.246094 C 130.230469 236.105469 129.859375 238.585938 129.53125 240.796875 C 129.402344 241.636719 129.28125 242.464844 129.113281 243.285156 C 128.480469 246.414062 129.296875 249.609375 131.359375 252.046875 C 133.421875 254.488281 136.433594 255.832031 139.625 255.726562 L 149.546875 255.410156 C 153.585938 257.421875 158.097656 258.714844 162.972656 259.261719 L 169.261719 264.8125 C 171.441406 266.746094 174.238281 267.652344 177.128906 267.371094 C 180.597656 267.035156 183.652344 265.007812 185.292969 261.9375 L 188.46875 256.015625 C 196.019531 253.417969 203.316406 249.539062 210.1875 244.472656 L 217.761719 245.695312 C 218.644531 245.835938 219.542969 245.867188 220.421875 245.78125 C 220.421875 245.78125 220.421875 245.78125 220.425781 245.78125 C 225.984375 245.246094 230.175781 240.269531 229.769531 234.691406 C 229.5625 231.804688 229.359375 229.203125 229.039062 225.808594 C 233.105469 220.460938 236.5625 214.78125 239.335938 208.890625 L 247.859375 204.761719 C 250.730469 203.367188 252.773438 200.78125 253.464844 197.664062 C 254.160156 194.542969 253.398438 191.335938 251.382812 188.855469 L 246.695312 183.101562 " fill-opacity="1" fill-rule="nonzero"/></g></g></g></g></g></g><g clip-path="url(#e43f18ac10)"><g clip-path="url(#fe37ff4e4f)"><g clip-path="url(#88adb32ea9)"><g clip-path="url(#27dad66748)"><path fill="#000000" d="M 216.53125 204.339844 L 210.425781 210.628906 C 208.398438 212.71875 205.0625 212.765625 202.976562 210.738281 C 200.890625 208.710938 200.839844 205.378906 202.867188 203.289062 L 206.597656 199.449219 L 200.582031 195.851562 C 198.082031 194.359375 197.269531 191.125 198.761719 188.628906 C 200.253906 186.128906 203.488281 185.316406 205.984375 186.808594 L 214.933594 192.160156 C 219.273438 194.753906 220.054688 200.714844 216.53125 204.339844 Z M 187.402344 169.910156 C 185.519531 167.691406 185.785156 164.367188 188 162.484375 L 195.941406 155.726562 C 199.792969 152.453125 205.6875 153.625 207.992188 158.121094 L 211.984375 165.929688 C 213.3125 168.515625 212.285156 171.691406 209.699219 173.015625 C 207.109375 174.339844 203.933594 173.316406 202.609375 170.726562 L 200.171875 165.964844 L 194.828125 170.503906 C 192.613281 172.390625 189.289062 172.125 187.402344 169.910156 Z M 185.0625 229.988281 L 179.496094 236.761719 C 176.289062 240.667969 170.277344 240.558594 167.214844 236.539062 L 160.890625 228.25 C 159.128906 225.933594 159.574219 222.632812 161.886719 220.867188 C 164.199219 219.101562 167.507812 219.550781 169.269531 221.863281 L 173.519531 227.4375 L 176.917969 223.300781 C 178.765625 221.054688 182.085938 220.726562 184.332031 222.574219 C 186.582031 224.421875 186.90625 227.738281 185.0625 229.988281 Z M 163.988281 184.527344 L 172.25 181.59375 C 174.988281 180.617188 178 182.046875 178.976562 184.789062 C 179.953125 187.53125 178.519531 190.542969 175.777344 191.515625 L 170.734375 193.3125 L 174.539062 199.199219 C 176.117188 201.644531 175.414062 204.90625 172.96875 206.484375 C 170.527344 208.0625 167.265625 207.359375 165.6875 204.917969 L 160.03125 196.160156 C 157.292969 191.914062 159.226562 186.21875 163.988281 184.527344 Z M 195.144531 148.652344 C 181.023438 152.511719 168.34375 162.089844 159.140625 173.257812 C 148.539062 186.121094 143.070312 200.761719 142.222656 213.503906 C 141.363281 226.421875 145.226562 236.03125 151.398438 241.117188 C 157.574219 246.203125 167.746094 248.15625 180.257812 244.839844 C 192.601562 241.574219 205.925781 233.402344 216.523438 220.539062 C 227.203125 207.574219 232.851562 193.074219 233.785156 180.488281 C 234.730469 167.839844 230.957031 158.1875 224.265625 152.679688 C 217.574219 147.167969 207.382812 145.304688 195.144531 148.652344 " fill-opacity="1" fill-rule="nonzero"/></g></g></g></g></svg>