<svg xmlns="http://www.w3.org/2000/svg" xmlns:xlink="http://www.w3.org/1999/xlink" width="6912" zoomAndPan="magnify" viewBox="0 0 5184 2592.000001" height="3456" preserveAspectRatio="xMidYMid meet" version="1.0"><defs><clipPath id="3a6602e6cd"><path d="M 688 738 L 1587 738 L 1587 1753 L 688 1753 Z M 688 738 " clip-rule="nonzero"/></clipPath><clipPath id="f16b338215"><path d="M 1216.898438 740.289062 C 1301.714844 750.433594 1412.085938 864.441406 1480.113281 933.847656 C 1514.941406 969.425781 1536.867188 990.972656 1544.257812 994.230469 L 1544.132812 994.105469 L 1559.042969 998.492188 L 1556.285156 1014.152344 C 1552.902344 1033.191406 1560.667969 1070.652344 1570.191406 1115.378906 C 1577.207031 1148.324219 1584.972656 1184.03125 1586.101562 1211.71875 C 1592.113281 1349.527344 1530.101562 1482.949219 1496.527344 1555.738281 C 1483.121094 1584.675781 1476.480469 1599.960938 1475.980469 1605.097656 L 1475.980469 1604.972656 L 1475.480469 1623.265625 L 1457.1875 1622.136719 L 1458.816406 1622.011719 L 1458.691406 1622.011719 C 1454.308594 1622.886719 1442.78125 1629.527344 1419.730469 1643.683594 C 1381.644531 1666.988281 1323.136719 1703.066406 1251.226562 1725.492188 L 1245.964844 1708.582031 L 1251.226562 1725.492188 C 1121.0625 1765.957031 1023.46875 1750.925781 964.210938 1741.78125 C 935.394531 1737.394531 921.738281 1735.765625 915.226562 1737.769531 L 915.101562 1737.769531 L 893.925781 1745.160156 L 891.421875 1722.988281 L 892.171875 1725.742188 L 892.171875 1725.617188 C 887.664062 1718.101562 861.480469 1702.941406 820.636719 1680.640625 C 778.542969 1657.589844 725.675781 1629.027344 699.867188 1599.960938 L 688.71875 1587.433594 L 1054.160156 1221.488281 L 1066.6875 1234.019531 L 1049.777344 1228.757812 L 1202.117188 738.410156 L 1216.773438 740.164062 M 1212.515625 775.367188 L 1214.644531 757.703125 L 1231.558594 762.964844 L 1082.472656 1243.539062 L 725.675781 1600.839844 L 713.148438 1588.3125 L 726.425781 1576.535156 C 747.097656 1599.835938 793.078125 1625.144531 837.675781 1649.574219 C 871.878906 1668.238281 911.84375 1689.285156 922.742188 1707.578125 L 926.25 1714.46875 L 909.085938 1721.109375 L 903.199219 1704.320312 L 904.074219 1703.945312 L 904.578125 1703.820312 C 921.113281 1698.683594 945.542969 1702.941406 969.597656 1706.574219 C 1027.476562 1715.46875 1118.429688 1729.5 1240.703125 1691.417969 C 1307.980469 1670.496094 1363.101562 1636.667969 1401.1875 1613.367188 C 1420.230469 1601.714844 1439.398438 1589.5625 1451.925781 1587.058594 L 1456.5625 1586.304688 L 1458.191406 1604.222656 L 1440.402344 1603.71875 L 1440.527344 1602.089844 L 1440.652344 1601.339844 C 1441.902344 1588.4375 1452.929688 1565.257812 1464.328125 1540.578125 C 1498.40625 1466.914062 1556.160156 1341.007812 1550.648438 1212.96875 L 1568.4375 1212.21875 L 1550.648438 1212.96875 C 1549.644531 1188.917969 1542.753906 1156.59375 1535.488281 1122.519531 C 1526.71875 1081.800781 1516.445312 1035.449219 1521.332031 1007.761719 L 1538.871094 1010.769531 L 1533.984375 1027.804688 L 1531.480469 1026.929688 L 1530.351562 1026.429688 C 1514.441406 1019.539062 1485.5 989.59375 1454.808594 958.277344 C 1381.519531 883.984375 1281.671875 783.761719 1212.640625 775.492188 Z M 1212.515625 775.367188 " clip-rule="nonzero"/></clipPath><clipPath id="eda0b9de00"><path d="M 712.464844 757 L 1569 757 L 1569 1735 L 712.464844 1735 Z M 712.464844 757 " clip-rule="nonzero"/></clipPath><clipPath id="604a1b12a0"><path d="M 1214.769531 757.828125 C 1329.027344 771.609375 1505.671875 1001.371094 1538.871094 1011.019531 C 1531.605469 1052.863281 1565.929688 1153.585938 1568.4375 1212.34375 C 1576.328125 1395.878906 1459.066406 1573.402344 1458.316406 1604.222656 C 1438.519531 1603.09375 1358.96875 1673.125 1245.964844 1708.328125 C 1061.425781 1765.832031 945.292969 1708.328125 908.960938 1720.984375 C 906.078125 1694.421875 758.75 1639.675781 712.898438 1588.1875 L 1066.8125 1234.019531 Z M 1214.769531 757.828125 " clip-rule="nonzero"/></clipPath><clipPath id="528d767a27"><path d="M 584.160156 739 L 1444 739 L 1444 1668 L 584.160156 1668 Z M 584.160156 739 " clip-rule="nonzero"/></clipPath><clipPath id="903f978a75"><path d="M 1339.300781 1409.660156 C 1327.398438 1428.078125 1309.984375 1448.371094 1293.445312 1467.792969 C 1276.15625 1487.960938 1259.871094 1507.128906 1248.847656 1524.167969 C 1241.582031 1535.441406 1237.695312 1544.210938 1236.820312 1550.351562 L 1234.941406 1563.628906 L 1221.535156 1563.378906 C 1188.460938 1562.753906 1099.761719 1639.675781 1089.867188 1652.578125 L 1083.351562 1661.097656 L 1073.203125 1657.839844 C 1067.316406 1655.960938 1045.640625 1657.464844 1008.683594 1660.722656 C 944.664062 1666.359375 847.324219 1675.253906 778.042969 1653.082031 L 739.707031 1635.417969 L 747.851562 1622.761719 L 739.707031 1635.417969 C 654.265625 1580.417969 629.460938 1440.855469 613.046875 1352.660156 C 605.03125 1309.5625 599.394531 1281.125 592.753906 1270.851562 L 584.859375 1258.824219 L 596.761719 1250.304688 C 614.550781 1237.652344 627.707031 1194.929688 644.367188 1136.800781 C 658.023438 1088.941406 673.558594 1034.320312 698.113281 996.359375 L 710.765625 1004.503906 L 698.113281 996.359375 C 719.285156 963.539062 752.484375 932.46875 783.804688 902.902344 C 816.378906 872.332031 847.074219 843.269531 866.492188 813.074219 L 882.777344 779 L 887.289062 763.464844 L 902.445312 768.976562 C 920.613281 775.617188 959.449219 768.976562 1014.699219 758.703125 C 1089.867188 744.796875 1188.085938 726.132812 1263.503906 753.691406 L 1297.457031 770.480469 L 1289.3125 783.132812 L 1297.457031 770.480469 C 1477.859375 886.742188 1490.636719 1174.761719 1339.175781 1409.660156 M 1313.742188 1393.25 L 1326.394531 1401.390625 L 1313.742188 1393.25 C 1461.324219 1164.613281 1440.777344 898.894531 1281.167969 795.910156 L 1253.230469 782.132812 C 1187.207031 757.953125 1098.132812 774.113281 1020.460938 788.519531 C 970.472656 797.792969 920.363281 807.6875 892.296875 797.414062 L 897.558594 783.257812 L 912.09375 787.519531 C 907.832031 802.175781 900.816406 816.207031 892.296875 829.488281 C 870.5 863.4375 836.675781 895.132812 804.851562 924.949219 C 772.65625 955.269531 742.589844 983.582031 723.796875 1012.773438 C 702.25 1046.222656 687.839844 1095.957031 673.683594 1145.195312 C 658.902344 1196.808594 643.242188 1254.5625 614.550781 1274.984375 L 605.78125 1262.707031 L 618.4375 1254.4375 C 629.460938 1271.226562 635.976562 1308.433594 643.242188 1347.269531 C 660.65625 1440.855469 684.582031 1563.757812 756.496094 1610.109375 L 787.691406 1624.390625 C 849.828125 1644.3125 940.28125 1636.542969 1006.304688 1630.65625 C 1038.25 1627.773438 1069.195312 1624.765625 1082.726562 1629.027344 L 1078.089844 1643.433594 L 1066.0625 1634.289062 C 1075.332031 1622.136719 1172.425781 1532.4375 1222.289062 1533.3125 L 1222.035156 1548.472656 L 1207.003906 1546.34375 C 1208.882812 1533.5625 1215.523438 1520.285156 1223.539062 1508.007812 C 1235.816406 1488.964844 1253.734375 1468.042969 1270.519531 1448.371094 C 1287.558594 1428.453125 1303.46875 1409.785156 1313.992188 1393.5 Z M 1313.742188 1393.25 " clip-rule="nonzero"/></clipPath><clipPath id="cb93182b4a"><path d="M 605 754 L 1429 754 L 1429 1653 L 605 1653 Z M 605 754 " clip-rule="nonzero"/></clipPath><clipPath id="fe0b4f3a54"><path d="M 1326.519531 1401.519531 C 1296.578125 1447.996094 1227.171875 1510.011719 1221.785156 1548.347656 C 1180.320312 1547.59375 1087.359375 1630.90625 1077.839844 1643.433594 C 1046.144531 1633.285156 838.304688 1681.019531 747.976562 1622.761719 C 633.84375 1549.222656 633.96875 1306.054688 605.53125 1262.707031 C 649.378906 1231.386719 661.65625 1080.675781 710.765625 1004.503906 C 758.75 929.960938 873.882812 862.9375 897.308594 783.257812 C 959.199219 805.933594 1173.929688 708.84375 1289.3125 783.257812 C 1459.316406 892.878906 1475.980469 1169.625 1326.519531 1401.519531 Z M 1326.519531 1401.519531 " clip-rule="nonzero"/></clipPath><clipPath id="1e97e50acf"><path d="M 1290 1550 L 1362 1550 L 1362 1604 L 1290 1604 Z M 1290 1550 " clip-rule="nonzero"/></clipPath><clipPath id="bb06617abd"><path d="M 1359.84375 1559.121094 C 1343.433594 1573.277344 1340.425781 1579.414062 1334.289062 1598.710938 L 1332.660156 1603.71875 L 1327.773438 1601.589844 C 1310.234375 1593.699219 1306.476562 1593.320312 1295.074219 1595.328125 L 1290.0625 1594.074219 L 1290.941406 1586.558594 L 1293.445312 1586.054688 C 1307.351562 1583.675781 1313.117188 1584.675781 1331.65625 1592.945312 L 1329.777344 1597.207031 L 1325.269531 1595.828125 C 1331.78125 1575.15625 1335.667969 1567.390625 1353.582031 1551.855469 L 1358.46875 1550.351562 L 1361.597656 1557.242188 Z M 1359.84375 1559.121094 " clip-rule="nonzero"/></clipPath><clipPath id="4b2361d257"><path d="M 986 1240 L 1246 1240 L 1246 1578 L 986 1578 Z M 986 1240 " clip-rule="nonzero"/></clipPath><clipPath id="5182743d99"><path d="M 1085.605469 1243.539062 C 1062.804688 1228.882812 1020.085938 1266.964844 1015.699219 1304.175781 L 987.386719 1546.089844 C 972.855469 1669.992188 1310.484375 1388.363281 1234.441406 1339.378906 Z M 1085.605469 1243.539062 " clip-rule="nonzero"/></clipPath><clipPath id="2e84f0f66a"><path d="M 981 1234 L 1251 1234 L 1251 1583 L 981 1583 Z M 981 1234 " clip-rule="nonzero"/></clipPath><clipPath id="32331386d9"><path d="M 1082.851562 1247.925781 C 1070.949219 1240.28125 1047.269531 1252.183594 1031.859375 1276.238281 L 1020.960938 1304.675781 L 992.523438 1546.71875 C 990.394531 1565.257812 996.53125 1570.898438 1005.300781 1571.898438 C 1059.171875 1578.164062 1232.308594 1430.832031 1240.078125 1364.808594 L 1238.449219 1348.148438 L 1234.3125 1339.378906 L 1231.558594 1343.761719 L 1082.726562 1247.925781 L 1085.480469 1243.539062 L 1082.726562 1247.925781 M 1088.363281 1239.15625 L 1237.320312 1334.992188 C 1248.347656 1342.136719 1251.980469 1353.285156 1250.476562 1366.0625 C 1242.207031 1436.847656 1064.558594 1589.3125 1004.175781 1582.171875 C 987.261719 1580.167969 979.746094 1567.011719 982.25 1545.464844 L 987.386719 1546.089844 L 982.25 1545.464844 L 1010.5625 1303.421875 L 1015.699219 1304.050781 L 1010.5625 1303.421875 C 1011.941406 1291.898438 1016.578125 1280.496094 1022.964844 1270.472656 C 1038.125 1246.921875 1067.691406 1225.75 1088.363281 1239.027344 Z M 1088.363281 1239.15625 " clip-rule="nonzero"/></clipPath><clipPath id="2de1b329ab"><path d="M 729 1269 L 994 1269 L 994 1604 L 729 1604 Z M 729 1269 " clip-rule="nonzero"/></clipPath><clipPath id="35a8250fa1"><path d="M 993.023438 1311.441406 C 999.289062 1273.855469 962.332031 1255.816406 934.015625 1280.496094 L 749.355469 1441.355469 C 654.765625 1523.667969 931.511719 1681.769531 952.183594 1556.738281 Z M 993.023438 1311.441406 " clip-rule="nonzero"/></clipPath><clipPath id="1239c519c9"><path d="M 724 1263 L 999 1263 L 999 1609 L 724 1609 Z M 724 1263 " clip-rule="nonzero"/></clipPath><clipPath id="c95e1d54b4"><path d="M 987.886719 1310.5625 C 991.269531 1289.894531 980.246094 1276.988281 966.464844 1274.734375 C 957.820312 1273.230469 947.296875 1275.863281 937.523438 1284.378906 L 752.734375 1445.242188 C 725.050781 1469.292969 731.816406 1500.738281 757.746094 1530.554688 C 802.847656 1582.296875 895.304688 1617.5 931.761719 1585.804688 C 939.277344 1579.289062 944.792969 1569.519531 947.171875 1555.738281 L 987.886719 1310.5625 L 993.023438 1311.441406 L 987.886719 1310.5625 M 998.160156 1312.316406 L 957.320312 1557.492188 L 952.183594 1556.613281 L 957.320312 1557.492188 C 954.6875 1573.277344 948.171875 1585.304688 938.527344 1593.699219 C 894.554688 1632.035156 794.957031 1589.1875 749.855469 1537.445312 C 722.542969 1506 711.519531 1467.289062 745.847656 1437.472656 L 749.226562 1441.355469 L 745.847656 1437.472656 L 930.632812 1276.613281 L 934.015625 1280.496094 L 930.632812 1276.613281 C 942.410156 1266.339844 956.066406 1262.457031 968.09375 1264.460938 C 988.136719 1267.84375 1002.292969 1286.511719 998.035156 1312.191406 Z M 998.160156 1312.316406 " clip-rule="nonzero"/></clipPath><clipPath id="de53b3da1f"><path d="M 689 1088 L 954 1088 L 954 1422 L 689 1422 Z M 689 1088 " clip-rule="nonzero"/></clipPath><clipPath id="2c8f529284"><path d="M 929.132812 1257.820312 C 957.945312 1234.269531 962.707031 1178.269531 938.152344 1166.742188 L 778.917969 1091.324219 C 697.363281 1052.738281 645.246094 1490.59375 741.085938 1411.917969 Z M 929.132812 1257.820312 " clip-rule="nonzero"/></clipPath><clipPath id="6f4426b46f"><path d="M 684 1083 L 959 1083 L 959 1427 L 684 1427 Z M 684 1083 " clip-rule="nonzero"/></clipPath><clipPath id="2c99e99e60"><path d="M 925.875 1253.8125 C 949.550781 1234.394531 954.9375 1191.921875 941.910156 1176.011719 L 938.277344 1172.378906 L 938.277344 1166.617188 L 936.023438 1171.253906 L 776.789062 1095.832031 L 779.046875 1091.199219 L 776.789062 1095.832031 C 762.757812 1089.195312 747.601562 1100.46875 732.941406 1131.539062 C 692.351562 1217.230469 680.324219 1398.261719 715.527344 1414.921875 L 727.304688 1416.550781 L 926.125 1253.6875 L 929.382812 1257.695312 L 926.125 1253.6875 M 932.765625 1261.703125 L 744.34375 1415.925781 L 741.085938 1411.917969 L 744.34375 1415.925781 C 732.441406 1425.695312 720.914062 1429.203125 710.765625 1424.445312 C 664.789062 1402.644531 684.332031 1209.589844 723.296875 1127.152344 C 737.203125 1097.710938 756.996094 1075.164062 780.925781 1086.5625 L 940.28125 1161.980469 C 944.039062 1163.734375 947.171875 1166.367188 949.675781 1169.5 C 967.214844 1190.921875 959.074219 1239.78125 932.261719 1261.828125 Z M 932.765625 1261.703125 " clip-rule="nonzero"/></clipPath><clipPath id="e78074c8b1"><path d="M 1081 972 L 1347 972 L 1347 1306 L 1081 1306 Z M 1081 972 " clip-rule="nonzero"/></clipPath><clipPath id="2730c9b3ba"><path d="M 1095.378906 1226.625 C 1070.949219 1214.976562 1080.09375 1157.972656 1108.910156 1134.546875 L 1296.453125 981.453125 C 1392.417969 903.152344 1336.292969 1341.882812 1254.859375 1302.921875 Z M 1095.378906 1226.625 " clip-rule="nonzero"/></clipPath><clipPath id="ea1e623be8"><path d="M 1076 966 L 1353 966 L 1353 1311 L 1076 1311 Z M 1076 966 " clip-rule="nonzero"/></clipPath><clipPath id="25a06a5328"><path d="M 1093.125 1231.261719 C 1070.574219 1220.488281 1073.078125 1183.027344 1085.355469 1157.09375 L 1105.527344 1130.410156 L 1108.78125 1134.417969 L 1105.527344 1130.410156 L 1293.195312 977.445312 L 1296.453125 981.453125 L 1293.195312 977.445312 C 1309.734375 963.914062 1324.765625 963.285156 1335.414062 976.316406 C 1373.875 1023.546875 1340.800781 1257.570312 1285.804688 1302.421875 C 1275.90625 1310.4375 1264.507812 1313.320312 1252.730469 1307.683594 L 1254.984375 1303.046875 L 1252.730469 1307.683594 L 1093.25 1231.386719 M 1097.757812 1221.992188 L 1095.503906 1226.625 L 1097.757812 1221.992188 L 1257.242188 1298.285156 C 1264.632812 1301.792969 1271.773438 1300.542969 1279.289062 1294.402344 C 1330.53125 1252.558594 1361.722656 1024.925781 1327.398438 982.832031 C 1321.886719 976.066406 1313.992188 973.9375 1299.710938 985.460938 L 1112.164062 1138.554688 C 1105.023438 1144.316406 1099.136719 1152.460938 1094.75 1161.605469 C 1082.097656 1188.039062 1084.480469 1215.601562 1097.632812 1221.867188 Z M 1097.757812 1221.992188 " clip-rule="nonzero"/></clipPath><clipPath id="39a8220b16"><path d="M 1042 790 L 1302 790 L 1302 1126 L 1042 1126 Z M 1042 790 " clip-rule="nonzero"/></clipPath><clipPath id="4050ae9d0d"><path d="M 1101.140625 1113.75 C 1073.328125 1139.679688 1037.875 1118.886719 1042.761719 1081.675781 L 1074.707031 838.882812 C 1090.992188 714.605469 1375.757812 857.800781 1282.921875 944.242188 Z M 1101.140625 1113.75 " clip-rule="nonzero"/></clipPath><clipPath id="d2ad812787"><path d="M 1037 785 L 1307 785 L 1307 1131 L 1037 1131 Z M 1037 785 " clip-rule="nonzero"/></clipPath><clipPath id="b3b5576826"><path d="M 1104.648438 1117.632812 C 1085.605469 1135.421875 1062.179688 1133.917969 1048.273438 1119.011719 C 1039.878906 1109.988281 1035.496094 1096.585938 1037.625 1081.050781 L 1069.695312 838.257812 L 1074.832031 838.882812 L 1069.695312 838.257812 C 1075.582031 793.15625 1114.046875 781.003906 1155.261719 786.390625 C 1223.414062 795.410156 1313.992188 854.667969 1306.476562 912.421875 C 1304.847656 925.078125 1298.457031 937.101562 1286.679688 948.003906 L 1283.171875 944.242188 L 1286.679688 948.003906 L 1104.648438 1117.632812 M 1097.632812 1109.988281 L 1101.140625 1113.75 L 1097.632812 1109.988281 L 1279.414062 940.484375 C 1289.6875 930.964844 1294.699219 920.941406 1295.953125 911.042969 C 1302.214844 863.1875 1221.785156 805.558594 1153.757812 796.664062 C 1114.546875 791.527344 1084.605469 803.304688 1079.84375 839.636719 L 1047.898438 1082.429688 L 1042.761719 1081.800781 L 1047.898438 1082.429688 C 1046.269531 1095.332031 1049.902344 1105.480469 1055.914062 1111.996094 C 1065.4375 1122.269531 1082.222656 1124.398438 1097.632812 1110.117188 Z M 1097.632812 1109.988281 " clip-rule="nonzero"/></clipPath><clipPath id="4223901f30"><path d="M 784 816 L 1043 816 L 1043 1151 L 784 1151 Z M 784 816 " clip-rule="nonzero"/></clipPath><clipPath id="a595408622"><path d="M 1017.453125 1089.320312 C 1013.695312 1126.402344 969.722656 1161.230469 946.546875 1147.199219 L 795.707031 1056.246094 C 718.410156 1009.515625 1054.535156 724.125 1042.132812 847.527344 Z M 1017.453125 1089.320312 " clip-rule="nonzero"/></clipPath><clipPath id="f8b4590a1b"><path d="M 779 811 L 1048 811 L 1048 1156 L 779 1156 Z M 779 811 " clip-rule="nonzero"/></clipPath><clipPath id="87c74ab59b"><path d="M 1022.714844 1089.945312 C 1019.207031 1124.523438 983 1158.347656 955.441406 1155.59375 L 947.546875 1153.964844 L 793.078125 1060.628906 L 795.707031 1056.246094 L 793.078125 1060.628906 C 770.277344 1046.847656 778.292969 1018.035156 795.082031 990.097656 C 842.1875 912.046875 992.273438 789.148438 1035.871094 815.332031 C 1045.515625 821.09375 1048.773438 832.621094 1047.269531 848.027344 L 1022.714844 1089.820312 M 1012.441406 1088.816406 L 1017.578125 1089.320312 L 1012.441406 1088.816406 L 1036.996094 847.027344 L 1042.132812 847.527344 L 1036.996094 847.027344 C 1038.375 833.246094 1034.992188 826.980469 1030.609375 824.351562 C 997.285156 804.179688 853.085938 914.425781 803.976562 995.609375 C 786.1875 1025.050781 785.183594 1043.84375 798.464844 1051.859375 L 949.300781 1142.9375 L 946.671875 1147.324219 L 949.300781 1142.9375 L 953.8125 1144.941406 L 956.441406 1145.195312 C 976.863281 1147.324219 1009.3125 1119.386719 1012.316406 1088.816406 Z M 1012.441406 1088.816406 " clip-rule="nonzero"/></clipPath><clipPath id="3b44258a0a"><path d="M 1829 987 L 2262 987 L 2262 1505 L 1829 1505 Z M 1829 987 " clip-rule="nonzero"/></clipPath><clipPath id="c76045da0f"><path d="M 2174.199219 1504.742188 L 1967.609375 1255.183594 L 1900.085938 1306.546875 L 1900.085938 1504.742188 L 1829.929688 1504.742188 L 1829.929688 987.710938 L 1899.960938 987.710938 L 1899.960938 1246.789062 L 2149.269531 987.710938 L 2231.828125 987.710938 L 2011.585938 1212.335938 L 2261.144531 1504.742188 Z M 2174.199219 1504.742188 " clip-rule="nonzero"/></clipPath><clipPath id="ba4de8dd38"><path d="M 2339.695312 987.710938 L 2409.851562 987.710938 L 2409.851562 1504.742188 L 2339.695312 1504.742188 Z M 2339.695312 987.710938 " clip-rule="nonzero"/></clipPath><clipPath id="0826e6e6c6"><path d="M 2482 987 L 3186 987 L 3186 1505 L 2482 1505 Z M 2482 987 " clip-rule="nonzero"/></clipPath><clipPath id="1e4b570b18"><path d="M 3033.371094 1504.742188 L 2949.683594 1504.742188 L 2860.105469 1176.382812 C 2854.21875 1155.835938 2845.699219 1119.003906 2834.425781 1065.882812 C 2828.035156 1094.324219 2822.648438 1118 2818.261719 1137.042969 C 2813.878906 1156.085938 2780.429688 1278.734375 2718.039062 1504.742188 L 2634.351562 1504.742188 L 2482.136719 987.710938 L 2555.175781 987.710938 L 2648.007812 1316.195312 C 2659.03125 1357.285156 2669.179688 1399.628906 2678.449219 1443.226562 L 2698.621094 1355.15625 C 2706.386719 1323.335938 2740.464844 1200.9375 2800.597656 987.835938 L 2867.75 987.835938 L 2957.699219 1309.679688 C 2971.355469 1362.296875 2982.128906 1406.773438 2990.023438 1443.351562 L 2993.40625 1430.449219 C 3000.046875 1402.261719 3005.433594 1379.460938 3009.566406 1361.796875 C 3013.699219 1343.878906 3048.027344 1219.226562 3112.671875 987.835938 L 3185.710938 987.835938 Z M 3033.371094 1504.742188 " clip-rule="nonzero"/></clipPath><clipPath id="d7ed58b864"><path d="M 3161 987 L 3660 987 L 3660 1505 L 3161 1505 Z M 3161 987 " clip-rule="nonzero"/></clipPath><clipPath id="50210a00f2"><path d="M 3588.234375 1504.742188 L 3529.230469 1353.527344 L 3293.453125 1353.527344 L 3233.941406 1504.742188 L 3161.28125 1504.742188 L 3372.378906 987.710938 L 3452.054688 987.710938 L 3659.769531 1504.867188 Z M 3411.339844 1040.578125 L 3408.082031 1050.851562 C 3401.945312 1071.144531 3392.925781 1097.203125 3380.898438 1129.023438 L 3314.875 1298.90625 L 3508.308594 1298.90625 L 3441.910156 1128.273438 C 3435.019531 1111.359375 3428.253906 1092.316406 3421.363281 1071.019531 Z M 3411.339844 1040.578125 " clip-rule="nonzero"/></clipPath><clipPath id="2838f5db43"><path d="M 3723 987 L 4144 987 L 4144 1505 L 3723 1505 Z M 3723 987 " clip-rule="nonzero"/></clipPath><clipPath id="533f1e8e5f"><path d="M 4059.039062 1504.742188 L 3782.292969 1064.378906 L 3784.175781 1099.960938 L 3785.929688 1161.222656 L 3785.929688 1504.742188 L 3723.539062 1504.742188 L 3723.539062 987.710938 L 3804.96875 987.710938 L 4084.847656 1430.949219 C 4081.964844 1382.96875 4080.460938 1348.265625 4080.460938 1326.71875 L 4080.460938 987.710938 L 4143.601562 987.710938 L 4143.601562 1504.742188 Z M 4059.039062 1504.742188 " clip-rule="nonzero"/></clipPath><clipPath id="43bb1202d7"><path d="M 4240 980 L 4754 980 L 4754 1513 L 4240 1513 Z M 4240 980 " clip-rule="nonzero"/></clipPath><clipPath id="302288798d"><path d="M 4753.84375 1243.90625 C 4753.84375 1297.902344 4743.445312 1345.257812 4722.648438 1385.976562 C 4702.101562 1426.566406 4672.535156 1457.761719 4633.824219 1479.558594 C 4595.113281 1501.359375 4549.511719 1512.257812 4496.894531 1512.257812 C 4443.773438 1512.257812 4397.921875 1501.484375 4359.335938 1479.933594 C 4320.875 1458.386719 4291.558594 1427.316406 4271.261719 1386.726562 C 4250.96875 1345.886719 4240.820312 1298.277344 4240.820312 1244.03125 C 4240.820312 1161.347656 4263.371094 1096.703125 4308.722656 1050.222656 C 4353.949219 1003.496094 4416.964844 980.066406 4497.769531 980.066406 C 4550.386719 980.066406 4595.988281 990.589844 4634.699219 1011.636719 C 4673.414062 1032.433594 4702.851562 1062.753906 4723.148438 1102.714844 C 4743.695312 1142.554688 4753.96875 1189.785156 4753.96875 1244.03125 Z M 4682.308594 1243.90625 C 4682.308594 1179.511719 4666.144531 1129.023438 4633.824219 1092.316406 C 4601.878906 1055.609375 4556.402344 1037.320312 4497.644531 1037.320312 C 4438.386719 1037.320312 4392.660156 1055.359375 4360.335938 1091.691406 C 4328.015625 1128.023438 4311.980469 1178.636719 4311.980469 1244.03125 C 4311.980469 1308.800781 4328.265625 1360.292969 4360.714844 1398.503906 C 4393.535156 1436.460938 4438.886719 1455.378906 4496.894531 1455.378906 C 4556.652344 1455.378906 4602.378906 1437.089844 4634.199219 1400.382812 C 4666.269531 1363.425781 4682.308594 1311.308594 4682.308594 1244.03125 Z M 4682.308594 1243.90625 " clip-rule="nonzero"/></clipPath><clipPath id="42d7f37e67"><path d="M 4314 1041 L 4680 1041 L 4680 1452 L 4314 1452 Z M 4314 1041 " clip-rule="nonzero"/></clipPath><clipPath id="70de52081c"><path d="M 4427.488281 1440.347656 C 4350.316406 1410.65625 4306.59375 1323.335938 4315.738281 1217.722656 C 4320.875 1158.464844 4335.90625 1123.636719 4371.238281 1088.9375 C 4392.910156 1067.636719 4409.070312 1056.988281 4429.867188 1050.347656 C 4466.449219 1038.574219 4527.585938 1038.449219 4563.667969 1050.222656 C 4599.246094 1061.75 4639.085938 1097.328125 4656.625 1133.410156 C 4686.691406 1195.046875 4686.691406 1297.902344 4656.625 1359.289062 C 4638.710938 1395.996094 4597.117188 1433.082031 4562.164062 1443.351562 C 4523.953125 1454.753906 4460.8125 1453.375 4427.363281 1440.472656 Z M 4427.488281 1440.347656 " clip-rule="nonzero"/></clipPath><clipPath id="d06b35fd88"><path d="M 3318 1058 L 3503 1058 L 3503 1297 L 3318 1297 Z M 3318 1058 " clip-rule="nonzero"/></clipPath><clipPath id="8ff3004f38"><path d="M 3344.941406 1228.875 C 3359.726562 1191.539062 3380.644531 1135.914062 3391.546875 1105.347656 C 3408.207031 1058.617188 3412.089844 1051.726562 3415.347656 1062.753906 C 3418.230469 1072.523438 3477.988281 1229.625 3501.917969 1290.261719 C 3503.921875 1295.398438 3483.753906 1296.902344 3411.339844 1296.902344 L 3318.257812 1296.902344 Z M 3344.941406 1228.875 " clip-rule="nonzero"/></clipPath><clipPath id="2f71eb7eee"><path d="M 4317 1039 L 4679 1039 L 4679 1455 L 4317 1455 Z M 4317 1039 " clip-rule="nonzero"/></clipPath><clipPath id="aacf254e4e"><path d="M 4453.167969 1446.859375 C 4392.035156 1434.835938 4341.796875 1384.222656 4323.253906 1315.691406 C 4310.851562 1269.589844 4318.621094 1170.867188 4337.535156 1134.035156 C 4391.40625 1029.554688 4536.855469 1006.75 4622.800781 1089.3125 C 4705.109375 1168.488281 4693.582031 1362.046875 4603.003906 1421.929688 C 4581.082031 1436.460938 4508.542969 1457.257812 4490.878906 1454.128906 C 4488.375 1453.625 4471.335938 1450.367188 4453.042969 1446.734375 Z M 4453.167969 1446.859375 " clip-rule="nonzero"/></clipPath><clipPath id="47cc78855d"><path d="M 3316 1045 L 3506 1045 L 3506 1299 L 3316 1299 Z M 3316 1045 " clip-rule="nonzero"/></clipPath><clipPath id="53552d01d2"><path d="M 3323.015625 1281.367188 C 3326.523438 1272.21875 3340.429688 1236.515625 3353.835938 1202.0625 C 3367.242188 1167.613281 3385.78125 1118.25 3394.804688 1092.316406 L 3411.214844 1045.085938 L 3418.730469 1068.390625 C 3422.867188 1081.167969 3444.039062 1137.667969 3465.835938 1193.921875 C 3487.636719 1250.171875 3505.550781 1296.648438 3505.550781 1297.152344 C 3505.550781 1297.652344 3463.082031 1298.152344 3411.089844 1298.152344 L 3316.628906 1298.152344 Z M 3323.015625 1281.367188 " clip-rule="nonzero"/></clipPath></defs><path fill="#ffffff" d="M 1 0 L 5183 0 L 5183 2591 L 1 2591 Z M 1 0 " fill-opacity="1" fill-rule="nonzero"/><g clip-path="url(#3a6602e6cd)"><g clip-path="url(#f16b338215)"><path fill="#131313" d="M 522.21875 663.492188 L 1654.832031 663.492188 L 1654.832031 1828.574219 L 522.21875 1828.574219 Z M 522.21875 663.492188 " fill-opacity="1" fill-rule="nonzero"/></g></g><g clip-path="url(#eda0b9de00)"><g clip-path="url(#604a1b12a0)"><path fill="#f5ba76" d="M 522.21875 663.492188 L 1654.832031 663.492188 L 1654.832031 1828.574219 L 522.21875 1828.574219 Z M 522.21875 663.492188 " fill-opacity="1" fill-rule="nonzero"/></g></g><g clip-path="url(#528d767a27)"><g clip-path="url(#903f978a75)"><path fill="#131313" d="M 522.21875 663.492188 L 1654.832031 663.492188 L 1654.832031 1828.574219 L 522.21875 1828.574219 Z M 522.21875 663.492188 " fill-opacity="1" fill-rule="nonzero"/></g></g><g clip-path="url(#cb93182b4a)"><g clip-path="url(#fe0b4f3a54)"><path fill="#faf1d7" d="M 522.21875 663.492188 L 1654.832031 663.492188 L 1654.832031 1828.574219 L 522.21875 1828.574219 Z M 522.21875 663.492188 " fill-opacity="1" fill-rule="nonzero"/></g></g><g clip-path="url(#1e97e50acf)"><g clip-path="url(#bb06617abd)"><path fill="#fffafa" d="M 522.21875 663.492188 L 1654.832031 663.492188 L 1654.832031 1828.574219 L 522.21875 1828.574219 Z M 522.21875 663.492188 " fill-opacity="1" fill-rule="nonzero"/></g></g><g clip-path="url(#4b2361d257)"><g clip-path="url(#5182743d99)"><path fill="#9be37f" d="M 522.21875 663.492188 L 1654.832031 663.492188 L 1654.832031 1828.574219 L 522.21875 1828.574219 Z M 522.21875 663.492188 " fill-opacity="1" fill-rule="nonzero"/></g></g><g clip-path="url(#2e84f0f66a)"><g clip-path="url(#32331386d9)"><path fill="#131313" d="M 522.21875 663.492188 L 1654.832031 663.492188 L 1654.832031 1828.574219 L 522.21875 1828.574219 Z M 522.21875 663.492188 " fill-opacity="1" fill-rule="nonzero"/></g></g><g clip-path="url(#2de1b329ab)"><g clip-path="url(#35a8250fa1)"><path fill="#9be37f" d="M 522.21875 663.492188 L 1654.832031 663.492188 L 1654.832031 1828.574219 L 522.21875 1828.574219 Z M 522.21875 663.492188 " fill-opacity="1" fill-rule="nonzero"/></g></g><g clip-path="url(#1239c519c9)"><g clip-path="url(#c95e1d54b4)"><path fill="#131313" d="M 522.21875 663.492188 L 1654.832031 663.492188 L 1654.832031 1828.574219 L 522.21875 1828.574219 Z M 522.21875 663.492188 " fill-opacity="1" fill-rule="nonzero"/></g></g><g clip-path="url(#de53b3da1f)"><g clip-path="url(#2c8f529284)"><path fill="#9be37f" d="M 522.21875 663.492188 L 1654.832031 663.492188 L 1654.832031 1828.574219 L 522.21875 1828.574219 Z M 522.21875 663.492188 " fill-opacity="1" fill-rule="nonzero"/></g></g><g clip-path="url(#6f4426b46f)"><g clip-path="url(#2c99e99e60)"><path fill="#131313" d="M 522.21875 663.492188 L 1654.832031 663.492188 L 1654.832031 1828.574219 L 522.21875 1828.574219 Z M 522.21875 663.492188 " fill-opacity="1" fill-rule="nonzero"/></g></g><g clip-path="url(#e78074c8b1)"><g clip-path="url(#2730c9b3ba)"><path fill="#9be37f" d="M 522.21875 663.492188 L 1654.832031 663.492188 L 1654.832031 1828.574219 L 522.21875 1828.574219 Z M 522.21875 663.492188 " fill-opacity="1" fill-rule="nonzero"/></g></g><g clip-path="url(#ea1e623be8)"><g clip-path="url(#25a06a5328)"><path fill="#131313" d="M 522.21875 663.492188 L 1654.832031 663.492188 L 1654.832031 1828.574219 L 522.21875 1828.574219 Z M 522.21875 663.492188 " fill-opacity="1" fill-rule="nonzero"/></g></g><g clip-path="url(#39a8220b16)"><g clip-path="url(#4050ae9d0d)"><path fill="#9be37f" d="M 522.21875 663.492188 L 1654.832031 663.492188 L 1654.832031 1828.574219 L 522.21875 1828.574219 Z M 522.21875 663.492188 " fill-opacity="1" fill-rule="nonzero"/></g></g><g clip-path="url(#d2ad812787)"><g clip-path="url(#b3b5576826)"><path fill="#131313" d="M 522.21875 663.492188 L 1654.832031 663.492188 L 1654.832031 1828.574219 L 522.21875 1828.574219 Z M 522.21875 663.492188 " fill-opacity="1" fill-rule="nonzero"/></g></g><g clip-path="url(#4223901f30)"><g clip-path="url(#a595408622)"><path fill="#9be37f" d="M 522.21875 663.492188 L 1654.832031 663.492188 L 1654.832031 1828.574219 L 522.21875 1828.574219 Z M 522.21875 663.492188 " fill-opacity="1" fill-rule="nonzero"/></g></g><g clip-path="url(#f8b4590a1b)"><g clip-path="url(#87c74ab59b)"><path fill="#131313" d="M 522.21875 663.492188 L 1654.832031 663.492188 L 1654.832031 1828.574219 L 522.21875 1828.574219 Z M 522.21875 663.492188 " fill-opacity="1" fill-rule="nonzero"/></g></g><g clip-path="url(#3b44258a0a)"><g clip-path="url(#c76045da0f)"><path fill="#000000" d="M 1767.289062 917.300781 L 4816.445312 917.300781 L 4816.445312 1574.773438 L 1767.289062 1574.773438 Z M 1767.289062 917.300781 " fill-opacity="1" fill-rule="nonzero"/></g></g><g clip-path="url(#ba4de8dd38)"><path fill="#000000" d="M 1767.289062 917.300781 L 4816.445312 917.300781 L 4816.445312 1574.773438 L 1767.289062 1574.773438 Z M 1767.289062 917.300781 " fill-opacity="1" fill-rule="nonzero"/></g><g clip-path="url(#0826e6e6c6)"><g clip-path="url(#1e4b570b18)"><path fill="#000000" d="M 1767.289062 917.300781 L 4816.445312 917.300781 L 4816.445312 1574.773438 L 1767.289062 1574.773438 Z M 1767.289062 917.300781 " fill-opacity="1" fill-rule="nonzero"/></g></g><g clip-path="url(#d7ed58b864)"><g clip-path="url(#50210a00f2)"><path fill="#000000" d="M 1767.289062 917.300781 L 4816.445312 917.300781 L 4816.445312 1574.773438 L 1767.289062 1574.773438 Z M 1767.289062 917.300781 " fill-opacity="1" fill-rule="nonzero"/></g></g><g clip-path="url(#2838f5db43)"><g clip-path="url(#533f1e8e5f)"><path fill="#000000" d="M 1767.289062 917.300781 L 4816.445312 917.300781 L 4816.445312 1574.773438 L 1767.289062 1574.773438 Z M 1767.289062 917.300781 " fill-opacity="1" fill-rule="nonzero"/></g></g><g clip-path="url(#43bb1202d7)"><g clip-path="url(#302288798d)"><path fill="#000000" d="M 1767.289062 917.300781 L 4816.445312 917.300781 L 4816.445312 1574.773438 L 1767.289062 1574.773438 Z M 1767.289062 917.300781 " fill-opacity="1" fill-rule="nonzero"/></g></g><g clip-path="url(#42d7f37e67)"><g clip-path="url(#70de52081c)"><path fill="#ffffff" d="M 1767.289062 917.300781 L 4816.445312 917.300781 L 4816.445312 1574.773438 L 1767.289062 1574.773438 Z M 1767.289062 917.300781 " fill-opacity="1" fill-rule="nonzero"/></g></g><g clip-path="url(#d06b35fd88)"><g clip-path="url(#8ff3004f38)"><path fill="#ffffff" d="M 1767.289062 917.300781 L 4816.445312 917.300781 L 4816.445312 1574.773438 L 1767.289062 1574.773438 Z M 1767.289062 917.300781 " fill-opacity="1" fill-rule="nonzero"/></g></g><g clip-path="url(#2f71eb7eee)"><g clip-path="url(#aacf254e4e)"><path fill="#ffffff" d="M 1767.289062 917.300781 L 4816.445312 917.300781 L 4816.445312 1574.773438 L 1767.289062 1574.773438 Z M 1767.289062 917.300781 " fill-opacity="1" fill-rule="nonzero"/></g></g><g clip-path="url(#47cc78855d)"><g clip-path="url(#53552d01d2)"><path fill="#ffffff" d="M 1767.289062 917.300781 L 4816.445312 917.300781 L 4816.445312 1574.773438 L 1767.289062 1574.773438 Z M 1767.289062 917.300781 " fill-opacity="1" fill-rule="nonzero"/></g></g></svg>