<?xml version="1.0" encoding="UTF-8" standalone="no"?>
<svg
   xmlns:dc="http://purl.org/dc/elements/1.1/"
   xmlns:cc="http://creativecommons.org/ns#"
   xmlns:rdf="http://www.w3.org/1999/02/22-rdf-syntax-ns#"
   xmlns:svg="http://www.w3.org/2000/svg"
   xmlns="http://www.w3.org/2000/svg"
   xmlns:sodipodi="http://sodipodi.sourceforge.net/DTD/sodipodi-0.dtd"
   xmlns:inkscape="http://www.inkscape.org/namespaces/inkscape"
   width="501"
   zoomAndPan="magnify"
   viewBox="0 0 375.75 357.749992"
   height="477"
   preserveAspectRatio="xMidYMid meet"
   version="1.0"
   id="svg275"
   sodipodi:docname="logo_bottom.svg"
   inkscape:version="0.92.4 (5da689c313, 2019-01-14)">
  <metadata
     id="metadata279">
    <rdf:RDF>
      <cc:Work
         rdf:about="">
        <dc:format>image/svg+xml</dc:format>
        <dc:type
           rdf:resource="http://purl.org/dc/dcmitype/StillImage" />
      </cc:Work>
    </rdf:RDF>
  </metadata>
  <sodipodi:namedview
     pagecolor="#ffffff"
     bordercolor="#666666"
     borderopacity="1"
     objecttolerance="10"
     gridtolerance="10"
     guidetolerance="10"
     inkscape:pageopacity="0"
     inkscape:pageshadow="2"
     inkscape:window-width="1920"
     inkscape:window-height="1046"
     id="namedview277"
     showgrid="false"
     inkscape:zoom="1.9790356"
     inkscape:cx="372.14079"
     inkscape:cy="240.76647"
     inkscape:window-x="-11"
     inkscape:window-y="-11"
     inkscape:window-maximized="1"
     inkscape:current-layer="svg275" />
  <defs
     id="defs113">
    <clipPath
       id="f67f28b2dd">
      <path
         d="M 87 307 L 194 307 L 194 338.378906 L 87 338.378906 Z M 87 307 "
         clip-rule="nonzero"
         id="path2" />
    </clipPath>
    <clipPath
       id="978dda37dd">
      <path
         d="M 161 19.101562 L 328 19.101562 L 328 119 L 161 119 Z M 161 19.101562 "
         clip-rule="nonzero"
         id="path5" />
    </clipPath>
    <clipPath
       id="b3e9e9b9ad">
      <path
         d="M 63.554688 274 L 279 274 L 279 331 L 63.554688 331 Z M 63.554688 274 "
         clip-rule="nonzero"
         id="path8" />
    </clipPath>
    <clipPath
       id="00077422c3">
      <path
         d="M 146.566406 126.609375 L 240 126.609375 L 240 230.890625 L 146.566406 230.890625 Z M 146.566406 126.609375 "
         clip-rule="nonzero"
         id="path11" />
    </clipPath>
    <clipPath
       id="f46eae8132">
      <path
         d="M 227.875 215.710938 Z M 170.542969 225.652344 Z M 202.261719 130.742188 C 209.253906 132.671875 218.65625 142.113281 225.6875 149.273438 C 228.261719 151.886719 230.710938 154.425781 232.410156 155.660156 C 232.332031 158.53125 233.21875 162.550781 233.980469 166.128906 C 234.726562 169.632812 235.433594 172.957031 235.539062 175.429688 C 236.105469 188.578125 230.15625 201.519531 226.664062 209.09375 C 225.789062 210.984375 224.941406 212.789062 224.515625 214.140625 C 223.292969 214.628906 221.734375 215.609375 220.1875 216.5625 C 216.273438 218.96875 210.59375 222.433594 203.691406 224.597656 C 197.316406 226.582031 191.777344 227.199219 187.089844 227.199219 C 182.519531 227.199219 178.757812 226.621094 175.820312 226.167969 C 174.171875 225.910156 172.5 225.640625 171.070312 225.640625 C 170.890625 225.640625 170.722656 225.640625 170.542969 225.652344 C 169.007812 223.914062 165.390625 222.007812 162.246094 220.296875 C 158.398438 218.199219 154.46875 216.019531 152.046875 213.972656 L 187.414062 178.570312 Z M 199.710938 126.644531 L 184.191406 176.625 L 146.9375 213.921875 L 148.082031 215.210938 C 150.734375 218.199219 156.167969 221.132812 160.496094 223.503906 C 164.566406 225.71875 167.207031 227.25 167.796875 228.050781 L 168.03125 230.136719 L 170.207031 229.375 L 170.21875 229.375 C 170.414062 229.3125 170.671875 229.285156 171.003906 229.285156 C 171.828125 229.285156 173.15625 229.464844 175.253906 229.789062 C 178.164062 230.238281 181.964844 230.816406 186.601562 230.855469 L 187.554688 230.855469 C 192.433594 230.816406 198.203125 230.148438 204.773438 228.101562 C 212.164062 225.796875 218.191406 222.101562 222.09375 219.691406 C 224.386719 218.289062 225.558594 217.605469 226.046875 217.476562 L 227.824219 217.578125 L 227.875 215.710938 C 227.925781 215.171875 228.621094 213.613281 229.988281 210.652344 C 233.4375 203.179688 239.800781 189.453125 239.195312 175.285156 C 239.066406 172.441406 238.28125 168.769531 237.558594 165.382812 C 236.582031 160.800781 235.796875 156.949219 236.128906 154.992188 L 236.414062 153.382812 L 234.882812 152.929688 L 234.894531 152.941406 C 234.121094 152.609375 231.882812 150.394531 228.300781 146.734375 C 221.296875 139.589844 209.9375 127.871094 201.230469 126.824219 L 199.722656 126.644531 Z M 199.710938 126.644531 "
         clip-rule="nonzero"
         id="path14" />
    </clipPath>
    <clipPath
       id="038e1e2f7b">
      <path
         d="M 149.28125 128.4375 L 238 128.4375 L 238 229.0625 L 149.28125 229.0625 Z M 149.28125 128.4375 "
         clip-rule="nonzero"
         id="path17" />
    </clipPath>
    <clipPath
       id="5702915f4f">
      <path
         d="M 201.011719 128.640625 L 185.800781 177.59375 L 149.433594 214 C 154.148438 219.292969 169.28125 224.933594 169.589844 227.664062 C 169.976562 227.523438 170.464844 227.46875 171.03125 227.46875 C 174.007812 227.46875 179.425781 229.042969 187.078125 229.042969 C 191.917969 229.042969 197.652344 228.410156 204.230469 226.363281 C 215.757812 222.769531 223.882812 215.660156 226.007812 215.660156 C 226.019531 215.660156 226.046875 215.660156 226.058594 215.660156 C 226.136719 212.492188 238.203125 194.242188 237.378906 175.378906 C 237.121094 169.335938 233.59375 158.984375 234.339844 154.683594 C 230.914062 153.675781 212.757812 130.046875 201.011719 128.640625 Z M 201.011719 128.640625 "
         clip-rule="nonzero"
         id="path20" />
    </clipPath>
    <clipPath
       id="a382921d4f">
      <path
         d="M 136.15625 126.609375 L 225 126.609375 L 225 222.199219 L 136.15625 222.199219 Z M 136.15625 126.609375 "
         clip-rule="nonzero"
         id="path23" />
    </clipPath>
    <clipPath
       id="22a42ac257">
      <path
         d="M 196.582031 129.867188 C 199.582031 129.867188 202.441406 130.214844 204.964844 131.140625 C 205.984375 131.515625 206.9375 131.976562 207.824219 132.542969 C 224.117188 143.039062 226.316406 170.03125 211.519531 193.433594 L 211.183594 193.949219 C 210.105469 195.621094 208.46875 197.539062 206.714844 199.589844 C 204.992188 201.609375 203.148438 203.761719 201.886719 205.71875 C 201.320312 206.605469 200.804688 207.535156 200.484375 208.460938 C 195.808594 209.464844 188.660156 215.6875 186.355469 217.992188 C 186.035156 217.964844 185.6875 217.953125 185.3125 217.953125 C 183.742188 217.953125 181.667969 218.144531 179.570312 218.339844 C 176.078125 218.648438 171.917969 219.007812 167.835938 219.007812 C 163.988281 219.007812 160.214844 218.6875 157.109375 217.695312 L 153.863281 216.214844 C 146.472656 211.449219 144.011719 198.816406 142.222656 189.195312 C 141.617188 185.964844 141.0625 182.847656 140.277344 180.863281 C 142.609375 178.261719 144.011719 173.097656 145.351562 168.421875 C 146.808594 163.363281 148.273438 158.25 150.488281 154.8125 C 152.421875 151.808594 155.511719 148.898438 158.824219 145.78125 C 162.082031 142.71875 165.558594 139.460938 167.8125 135.96875 C 168.417969 135.03125 168.945312 134.050781 169.371094 133.035156 C 169.871094 133.097656 170.425781 133.125 171.003906 133.125 C 173.839844 133.125 177.429688 132.429688 181.023438 131.757812 C 186.046875 130.832031 191.519531 129.828125 196.582031 129.828125 Z M 196.542969 126.761719 C 191.019531 126.761719 185.289062 127.84375 180.472656 128.746094 C 176.375 129.503906 173.144531 130.070312 170.964844 130.070312 C 170.117188 130.070312 169.433594 129.980469 168.917969 129.800781 L 167.359375 129.234375 L 166.898438 130.832031 L 165.222656 134.335938 C 163.226562 137.4375 160.058594 140.425781 156.722656 143.566406 C 153.492188 146.605469 150.089844 149.800781 147.914062 153.175781 C 145.390625 157.089844 143.804688 162.691406 142.390625 167.613281 C 140.675781 173.585938 139.324219 177.980469 137.496094 179.292969 L 136.257812 180.128906 L 137.082031 181.378906 C 137.777344 182.421875 138.359375 185.34375 139.183594 189.789062 C 140.871094 198.855469 143.417969 213.199219 152.191406 218.855469 L 156.167969 220.683594 C 159.632812 221.789062 163.792969 222.136719 167.902344 222.136719 C 172.214844 222.136719 176.476562 221.753906 179.851562 221.457031 C 182.519531 221.222656 184.410156 221.070312 185.507812 221.070312 C 185.96875 221.070312 186.292969 221.09375 186.472656 221.160156 L 187.515625 221.496094 L 188.183594 220.632812 C 189.1875 219.316406 198.253906 211.460938 201.679688 211.460938 C 201.695312 211.460938 201.707031 211.460938 201.71875 211.460938 L 203.097656 211.488281 L 203.292969 210.121094 C 203.382812 209.492188 203.769531 208.589844 204.515625 207.429688 C 205.648438 205.679688 207.320312 203.710938 209.097656 201.636719 C 209.71875 200.914062 210.347656 200.179688 210.953125 199.445312 L 210.953125 200.105469 L 213.8125 195.660156 C 229.382812 171.488281 228.054688 141.894531 209.511719 129.941406 L 206.035156 128.230469 C 203.109375 127.160156 199.867188 126.761719 196.53125 126.761719 Z M 196.542969 126.761719 "
         clip-rule="nonzero"
         id="path26" />
    </clipPath>
    <clipPath
       id="ec607f7ed2">
      <path
         d="M 138 128 L 223 128 L 223 220.828125 L 138 220.828125 Z M 138 128 "
         clip-rule="nonzero"
         id="path29" />
    </clipPath>
    <clipPath
       id="94079f0caa">
      <path
         d="M 196.570312 128.308594 C 187.15625 128.308594 176.722656 131.605469 170.992188 131.605469 C 169.949219 131.605469 169.074219 131.5 168.378906 131.242188 C 165.96875 139.433594 154.148438 146.335938 149.203125 153.988281 C 144.152344 161.816406 142.890625 177.308594 138.382812 180.527344 C 141.320312 184.984375 141.296875 209.980469 153.027344 217.554688 C 156.710938 219.921875 162.273438 220.59375 167.875 220.59375 C 174.957031 220.59375 182.066406 219.523438 185.402344 219.523438 C 186.085938 219.523438 186.601562 219.5625 186.9375 219.679688 C 187.914062 218.402344 197.394531 209.902344 201.679688 209.902344 C 201.695312 209.902344 201.71875 209.902344 201.734375 209.902344 C 202.285156 205.964844 209.421875 199.574219 212.5 194.8125 C 227.863281 170.972656 226.148438 142.511719 208.675781 131.242188 C 205.273438 129.054688 201.039062 128.308594 196.570312 128.308594 Z M 196.570312 128.308594 "
         clip-rule="nonzero"
         id="path32" />
    </clipPath>
    <clipPath
       id="5feb63cc10">
      <path
         d="M 208.566406 210 L 216.261719 210 L 216.261719 215.796875 L 208.566406 215.796875 Z M 208.566406 210 "
         clip-rule="nonzero"
         id="path35" />
    </clipPath>
    <clipPath
       id="f1d37a82fb">
      <path
         d="M 215.925781 211.011719 C 214.238281 212.464844 213.929688 213.097656 213.296875 215.082031 L 213.128906 215.597656 L 212.640625 215.378906 C 210.835938 214.566406 210.453125 214.527344 209.28125 214.734375 L 208.765625 214.605469 L 208.855469 213.832031 L 209.113281 213.78125 C 210.542969 213.535156 211.132812 213.640625 213.039062 214.5 L 212.847656 214.9375 L 212.382812 214.796875 C 213.054688 212.671875 213.453125 211.875 215.292969 210.277344 L 215.796875 210.121094 L 216.117188 210.832031 Z M 215.925781 211.011719 "
         clip-rule="nonzero"
         id="path38" />
    </clipPath>
    <clipPath
       id="9d3d352ef2">
      <path
         d="M 177 178 L 205 178 L 205 213 L 177 213 Z M 177 178 "
         clip-rule="nonzero"
         id="path41" />
    </clipPath>
    <clipPath
       id="339be3d7bd">
      <path
         d="M 187.734375 178.558594 C 185.390625 177.050781 181 180.964844 180.546875 184.792969 L 177.636719 209.671875 C 176.144531 222.410156 210.851562 193.457031 203.035156 188.421875 Z M 187.734375 178.558594 "
         clip-rule="nonzero"
         id="path44" />
    </clipPath>
    <clipPath
       id="39503e1090">
      <path
         d="M 177 177 L 204.949219 177 L 204.949219 214 L 177 214 Z M 177 177 "
         clip-rule="nonzero"
         id="path47" />
    </clipPath>
    <clipPath
       id="88f6598873">
      <path
         d="M 187.449219 179.007812 C 186.226562 178.222656 183.804688 179.433594 182.210938 181.917969 L 181.089844 184.855469 L 178.179688 209.722656 C 177.960938 211.628906 178.589844 212.210938 179.492188 212.3125 C 185.03125 212.957031 202.839844 197.8125 203.625 191.023438 L 203.457031 189.3125 L 187.4375 178.996094 M 188.015625 178.09375 L 187.734375 178.546875 L 188.015625 178.09375 L 203.316406 187.960938 L 203.035156 188.410156 L 203.316406 187.960938 C 204.449219 188.695312 204.824219 189.839844 204.667969 191.152344 C 203.820312 198.429688 185.558594 214.101562 179.351562 213.367188 C 177.613281 213.164062 176.839844 211.808594 177.097656 209.59375 L 177.625 209.660156 L 177.097656 209.59375 L 180.019531 184.726562 L 180.546875 184.792969 L 180.019531 184.726562 C 180.160156 183.542969 180.636719 182.355469 181.308594 181.328125 C 182.867188 178.90625 185.890625 176.730469 188.015625 178.109375 Z M 188.015625 178.09375 "
         clip-rule="nonzero"
         id="path50" />
    </clipPath>
    <clipPath
       id="eda93282ab">
      <path
         d="M 151 181 L 179 181 L 179 216 L 151 216 Z M 151 181 "
         clip-rule="nonzero"
         id="path53" />
    </clipPath>
    <clipPath
       id="7240951378">
      <path
         d="M 178.21875 185.539062 C 178.859375 181.675781 175.0625 179.820312 172.152344 182.355469 L 153.167969 198.894531 C 143.445312 207.355469 171.894531 223.621094 174.03125 210.753906 Z M 178.21875 185.539062 "
         clip-rule="nonzero"
         id="path56" />
    </clipPath>
    <clipPath
       id="04ee3213b9">
      <path
         d="M 150 180.121094 L 179 180.121094 L 179 217 L 150 217 Z M 150 180.121094 "
         clip-rule="nonzero"
         id="path59" />
    </clipPath>
    <clipPath
       id="a8a5af6aba">
      <path
         d="M 177.6875 185.460938 C 178.035156 183.324219 176.902344 182.007812 175.488281 181.777344 C 174.597656 181.636719 173.515625 181.894531 172.511719 182.769531 L 153.515625 199.292969 L 153.167969 198.894531 L 153.515625 199.292969 C 150.671875 201.765625 151.367188 204.996094 154.03125 208.074219 C 158.667969 213.394531 168.171875 217.011719 171.917969 213.753906 C 172.691406 213.085938 173.257812 212.082031 173.503906 210.664062 L 177.6875 185.460938 L 178.21875 185.550781 L 177.6875 185.460938 M 178.746094 185.640625 L 174.546875 210.84375 L 174.019531 210.753906 L 174.546875 210.84375 C 174.277344 212.464844 173.605469 213.703125 172.613281 214.566406 C 168.09375 218.507812 157.871094 214.101562 153.234375 208.785156 C 150.425781 205.550781 149.292969 201.570312 152.820312 198.507812 L 171.804688 181.957031 L 172.152344 182.355469 L 171.804688 181.957031 C 173.015625 180.902344 174.417969 180.503906 175.652344 180.707031 C 177.714844 181.054688 179.171875 182.976562 178.730469 185.617188 Z M 178.746094 185.640625 "
         clip-rule="nonzero"
         id="path62" />
    </clipPath>
    <clipPath
       id="5d594f0049">
      <path
         d="M 147 162 L 175 162 L 175 197 L 147 197 Z M 147 162 "
         clip-rule="nonzero"
         id="path65" />
    </clipPath>
    <clipPath
       id="bf3bb7c79e">
      <path
         d="M 171.648438 180.027344 C 174.609375 177.605469 175.101562 171.847656 172.589844 170.664062 L 156.207031 162.910156 C 147.824219 158.945312 142.46875 203.953125 152.320312 195.878906 Z M 171.648438 180.027344 "
         clip-rule="nonzero"
         id="path68" />
    </clipPath>
    <clipPath
       id="e6513ec063">
      <path
         d="M 146 162 L 175 162 L 175 197.960938 L 146 197.960938 Z M 146 162 "
         clip-rule="nonzero"
         id="path71" />
    </clipPath>
    <clipPath
       id="1c3da73c8b">
      <path
         d="M 171.3125 179.613281 C 173.75 177.617188 174.300781 173.253906 172.960938 171.617188 L 172.589844 171.242188 L 172.589844 170.652344 L 172.359375 171.128906 L 155.976562 163.375 C 154.535156 162.691406 152.988281 163.851562 151.46875 167.046875 C 147.296875 175.855469 146.046875 194.476562 149.664062 196.1875 L 150.875 196.355469 L 152.320312 195.867188 L 151.984375 195.453125 L 171.3125 179.613281 M 171.996094 180.4375 L 171.660156 180.027344 L 171.996094 180.4375 L 152.667969 196.277344 C 151.441406 197.285156 150.257812 197.644531 149.214844 197.15625 C 144.488281 194.914062 146.496094 175.066406 150.503906 166.59375 C 151.933594 163.566406 153.953125 161.25 156.425781 162.421875 L 156.195312 162.898438 L 156.425781 162.421875 L 172.808594 170.175781 C 173.195312 170.355469 173.515625 170.625 173.773438 170.933594 C 175.578125 173.136719 174.738281 178.160156 171.984375 180.425781 Z M 171.996094 180.4375 "
         clip-rule="nonzero"
         id="path74" />
    </clipPath>
    <clipPath
       id="c6e1d32608">
      <path
         d="M 187 150 L 215 150 L 215 185 L 187 185 Z M 187 150 "
         clip-rule="nonzero"
         id="path77" />
    </clipPath>
    <clipPath
       id="62549dfced">
      <path
         d="M 188.738281 176.820312 C 186.226562 175.621094 187.167969 169.761719 190.128906 167.355469 L 209.410156 151.628906 C 219.273438 143.582031 213.503906 188.679688 205.132812 184.675781 Z M 188.738281 176.820312 "
         clip-rule="nonzero"
         id="path80" />
    </clipPath>
    <clipPath
       id="ae1c89ffe0">
      <path
         d="M 186 150 L 216 150 L 216 186 L 186 186 Z M 186 150 "
         clip-rule="nonzero"
         id="path83" />
    </clipPath>
    <clipPath
       id="284bb69e82">
      <path
         d="M 188.507812 177.308594 C 186.1875 176.203125 186.445312 172.339844 187.722656 169.683594 L 189.792969 166.953125 L 190.128906 167.367188 L 189.792969 166.953125 L 209.074219 151.21875 C 210.773438 149.828125 212.320312 149.761719 213.414062 151.101562 C 217.367188 155.957031 213.96875 180.011719 208.3125 184.625 C 207.296875 185.449219 206.125 185.746094 204.914062 185.164062 L 205.144531 184.6875 L 204.914062 185.164062 L 188.519531 177.320312 M 188.984375 176.355469 L 188.75 176.832031 L 188.984375 176.355469 L 205.378906 184.199219 C 206.136719 184.558594 206.871094 184.429688 207.644531 183.800781 C 212.910156 179.5 216.128906 156.097656 212.601562 151.785156 C 212.035156 151.089844 211.210938 150.871094 209.757812 152.054688 L 209.421875 151.640625 L 209.757812 152.054688 L 190.464844 167.765625 C 189.742188 168.359375 189.125 169.195312 188.675781 170.136719 C 187.375 172.851562 187.617188 175.699219 188.957031 176.34375 Z M 188.984375 176.355469 "
         clip-rule="nonzero"
         id="path86" />
    </clipPath>
    <clipPath
       id="4800b084e0">
      <path
         d="M 183 131.640625 L 210 131.640625 L 210 166.859375 L 183 166.859375 Z M 183 131.640625 "
         clip-rule="nonzero"
         id="path89" />
    </clipPath>
    <clipPath
       id="326b732fd2">
      <path
         d="M 193.054688 131.976562 C 189.71875 131.976562 187.089844 133.394531 186.613281 136.972656 L 183.328125 161.917969 C 182.980469 164.574219 184.617188 166.414062 186.601562 166.414062 C 187.488281 166.414062 188.441406 166.054688 189.332031 165.230469 L 208.03125 147.804688 C 214.894531 141.402344 201.628906 131.976562 193.054688 131.976562 Z M 193.054688 131.976562 "
         clip-rule="nonzero"
         id="path92" />
    </clipPath>
    <clipPath
       id="3724424a24">
      <path
         d="M 182.320312 131 L 211 131 L 211 167 L 182.320312 167 Z M 182.320312 131 "
         clip-rule="nonzero"
         id="path95" />
    </clipPath>
    <clipPath
       id="3a3ace4963">
      <path
         d="M 189.691406 165.617188 C 187.734375 167.445312 185.324219 167.289062 183.894531 165.757812 C 183.035156 164.828125 182.582031 163.453125 182.789062 161.855469 L 186.074219 136.910156 L 186.601562 136.972656 L 186.074219 136.910156 C 186.679688 132.273438 190.632812 131.011719 194.867188 131.578125 C 201.875 132.503906 211.183594 138.597656 210.398438 144.535156 C 210.234375 145.835938 209.574219 147.070312 208.363281 148.191406 L 208.003906 147.804688 L 208.363281 148.191406 L 189.691406 165.617188 L 189.332031 165.230469 L 189.691406 165.617188 M 188.957031 164.828125 L 207.65625 147.40625 C 208.714844 146.425781 209.226562 145.398438 209.355469 144.378906 C 210 139.460938 201.734375 133.535156 194.738281 132.621094 C 190.710938 132.09375 187.632812 133.304688 187.140625 137.039062 L 183.859375 161.996094 L 183.328125 161.933594 L 183.859375 161.996094 C 183.691406 163.324219 184.0625 164.367188 184.683594 165.035156 C 185.660156 166.09375 187.386719 166.3125 188.96875 164.84375 Z M 188.957031 164.828125 "
         clip-rule="nonzero"
         id="path98" />
    </clipPath>
    <clipPath
       id="9cc84e510d">
      <path
         d="M 156 134.386719 L 183.675781 134.386719 L 183.675781 169 L 156 169 Z M 156 134.386719 "
         clip-rule="nonzero"
         id="path101" />
    </clipPath>
    <clipPath
       id="8e99e76c4c">
      <path
         d="M 181.0625 134.695312 C 173.75 134.695312 151.390625 155.351562 157.945312 159.304688 L 173.453125 168.667969 C 173.824219 168.886719 174.238281 168.988281 174.6875 168.988281 C 177.136719 168.988281 180.417969 165.925781 180.742188 162.71875 L 183.265625 137.851562 C 183.496094 135.621094 182.621094 134.695312 181.0625 134.695312 Z M 181.0625 134.695312 "
         clip-rule="nonzero"
         id="path104" />
    </clipPath>
    <clipPath
       id="5050485ac6">
      <path
         d="M 156 134 L 184 134 L 184 170 L 156 170 Z M 156 134 "
         clip-rule="nonzero"
         id="path107" />
    </clipPath>
    <clipPath
       id="7505823b82">
      <path
         d="M 181.269531 162.769531 C 180.910156 166.324219 177.1875 169.800781 174.355469 169.503906 L 173.542969 169.335938 L 157.664062 159.753906 L 157.933594 159.304688 L 157.664062 159.753906 C 155.320312 158.339844 156.128906 155.378906 157.871094 152.503906 C 162.710938 144.480469 178.140625 131.847656 182.621094 134.554688 C 183.613281 135.144531 183.949219 136.332031 183.792969 137.914062 L 183.265625 137.863281 L 183.792969 137.914062 L 181.269531 162.78125 M 180.214844 162.679688 L 180.742188 162.730469 L 180.214844 162.679688 L 182.738281 137.8125 C 182.878906 136.394531 182.53125 135.75 182.082031 135.480469 C 178.65625 133.40625 163.832031 144.738281 158.785156 153.085938 C 156.953125 156.109375 156.851562 158.042969 158.21875 158.867188 L 173.722656 168.230469 L 173.453125 168.679688 L 173.722656 168.230469 L 174.1875 168.4375 L 174.457031 168.460938 C 176.554688 168.679688 179.890625 165.808594 180.214844 162.679688 Z M 180.214844 162.679688 "
         clip-rule="nonzero"
         id="path110" />
    </clipPath>
    <clipPath
       id="00077422c3-1">
      <path
         style="clip-rule:nonzero"
         inkscape:connector-curvature="0"
         d="M 146.56641,126.60938 H 240 v 104.28124 h -93.43359 z m 0,0"
         id="path11-0" />
    </clipPath>
    <clipPath
       id="f46eae8132-8">
      <path
         style="clip-rule:nonzero"
         inkscape:connector-curvature="0"
         d="m 227.875,215.71094 z m -57.33203,9.9414 z m 31.71875,-94.91015 c 6.99219,1.92968 16.39453,11.37109 23.42578,18.53125 2.57422,2.61328 5.02344,5.15234 6.72266,6.38672 -0.0781,2.87109 0.80859,6.89062 1.57031,10.46875 0.74609,3.5039 1.45312,6.82812 1.55859,9.30078 0.56641,13.14843 -5.38281,26.08984 -8.875,33.66406 -0.875,1.89062 -1.72265,3.69531 -2.14844,5.04687 -1.22265,0.48829 -2.78125,1.46875 -4.32812,2.42188 -3.91406,2.40625 -9.59375,5.87109 -16.49609,8.03516 -6.375,1.98437 -11.91407,2.60156 -16.60157,2.60156 -4.57031,0 -8.33203,-0.57813 -11.26953,-1.03125 -1.64844,-0.25781 -3.32031,-0.52735 -4.75,-0.52735 -0.17969,0 -0.34765,0 -0.52734,0.0117 -1.53516,-1.73828 -5.15235,-3.64453 -8.29688,-5.35547 -3.84765,-2.09765 -7.77734,-4.27734 -10.19922,-6.32421 l 35.36719,-35.40235 z m -2.55078,-4.09766 -15.51953,49.98047 -37.25391,37.29687 1.14453,1.28907 c 2.65234,2.98828 8.08594,5.92187 12.41406,8.29297 4.07032,2.21484 6.71094,3.74609 7.30078,4.54687 l 0.23438,2.08594 2.17578,-0.76172 h 0.0117 c 0.19531,-0.0625 0.45312,-0.0898 0.78516,-0.0898 0.82421,0 2.15234,0.17968 4.25,0.5039 2.91015,0.44922 6.71093,1.02735 11.34765,1.06641 h 0.95313 c 4.8789,-0.0391 10.64843,-0.70703 17.21875,-2.75391 7.39062,-2.30469 13.41797,-6 17.32031,-8.41015 2.29297,-1.40235 3.46484,-2.08594 3.95312,-2.21485 l 1.77735,0.10156 0.0508,-1.86718 c 0.0508,-0.53907 0.74609,-2.09766 2.11328,-5.0586 3.44922,-7.47265 9.8125,-21.19922 9.20703,-35.36718 -0.1289,-2.84375 -0.91406,-6.51563 -1.63672,-9.90235 -0.97656,-4.58203 -1.76172,-8.43359 -1.42968,-10.39062 l 0.28515,-1.60938 -1.53125,-0.45312 0.0117,0.0117 c -0.77344,-0.33204 -3.01172,-2.54688 -6.59375,-6.20704 -7.00391,-7.14453 -18.36328,-18.86328 -27.07031,-19.91015 l -1.50781,-0.17969 z m 0,0"
         id="path14-1" />
    </clipPath>
  </defs>
  <path
     fill="#000000"
     d="M 291.535156 67.515625 C 279.160156 55.109375 265.101562 45.046875 249.363281 37.332031 L 250.3125 35.394531 C 258.234375 39.277344 265.78125 43.785156 272.953125 48.917969 C 280.128906 54.050781 286.832031 59.738281 293.0625 65.984375 Z M 291.535156 67.515625 "
     fill-opacity="1"
     fill-rule="nonzero"
     id="path115" />
  <path
     fill="#000000"
     d="M 339.738281 178.769531 L 337.582031 178.769531 C 337.589844 164.949219 335.816406 151.359375 332.253906 138.003906 L 334.335938 137.449219 C 337.945312 150.988281 339.746094 164.757812 339.738281 178.769531 Z M 339.738281 178.769531 "
     fill-opacity="1"
     fill-rule="nonzero"
     id="path117" />
  <path
     fill="#000000"
     d="M 260.25 316.820312 L 259.175781 314.960938 C 263.136719 312.65625 266.996094 310.183594 270.742188 307.542969 C 274.492188 304.902344 278.117188 302.101562 281.625 299.148438 C 285.128906 296.191406 288.496094 293.085938 291.730469 289.835938 C 294.964844 286.589844 298.054688 283.203125 300.992188 279.683594 C 303.933594 276.167969 306.714844 272.527344 309.335938 268.765625 C 311.960938 265.003906 314.414062 261.136719 316.699219 257.160156 C 318.984375 253.1875 321.09375 249.121094 323.027344 244.960938 C 324.957031 240.804688 326.703125 236.570312 328.265625 232.257812 L 330.292969 232.988281 C 328.710938 237.359375 326.9375 241.652344 324.980469 245.867188 C 323.023438 250.082031 320.886719 254.203125 318.566406 258.234375 C 316.25 262.261719 313.761719 266.183594 311.105469 269.996094 C 308.445312 273.808594 305.625 277.496094 302.644531 281.0625 C 299.664062 284.632812 296.535156 288.0625 293.257812 291.355469 C 289.976562 294.648438 286.5625 297.796875 283.007812 300.792969 C 279.457031 303.789062 275.777344 306.625 271.980469 309.300781 C 268.179688 311.980469 264.269531 314.484375 260.25 316.820312 Z M 260.25 316.820312 "
     fill-opacity="1"
     fill-rule="nonzero"
     id="path119" />
  <g
     clip-path="url(#f67f28b2dd)"
     id="g123">
    <path
       fill="#000000"
       d="M 180.160156 338.347656 C 146.886719 338.347656 115 328.207031 87.957031 309.023438 L 89.203125 307.265625 C 115.886719 326.191406 147.339844 336.191406 180.167969 336.191406 C 184.660156 336.191406 189.191406 336 193.644531 335.625 L 193.824219 337.777344 C 189.308594 338.152344 184.714844 338.347656 180.160156 338.347656 Z M 180.160156 338.347656 "
       fill-opacity="1"
       fill-rule="nonzero"
       id="path121" />
  </g>
  <g
     clip-path="url(#978dda37dd)"
     id="g127">
    <path
       fill="#000000"
       d="M 325.703125 118.664062 C 319.820312 104.449219 312.019531 91.378906 302.300781 79.457031 L 295.574219 83.964844 L 294.953125 83.21875 C 290.6875 78.09375 286.097656 73.273438 281.191406 68.761719 C 276.28125 64.25 271.089844 60.085938 265.625 56.265625 C 260.15625 52.449219 254.460938 49.011719 248.535156 45.953125 C 242.605469 42.898438 236.503906 40.246094 230.222656 38.007812 L 229.109375 37.613281 L 232.5 30.253906 C 224.089844 27.296875 215.492188 25.066406 206.703125 23.570312 C 197.917969 22.074219 189.066406 21.332031 180.148438 21.34375 C 174.003906 21.347656 167.878906 21.699219 161.777344 22.40625 L 161.53125 20.265625 C 167.71875 19.550781 173.925781 19.191406 180.15625 19.1875 C 189.390625 19.175781 198.5625 19.960938 207.664062 21.546875 C 216.761719 23.132812 225.660156 25.492188 234.347656 28.625 L 235.453125 29.019531 L 232.050781 36.371094 C 238.234375 38.628906 244.246094 41.28125 250.085938 44.324219 C 255.925781 47.367188 261.542969 50.773438 266.9375 54.546875 C 272.335938 58.320312 277.464844 62.429688 282.324219 66.871094 C 287.1875 71.308594 291.738281 76.046875 295.984375 81.078125 L 302.726562 76.554688 L 303.347656 77.308594 C 313.488281 89.597656 321.601562 103.105469 327.691406 117.824219 Z M 325.703125 118.664062 "
       fill-opacity="1"
       fill-rule="nonzero"
       id="path125" />
  </g>
  <path
     fill="#000000"
     d="M 331.671875 178.769531 L 329.519531 178.769531 C 329.527344 171.636719 329.027344 164.539062 328.015625 157.480469 C 327.003906 150.417969 325.492188 143.464844 323.484375 136.621094 C 321.472656 129.777344 318.980469 123.113281 316.011719 116.628906 C 313.042969 110.144531 309.625 103.902344 305.757812 97.910156 L 307.570312 96.742188 C 311.492188 102.824219 314.957031 109.152344 317.972656 115.730469 C 320.984375 122.308594 323.507812 129.070312 325.550781 136.011719 C 327.589844 142.957031 329.121094 150.007812 330.148438 157.171875 C 331.175781 164.332031 331.683594 171.535156 331.671875 178.769531 Z M 331.671875 178.769531 "
     fill-opacity="1"
     fill-rule="nonzero"
     id="path129" />
  <path
     fill="#000000"
     d="M 311.621094 254.144531 L 309.753906 253.070312 C 314.074219 245.5625 317.707031 237.738281 320.652344 229.59375 C 323.597656 221.453125 325.8125 213.113281 327.296875 204.582031 L 329.417969 204.953125 C 327.914062 213.609375 325.667969 222.066406 322.679688 230.332031 C 319.6875 238.59375 316.003906 246.53125 311.621094 254.144531 Z M 311.621094 254.144531 "
     fill-opacity="1"
     fill-rule="nonzero"
     id="path131" />
  <path
     fill="#000000"
     d="M 294.578125 264.316406 L 292.855469 263.023438 C 311.167969 238.554688 320.859375 209.421875 320.859375 178.765625 C 320.859375 101.1875 257.738281 38.070312 180.164062 38.070312 L 179.085938 38.070312 L 179.085938 29.414062 C 170.511719 29.472656 162.003906 30.261719 153.5625 31.773438 L 153.179688 29.652344 C 162.101562 28.054688 171.097656 27.253906 180.160156 27.257812 L 181.238281 27.257812 L 181.238281 35.917969 C 184.523438 35.941406 187.800781 36.078125 191.074219 36.324219 C 194.351562 36.574219 197.613281 36.933594 200.863281 37.410156 C 204.113281 37.882812 207.339844 38.46875 210.550781 39.164062 C 213.757812 39.859375 216.941406 40.667969 220.09375 41.582031 C 223.246094 42.496094 226.367188 43.519531 229.449219 44.652344 C 232.53125 45.78125 235.574219 47.019531 238.570312 48.359375 C 241.566406 49.699219 244.515625 51.144531 247.414062 52.6875 C 250.3125 54.230469 253.15625 55.871094 255.9375 57.613281 C 258.722656 59.351562 261.445312 61.1875 264.105469 63.113281 C 266.761719 65.042969 269.351562 67.058594 271.871094 69.167969 C 274.390625 71.273438 276.835938 73.464844 279.203125 75.738281 C 281.570312 78.015625 283.855469 80.367188 286.0625 82.800781 C 288.269531 85.234375 290.386719 87.738281 292.421875 90.320312 C 294.453125 92.898438 296.394531 95.542969 298.246094 98.257812 C 300.097656 100.96875 301.851562 103.742188 303.511719 106.578125 C 305.167969 109.410156 306.726562 112.300781 308.1875 115.242188 C 309.648438 118.183594 311.003906 121.171875 312.257812 124.207031 C 313.511719 127.242188 314.660156 130.316406 315.699219 133.429688 C 316.742188 136.546875 317.675781 139.691406 318.5 142.871094 C 319.324219 146.050781 320.039062 149.253906 320.640625 152.480469 C 321.246094 155.707031 321.734375 158.953125 322.117188 162.214844 C 322.496094 165.476562 322.761719 168.75 322.914062 172.027344 C 323.070312 175.308594 323.109375 178.589844 323.039062 181.875 C 322.964844 185.15625 322.78125 188.433594 322.480469 191.703125 C 322.183594 194.972656 321.773438 198.230469 321.25 201.472656 C 320.726562 204.714844 320.089844 207.933594 319.347656 211.132812 C 318.601562 214.332031 317.746094 217.5 316.78125 220.640625 C 315.816406 223.777344 314.746094 226.878906 313.570312 229.945312 C 312.390625 233.011719 311.109375 236.03125 309.722656 239.007812 C 308.335938 241.984375 306.847656 244.910156 305.261719 247.785156 C 303.671875 250.660156 301.988281 253.476562 300.203125 256.234375 C 298.421875 258.992188 296.546875 261.6875 294.578125 264.316406 Z M 294.578125 264.316406 "
     fill-opacity="1"
     fill-rule="nonzero"
     id="path133" />
  <g
     clip-path="url(#b3e9e9b9ad)"
     id="g137">
    <path
       fill="#000000"
       d="M 180.160156 330.28125 C 134.96875 330.28125 92.46875 310.324219 63.5625 275.527344 L 65.21875 274.148438 C 93.71875 308.457031 135.613281 328.128906 180.160156 328.128906 C 184.480469 328.125 188.792969 327.9375 193.097656 327.5625 C 197.402344 327.1875 201.679688 326.628906 205.9375 325.882812 C 210.191406 325.136719 214.40625 324.207031 218.582031 323.097656 C 222.753906 321.984375 226.875 320.695312 230.9375 319.226562 C 235 317.757812 238.992188 316.117188 242.910156 314.300781 C 246.832031 312.488281 250.667969 310.507812 254.414062 308.359375 C 258.164062 306.210938 261.8125 303.90625 265.363281 301.441406 C 268.910156 298.980469 272.347656 296.367188 275.667969 293.605469 L 270.894531 289.109375 C 267.734375 291.71875 264.464844 294.1875 261.089844 296.511719 C 257.710938 298.839844 254.242188 301.015625 250.679688 303.039062 C 247.113281 305.066406 243.46875 306.933594 239.742188 308.644531 C 236.019531 310.355469 232.226562 311.902344 228.367188 313.285156 C 224.507812 314.667969 220.59375 315.882812 216.628906 316.925781 C 212.667969 317.972656 208.664062 318.84375 204.625 319.539062 C 200.585938 320.238281 196.523438 320.761719 192.4375 321.109375 C 188.351562 321.457031 184.261719 321.628906 180.160156 321.621094 C 171.703125 321.621094 163.308594 320.886719 154.976562 319.410156 L 155.355469 317.289062 C 160.394531 318.183594 165.464844 318.804688 170.570312 319.148438 C 175.679688 319.492188 180.789062 319.558594 185.898438 319.34375 C 191.011719 319.132812 196.097656 318.644531 201.160156 317.878906 C 206.21875 317.113281 211.222656 316.074219 216.167969 314.761719 C 221.113281 313.453125 225.976562 311.878906 230.75 310.039062 C 235.527344 308.199219 240.1875 306.105469 244.734375 303.757812 C 249.28125 301.410156 253.6875 298.824219 257.953125 295.996094 C 262.21875 293.167969 266.316406 290.121094 270.253906 286.847656 L 270.988281 286.234375 L 278.90625 293.691406 L 277.984375 294.472656 C 274.601562 297.339844 271.101562 300.054688 267.480469 302.613281 C 263.859375 305.171875 260.132812 307.566406 256.296875 309.796875 C 252.464844 312.027344 248.542969 314.085938 244.527344 315.96875 C 240.515625 317.855469 236.425781 319.558594 232.261719 321.085938 C 228.097656 322.609375 223.875 323.945312 219.589844 325.097656 C 215.308594 326.25 210.984375 327.210938 206.617188 327.984375 C 202.25 328.753906 197.859375 329.332031 193.441406 329.714844 C 189.023438 330.097656 184.59375 330.289062 180.160156 330.28125 Z M 180.160156 330.28125 "
       fill-opacity="1"
       fill-rule="nonzero"
       id="path135" />
  </g>
  <path
     fill="#000000"
     d="M 246.054688 61.664062 C 241.046875 58.851562 235.875 56.367188 230.546875 54.214844 C 225.222656 52.0625 219.777344 50.257812 214.21875 48.804688 C 208.660156 47.351562 203.027344 46.257812 197.328125 45.527344 C 191.628906 44.792969 185.90625 44.429688 180.160156 44.429688 L 180.160156 44 C 185.925781 43.992188 191.667969 44.351562 197.386719 45.085938 C 203.105469 45.816406 208.753906 46.910156 214.332031 48.371094 C 219.910156 49.832031 225.371094 51.640625 230.714844 53.804688 C 236.058594 55.96875 241.242188 58.46875 246.265625 61.300781 Z M 246.054688 61.664062 "
     fill-opacity="1"
     fill-rule="nonzero"
     id="path139" />
  <path
     fill="#000000"
     d="M 180.160156 314.410156 C 177.421875 314.410156 174.683594 314.328125 171.945312 314.164062 C 169.210938 314 166.484375 313.753906 163.761719 313.421875 C 161.042969 313.09375 158.332031 312.679688 155.636719 312.1875 C 152.941406 311.691406 150.265625 311.117188 147.601562 310.460938 C 144.941406 309.804688 142.304688 309.066406 139.6875 308.25 C 137.074219 307.433594 134.484375 306.539062 131.921875 305.5625 C 129.359375 304.589844 126.832031 303.539062 124.332031 302.414062 C 121.835938 301.285156 119.371094 300.082031 116.949219 298.804688 C 114.523438 297.53125 112.140625 296.179688 109.796875 294.757812 C 107.453125 293.335938 105.15625 291.847656 102.902344 290.285156 C 100.648438 288.726562 98.445312 287.097656 96.292969 285.402344 C 94.136719 283.707031 92.039062 281.949219 89.992188 280.128906 C 87.941406 278.304688 85.953125 276.425781 84.019531 274.480469 C 82.085938 272.539062 80.214844 270.539062 78.402344 268.484375 C 76.589844 266.425781 74.84375 264.316406 73.160156 262.15625 C 71.476562 259.992188 69.859375 257.78125 68.308594 255.519531 L 70.085938 254.300781 C 71.613281 256.523438 73.203125 258.695312 74.863281 260.824219 C 76.519531 262.949219 78.242188 265.023438 80.027344 267.046875 C 81.8125 269.070312 83.65625 271.035156 85.558594 272.945312 C 87.460938 274.855469 89.421875 276.707031 91.4375 278.5 C 93.449219 280.292969 95.519531 282.023438 97.640625 283.6875 C 99.757812 285.355469 101.929688 286.957031 104.144531 288.492188 C 106.363281 290.027344 108.625 291.492188 110.929688 292.890625 C 113.234375 294.289062 115.582031 295.617188 117.96875 296.875 C 120.355469 298.128906 122.777344 299.3125 125.234375 300.421875 C 127.691406 301.53125 130.183594 302.566406 132.703125 303.523438 C 135.222656 304.484375 137.769531 305.363281 140.34375 306.167969 C 142.917969 306.972656 145.515625 307.699219 148.132812 308.347656 C 150.75 308.992188 153.386719 309.5625 156.039062 310.050781 C 158.691406 310.535156 161.355469 310.945312 164.03125 311.269531 C 166.710938 311.597656 169.394531 311.839844 172.085938 312.003906 C 174.777344 312.167969 177.472656 312.25 180.167969 312.25 C 253.773438 312.25 313.65625 252.359375 313.65625 178.765625 C 313.65625 130.652344 287.585938 86.070312 245.640625 62.414062 L 246.699219 60.535156 C 249.304688 62.003906 251.863281 63.554688 254.367188 65.191406 C 256.871094 66.828125 259.320312 68.542969 261.710938 70.34375 C 264.101562 72.140625 266.429688 74.015625 268.699219 75.96875 C 270.964844 77.921875 273.164062 79.945312 275.296875 82.042969 C 277.429688 84.144531 279.492188 86.308594 281.480469 88.542969 C 283.472656 90.777344 285.386719 93.074219 287.222656 95.4375 C 289.058594 97.796875 290.816406 100.21875 292.496094 102.695312 C 294.171875 105.171875 295.765625 107.703125 297.277344 110.285156 C 298.785156 112.867188 300.207031 115.5 301.542969 118.175781 C 302.878906 120.851562 304.125 123.570312 305.28125 126.332031 C 306.4375 129.089844 307.5 131.882812 308.472656 134.714844 C 309.441406 137.542969 310.320312 140.402344 311.101562 143.292969 C 311.882812 146.179688 312.566406 149.089844 313.15625 152.023438 C 313.746094 154.957031 314.234375 157.90625 314.628906 160.871094 C 315.023438 163.839844 315.320312 166.8125 315.515625 169.800781 C 315.710938 172.785156 315.808594 175.773438 315.808594 178.765625 C 315.8125 180.984375 315.757812 183.203125 315.652344 185.421875 C 315.542969 187.640625 315.382812 189.851562 315.167969 192.0625 C 314.949219 194.273438 314.679688 196.476562 314.355469 198.671875 C 314.03125 200.871094 313.652344 203.054688 313.222656 205.234375 C 312.789062 207.414062 312.304688 209.578125 311.765625 211.734375 C 311.226562 213.886719 310.636719 216.027344 309.992188 218.152344 C 309.351562 220.277344 308.65625 222.382812 307.90625 224.476562 C 307.160156 226.566406 306.363281 228.636719 305.515625 230.6875 C 304.664062 232.742188 303.765625 234.769531 302.816406 236.777344 C 301.871094 238.785156 300.871094 240.769531 299.824219 242.726562 C 298.78125 244.683594 297.6875 246.617188 296.546875 248.523438 C 295.40625 250.425781 294.21875 252.300781 292.984375 254.148438 C 291.75 255.996094 290.472656 257.808594 289.152344 259.59375 C 287.828125 261.378906 286.464844 263.128906 285.054688 264.84375 C 283.644531 266.558594 282.195312 268.242188 280.707031 269.886719 C 279.214844 271.53125 277.683594 273.140625 276.113281 274.710938 C 274.542969 276.277344 272.9375 277.808594 271.292969 279.300781 C 269.644531 280.792969 267.964844 282.242188 266.25 283.648438 C 264.53125 285.058594 262.78125 286.421875 261 287.746094 C 259.214844 289.070312 257.398438 290.347656 255.554688 291.578125 C 253.707031 292.8125 251.832031 294 249.925781 295.140625 C 248.023438 296.28125 246.089844 297.375 244.132812 298.421875 C 242.171875 299.46875 240.191406 300.464844 238.183594 301.414062 C 236.175781 302.363281 234.144531 303.261719 232.09375 304.109375 C 230.042969 304.957031 227.972656 305.757812 225.878906 306.503906 C 223.789062 307.25 221.679688 307.945312 219.554688 308.589844 C 217.429688 309.230469 215.292969 309.824219 213.136719 310.363281 C 210.984375 310.898438 208.816406 311.382812 206.640625 311.816406 C 204.460938 312.25 202.273438 312.625 200.078125 312.949219 C 197.882812 313.273438 195.679688 313.546875 193.46875 313.761719 C 191.257812 313.976562 189.042969 314.140625 186.828125 314.246094 C 184.609375 314.351562 182.390625 314.40625 180.167969 314.402344 Z M 180.160156 314.410156 "
     fill-opacity="1"
     fill-rule="nonzero"
     id="path141" />
  <path
     fill="#000000"
     d="M 135.230469 53.035156 L 134.503906 51.019531 C 141.828125 48.402344 149.324219 46.433594 156.992188 45.109375 C 164.660156 43.785156 172.382812 43.128906 180.160156 43.140625 L 180.160156 45.292969 C 164.734375 45.273438 149.757812 47.851562 135.230469 53.035156 Z M 135.230469 53.035156 "
     fill-opacity="1"
     fill-rule="nonzero"
     id="path143" />
  <path
     fill="#000000"
     d="M 180.160156 307.128906 C 173.964844 307.136719 167.800781 306.695312 161.671875 305.808594 C 155.539062 304.921875 149.503906 303.59375 143.566406 301.832031 C 137.628906 300.066406 131.847656 297.882812 126.226562 295.277344 C 120.605469 292.671875 115.203125 289.675781 110.015625 286.285156 L 111.199219 284.480469 C 116.296875 287.8125 121.609375 290.761719 127.132812 293.320312 C 132.660156 295.882812 138.34375 298.03125 144.183594 299.765625 C 150.019531 301.5 155.953125 302.804688 161.980469 303.675781 C 168.011719 304.550781 174.070312 304.980469 180.160156 304.972656 C 249.746094 304.972656 306.363281 248.359375 306.363281 178.769531 C 306.363281 109.179688 249.75 52.566406 180.160156 52.566406 L 180.160156 50.410156 C 182.261719 50.410156 184.359375 50.460938 186.460938 50.566406 C 188.558594 50.667969 190.652344 50.824219 192.742188 51.03125 C 194.832031 51.234375 196.917969 51.492188 198.996094 51.800781 C 201.074219 52.109375 203.140625 52.46875 205.203125 52.878906 C 207.261719 53.289062 209.3125 53.746094 211.347656 54.257812 C 213.386719 54.769531 215.410156 55.328125 217.421875 55.9375 C 219.429688 56.546875 221.425781 57.207031 223.402344 57.914062 C 225.382812 58.621094 227.339844 59.378906 229.28125 60.183594 C 231.222656 60.984375 233.140625 61.835938 235.042969 62.734375 C 236.941406 63.632812 238.816406 64.578125 240.667969 65.566406 C 242.519531 66.558594 244.347656 67.59375 246.148438 68.671875 C 247.953125 69.753906 249.726562 70.875 251.472656 72.042969 C 253.21875 73.210938 254.9375 74.417969 256.625 75.671875 C 258.3125 76.921875 259.964844 78.214844 261.589844 79.546875 C 263.214844 80.878906 264.804688 82.25 266.359375 83.664062 C 267.917969 85.074219 269.4375 86.519531 270.921875 88.007812 C 272.410156 89.492188 273.855469 91.011719 275.269531 92.570312 C 276.679688 94.125 278.050781 95.714844 279.382812 97.339844 C 280.714844 98.964844 282.007812 100.621094 283.257812 102.304688 C 284.511719 103.992188 285.71875 105.710938 286.886719 107.457031 C 288.054688 109.203125 289.175781 110.976562 290.257812 112.78125 C 291.335938 114.582031 292.371094 116.410156 293.363281 118.261719 C 294.351562 120.113281 295.296875 121.988281 296.195312 123.890625 C 297.09375 125.789062 297.945312 127.707031 298.75 129.648438 C 299.550781 131.589844 300.308594 133.546875 301.015625 135.527344 C 301.722656 137.503906 302.382812 139.5 302.992188 141.507812 C 303.601562 143.519531 304.160156 145.542969 304.671875 147.582031 C 305.183594 149.617188 305.644531 151.667969 306.050781 153.726562 C 306.460938 155.789062 306.820312 157.855469 307.128906 159.933594 C 307.4375 162.011719 307.695312 164.097656 307.902344 166.1875 C 308.105469 168.277344 308.261719 170.371094 308.363281 172.472656 C 308.46875 174.570312 308.519531 176.667969 308.519531 178.769531 C 308.519531 180.871094 308.46875 182.96875 308.363281 185.066406 C 308.261719 187.164062 308.105469 189.261719 307.902344 191.351562 C 307.695312 193.441406 307.4375 195.523438 307.128906 197.601562 C 306.820312 199.679688 306.460938 201.75 306.050781 203.808594 C 305.644531 205.871094 305.183594 207.917969 304.671875 209.957031 C 304.160156 211.996094 303.601562 214.019531 302.992188 216.03125 C 302.382812 218.039062 301.722656 220.035156 301.015625 222.011719 C 300.308594 223.988281 299.550781 225.949219 298.75 227.890625 C 297.945312 229.832031 297.09375 231.75 296.195312 233.648438 C 295.296875 235.546875 294.351562 237.425781 293.363281 239.277344 C 292.371094 241.128906 291.335938 242.957031 290.257812 244.757812 C 289.175781 246.558594 288.054688 248.335938 286.886719 250.082031 C 285.71875 251.828125 284.511719 253.542969 283.257812 255.230469 C 282.007812 256.917969 280.714844 258.574219 279.382812 260.199219 C 278.050781 261.824219 276.679688 263.414062 275.269531 264.96875 C 273.855469 266.527344 272.410156 268.046875 270.921875 269.53125 C 269.4375 271.015625 267.917969 272.464844 266.359375 273.875 C 264.804688 275.285156 263.214844 276.660156 261.589844 277.992188 C 259.964844 279.324219 258.3125 280.617188 256.625 281.867188 C 254.9375 283.117188 253.21875 284.328125 251.472656 285.496094 C 249.726562 286.660156 247.953125 287.785156 246.148438 288.867188 C 244.347656 289.945312 242.519531 290.980469 240.667969 291.96875 C 238.816406 292.960938 236.941406 293.90625 235.042969 294.804688 C 233.140625 295.703125 231.222656 296.550781 229.28125 297.355469 C 227.339844 298.160156 225.382812 298.914062 223.402344 299.625 C 221.425781 300.332031 219.429688 300.988281 217.421875 301.601562 C 215.410156 302.210938 213.386719 302.769531 211.347656 303.28125 C 209.3125 303.789062 207.261719 304.25 205.203125 304.660156 C 203.140625 305.070312 201.074219 305.429688 198.996094 305.738281 C 196.917969 306.046875 194.832031 306.304688 192.742188 306.507812 C 190.652344 306.714844 188.558594 306.871094 186.460938 306.972656 C 184.359375 307.074219 182.261719 307.128906 180.160156 307.128906 Z M 180.160156 307.128906 "
     fill-opacity="1"
     fill-rule="nonzero"
     id="path145" />
  <path
     fill="#000000"
     d="M 227.101562 69.171875 C 219.6875 65.992188 212.027344 63.59375 204.121094 61.976562 C 196.21875 60.359375 188.230469 59.558594 180.160156 59.574219 L 180.160156 59.144531 C 188.257812 59.128906 196.273438 59.929688 204.207031 61.554688 C 212.140625 63.175781 219.832031 65.585938 227.269531 68.777344 Z M 227.101562 69.171875 "
     fill-opacity="1"
     fill-rule="nonzero"
     id="path147" />
  <path
     fill="#000000"
     d="M 180.160156 299.253906 C 176.613281 299.261719 173.074219 299.109375 169.542969 298.800781 C 166.007812 298.492188 162.496094 298.027344 159.003906 297.40625 C 155.511719 296.785156 152.054688 296.015625 148.628906 295.085938 C 145.207031 294.160156 141.832031 293.085938 138.503906 291.859375 C 135.175781 290.632812 131.90625 289.261719 128.699219 287.746094 C 125.492188 286.230469 122.359375 284.578125 119.300781 282.785156 C 116.242188 280.992188 113.265625 279.066406 110.375 277.007812 C 107.488281 274.953125 104.695312 272.773438 102 270.46875 L 103.398438 268.828125 C 108.710938 273.355469 114.378906 277.378906 120.402344 280.902344 C 126.425781 284.425781 132.710938 287.394531 139.257812 289.808594 C 145.808594 292.21875 152.515625 294.039062 159.386719 295.261719 C 166.257812 296.488281 173.183594 297.101562 180.160156 297.101562 C 245.410156 297.101562 298.492188 244.019531 298.492188 178.769531 C 298.496094 175.894531 298.390625 173.019531 298.183594 170.152344 C 297.972656 167.28125 297.664062 164.425781 297.246094 161.578125 C 296.828125 158.730469 296.308594 155.90625 295.6875 153.097656 C 295.0625 150.289062 294.339844 147.507812 293.511719 144.75 C 292.6875 141.996094 291.761719 139.273438 290.738281 136.585938 C 289.710938 133.898438 288.589844 131.25 287.375 128.644531 C 286.15625 126.039062 284.84375 123.480469 283.441406 120.96875 C 282.035156 118.457031 280.542969 116.003906 278.957031 113.601562 C 277.375 111.199219 275.707031 108.859375 273.953125 106.578125 C 272.199219 104.300781 270.363281 102.085938 268.445312 99.941406 C 266.53125 97.796875 264.539062 95.722656 262.472656 93.722656 C 260.40625 91.722656 258.269531 89.800781 256.0625 87.953125 C 253.855469 86.109375 251.582031 84.347656 249.246094 82.667969 C 246.910156 80.992188 244.515625 79.398438 242.066406 77.894531 C 239.613281 76.390625 237.109375 74.976562 234.554688 73.65625 C 232 72.335938 229.398438 71.109375 226.753906 69.976562 L 227.601562 67.996094 C 229.183594 68.671875 230.746094 69.382812 232.296875 70.125 C 233.847656 70.867188 235.378906 71.644531 236.894531 72.453125 C 238.410156 73.261719 239.910156 74.101562 241.390625 74.972656 C 242.871094 75.847656 244.332031 76.75 245.773438 77.683594 C 247.214844 78.621094 248.636719 79.585938 250.035156 80.582031 C 251.433594 81.578125 252.8125 82.601562 254.171875 83.65625 C 255.527344 84.710938 256.859375 85.792969 258.167969 86.90625 C 259.480469 88.019531 260.765625 89.15625 262.027344 90.324219 C 263.289062 91.492188 264.523438 92.683594 265.734375 93.90625 C 266.945312 95.125 268.128906 96.367188 269.285156 97.640625 C 270.441406 98.910156 271.570312 100.203125 272.671875 101.523438 C 273.773438 102.839844 274.847656 104.183594 275.890625 105.546875 C 276.9375 106.914062 277.949219 108.296875 278.933594 109.707031 C 279.921875 111.113281 280.875 112.542969 281.796875 113.992188 C 282.722656 115.441406 283.613281 116.90625 284.476562 118.394531 C 285.335938 119.882812 286.164062 121.386719 286.960938 122.910156 C 287.757812 124.433594 288.523438 125.96875 289.253906 127.527344 C 289.984375 129.082031 290.679688 130.652344 291.34375 132.234375 C 292.007812 133.820312 292.636719 135.417969 293.234375 137.03125 C 293.828125 138.640625 294.386719 140.265625 294.914062 141.902344 C 295.441406 143.539062 295.929688 145.183594 296.386719 146.839844 C 296.839844 148.496094 297.261719 150.164062 297.644531 151.839844 C 298.027344 153.511719 298.375 155.195312 298.6875 156.886719 C 299 158.574219 299.277344 160.269531 299.515625 161.972656 C 299.757812 163.671875 299.960938 165.378906 300.125 167.089844 C 300.292969 168.800781 300.421875 170.511719 300.515625 172.226562 C 300.609375 173.945312 300.664062 175.660156 300.683594 177.378906 C 300.703125 179.097656 300.6875 180.816406 300.632812 182.53125 C 300.582031 184.25 300.492188 185.964844 300.363281 187.679688 C 300.234375 189.390625 300.074219 191.101562 299.871094 192.808594 C 299.671875 194.515625 299.433594 196.214844 299.164062 197.914062 C 298.890625 199.609375 298.582031 201.300781 298.234375 202.980469 C 297.890625 204.664062 297.507812 206.339844 297.089844 208.007812 C 296.675781 209.675781 296.222656 211.332031 295.734375 212.980469 C 295.246094 214.625 294.722656 216.261719 294.164062 217.886719 C 293.609375 219.511719 293.015625 221.125 292.390625 222.726562 C 291.761719 224.324219 291.101562 225.910156 290.40625 227.484375 C 289.710938 229.054688 288.984375 230.609375 288.222656 232.148438 C 287.460938 233.691406 286.667969 235.214844 285.839844 236.71875 C 285.015625 238.226562 284.15625 239.714844 283.265625 241.183594 C 282.375 242.65625 281.453125 244.105469 280.503906 245.535156 C 279.550781 246.964844 278.566406 248.375 277.554688 249.761719 C 276.542969 251.152344 275.5 252.515625 274.429688 253.859375 C 273.359375 255.203125 272.261719 256.523438 271.132812 257.820312 C 270.007812 259.117188 268.851562 260.390625 267.667969 261.636719 C 266.488281 262.882812 265.28125 264.105469 264.046875 265.300781 C 262.8125 266.496094 261.554688 267.667969 260.269531 268.808594 C 258.984375 269.949219 257.675781 271.0625 256.34375 272.148438 C 255.015625 273.234375 253.660156 274.292969 252.28125 275.320312 C 250.90625 276.347656 249.507812 277.34375 248.085938 278.3125 C 246.667969 279.28125 245.230469 280.21875 243.769531 281.125 C 242.308594 282.03125 240.832031 282.90625 239.332031 283.75 C 237.835938 284.59375 236.320312 285.402344 234.789062 286.183594 C 233.257812 286.960938 231.710938 287.707031 230.148438 288.417969 C 228.582031 289.128906 227.003906 289.808594 225.414062 290.453125 C 223.820312 291.097656 222.214844 291.707031 220.59375 292.285156 C 218.976562 292.859375 217.347656 293.402344 215.703125 293.90625 C 214.0625 294.414062 212.410156 294.882812 210.746094 295.320312 C 209.085938 295.753906 207.414062 296.15625 205.734375 296.519531 C 204.054688 296.882812 202.371094 297.210938 200.675781 297.503906 C 198.984375 297.796875 197.285156 298.050781 195.582031 298.269531 C 193.875 298.488281 192.167969 298.671875 190.457031 298.820312 C 188.746094 298.964844 187.03125 299.074219 185.3125 299.148438 C 183.597656 299.21875 181.878906 299.253906 180.160156 299.253906 Z M 180.160156 299.253906 "
     fill-opacity="1"
     fill-rule="nonzero"
     id="path149" />
  <path
     fill="#000000"
     d="M 180.160156 291.871094 C 173.566406 291.878906 167.023438 291.316406 160.527344 290.175781 C 154.03125 289.039062 147.6875 287.339844 141.492188 285.085938 C 135.292969 282.832031 129.339844 280.054688 123.632812 276.757812 C 117.921875 273.457031 112.546875 269.683594 107.5 265.441406 L 108.882812 263.789062 C 113.839844 267.945312 119.121094 271.636719 124.722656 274.867188 C 130.324219 278.097656 136.164062 280.820312 142.238281 283.027344 C 148.316406 285.238281 154.539062 286.90625 160.910156 288.027344 C 167.277344 289.152344 173.695312 289.714844 180.160156 289.714844 C 241.34375 289.714844 291.109375 239.953125 291.109375 178.78125 C 291.109375 117.609375 241.34375 67.84375 180.171875 67.84375 L 180.171875 65.691406 C 182.039062 65.664062 183.90625 65.683594 185.773438 65.75 C 187.636719 65.816406 189.5 65.929688 191.363281 66.089844 C 193.222656 66.25 195.078125 66.453125 196.925781 66.703125 C 198.777344 66.957031 200.621094 67.25 202.457031 67.59375 C 204.292969 67.9375 206.117188 68.324219 207.933594 68.753906 C 209.75 69.1875 211.554688 69.664062 213.347656 70.1875 C 215.140625 70.710938 216.921875 71.277344 218.683594 71.886719 C 220.449219 72.496094 222.199219 73.148438 223.929688 73.847656 C 225.664062 74.542969 227.378906 75.28125 229.074219 76.0625 C 230.769531 76.84375 232.445312 77.667969 234.097656 78.53125 C 235.753906 79.398438 237.386719 80.300781 238.996094 81.246094 C 240.609375 82.191406 242.195312 83.175781 243.753906 84.203125 C 245.316406 85.226562 246.851562 86.289062 248.359375 87.386719 C 249.867188 88.488281 251.351562 89.625 252.800781 90.796875 C 254.253906 91.96875 255.675781 93.179688 257.070312 94.421875 C 258.464844 95.667969 259.824219 96.945312 261.152344 98.253906 C 262.484375 99.566406 263.777344 100.910156 265.042969 102.285156 C 266.304688 103.660156 267.53125 105.066406 268.726562 106.503906 C 269.917969 107.9375 271.078125 109.402344 272.195312 110.898438 C 273.316406 112.390625 274.402344 113.910156 275.445312 115.457031 C 276.492188 117.003906 277.5 118.578125 278.464844 120.175781 C 279.433594 121.773438 280.359375 123.390625 281.246094 125.035156 C 282.136719 126.675781 282.980469 128.339844 283.785156 130.027344 C 284.589844 131.710938 285.355469 133.414062 286.074219 135.136719 C 286.796875 136.859375 287.472656 138.601562 288.105469 140.355469 C 288.742188 142.113281 289.332031 143.882812 289.878906 145.667969 C 290.425781 147.453125 290.925781 149.25 291.382812 151.0625 C 291.84375 152.871094 292.253906 154.691406 292.621094 156.523438 C 292.988281 158.355469 293.3125 160.191406 293.589844 162.039062 C 293.863281 163.886719 294.09375 165.738281 294.28125 167.597656 C 294.464844 169.457031 294.601562 171.316406 294.695312 173.179688 C 294.789062 175.046875 294.832031 176.914062 294.832031 178.78125 C 294.832031 180.648438 294.789062 182.511719 294.695312 184.378906 C 294.601562 186.242188 294.464844 188.105469 294.28125 189.960938 C 294.09375 191.820312 293.863281 193.671875 293.589844 195.519531 C 293.3125 197.367188 292.988281 199.207031 292.621094 201.035156 C 292.253906 202.867188 291.84375 204.6875 291.382812 206.496094 C 290.925781 208.308594 290.425781 210.105469 289.878906 211.890625 C 289.332031 213.675781 288.742188 215.449219 288.105469 217.203125 C 287.472656 218.960938 286.796875 220.699219 286.074219 222.421875 C 285.355469 224.144531 284.589844 225.847656 283.785156 227.535156 C 282.980469 229.21875 282.136719 230.882812 281.246094 232.523438 C 280.359375 234.167969 279.433594 235.789062 278.464844 237.386719 C 277.5 238.980469 276.492188 240.554688 275.445312 242.101562 C 274.402344 243.648438 273.316406 245.167969 272.195312 246.664062 C 271.078125 248.15625 269.917969 249.621094 268.726562 251.058594 C 267.53125 252.492188 266.304688 253.898438 265.042969 255.273438 C 263.777344 256.648438 262.484375 257.992188 261.152344 259.304688 C 259.824219 260.617188 258.464844 261.894531 257.070312 263.136719 C 255.675781 264.378906 254.253906 265.589844 252.800781 266.761719 C 251.351562 267.9375 249.867188 269.074219 248.359375 270.171875 C 246.851562 271.273438 245.316406 272.335938 243.753906 273.359375 C 242.195312 274.382812 240.609375 275.367188 238.996094 276.3125 C 237.386719 277.257812 235.753906 278.164062 234.097656 279.027344 C 232.445312 279.890625 230.769531 280.714844 229.074219 281.496094 C 227.378906 282.277344 225.664062 283.015625 223.929688 283.714844 C 222.199219 284.410156 220.449219 285.0625 218.683594 285.675781 C 216.921875 286.285156 215.140625 286.851562 213.347656 287.371094 C 211.554688 287.894531 209.75 288.371094 207.933594 288.804688 C 206.117188 289.238281 204.292969 289.625 202.457031 289.964844 C 200.621094 290.308594 198.777344 290.605469 196.925781 290.855469 C 195.078125 291.105469 193.222656 291.3125 191.363281 291.46875 C 189.5 291.628906 187.636719 291.742188 185.773438 291.808594 C 183.90625 291.875 182.039062 291.894531 180.171875 291.871094 Z M 180.160156 291.871094 "
     fill-opacity="1"
     fill-rule="nonzero"
     id="path151" />
  <path
     fill="#000000"
     d="M 283.960938 178.769531 L 281.808594 178.769531 C 281.808594 122.71875 236.210938 77.121094 180.160156 77.121094 L 180.160156 74.964844 C 181.859375 74.964844 183.558594 75.003906 185.253906 75.085938 C 186.953125 75.167969 188.648438 75.292969 190.339844 75.457031 C 192.03125 75.625 193.714844 75.832031 195.394531 76.078125 C 197.078125 76.328125 198.75 76.617188 200.417969 76.945312 C 202.085938 77.277344 203.742188 77.648438 205.390625 78.058594 C 207.039062 78.472656 208.675781 78.925781 210.304688 79.417969 C 211.929688 79.910156 213.542969 80.441406 215.140625 81.011719 C 216.742188 81.585938 218.328125 82.195312 219.898438 82.84375 C 221.46875 83.496094 223.019531 84.183594 224.558594 84.90625 C 226.09375 85.632812 227.613281 86.398438 229.109375 87.199219 C 230.609375 88 232.085938 88.835938 233.542969 89.707031 C 235.003906 90.582031 236.4375 91.488281 237.851562 92.433594 C 239.265625 93.378906 240.652344 94.355469 242.019531 95.367188 C 243.382812 96.378906 244.722656 97.425781 246.035156 98.503906 C 247.347656 99.578125 248.636719 100.6875 249.894531 101.832031 C 251.152344 102.972656 252.382812 104.144531 253.585938 105.34375 C 254.785156 106.546875 255.957031 107.777344 257.097656 109.035156 C 258.242188 110.292969 259.351562 111.582031 260.425781 112.894531 C 261.503906 114.207031 262.550781 115.546875 263.5625 116.910156 C 264.574219 118.277344 265.550781 119.664062 266.496094 121.078125 C 267.4375 122.492188 268.347656 123.925781 269.222656 125.386719 C 270.09375 126.84375 270.929688 128.320312 271.730469 129.820312 C 272.53125 131.320312 273.296875 132.835938 274.019531 134.371094 C 274.746094 135.910156 275.433594 137.460938 276.085938 139.03125 C 276.734375 140.601562 277.34375 142.1875 277.917969 143.789062 C 278.488281 145.386719 279.019531 147 279.511719 148.628906 C 280.003906 150.253906 280.457031 151.890625 280.867188 153.539062 C 281.28125 155.1875 281.652344 156.84375 281.980469 158.511719 C 282.3125 160.179688 282.601562 161.851562 282.851562 163.535156 C 283.097656 165.214844 283.304688 166.902344 283.46875 168.59375 C 283.636719 170.28125 283.757812 171.976562 283.839844 173.675781 C 283.921875 175.371094 283.964844 177.070312 283.960938 178.769531 Z M 283.960938 178.769531 "
     fill-opacity="1"
     fill-rule="nonzero"
     id="path153" />
  <path
     fill="#000000"
     d="M 217.355469 275.714844 L 216.582031 273.699219 C 237.265625 265.761719 255.070312 250.976562 266.734375 232.0625 L 268.570312 233.195312 C 265.601562 238.007812 262.257812 242.550781 258.546875 246.824219 C 254.835938 251.09375 250.804688 255.039062 246.453125 258.652344 C 242.097656 262.265625 237.480469 265.503906 232.597656 268.367188 C 227.71875 271.230469 222.636719 273.679688 217.355469 275.714844 Z M 217.355469 275.714844 "
     fill-opacity="1"
     fill-rule="nonzero"
     id="path155" />
  <path
     fill="#000000"
     d="M 180.160156 281.710938 L 180.160156 281.28125 C 192.828125 281.300781 205.074219 279.039062 216.898438 274.5 L 217.050781 274.902344 C 205.175781 279.460938 192.878906 281.730469 180.160156 281.710938 Z M 180.160156 281.710938 "
     fill-opacity="1"
     fill-rule="nonzero"
     id="path157" />
  <path
     fill="#000000"
     d="M 180.160156 282.570312 C 172.308594 282.574219 164.550781 281.703125 156.894531 279.957031 C 150.136719 278.414062 143.601562 276.207031 137.292969 273.339844 C 130.980469 270.476562 125.019531 267.007812 119.410156 262.9375 L 120.671875 261.191406 C 126.167969 265.179688 132.003906 268.578125 138.1875 271.386719 C 144.367188 274.195312 150.765625 276.355469 157.386719 277.867188 C 164.882812 279.578125 172.472656 280.429688 180.160156 280.429688 Z M 180.160156 282.570312 "
     fill-opacity="1"
     fill-rule="nonzero"
     id="path159" />
  <path
     fill="#000000"
     d="M 254.632812 136.558594 L 254.078125 135.609375 C 251.871094 131.820312 249.386719 128.226562 246.625 124.820312 C 243.863281 121.414062 240.855469 118.242188 237.605469 115.296875 C 234.355469 112.355469 230.898438 109.679688 227.238281 107.269531 C 223.574219 104.859375 219.75 102.746094 215.761719 100.925781 L 216.660156 98.96875 C 220.660156 100.804688 224.5 102.925781 228.183594 105.339844 C 231.863281 107.75 235.34375 110.425781 238.625 113.359375 C 241.90625 116.292969 244.953125 119.453125 247.757812 122.84375 C 250.566406 126.230469 253.105469 129.8125 255.375 133.582031 L 260.226562 130.621094 C 243.382812 102.667969 212.804688 85.351562 180.160156 85.351562 C 168.96875 85.335938 158.125 87.273438 147.632812 91.167969 L 146.882812 89.148438 C 149.492188 88.183594 152.136719 87.328125 154.820312 86.59375 C 157.503906 85.855469 160.214844 85.238281 162.949219 84.738281 C 165.6875 84.238281 168.441406 83.855469 171.210938 83.597656 C 173.980469 83.335938 176.757812 83.199219 179.539062 83.179688 C 182.320312 83.164062 185.097656 83.265625 187.871094 83.492188 C 190.644531 83.714844 193.402344 84.0625 196.144531 84.527344 C 198.890625 84.992188 201.605469 85.578125 204.296875 86.28125 C 206.992188 86.980469 209.648438 87.800781 212.265625 88.734375 C 214.886719 89.671875 217.460938 90.71875 219.992188 91.878906 C 222.519531 93.035156 224.996094 94.304688 227.414062 95.679688 C 229.832031 97.054688 232.183594 98.535156 234.476562 100.113281 C 236.765625 101.695312 238.980469 103.375 241.125 105.148438 C 243.265625 106.921875 245.328125 108.785156 247.308594 110.742188 C 249.289062 112.695312 251.179688 114.734375 252.980469 116.851562 C 254.785156 118.972656 256.492188 121.164062 258.101562 123.433594 C 259.710938 125.703125 261.222656 128.035156 262.628906 130.4375 L 263.164062 131.351562 Z M 254.632812 136.558594 "
     fill-opacity="1"
     fill-rule="nonzero"
     id="path161" />
  <path
     fill="#000000"
     d="M 180.160156 274.339844 C 175.898438 274.34375 171.652344 274.0625 167.429688 273.496094 C 163.203125 272.929688 159.035156 272.085938 154.921875 270.960938 C 150.808594 269.835938 146.789062 268.441406 142.863281 266.777344 C 138.941406 265.117188 135.140625 263.199219 131.472656 261.027344 L 132.574219 259.175781 C 136.160156 261.296875 139.871094 263.171875 143.707031 264.796875 C 147.542969 266.421875 151.472656 267.78125 155.492188 268.882812 C 159.507812 269.980469 163.585938 270.808594 167.714844 271.359375 C 171.84375 271.914062 175.992188 272.1875 180.160156 272.1875 C 231.3125 272.1875 272.992188 230.863281 273.570312 179.847656 L 267.886719 179.847656 C 267.796875 187.285156 266.78125 194.597656 264.832031 201.777344 C 262.882812 208.957031 260.066406 215.78125 256.378906 222.246094 L 254.511719 221.167969 C 258.191406 214.710938 260.984375 207.886719 262.886719 200.699219 C 264.792969 193.515625 265.742188 186.203125 265.742188 178.769531 L 265.742188 177.691406 L 275.734375 177.691406 L 275.734375 178.769531 C 275.734375 180.332031 275.695312 181.898438 275.621094 183.460938 C 275.546875 185.023438 275.429688 186.582031 275.277344 188.140625 C 275.125 189.695312 274.9375 191.25 274.707031 192.796875 C 274.480469 194.34375 274.214844 195.886719 273.910156 197.417969 C 273.605469 198.953125 273.261719 200.480469 272.882812 201.996094 C 272.503906 203.515625 272.085938 205.023438 271.632812 206.519531 C 271.179688 208.019531 270.691406 209.503906 270.164062 210.976562 C 269.636719 212.449219 269.074219 213.910156 268.476562 215.355469 C 267.878906 216.800781 267.246094 218.230469 266.578125 219.644531 C 265.910156 221.058594 265.207031 222.457031 264.46875 223.835938 C 263.734375 225.214844 262.960938 226.578125 262.160156 227.917969 C 261.355469 229.261719 260.519531 230.582031 259.648438 231.882812 C 258.78125 233.183594 257.878906 234.464844 256.949219 235.71875 C 256.015625 236.976562 255.054688 238.210938 254.0625 239.417969 C 253.070312 240.628906 252.046875 241.8125 250.996094 242.972656 C 249.945312 244.132812 248.867188 245.265625 247.761719 246.371094 C 246.65625 247.476562 245.523438 248.554688 244.363281 249.605469 C 243.203125 250.65625 242.019531 251.675781 240.8125 252.671875 C 239.601562 253.664062 238.367188 254.625 237.113281 255.554688 C 235.855469 256.488281 234.578125 257.386719 233.277344 258.257812 C 231.972656 259.125 230.652344 259.960938 229.3125 260.765625 C 227.96875 261.570312 226.609375 262.339844 225.226562 263.078125 C 223.847656 263.816406 222.449219 264.519531 221.035156 265.1875 C 219.621094 265.855469 218.191406 266.488281 216.746094 267.085938 C 215.300781 267.683594 213.839844 268.246094 212.367188 268.773438 C 210.894531 269.300781 209.410156 269.789062 207.914062 270.242188 C 206.414062 270.695312 204.90625 271.113281 203.390625 271.492188 C 201.871094 271.871094 200.347656 272.210938 198.8125 272.515625 C 197.277344 272.820312 195.734375 273.085938 194.1875 273.316406 C 192.640625 273.542969 191.089844 273.734375 189.53125 273.886719 C 187.972656 274.039062 186.414062 274.152344 184.851562 274.230469 C 183.289062 274.304688 181.726562 274.34375 180.160156 274.339844 Z M 180.160156 274.339844 "
     fill-opacity="1"
     fill-rule="nonzero"
     id="path163" />
  <path
     fill="#000000"
     d="M 232.765625 247.921875 L 232.503906 247.578125 C 237.132812 244.0625 241.359375 240.117188 245.191406 235.746094 C 249.023438 231.375 252.378906 226.664062 255.261719 221.617188 L 255.636719 221.832031 C 252.742188 226.90625 249.367188 231.640625 245.515625 236.03125 C 241.667969 240.425781 237.414062 244.386719 232.765625 247.921875 Z M 232.765625 247.921875 "
     fill-opacity="1"
     fill-rule="nonzero"
     id="path165" />
  <path
     fill="#000000"
     d="M 180.160156 266.503906 L 180.160156 264.347656 C 199.066406 264.347656 216.984375 258.316406 231.980469 246.882812 L 233.285156 248.605469 C 229.496094 251.496094 225.496094 254.0625 221.289062 256.296875 C 217.078125 258.535156 212.714844 260.414062 208.199219 261.9375 C 203.683594 263.460938 199.070312 264.605469 194.367188 265.371094 C 189.664062 266.140625 184.925781 266.519531 180.160156 266.511719 Z M 180.160156 266.503906 "
     fill-opacity="1"
     fill-rule="nonzero"
     id="path167" />
  <path
     fill="#000000"
     d="M 180.160156 265.640625 C 169.828125 265.65625 159.8125 263.875 150.113281 260.304688 L 150.261719 259.898438 C 159.914062 263.453125 169.882812 265.226562 180.167969 265.210938 Z M 180.160156 265.640625 "
     fill-opacity="1"
     fill-rule="nonzero"
     id="path169" />
  <path
     fill="#000000"
     d="M 216.121094 100.136719 C 210.480469 97.550781 204.628906 95.597656 198.566406 94.28125 C 192.5 92.960938 186.367188 92.3125 180.160156 92.324219 L 180.160156 91.894531 C 186.398438 91.878906 192.5625 92.535156 198.65625 93.859375 C 204.75 95.183594 210.632812 97.144531 216.300781 99.746094 Z M 216.121094 100.136719 "
     fill-opacity="1"
     fill-rule="nonzero"
     id="path171" />
  <g
     clip-path="url(#00077422c3)"
     id="g177">
    <g
       clip-path="url(#f46eae8132)"
       id="g175">
      <path
         d="M 129.820312 120.207031 L 245.679688 120.207031 L 245.679688 237.292969 L 129.820312 237.292969 Z M 129.820312 120.207031 "
         id="path173"
         fill-rule="nonzero"
         fill-opacity="1"
         fill="#131313" />
    </g>
  </g>
  <g
     clip-path="url(#038e1e2f7b)"
     id="g183">
    <g
       clip-path="url(#5702915f4f)"
       id="g181">
      <path
         fill="#ffffff"
         d="M 129.820312 120.207031 L 245.679688 120.207031 L 245.679688 237.292969 L 129.820312 237.292969 Z M 129.820312 120.207031 "
         fill-opacity="0.0"
         fill-rule="nonzero"
         id="path179" />
    </g>
  </g>
  <g
     clip-path="url(#a382921d4f)"
     id="g189">
    <g
       clip-path="url(#22a42ac257)"
       id="g187">
      <path
         fill="#131313"
         d="M 129.820312 120.207031 L 245.679688 120.207031 L 245.679688 237.292969 L 129.820312 237.292969 Z M 129.820312 120.207031 "
         fill-opacity="1"
         fill-rule="nonzero"
         id="path185" />
    </g>
  </g>
  <g
     clip-path="url(#ec607f7ed2)"
     id="g195">
    <g
       clip-path="url(#94079f0caa)"
       id="g193">
      <path
         fill="#ffffff"
         d="M 129.820312 120.207031 L 245.679688 120.207031 L 245.679688 237.292969 L 129.820312 237.292969 Z M 129.820312 120.207031 "
         fill-opacity="0.0"
         fill-rule="nonzero"
         id="path191" />
    </g>
  </g>
  <g
     clip-path="url(#5feb63cc10)"
     id="g201"
     style="fill:#000000">
    <g
       clip-path="url(#f1d37a82fb)"
       id="g199"
       style="fill:#000000">
      <path
         fill="#fffafa"
         d="M 129.820312 120.207031 L 245.679688 120.207031 L 245.679688 237.292969 L 129.820312 237.292969 Z M 129.820312 120.207031 "
         fill-opacity="1"
         fill-rule="nonzero"
         id="path197"
         style="fill:#000000" />
    </g>
  </g>
  <g
     clip-path="url(#9d3d352ef2)"
     id="g207">
    <g
       clip-path="url(#339be3d7bd)"
       id="g205">
      <path
         fill="#ffffff"
         d="M 129.820312 120.207031 L 245.679688 120.207031 L 245.679688 237.292969 L 129.820312 237.292969 Z M 129.820312 120.207031 "
         fill-opacity="0.0"
         fill-rule="nonzero"
         id="path203" />
    </g>
  </g>
  <g
     clip-path="url(#39503e1090)"
     id="g213">
    <g
       clip-path="url(#88f6598873)"
       id="g211">
      <path
         fill="#131313"
         d="M 129.820312 120.207031 L 245.679688 120.207031 L 245.679688 237.292969 L 129.820312 237.292969 Z M 129.820312 120.207031 "
         fill-opacity="1"
         fill-rule="nonzero"
         id="path209" />
    </g>
  </g>
  <g
     clip-path="url(#eda93282ab)"
     id="g219">
    <g
       clip-path="url(#7240951378)"
       id="g217">
      <path
         fill="#ffffff"
         d="M 129.820312 120.207031 L 245.679688 120.207031 L 245.679688 237.292969 L 129.820312 237.292969 Z M 129.820312 120.207031 "
         fill-opacity="0.0"
         fill-rule="nonzero"
         id="path215" />
    </g>
  </g>
  <g
     clip-path="url(#04ee3213b9)"
     id="g225">
    <g
       clip-path="url(#a8a5af6aba)"
       id="g223">
      <path
         fill="#131313"
         d="M 129.820312 120.207031 L 245.679688 120.207031 L 245.679688 237.292969 L 129.820312 237.292969 Z M 129.820312 120.207031 "
         fill-opacity="1"
         fill-rule="nonzero"
         id="path221" />
    </g>
  </g>
  <g
     clip-path="url(#5d594f0049)"
     id="g231">
    <g
       clip-path="url(#bf3bb7c79e)"
       id="g229">
      <path
         fill="#ffffff"
         d="M 129.820312 120.207031 L 245.679688 120.207031 L 245.679688 237.292969 L 129.820312 237.292969 Z M 129.820312 120.207031 "
         fill-opacity="0.0"
         fill-rule="nonzero"
         id="path227" />
    </g>
  </g>
  <g
     clip-path="url(#e6513ec063)"
     id="g237">
    <g
       clip-path="url(#1c3da73c8b)"
       id="g235">
      <path
         fill="#131313"
         d="M 129.820312 120.207031 L 245.679688 120.207031 L 245.679688 237.292969 L 129.820312 237.292969 Z M 129.820312 120.207031 "
         fill-opacity="1"
         fill-rule="nonzero"
         id="path233" />
    </g>
  </g>
  <g
     clip-path="url(#c6e1d32608)"
     id="g243">
    <g
       clip-path="url(#62549dfced)"
       id="g241">
      <path
         fill="#ffffff"
         d="M 129.820312 120.207031 L 245.679688 120.207031 L 245.679688 237.292969 L 129.820312 237.292969 Z M 129.820312 120.207031 "
         fill-opacity="0.0"
         fill-rule="nonzero"
         id="path239" />
    </g>
  </g>
  <g
     clip-path="url(#ae1c89ffe0)"
     id="g249">
    <g
       clip-path="url(#284bb69e82)"
       id="g247">
      <path
         fill="#131313"
         d="M 129.820312 120.207031 L 245.679688 120.207031 L 245.679688 237.292969 L 129.820312 237.292969 Z M 129.820312 120.207031 "
         fill-opacity="1"
         fill-rule="nonzero"
         id="path245" />
    </g>
  </g>
  <g
     clip-path="url(#4800b084e0)"
     id="g255">
    <g
       clip-path="url(#326b732fd2)"
       id="g253">
      <path
         fill="#ffffff"
         d="M 129.820312 120.207031 L 245.679688 120.207031 L 245.679688 237.292969 L 129.820312 237.292969 Z M 129.820312 120.207031 "
         fill-opacity="0.0"
         fill-rule="nonzero"
         id="path251" />
    </g>
  </g>
  <g
     clip-path="url(#3724424a24)"
     id="g261">
    <g
       clip-path="url(#3a3ace4963)"
       id="g259">
      <path
         fill="#131313"
         d="M 129.820312 120.207031 L 245.679688 120.207031 L 245.679688 237.292969 L 129.820312 237.292969 Z M 129.820312 120.207031 "
         fill-opacity="1"
         fill-rule="nonzero"
         id="path257" />
    </g>
  </g>
  <g
     clip-path="url(#9cc84e510d)"
     id="g267">
    <g
       clip-path="url(#8e99e76c4c)"
       id="g265">
      <path
         fill="#ffffff"
         d="M 129.820312 120.207031 L 245.679688 120.207031 L 245.679688 237.292969 L 129.820312 237.292969 Z M 129.820312 120.207031 "
         fill-opacity="0.0"
         fill-rule="nonzero"
         id="path263" />
    </g>
  </g>
  <g
     clip-path="url(#5050485ac6)"
     id="g273">
    <g
       clip-path="url(#7505823b82)"
       id="g271">
      <path
         fill="#131313"
         d="M 129.820312 120.207031 L 245.679688 120.207031 L 245.679688 237.292969 L 129.820312 237.292969 Z M 129.820312 120.207031 "
         fill-opacity="1"
         fill-rule="nonzero"
         id="path269" />
    </g>
  </g>
</svg>
