<?xml version="1.0" encoding="UTF-8" standalone="no"?>
<svg
   xmlns:dc="http://purl.org/dc/elements/1.1/"
   xmlns:cc="http://creativecommons.org/ns#"
   xmlns:rdf="http://www.w3.org/1999/02/22-rdf-syntax-ns#"
   xmlns:svg="http://www.w3.org/2000/svg"
   xmlns="http://www.w3.org/2000/svg"
   xmlns:sodipodi="http://sodipodi.sourceforge.net/DTD/sodipodi-0.dtd"
   xmlns:inkscape="http://www.inkscape.org/namespaces/inkscape"
   width="143.07384"
   zoomAndPan="magnify"
   viewBox="0 0 107.30538 106.72782"
   height="142.30376"
   preserveAspectRatio="xMidYMid meet"
   version="1.0"
   id="svg275"
   sodipodi:docname="logo_bw.svg"
   inkscape:version="0.92.4 (5da689c313, 2019-01-14)">
  <metadata
     id="metadata279">
    <rdf:RDF>
      <cc:Work
         rdf:about="">
        <dc:format>image/svg+xml</dc:format>
        <dc:type
           rdf:resource="http://purl.org/dc/dcmitype/StillImage" />
        <dc:title></dc:title>
      </cc:Work>
    </rdf:RDF>
  </metadata>
  <sodipodi:namedview
     pagecolor="#ffffff"
     bordercolor="#666666"
     borderopacity="1"
     objecttolerance="10"
     gridtolerance="10"
     guidetolerance="10"
     inkscape:pageopacity="0"
     inkscape:pageshadow="2"
     inkscape:window-width="1920"
     inkscape:window-height="1046"
     id="namedview277"
     showgrid="false"
     inkscape:zoom="1.9790356"
     inkscape:cx="-31.872659"
     inkscape:cy="53.835735"
     inkscape:window-x="-11"
     inkscape:window-y="-11"
     inkscape:window-maximized="1"
     inkscape:current-layer="svg275"
     fit-margin-top="0"
     fit-margin-left="0"
     fit-margin-right="0"
     fit-margin-bottom="0" />
  <defs
     id="defs113">
    <clipPath
       id="f67f28b2dd">
      <path
         d="m 87,307 h 107 v 31.37891 H 87 Z m 0,0"
         id="path2"
         inkscape:connector-curvature="0"
         style="clip-rule:nonzero" />
    </clipPath>
    <clipPath
       id="978dda37dd">
      <path
         d="M 161,19.101562 H 328 V 119 H 161 Z m 0,0"
         id="path5"
         inkscape:connector-curvature="0"
         style="clip-rule:nonzero" />
    </clipPath>
    <clipPath
       id="b3e9e9b9ad">
      <path
         d="M 63.554688,274 H 279 v 57 H 63.554688 Z m 0,0"
         id="path8"
         inkscape:connector-curvature="0"
         style="clip-rule:nonzero" />
    </clipPath>
    <clipPath
       id="f46eae8132">
      <path
         d="m 227.875,215.71094 z m -57.33203,9.9414 z m 31.71875,-94.91015 c 6.99219,1.92968 16.39453,11.37109 23.42578,18.53125 2.57422,2.61328 5.02344,5.15234 6.72266,6.38672 -0.0781,2.87109 0.80859,6.89062 1.57031,10.46875 0.74609,3.5039 1.45312,6.82812 1.55859,9.30078 0.56641,13.14843 -5.38281,26.08984 -8.875,33.66406 -0.875,1.89062 -1.72265,3.69531 -2.14844,5.04687 -1.22265,0.48829 -2.78125,1.46875 -4.32812,2.42188 -3.91406,2.40625 -9.59375,5.87109 -16.49609,8.03516 -6.375,1.98437 -11.91407,2.60156 -16.60157,2.60156 -4.57031,0 -8.33203,-0.57813 -11.26953,-1.03125 -1.64844,-0.25781 -3.32031,-0.52735 -4.75,-0.52735 -0.17969,0 -0.34765,0 -0.52734,0.0117 -1.53516,-1.73828 -5.15235,-3.64453 -8.29688,-5.35547 -3.84765,-2.09765 -7.77734,-4.27734 -10.19922,-6.32421 l 35.36719,-35.40235 z m -2.55078,-4.09766 -15.51953,49.98047 -37.25391,37.29687 1.14453,1.28907 c 2.65234,2.98828 8.08594,5.92187 12.41406,8.29297 4.07032,2.21484 6.71094,3.74609 7.30078,4.54687 l 0.23438,2.08594 2.17578,-0.76172 h 0.0117 c 0.19531,-0.0625 0.45312,-0.0898 0.78516,-0.0898 0.82421,0 2.15234,0.17968 4.25,0.5039 2.91015,0.44922 6.71093,1.02735 11.34765,1.06641 h 0.95313 c 4.8789,-0.0391 10.64843,-0.70703 17.21875,-2.75391 7.39062,-2.30469 13.41797,-6 17.32031,-8.41015 2.29297,-1.40235 3.46484,-2.08594 3.95312,-2.21485 l 1.77735,0.10156 0.0508,-1.86718 c 0.0508,-0.53907 0.74609,-2.09766 2.11328,-5.0586 3.44922,-7.47265 9.8125,-21.19922 9.20703,-35.36718 -0.1289,-2.84375 -0.91406,-6.51563 -1.63672,-9.90235 -0.97656,-4.58203 -1.76172,-8.43359 -1.42968,-10.39062 l 0.28515,-1.60938 -1.53125,-0.45312 0.0117,0.0117 c -0.77344,-0.33204 -3.01172,-2.54688 -6.59375,-6.20704 -7.00391,-7.14453 -18.36328,-18.86328 -27.07031,-19.91015 l -1.50781,-0.17969 z m 0,0"
         id="path14"
         inkscape:connector-curvature="0"
         style="clip-rule:nonzero" />
    </clipPath>
    <clipPath
       id="038e1e2f7b">
      <path
         d="M 149.28125,128.4375 H 238 v 100.625 h -88.71875 z m 0,0"
         id="path17"
         inkscape:connector-curvature="0"
         style="clip-rule:nonzero" />
    </clipPath>
    <clipPath
       id="5702915f4f">
      <path
         d="M 201.01172,128.64062 185.80078,177.59375 149.43359,214 c 4.71485,5.29297 19.84766,10.93359 20.15625,13.66406 0.38672,-0.14062 0.875,-0.19531 1.44141,-0.19531 2.97656,0 8.39453,1.57422 16.04687,1.57422 4.83985,0 10.57422,-0.63281 17.15235,-2.67969 11.52734,-3.59375 19.65234,-10.70312 21.77734,-10.70312 0.0117,0 0.0391,0 0.0508,0 0.0781,-3.16797 12.14453,-21.41797 11.32032,-40.28125 -0.25782,-6.04297 -3.78516,-16.39454 -3.03907,-20.69532 -3.42578,-1.00781 -21.58203,-24.63672 -33.32812,-26.04297 z m 0,0"
         id="path20"
         inkscape:connector-curvature="0"
         style="clip-rule:nonzero" />
    </clipPath>
    <clipPath
       id="ec607f7ed2">
      <path
         d="m 138,128 h 85 v 92.82812 h -85 z m 0,0"
         id="path29"
         inkscape:connector-curvature="0"
         style="clip-rule:nonzero" />
    </clipPath>
    <clipPath
       id="94079f0caa">
      <path
         d="m 196.57031,128.30859 c -9.41406,0 -19.84765,3.29688 -25.57812,3.29688 -1.04297,0 -1.91797,-0.10547 -2.61328,-0.36328 -2.41016,8.1914 -14.23047,15.09375 -19.17579,22.74609 -5.05078,7.82813 -6.3125,23.32031 -10.82031,26.53906 2.9375,4.45703 2.91406,29.45313 14.64453,37.02735 3.6836,2.36718 9.2461,3.03906 14.84766,3.03906 7.08203,0 14.19141,-1.07031 17.52734,-1.07031 0.6836,0 1.19922,0.0391 1.53516,0.15625 0.97656,-1.27735 10.45703,-9.77735 14.74219,-9.77735 0.0156,0 0.0391,0 0.0547,0 0.55079,-3.9375 7.6875,-10.32812 10.76563,-15.08984 15.36328,-23.83984 13.64844,-52.30078 -3.82422,-63.57031 -3.40234,-2.1875 -7.63672,-2.9336 -12.10547,-2.9336 z m 0,0"
         id="path32"
         inkscape:connector-curvature="0"
         style="clip-rule:nonzero" />
    </clipPath>
    <clipPath
       id="5feb63cc10">
      <path
         d="m 208.56641,210 h 7.69531 v 5.79687 h -7.69531 z m 0,0"
         id="path35"
         inkscape:connector-curvature="0"
         style="clip-rule:nonzero" />
    </clipPath>
    <clipPath
       id="f1d37a82fb">
      <path
         d="m 215.92578,211.01172 c -1.6875,1.45312 -1.99609,2.08594 -2.62891,4.07031 l -0.16796,0.51563 -0.48829,-0.21875 c -1.80468,-0.8125 -2.1875,-0.85157 -3.35937,-0.64454 l -0.51563,-0.1289 0.0898,-0.77344 0.25781,-0.0508 c 1.42969,-0.24609 2.01953,-0.14063 3.92578,0.71875 l -0.1914,0.4375 -0.46485,-0.14063 c 0.67188,-2.125 1.07031,-2.92187 2.91016,-4.51953 l 0.5039,-0.15625 0.32032,0.71094 z m 0,0"
         id="path38"
         inkscape:connector-curvature="0"
         style="clip-rule:nonzero" />
    </clipPath>
    <clipPath
       id="9d3d352ef2">
      <path
         d="m 177,178 h 28 v 35 h -28 z m 0,0"
         id="path41"
         inkscape:connector-curvature="0"
         style="clip-rule:nonzero" />
    </clipPath>
    <clipPath
       id="339be3d7bd">
      <path
         d="m 187.73437,178.55859 c -2.34375,-1.50781 -6.73437,2.40625 -7.1875,6.23438 l -2.91015,24.8789 c -1.49219,12.73829 33.21484,-16.21484 25.39844,-21.25 z m 0,0"
         id="path44"
         inkscape:connector-curvature="0"
         style="clip-rule:nonzero" />
    </clipPath>
    <clipPath
       id="39503e1090">
      <path
         d="m 177,177 h 27.94922 v 37 H 177 Z m 0,0"
         id="path47"
         inkscape:connector-curvature="0"
         style="clip-rule:nonzero" />
    </clipPath>
    <clipPath
       id="88f6598873">
      <path
         d="m 187.44922,179.00781 c -1.22266,-0.78515 -3.64453,0.42578 -5.23828,2.91016 l -1.1211,2.9375 -2.91015,24.86719 c -0.21875,1.90625 0.41015,2.48828 1.3125,2.58984 5.53906,0.64453 23.34765,-14.5 24.13281,-21.28906 l -0.16797,-1.71094 -16.01953,-10.31641 m 0.57812,-0.90234 -0.28125,0.45312 0.28125,-0.45312 15.30079,9.86719 -0.28125,0.44922 0.28125,-0.44922 c 1.13281,0.73437 1.50781,1.8789 1.35156,3.1914 -0.84766,7.27735 -19.10938,22.94922 -25.31641,22.21485 -1.73828,-0.20313 -2.51172,-1.5586 -2.2539,-3.77344 l 0.52734,0.0664 -0.52734,-0.0664 2.92187,-24.86719 0.52734,0.0664 -0.52734,-0.0664 c 0.14063,-1.18359 0.61719,-2.37109 1.28906,-3.39844 1.5586,-2.42187 4.58203,-4.59765 6.70703,-3.21875 z m 0,0"
         id="path50"
         inkscape:connector-curvature="0"
         style="clip-rule:nonzero" />
    </clipPath>
    <clipPath
       id="eda93282ab">
      <path
         d="m 151,181 h 28 v 35 h -28 z m 0,0"
         id="path53"
         inkscape:connector-curvature="0"
         style="clip-rule:nonzero" />
    </clipPath>
    <clipPath
       id="7240951378">
      <path
         d="m 178.21875,185.53906 c 0.64062,-3.86328 -3.15625,-5.71875 -6.06641,-3.18359 l -18.98437,16.53906 c -9.72266,8.46094 18.72656,24.72656 20.86328,11.85938 z m 0,0"
         id="path56"
         inkscape:connector-curvature="0"
         style="clip-rule:nonzero" />
    </clipPath>
    <clipPath
       id="04ee3213b9">
      <path
         d="m 150,180.12109 h 29 V 217 h -29 z m 0,0"
         id="path59"
         inkscape:connector-curvature="0"
         style="clip-rule:nonzero" />
    </clipPath>
    <clipPath
       id="a8a5af6aba">
      <path
         d="m 177.6875,185.46094 c 0.34766,-2.13672 -0.78516,-3.45313 -2.19922,-3.6836 -0.89062,-0.14062 -1.97266,0.11719 -2.97656,0.99219 l -18.9961,16.52344 -0.34765,-0.39844 0.34765,0.39844 c -2.84375,2.47265 -2.14843,5.70312 0.51563,8.78125 4.63672,5.32031 14.14062,8.9375 17.88672,5.67969 0.77344,-0.66797 1.33984,-1.67188 1.58594,-3.08985 l 4.18359,-25.20312 0.53125,0.0898 -0.53125,-0.0898 m 1.05859,0.17968 -4.19922,25.20313 -0.52734,-0.0898 0.52734,0.0898 c -0.26953,1.62109 -0.9414,2.85937 -1.93359,3.72266 -4.51953,3.9414 -14.74219,-0.46485 -19.37891,-5.78125 -2.80859,-3.23438 -3.9414,-7.21485 -0.41406,-10.27735 l 18.98438,-16.55078 0.34765,0.39844 -0.34765,-0.39844 c 1.21093,-1.05469 2.61328,-1.45312 3.84765,-1.25 2.0625,0.34766 3.51953,2.26953 3.07813,4.91016 z m 0,0"
         id="path62"
         inkscape:connector-curvature="0"
         style="clip-rule:nonzero" />
    </clipPath>
    <clipPath
       id="5d594f0049">
      <path
         d="m 147,162 h 28 v 35 h -28 z m 0,0"
         id="path65"
         inkscape:connector-curvature="0"
         style="clip-rule:nonzero" />
    </clipPath>
    <clipPath
       id="bf3bb7c79e">
      <path
         d="m 171.64844,180.02734 c 2.96093,-2.42187 3.45312,-8.17968 0.9414,-9.36328 l -16.38281,-7.7539 c -8.38281,-3.96485 -13.73828,41.04296 -3.88672,32.96875 z m 0,0"
         id="path68"
         inkscape:connector-curvature="0"
         style="clip-rule:nonzero" />
    </clipPath>
    <clipPath
       id="c6e1d32608">
      <path
         d="m 187,150 h 28 v 35 h -28 z m 0,0"
         id="path77"
         inkscape:connector-curvature="0"
         style="clip-rule:nonzero" />
    </clipPath>
    <clipPath
       id="62549dfced">
      <path
         d="m 188.73828,176.82031 c -2.51172,-1.19922 -1.57031,-7.05859 1.39063,-9.46484 l 19.28125,-15.72656 c 9.86328,-8.04688 4.09375,37.05078 -4.27735,33.04687 z m 0,0"
         id="path80"
         inkscape:connector-curvature="0"
         style="clip-rule:nonzero" />
    </clipPath>
    <clipPath
       id="ae1c89ffe0">
      <path
         d="m 186,150 h 30 v 36 h -30 z m 0,0"
         id="path83"
         inkscape:connector-curvature="0"
         style="clip-rule:nonzero" />
    </clipPath>
    <clipPath
       id="284bb69e82">
      <path
         d="m 188.50781,177.30859 c -2.32031,-1.10547 -2.0625,-4.96875 -0.78515,-7.625 l 2.07031,-2.73047 0.33594,0.41407 -0.33594,-0.41407 19.28125,-15.73437 c 1.69922,-1.39063 3.24609,-1.45703 4.33984,-0.11719 3.95313,4.85547 0.55469,28.91016 -5.10156,33.52344 -1.01563,0.82422 -2.1875,1.12109 -3.39844,0.53906 l 0.23047,-0.47656 -0.23047,0.47656 -16.39453,-7.84375 m 0.46484,-0.96484 -0.23437,0.47656 0.23437,-0.47656 16.39454,7.84375 c 0.75781,0.35937 1.49218,0.23047 2.26562,-0.39844 5.26563,-4.30078 8.48438,-27.70312 4.95703,-32.01562 -0.5664,-0.69532 -1.39062,-0.91407 -2.84375,0.26953 l -0.33594,-0.41407 0.33594,0.41407 -19.29297,15.71093 c -0.72265,0.59375 -1.33984,1.42969 -1.78906,2.3711 -1.30078,2.71484 -1.05859,5.5625 0.28125,6.20703 z m 0,0"
         id="path86"
         inkscape:connector-curvature="0"
         style="clip-rule:nonzero" />
    </clipPath>
    <clipPath
       id="4800b084e0">
      <path
         d="m 183,131.64062 h 27 v 35.21875 h -27 z m 0,0"
         id="path89"
         inkscape:connector-curvature="0"
         style="clip-rule:nonzero" />
    </clipPath>
    <clipPath
       id="326b732fd2">
      <path
         d="m 193.05469,131.97656 c -3.33594,0 -5.96485,1.41797 -6.44141,4.9961 l -3.28516,24.94531 c -0.34765,2.65625 1.28907,4.49609 3.27344,4.49609 0.88672,0 1.83985,-0.35937 2.73047,-1.18359 l 18.69922,-17.42578 c 6.86328,-6.40235 -6.40234,-15.82813 -14.97656,-15.82813 z m 0,0"
         id="path92"
         inkscape:connector-curvature="0"
         style="clip-rule:nonzero" />
    </clipPath>
    <clipPath
       id="3724424a24">
      <path
         d="M 182.32031,131 H 211 v 36 h -28.67969 z m 0,0"
         id="path95"
         inkscape:connector-curvature="0"
         style="clip-rule:nonzero" />
    </clipPath>
    <clipPath
       id="3a3ace4963">
      <path
         d="m 189.69141,165.61719 c -1.95704,1.82812 -4.36719,1.67187 -5.79688,0.14062 -0.85937,-0.92969 -1.3125,-2.30469 -1.10547,-3.90234 l 3.28516,-24.94531 0.52734,0.0625 -0.52734,-0.0625 c 0.60547,-4.63672 4.55859,-5.89844 8.79297,-5.33204 7.00781,0.92579 16.3164,7.01954 15.53125,12.95704 -0.16407,1.30078 -0.82422,2.53515 -2.03516,3.65625 l -0.35937,-0.38672 0.35937,0.38672 -18.67187,17.42578 -0.35938,-0.38672 0.35938,0.38672 m -0.73438,-0.78907 18.69922,-17.42187 c 1.05859,-0.98047 1.57031,-2.00781 1.69922,-3.02734 0.64453,-4.91797 -7.6211,-10.84375 -14.61719,-11.75782 -4.02734,-0.52734 -7.10547,0.6836 -7.59766,4.41797 l -3.28125,24.95703 -0.53125,-0.0625 0.53125,0.0625 c -0.16796,1.32813 0.20313,2.3711 0.82422,3.03907 0.97657,1.05859 2.70313,1.27734 4.28516,-0.19141 z m 0,0"
         id="path98"
         inkscape:connector-curvature="0"
         style="clip-rule:nonzero" />
    </clipPath>
    <clipPath
       id="9cc84e510d">
      <path
         d="m 156,134.38672 h 27.67578 V 169 H 156 Z m 0,0"
         id="path101"
         inkscape:connector-curvature="0"
         style="clip-rule:nonzero" />
    </clipPath>
    <clipPath
       id="8e99e76c4c">
      <path
         d="m 181.0625,134.69531 c -7.3125,0 -29.67188,20.65625 -23.11719,24.60938 l 15.50781,9.36328 c 0.3711,0.21875 0.78516,0.32031 1.23438,0.32031 2.44922,0 5.73047,-3.0625 6.05469,-6.26953 l 2.52343,-24.86719 c 0.23047,-2.23047 -0.64453,-3.15625 -2.20312,-3.15625 z m 0,0"
         id="path104"
         inkscape:connector-curvature="0"
         style="clip-rule:nonzero" />
    </clipPath>
    <clipPath
       id="5050485ac6">
      <path
         d="m 156,134 h 28 v 36 h -28 z m 0,0"
         id="path107"
         inkscape:connector-curvature="0"
         style="clip-rule:nonzero" />
    </clipPath>
    <clipPath
       id="7505823b82">
      <path
         d="m 181.26953,162.76953 c -0.35937,3.55469 -4.08203,7.03125 -6.91406,6.73438 l -0.8125,-0.16797 -15.87891,-9.58203 0.26953,-0.44922 -0.26953,0.44922 c -2.34375,-1.41407 -1.53515,-4.375 0.20703,-7.25 4.83985,-8.02344 20.26953,-20.65625 24.75,-17.94922 0.99219,0.58984 1.32813,1.77734 1.17188,3.35937 l -0.52735,-0.0508 0.52735,0.0508 -2.52344,24.86719 m -1.05469,-0.10156 0.52735,0.0508 -0.52735,-0.0508 2.52344,-24.86719 c 0.14063,-1.41797 -0.20703,-2.0625 -0.65625,-2.33203 -3.42578,-2.07422 -18.25,9.25781 -23.29687,17.60547 -1.83204,3.02343 -1.9336,4.95703 -0.56641,5.78125 l 15.50391,9.36328 -0.26954,0.44922 0.26954,-0.44922 0.46484,0.20703 0.26953,0.0234 c 2.09766,0.21875 5.43359,-2.65235 5.75781,-5.78125 z m 0,0"
         id="path110"
         inkscape:connector-curvature="0"
         style="clip-rule:nonzero" />
    </clipPath>
    <clipPath
       id="00077422c3-1">
      <path
         style="clip-rule:nonzero"
         inkscape:connector-curvature="0"
         d="M 146.56641,126.60938 H 240 v 104.28124 h -93.43359 z m 0,0"
         id="path11-0" />
    </clipPath>
    <clipPath
       id="f46eae8132-8">
      <path
         style="clip-rule:nonzero"
         inkscape:connector-curvature="0"
         d="m 227.875,215.71094 z m -57.33203,9.9414 z m 31.71875,-94.91015 c 6.99219,1.92968 16.39453,11.37109 23.42578,18.53125 2.57422,2.61328 5.02344,5.15234 6.72266,6.38672 -0.0781,2.87109 0.80859,6.89062 1.57031,10.46875 0.74609,3.5039 1.45312,6.82812 1.55859,9.30078 0.56641,13.14843 -5.38281,26.08984 -8.875,33.66406 -0.875,1.89062 -1.72265,3.69531 -2.14844,5.04687 -1.22265,0.48829 -2.78125,1.46875 -4.32812,2.42188 -3.91406,2.40625 -9.59375,5.87109 -16.49609,8.03516 -6.375,1.98437 -11.91407,2.60156 -16.60157,2.60156 -4.57031,0 -8.33203,-0.57813 -11.26953,-1.03125 -1.64844,-0.25781 -3.32031,-0.52735 -4.75,-0.52735 -0.17969,0 -0.34765,0 -0.52734,0.0117 -1.53516,-1.73828 -5.15235,-3.64453 -8.29688,-5.35547 -3.84765,-2.09765 -7.77734,-4.27734 -10.19922,-6.32421 l 35.36719,-35.40235 z m -2.55078,-4.09766 -15.51953,49.98047 -37.25391,37.29687 1.14453,1.28907 c 2.65234,2.98828 8.08594,5.92187 12.41406,8.29297 4.07032,2.21484 6.71094,3.74609 7.30078,4.54687 l 0.23438,2.08594 2.17578,-0.76172 h 0.0117 c 0.19531,-0.0625 0.45312,-0.0898 0.78516,-0.0898 0.82421,0 2.15234,0.17968 4.25,0.5039 2.91015,0.44922 6.71093,1.02735 11.34765,1.06641 h 0.95313 c 4.8789,-0.0391 10.64843,-0.70703 17.21875,-2.75391 7.39062,-2.30469 13.41797,-6 17.32031,-8.41015 2.29297,-1.40235 3.46484,-2.08594 3.95312,-2.21485 l 1.77735,0.10156 0.0508,-1.86718 c 0.0508,-0.53907 0.74609,-2.09766 2.11328,-5.0586 3.44922,-7.47265 9.8125,-21.19922 9.20703,-35.36718 -0.1289,-2.84375 -0.91406,-6.51563 -1.63672,-9.90235 -0.97656,-4.58203 -1.76172,-8.43359 -1.42968,-10.39062 l 0.28515,-1.60938 -1.53125,-0.45312 0.0117,0.0117 c -0.77344,-0.33204 -3.01172,-2.54688 -6.59375,-6.20704 -7.00391,-7.14453 -18.36328,-18.86328 -27.07031,-19.91015 l -1.50781,-0.17969 z m 0,0"
         id="path14-1" />
    </clipPath>
  </defs>
  <path
     id="path26"
     d="m 60.32425,3.10555 c 3,0 5.85938,0.34765 8.38282,1.27343 1.01953,0.375 1.97265,0.83594 2.85937,1.40235 16.29297,10.49609 18.49219,37.48828 3.69531,60.89062 l -0.33593,0.51563 c -1.07813,1.67187 -2.71485,3.58984 -4.46875,5.64062 -1.72266,2.01953 -3.56641,4.17188 -4.82813,6.12891 -0.5664,0.88672 -1.08203,1.8164 -1.40234,2.74219 -4.67578,1.0039 -11.82422,7.22656 -14.12891,9.53125 -0.32031,-0.0273 -0.66797,-0.0391 -1.04297,-0.0391 -1.57031,0 -3.64453,0.19141 -5.74218,0.38672 -3.49219,0.3086 -7.65235,0.66797 -11.73438,0.66797 -3.84766,0 -7.62109,-0.32031 -10.72656,-1.3125 L 17.6055,89.45317 C 10.21488,84.68755 7.75394,72.05473 5.96488,62.43364 5.35941,59.20317 4.80472,56.08598 4.01957,54.10161 6.3516,51.50005 7.75394,46.33598 9.09379,41.6602 c 1.45703,-5.05859 2.92187,-10.17187 5.13671,-13.60937 1.9336,-3.00391 5.02344,-5.91406 8.33594,-9.03125 3.25781,-3.0625 6.73438,-6.32031 8.98828,-9.8125 0.60547,-0.9375 1.13282,-1.91797 1.5586,-2.9336 0.5,0.0625 1.05468,0.0898 1.63281,0.0898 2.83594,0 6.42578,-0.69531 10.01953,-1.36719 C 49.7891,4.07031 55.26175,3.0664 60.32425,3.0664 Z M 60.28515,8e-5 c -5.52344,0 -11.2539,1.08203 -16.07031,1.98437 -4.09766,0.75781 -7.32813,1.32422 -9.50781,1.32422 -0.84766,0 -1.53125,-0.0898 -2.04688,-0.26953 L 31.10156,2.47273 30.64062,4.07039 28.96484,7.5743 c -1.99609,3.10156 -5.16406,6.08984 -8.5,9.23046 -3.23047,3.03907 -6.63281,6.23438 -8.80859,9.60938 C 9.13281,30.3282 7.54687,35.92976 6.13281,40.85164 4.41796,46.8243 3.0664,51.21883 1.23828,52.53133 L 0,53.36726 l 0.82421,1.25 c 0.69532,1.04297 1.27735,3.96485 2.10157,8.41016 1.6875,9.06641 4.23437,23.41016 13.00781,29.06641 l 3.97656,1.82812 c 3.46485,1.10547 7.625,1.45313 11.73438,1.45313 4.3125,0 8.57422,-0.38282 11.94922,-0.67969 2.66796,-0.23438 4.55859,-0.38672 5.65625,-0.38672 0.46093,0 0.78515,0.0234 0.96484,0.0898 l 1.04297,0.33594 0.66797,-0.86328 c 1.0039,-1.31641 10.07031,-9.17187 13.49609,-9.17187 h 0.0391 l 1.37891,0.0273 0.19531,-1.36719 c 0.0898,-0.6289 0.47656,-1.53125 1.22266,-2.6914 1.13281,-1.75 2.72467,-3.79008 4.58203,-5.79297 2.20746,-2.38042 2.36533,-2.32843 4.71484,-5.97657 C 93.12298,44.72523 91.79691,15.13281 73.25394,3.17968 L 69.77738,1.46875 C 66.8516,0.39844 63.60941,0 60.27347,0 Z"
     inkscape:connector-curvature="0"
     style="clip-rule:nonzero"
     sodipodi:nodetypes="cccccccccscscccccccccscccccscccccccccccccscscccsccccsscccc" />
  <g
     clip-path="url(#038e1e2f7b)"
     id="g183"
     transform="translate(-136.32201,-126.68633)">
    <g
       clip-path="url(#5702915f4f)"
       id="g181">
      <path
         d="M 129.82031,120.20703 H 245.67969 V 237.29297 H 129.82031 Z m 0,0"
         id="path179"
         inkscape:connector-curvature="0"
         style="fill:#ffffff;fill-opacity:0;fill-rule:nonzero" />
    </g>
  </g>
  <g
     clip-path="url(#ec607f7ed2)"
     id="g195"
     transform="translate(-136.32201,-126.68633)">
    <g
       clip-path="url(#94079f0caa)"
       id="g193">
      <path
         d="M 129.82031,120.20703 H 245.67969 V 237.29297 H 129.82031 Z m 0,0"
         id="path191"
         inkscape:connector-curvature="0"
         style="fill:#ffffff;fill-opacity:0;fill-rule:nonzero" />
    </g>
  </g>
  <g
     clip-path="url(#5feb63cc10)"
     id="g201"
     style="fill:#000000"
     transform="translate(-136.32201,-126.68633)">
    <g
       clip-path="url(#f1d37a82fb)"
       id="g199"
       style="fill:#000000">
      <path
         d="M 129.82031,120.20703 H 245.67969 V 237.29297 H 129.82031 Z m 0,0"
         id="path197"
         style="fill:#000000;fill-opacity:1;fill-rule:nonzero"
         inkscape:connector-curvature="0" />
    </g>
  </g>
  <g
     clip-path="url(#9d3d352ef2)"
     id="g207"
     transform="translate(-136.32201,-126.68633)">
    <g
       clip-path="url(#339be3d7bd)"
       id="g205">
      <path
         d="M 129.82031,120.20703 H 245.67969 V 237.29297 H 129.82031 Z m 0,0"
         id="path203"
         inkscape:connector-curvature="0"
         style="fill:#ffffff;fill-opacity:0;fill-rule:nonzero" />
    </g>
  </g>
  <g
     clip-path="url(#39503e1090)"
     id="g213"
     transform="translate(-136.32201,-126.68633)">
    <g
       clip-path="url(#88f6598873)"
       id="g211">
      <path
         d="M 129.82031,120.20703 H 245.67969 V 237.29297 H 129.82031 Z m 0,0"
         id="path209"
         inkscape:connector-curvature="0"
         style="fill:#131313;fill-opacity:1;fill-rule:nonzero" />
    </g>
  </g>
  <g
     clip-path="url(#eda93282ab)"
     id="g219"
     transform="translate(-136.32201,-126.68633)">
    <g
       clip-path="url(#7240951378)"
       id="g217">
      <path
         d="M 129.82031,120.20703 H 245.67969 V 237.29297 H 129.82031 Z m 0,0"
         id="path215"
         inkscape:connector-curvature="0"
         style="fill:#ffffff;fill-opacity:0;fill-rule:nonzero" />
    </g>
  </g>
  <g
     clip-path="url(#04ee3213b9)"
     id="g225"
     transform="translate(-136.32201,-126.68633)">
    <g
       clip-path="url(#a8a5af6aba)"
       id="g223">
      <path
         d="M 129.82031,120.20703 H 245.67969 V 237.29297 H 129.82031 Z m 0,0"
         id="path221"
         inkscape:connector-curvature="0"
         style="fill:#131313;fill-opacity:1;fill-rule:nonzero" />
    </g>
  </g>
  <g
     clip-path="url(#5d594f0049)"
     id="g231"
     transform="translate(-136.32201,-126.68633)">
    <g
       clip-path="url(#bf3bb7c79e)"
       id="g229">
      <path
         d="M 129.82031,120.20703 H 245.67969 V 237.29297 H 129.82031 Z m 0,0"
         id="path227"
         inkscape:connector-curvature="0"
         style="fill:#ffffff;fill-opacity:0;fill-rule:nonzero" />
    </g>
  </g>
  <path
     id="path74"
     d="m 34.99049,52.92695 c 2.4375,-1.99609 2.98828,-6.35937 1.64844,-7.99609 -0.11524,-0.23113 -0.36813,-0.37779 -0.60157,-0.48828 L 19.65455,36.68867 c -1.4414,-0.68359 -2.98828,0.47656 -4.50781,3.67187 -4.17188,8.8086 -5.53248,27.68634 -1.80469,29.14063 1.09447,0.42698 1.28733,0.11217 2.32031,-0.73438 L 34.99049,52.92695 m 0.68359,0.82422 -0.33593,-0.41016 0.33593,0.41016 -19.32812,15.83984 c -1.22656,1.00782 -2.41016,1.36719 -3.45313,0.87891 -4.72656,-2.24219 -2.71875,-22.08984 1.28907,-30.5625 1.42968,-3.02734 3.44921,-5.34375 5.92187,-4.17188 l -0.23047,0.47657 0.23047,-0.47657 16.38281,7.75391 c 0.38672,0.17969 0.70703,0.44922 0.96485,0.75781 1.80468,2.20313 0.96484,7.22657 -1.78907,9.49219 z"
     inkscape:connector-curvature="0"
     style="clip-rule:nonzero"
     sodipodi:nodetypes="ccsccsscccccccccccccc" />
  <g
     clip-path="url(#c6e1d32608)"
     id="g243"
     transform="translate(-136.32201,-126.68633)">
    <g
       clip-path="url(#62549dfced)"
       id="g241">
      <path
         d="M 129.82031,120.20703 H 245.67969 V 237.29297 H 129.82031 Z m 0,0"
         id="path239"
         inkscape:connector-curvature="0"
         style="fill:#ffffff;fill-opacity:0;fill-rule:nonzero" />
    </g>
  </g>
  <g
     clip-path="url(#ae1c89ffe0)"
     id="g249"
     transform="translate(-136.32201,-126.68633)">
    <g
       clip-path="url(#284bb69e82)"
       id="g247">
      <path
         d="M 129.82031,120.20703 H 245.67969 V 237.29297 H 129.82031 Z m 0,0"
         id="path245"
         inkscape:connector-curvature="0"
         style="fill:#131313;fill-opacity:1;fill-rule:nonzero" />
    </g>
  </g>
  <g
     clip-path="url(#4800b084e0)"
     id="g255"
     transform="translate(-136.32201,-126.68633)">
    <g
       clip-path="url(#326b732fd2)"
       id="g253">
      <path
         d="M 129.82031,120.20703 H 245.67969 V 237.29297 H 129.82031 Z m 0,0"
         id="path251"
         inkscape:connector-curvature="0"
         style="fill:#ffffff;fill-opacity:0;fill-rule:nonzero" />
    </g>
  </g>
  <g
     clip-path="url(#3724424a24)"
     id="g261"
     transform="translate(-136.32201,-126.68633)">
    <g
       clip-path="url(#3a3ace4963)"
       id="g259">
      <path
         d="M 129.82031,120.20703 H 245.67969 V 237.29297 H 129.82031 Z m 0,0"
         id="path257"
         inkscape:connector-curvature="0"
         style="fill:#131313;fill-opacity:1;fill-rule:nonzero" />
    </g>
  </g>
  <g
     clip-path="url(#9cc84e510d)"
     id="g267"
     transform="translate(-136.32201,-126.68633)">
    <g
       clip-path="url(#8e99e76c4c)"
       id="g265">
      <path
         d="M 129.82031,120.20703 H 245.67969 V 237.29297 H 129.82031 Z m 0,0"
         id="path263"
         inkscape:connector-curvature="0"
         style="fill:#ffffff;fill-opacity:0;fill-rule:nonzero" />
    </g>
  </g>
  <g
     clip-path="url(#5050485ac6)"
     id="g273"
     transform="translate(-136.32201,-126.68633)">
    <g
       clip-path="url(#7505823b82)"
       id="g271">
      <path
         d="M 129.82031,120.20703 H 245.67969 V 237.29297 H 129.82031 Z m 0,0"
         id="path269"
         inkscape:connector-curvature="0"
         style="fill:#131313;fill-opacity:1;fill-rule:nonzero" />
    </g>
  </g>
  <g
     id="g1223"
     clip-path="none"
     transform="translate(251.7488,-97.46437)"
     style="stroke-width:2.83464575;stroke-miterlimit:4;stroke-dasharray:none">
    <path
       id="path1232"
       d="m -237.03926,186.60849 1.12622,1.26846 c 2.60992,2.94048 7.95661,5.82715 12.21551,8.16032 4.00521,2.17942 6.6036,3.68618 7.184,4.47415 l 0.6096,1.57886 2.14098,-0.74954 h 0.0115 c 0.19218,-0.0615 0.44587,-0.0884 0.7726,-0.0884 0.81103,0 2.11791,0.1768 4.18202,0.49584 2.86361,0.44203 6.60359,1.01091 11.16615,1.04935 h 0.93789 c 4.80086,-0.0385 10.47811,-0.69572 16.94334,-2.70986 7.27241,-2.26783 13.20336,-5.90404 17.04328,-8.27564 2.2563,-1.37992 3.40942,-2.05257 3.88989,-2.17942 l 1.74893,0.0999 0.05,-1.83731 c 0.05,-0.53045 0.73416,-2.06411 2.07948,-4.97769 3.39405,-7.35313 9.65556,-20.86015 9.05977,-34.8015 -0.12684,-2.79827 -0.89944,-6.41142 -1.61054,-9.74397 -0.96094,-4.50874 -1.73354,-8.2987 -1.40681,-10.22443 l 0.28058,-1.58363 -1.50675,-0.44588 0.0115,0.0115 c -0.76107,-0.32673 -2.96355,-2.50615 -6.48829,-6.10776 -6.89188,-7.03026 -18.06957,-18.56158 -26.63733,-19.5917"
       inkscape:connector-curvature="0"
       style="clip-rule:nonzero;fill:none;stroke:#000000;stroke-width:2.78930688;stroke-miterlimit:4;stroke-dasharray:none;stroke-opacity:1"
       sodipodi:nodetypes="cccccccsccccccccccccccccc" />
  </g>
</svg>
