<svg xmlns="http://www.w3.org/2000/svg" xmlns:xlink="http://www.w3.org/1999/xlink" width="501" zoomAndPan="magnify" viewBox="0 0 375.75 357.749992" height="477" preserveAspectRatio="xMidYMid meet" version="1.0"><defs><clipPath id="1b60baf26a"><path d="M 59 20.132812 L 350 20.132812 L 350 348 L 59 348 Z M 59 20.132812 " clip-rule="nonzero"/></clipPath><clipPath id="4a2f7a5969"><path d="M 313.921875 300.308594 Z M 133.640625 331.570312 Z M 233.378906 33.125 C 255.367188 39.199219 284.925781 68.882812 307.039062 91.394531 C 315.136719 99.617188 322.832031 107.59375 328.175781 111.480469 C 327.933594 120.511719 330.726562 133.144531 333.117188 144.402344 C 335.464844 155.417969 337.691406 165.867188 338.015625 173.640625 C 339.796875 214.984375 321.089844 255.683594 310.117188 279.492188 C 307.363281 285.445312 304.6875 291.117188 303.351562 295.367188 C 299.503906 296.90625 294.605469 299.984375 289.746094 302.980469 C 277.4375 310.554688 259.578125 321.445312 237.871094 328.25 C 217.828125 334.484375 200.414062 336.429688 185.675781 336.429688 C 171.300781 336.429688 159.476562 334.605469 150.242188 333.191406 C 145.058594 332.378906 139.792969 331.53125 135.300781 331.53125 C 134.734375 331.53125 134.207031 331.53125 133.640625 331.570312 C 128.820312 326.101562 117.441406 320.109375 107.5625 314.722656 C 95.453125 308.125 83.101562 301.28125 75.488281 294.839844 L 186.6875 183.523438 Z M 225.359375 20.246094 L 176.5625 177.40625 L 59.414062 294.679688 L 63.015625 298.730469 C 71.359375 308.125 88.449219 317.355469 102.054688 324.808594 C 114.851562 331.773438 123.152344 336.589844 125.015625 339.101562 L 125.742188 345.664062 L 132.585938 343.273438 L 132.628906 343.273438 C 133.234375 343.070312 134.042969 342.988281 135.097656 342.988281 C 137.6875 342.988281 141.859375 343.554688 148.460938 344.570312 C 157.613281 345.984375 169.558594 347.808594 184.136719 347.929688 L 187.132812 347.929688 C 202.480469 347.808594 220.621094 345.703125 241.273438 339.265625 C 264.519531 332.015625 283.46875 320.394531 295.738281 312.820312 C 302.949219 308.40625 306.632812 306.261719 308.171875 305.855469 L 313.761719 306.179688 L 313.921875 300.308594 C 314.082031 298.609375 316.269531 293.707031 320.5625 284.394531 C 331.414062 260.90625 351.417969 217.738281 349.515625 173.195312 C 349.113281 164.246094 346.640625 152.707031 344.375 142.054688 C 341.296875 127.640625 338.824219 115.53125 339.878906 109.375 L 340.769531 104.3125 L 335.949219 102.898438 L 335.992188 102.9375 C 333.5625 101.882812 326.515625 94.917969 315.257812 83.417969 C 293.230469 60.945312 257.511719 24.09375 230.136719 20.8125 L 225.402344 20.246094 Z M 225.359375 20.246094 " clip-rule="nonzero"/></clipPath><clipPath id="b2a8d89285"><path d="M 67 26 L 344 26 L 344 342.28125 L 67 342.28125 Z M 67 26 " clip-rule="nonzero"/></clipPath><clipPath id="c5d4fb360d"><path d="M 229.449219 26.523438 L 181.625 180.445312 L 67.269531 294.921875 C 82.089844 311.566406 129.671875 329.300781 130.644531 337.886719 C 131.859375 337.441406 133.398438 337.28125 135.179688 337.28125 C 144.53125 337.28125 161.582031 342.21875 185.632812 342.21875 C 200.859375 342.21875 218.882812 340.234375 239.574219 333.796875 C 275.816406 322.5 301.367188 300.144531 308.050781 300.144531 C 308.089844 300.144531 308.171875 300.144531 308.210938 300.144531 C 308.453125 290.183594 346.398438 232.804688 343.808594 173.480469 C 342.996094 154.488281 331.902344 121.929688 334.25 108.402344 C 323.480469 105.246094 266.382812 30.9375 229.449219 26.523438 Z M 229.449219 26.523438 " clip-rule="nonzero"/></clipPath><clipPath id="8b77ff5002"><path d="M 25.519531 20.132812 L 304 20.132812 L 304 320.710938 L 25.519531 320.710938 Z M 25.519531 20.132812 " clip-rule="nonzero"/></clipPath><clipPath id="5a53c9816e"><path d="M 215.519531 30.371094 C 224.953125 30.371094 233.945312 31.464844 241.882812 34.378906 C 245.082031 35.554688 248.078125 37.011719 250.871094 38.792969 C 302.097656 71.796875 309.023438 156.671875 262.492188 230.253906 L 261.441406 231.871094 C 258.039062 237.136719 252.894531 243.171875 247.390625 249.609375 C 241.960938 255.964844 236.171875 262.730469 232.203125 268.882812 C 230.421875 271.679688 228.800781 274.59375 227.789062 277.511719 C 213.089844 280.667969 190.617188 300.226562 183.367188 307.476562 C 182.355469 307.394531 181.261719 307.355469 180.085938 307.355469 C 175.148438 307.355469 168.628906 307.960938 162.027344 308.570312 C 151.050781 309.542969 137.972656 310.675781 125.136719 310.675781 C 113.027344 310.675781 101.164062 309.664062 91.402344 306.542969 L 81.199219 301.886719 C 57.957031 286.90625 50.21875 247.179688 44.59375 216.929688 C 42.6875 206.765625 40.949219 196.964844 38.476562 190.730469 C 45.808594 182.550781 50.21875 166.3125 54.433594 151.613281 C 59.007812 135.699219 63.625 119.621094 70.589844 108.808594 C 76.664062 99.375 86.382812 90.222656 96.789062 80.421875 C 107.035156 70.785156 117.96875 60.539062 125.054688 49.566406 C 126.957031 46.609375 128.617188 43.53125 129.953125 40.332031 C 131.535156 40.535156 133.273438 40.617188 135.097656 40.617188 C 144.007812 40.617188 155.304688 38.429688 166.601562 36.324219 C 182.394531 33.40625 199.605469 30.25 215.519531 30.25 Z M 215.398438 20.613281 C 198.027344 20.613281 180.007812 24.011719 164.859375 26.847656 C 151.984375 29.238281 141.820312 31.019531 134.976562 31.019531 C 132.304688 31.019531 130.15625 30.734375 128.539062 30.167969 L 123.636719 28.386719 L 122.179688 33.40625 L 116.914062 44.421875 C 110.636719 54.183594 100.675781 63.578125 90.1875 73.457031 C 80.023438 83.015625 69.335938 93.058594 62.492188 103.667969 C 54.554688 115.976562 49.574219 133.59375 45.117188 149.0625 C 39.734375 167.851562 35.480469 181.660156 29.730469 185.789062 L 25.84375 188.421875 L 28.433594 192.347656 C 30.621094 195.628906 32.445312 204.820312 35.035156 218.792969 C 40.339844 247.300781 48.359375 292.410156 75.933594 310.1875 L 88.449219 315.9375 C 99.339844 319.421875 112.421875 320.515625 125.339844 320.515625 C 138.902344 320.515625 152.308594 319.300781 162.917969 318.367188 C 171.300781 317.640625 177.253906 317.152344 180.695312 317.152344 C 182.152344 317.152344 183.164062 317.234375 183.730469 317.4375 L 187.011719 318.492188 L 189.117188 315.777344 C 192.277344 311.648438 220.785156 286.945312 231.554688 286.945312 C 231.597656 286.945312 231.636719 286.945312 231.675781 286.945312 L 236.011719 287.027344 L 236.617188 282.734375 C 236.902344 280.75 238.117188 277.914062 240.464844 274.269531 C 244.027344 268.761719 249.292969 262.566406 254.878906 256.046875 C 256.824219 253.78125 258.808594 251.472656 260.710938 249.164062 L 260.710938 251.230469 L 269.703125 237.257812 C 318.660156 161.25 314.488281 68.191406 256.175781 30.613281 L 245.242188 25.226562 C 236.050781 21.867188 225.847656 20.613281 215.359375 20.613281 Z M 215.398438 20.613281 " clip-rule="nonzero"/></clipPath><clipPath id="d09372961c"><path d="M 32 25 L 299 25 L 299 316 L 32 316 Z M 32 25 " clip-rule="nonzero"/></clipPath><clipPath id="54abb001b5"><path d="M 215.480469 25.472656 C 185.878906 25.472656 153.078125 35.835938 135.058594 35.835938 C 131.777344 35.835938 129.023438 35.515625 126.835938 34.703125 C 119.265625 60.457031 82.089844 82.164062 66.539062 106.21875 C 50.667969 130.839844 46.699219 179.554688 32.523438 189.675781 C 41.757812 203.6875 41.675781 282.289062 78.566406 306.097656 C 90.148438 313.550781 107.640625 315.65625 125.257812 315.65625 C 147.527344 315.65625 169.882812 312.292969 180.371094 312.292969 C 182.515625 312.292969 184.136719 312.417969 185.1875 312.78125 C 188.265625 308.773438 218.070312 282.046875 231.554688 282.046875 C 231.597656 282.046875 231.675781 282.046875 231.71875 282.046875 C 233.457031 269.652344 255.894531 249.570312 265.570312 234.585938 C 313.882812 159.628906 308.496094 70.136719 253.542969 34.703125 C 242.855469 27.820312 229.53125 25.472656 215.480469 25.472656 Z M 215.480469 25.472656 " clip-rule="nonzero"/></clipPath><clipPath id="86dd3e9baa"><path d="M 253.210938 282 L 277 282 L 277 300 L 253.210938 300 Z M 253.210938 282 " clip-rule="nonzero"/></clipPath><clipPath id="8453d5ea87"><path d="M 276.34375 285.527344 C 271.039062 290.105469 270.066406 292.089844 268.082031 298.324219 L 267.554688 299.945312 L 266.015625 299.253906 C 260.347656 296.703125 259.132812 296.582031 255.449219 297.230469 L 253.828125 296.824219 L 254.109375 294.394531 L 254.921875 294.234375 C 259.417969 293.464844 261.277344 293.789062 267.273438 296.5 L 266.664062 297.878906 L 265.207031 297.433594 C 267.3125 290.75 268.566406 288.242188 274.359375 283.21875 L 275.9375 282.734375 L 276.949219 284.960938 Z M 276.34375 285.527344 " clip-rule="nonzero"/></clipPath><clipPath id="57b31f909f"><path d="M 155 182 L 240 182 L 240 292 L 155 292 Z M 155 182 " clip-rule="nonzero"/></clipPath><clipPath id="5c4d26c656"><path d="M 187.699219 183.480469 C 180.328125 178.742188 166.519531 191.054688 165.105469 203.082031 L 155.953125 281.316406 C 151.253906 321.367188 260.386719 230.332031 235.808594 214.5 Z M 187.699219 183.480469 " clip-rule="nonzero"/></clipPath><clipPath id="d0b8d37aae"><path d="M 154 180 L 241.824219 180 L 241.824219 294 L 154 294 Z M 154 180 " clip-rule="nonzero"/></clipPath><clipPath id="7a578225f1"><path d="M 186.808594 184.898438 C 182.960938 182.429688 175.347656 186.234375 170.328125 194.050781 L 166.804688 203.28125 L 157.652344 281.476562 C 156.964844 287.472656 158.949219 289.292969 161.785156 289.617188 C 179.195312 291.640625 235.199219 244.019531 237.671875 222.679688 L 237.144531 217.292969 L 186.769531 184.859375 M 188.589844 182.023438 L 187.699219 183.441406 L 188.589844 182.023438 L 236.699219 213.042969 L 235.808594 214.460938 L 236.699219 213.042969 C 240.261719 215.351562 241.4375 218.953125 240.949219 223.085938 C 238.277344 245.964844 180.855469 295.246094 161.339844 292.9375 C 155.871094 292.289062 153.441406 288.039062 154.25 281.074219 L 155.910156 281.277344 L 154.25 281.074219 L 163.445312 202.878906 L 165.105469 203.082031 L 163.445312 202.878906 C 163.890625 199.152344 165.386719 195.425781 167.492188 192.1875 C 172.394531 184.574219 181.910156 177.730469 188.589844 182.0625 Z M 188.589844 182.023438 " clip-rule="nonzero"/></clipPath><clipPath id="d09a1d5a5e"><path d="M 72 191 L 158 191 L 158 300 L 72 300 Z M 72 191 " clip-rule="nonzero"/></clipPath><clipPath id="1ec5118d69"><path d="M 157.773438 205.429688 C 159.800781 193.28125 147.851562 187.449219 138.703125 195.425781 L 79.011719 247.421875 C 48.4375 274.027344 137.890625 325.171875 144.613281 284.71875 Z M 157.773438 205.429688 " clip-rule="nonzero"/></clipPath><clipPath id="df4cccf94d"><path d="M 70 190 L 160 190 L 160 302 L 70 302 Z M 70 190 " clip-rule="nonzero"/></clipPath><clipPath id="7bffcdc0fa"><path d="M 156.113281 205.1875 C 157.207031 198.464844 153.644531 194.332031 149.191406 193.605469 C 146.394531 193.160156 142.992188 193.96875 139.835938 196.722656 L 80.105469 248.675781 L 79.011719 247.421875 L 80.105469 248.675781 C 71.15625 256.453125 73.34375 266.617188 81.726562 276.296875 C 96.304688 293.019531 126.1875 304.398438 137.972656 294.152344 C 140.402344 292.046875 142.183594 288.890625 142.953125 284.433594 L 156.113281 205.1875 L 157.773438 205.46875 L 156.113281 205.1875 M 159.433594 205.753906 L 146.234375 285 L 144.574219 284.71875 L 146.234375 285 C 145.382812 290.105469 143.277344 293.992188 140.160156 296.703125 C 125.945312 309.09375 93.792969 295.246094 79.214844 278.523438 C 70.386719 268.359375 66.824219 255.84375 77.917969 246.207031 L 137.609375 194.171875 L 138.703125 195.425781 L 137.609375 194.171875 C 141.414062 190.851562 145.828125 189.597656 149.714844 190.242188 C 156.195312 191.335938 160.769531 197.371094 159.394531 205.671875 Z M 159.433594 205.753906 " clip-rule="nonzero"/></clipPath><clipPath id="fcdb3ab27f"><path d="M 59 133 L 146 133 L 146 241 L 59 241 Z M 59 133 " clip-rule="nonzero"/></clipPath><clipPath id="b0b430b392"><path d="M 137.121094 188.097656 C 146.4375 180.484375 147.976562 162.382812 140.078125 158.65625 L 88.570312 134.28125 C 62.207031 121.808594 45.359375 263.335938 76.339844 237.945312 Z M 137.121094 188.097656 " clip-rule="nonzero"/></clipPath><clipPath id="e978a2009b"><path d="M 57 131 L 147 131 L 147 243 L 57 243 Z M 57 131 " clip-rule="nonzero"/></clipPath><clipPath id="2849ca1bc1"><path d="M 136.070312 186.800781 C 143.722656 180.523438 145.464844 166.796875 141.253906 161.65625 L 140.078125 160.480469 L 140.078125 158.617188 L 139.347656 160.117188 L 87.839844 135.738281 C 83.304688 133.59375 78.445312 137.238281 73.667969 147.277344 C 60.546875 174.976562 56.617188 233.53125 67.996094 238.917969 L 71.804688 239.445312 L 76.339844 237.90625 L 75.285156 236.609375 L 136.070312 186.800781 M 138.214844 189.394531 L 137.164062 188.097656 L 138.214844 189.394531 L 77.433594 239.203125 C 73.585938 242.359375 69.859375 243.496094 66.582031 241.957031 C 51.71875 234.910156 58.035156 172.507812 70.628906 145.863281 C 75.125 136.34375 81.484375 129.054688 89.257812 132.742188 L 88.527344 134.238281 L 89.257812 132.742188 L 140.765625 157.121094 C 141.980469 157.6875 142.992188 158.535156 143.804688 159.507812 C 149.472656 166.433594 146.839844 182.226562 138.175781 189.351562 Z M 138.214844 189.394531 " clip-rule="nonzero"/></clipPath><clipPath id="0caaf4243b"><path d="M 186 95 L 273 95 L 273 204 L 186 204 Z M 186 95 " clip-rule="nonzero"/></clipPath><clipPath id="ff128f9084"><path d="M 190.859375 178.015625 C 182.960938 174.25 185.917969 155.824219 195.230469 148.25 L 255.851562 98.808594 C 286.871094 73.496094 268.730469 215.308594 242.410156 202.714844 Z M 190.859375 178.015625 " clip-rule="nonzero"/></clipPath><clipPath id="c3a38e9475"><path d="M 184 94 L 274 94 L 274 206 L 184 206 Z M 184 94 " clip-rule="nonzero"/></clipPath><clipPath id="6ee03021b0"><path d="M 190.128906 179.554688 C 182.839844 176.070312 183.652344 163.921875 187.660156 155.582031 L 194.179688 146.996094 L 195.230469 148.292969 L 194.179688 146.996094 L 254.800781 97.511719 C 260.144531 93.136719 265.003906 92.933594 268.445312 97.148438 C 280.878906 112.414062 270.1875 188.058594 252.410156 202.554688 C 249.210938 205.144531 245.527344 206.078125 241.71875 204.253906 L 242.449219 202.757812 L 241.71875 204.253906 L 190.171875 179.59375 M 191.628906 176.558594 L 190.898438 178.054688 L 191.628906 176.558594 L 243.175781 201.21875 C 245.566406 202.351562 247.875 201.945312 250.304688 199.960938 C 266.867188 186.4375 276.992188 112.859375 265.894531 99.292969 C 264.113281 97.105469 261.523438 96.417969 256.945312 100.144531 L 255.894531 98.847656 L 256.945312 100.144531 L 196.285156 149.546875 C 194.015625 151.410156 192.074219 154.042969 190.65625 156.996094 C 186.566406 165.542969 187.335938 174.492188 191.546875 176.515625 Z M 191.628906 176.558594 " clip-rule="nonzero"/></clipPath><clipPath id="a86c4a86ea"><path d="M 173 37 L 258 37 L 258 146 L 173 146 Z M 173 37 " clip-rule="nonzero"/></clipPath><clipPath id="5128031eef"><path d="M 204.425781 37.011719 C 193.9375 37.011719 185.675781 41.464844 184.175781 52.722656 L 173.851562 131.164062 C 172.757812 139.503906 177.898438 145.292969 184.136719 145.292969 C 186.929688 145.292969 189.925781 144.160156 192.722656 141.570312 L 251.519531 86.78125 C 273.101562 66.652344 231.394531 37.011719 204.425781 37.011719 Z M 204.425781 37.011719 " clip-rule="nonzero"/></clipPath><clipPath id="bbf1105be5"><path d="M 171 35 L 260 35 L 260 147 L 171 147 Z M 171 35 " clip-rule="nonzero"/></clipPath><clipPath id="adabf3c6e1"><path d="M 193.855469 142.785156 C 187.699219 148.535156 180.128906 148.046875 175.632812 143.230469 C 172.917969 140.3125 171.503906 135.980469 172.148438 130.960938 L 182.476562 52.523438 L 184.136719 52.722656 L 182.476562 52.523438 C 184.378906 37.945312 196.8125 33.976562 210.132812 35.757812 C 232.164062 38.671875 261.441406 57.828125 258.96875 76.496094 C 258.445312 80.585938 256.378906 84.472656 252.574219 87.996094 L 251.4375 86.78125 L 252.574219 87.996094 L 193.855469 142.785156 L 192.722656 141.570312 L 193.855469 142.785156 M 191.546875 140.3125 L 250.34375 85.523438 C 253.664062 82.445312 255.285156 79.207031 255.691406 76.007812 C 257.714844 60.539062 231.71875 41.910156 209.730469 39.035156 C 197.054688 37.375 187.375 41.183594 185.835938 52.925781 L 175.511719 131.40625 L 173.851562 131.203125 L 175.511719 131.40625 C 174.984375 135.574219 176.160156 138.855469 178.101562 140.960938 C 181.179688 144.28125 186.605469 144.972656 191.585938 140.355469 Z M 191.546875 140.3125 " clip-rule="nonzero"/></clipPath><clipPath id="72eace1460"><path d="M 90 45 L 174 45 L 174 153.882812 L 90 153.882812 Z M 90 45 " clip-rule="nonzero"/></clipPath><clipPath id="ef132c86cc"><path d="M 166.722656 45.554688 C 143.722656 45.554688 73.425781 110.511719 94.035156 122.941406 L 142.792969 152.382812 C 143.964844 153.070312 145.261719 153.394531 146.679688 153.394531 C 154.371094 153.394531 164.699219 143.757812 165.710938 133.671875 L 173.648438 55.476562 C 174.378906 48.472656 171.625 45.554688 166.722656 45.554688 Z M 166.722656 45.554688 " clip-rule="nonzero"/></clipPath><clipPath id="ce64077b9a"><path d="M 88 43 L 176 43 L 176 156 L 88 156 Z M 88 43 " clip-rule="nonzero"/></clipPath><clipPath id="50435b5ab9"><path d="M 167.371094 133.835938 C 166.238281 145.011719 154.535156 155.945312 145.625 155.011719 L 143.074219 154.488281 L 93.144531 124.359375 L 93.996094 122.941406 L 93.144531 124.359375 C 85.773438 119.90625 88.324219 110.589844 93.792969 101.5625 C 109.019531 76.332031 157.53125 36.605469 171.625 45.109375 C 174.742188 46.972656 175.792969 50.699219 175.308594 55.679688 L 173.648438 55.519531 L 175.308594 55.679688 L 167.371094 133.875 M 164.050781 133.550781 L 165.710938 133.714844 L 164.050781 133.550781 L 171.988281 55.355469 C 172.433594 50.902344 171.339844 48.878906 169.921875 48.027344 C 159.152344 41.507812 112.542969 77.140625 96.667969 103.382812 C 90.917969 112.898438 90.59375 118.972656 94.886719 121.566406 L 143.640625 151.003906 L 142.792969 152.421875 L 143.640625 151.003906 L 145.101562 151.652344 L 145.949219 151.734375 C 152.550781 152.421875 163.039062 143.390625 164.050781 133.550781 Z M 164.050781 133.550781 " clip-rule="nonzero"/></clipPath></defs><g clip-path="url(#1b60baf26a)"><g clip-path="url(#4a2f7a5969)"><path fill="#131313" d="M 5.59375 0 L 369.902344 0 L 369.902344 368.167969 L 5.59375 368.167969 Z M 5.59375 0 " fill-opacity="1" fill-rule="nonzero"/></g></g><g clip-path="url(#b2a8d89285)"><g clip-path="url(#c5d4fb360d)"><path fill="#ffffff" d="M 5.59375 0 L 369.902344 0 L 369.902344 368.167969 L 5.59375 368.167969 Z M 5.59375 0 " fill-opacity="1" fill-rule="nonzero"/></g></g><g clip-path="url(#8b77ff5002)"><g clip-path="url(#5a53c9816e)"><path fill="#131313" d="M 5.59375 0 L 369.902344 0 L 369.902344 368.167969 L 5.59375 368.167969 Z M 5.59375 0 " fill-opacity="1" fill-rule="nonzero"/></g></g><g clip-path="url(#d09372961c)"><g clip-path="url(#54abb001b5)"><path fill="#ffffff" d="M 5.59375 0 L 369.902344 0 L 369.902344 368.167969 L 5.59375 368.167969 Z M 5.59375 0 " fill-opacity="1" fill-rule="nonzero"/></g></g><g clip-path="url(#86dd3e9baa)"><g clip-path="url(#8453d5ea87)"><path fill="#ffffff" d="M 5.59375 0 L 369.902344 0 L 369.902344 368.167969 L 5.59375 368.167969 Z M 5.59375 0 " fill-opacity="1" fill-rule="nonzero"/></g></g><g clip-path="url(#57b31f909f)"><g clip-path="url(#5c4d26c656)"><path fill="#ffffff" d="M 5.59375 0 L 369.902344 0 L 369.902344 368.167969 L 5.59375 368.167969 Z M 5.59375 0 " fill-opacity="1" fill-rule="nonzero"/></g></g><g clip-path="url(#d0b8d37aae)"><g clip-path="url(#7a578225f1)"><path fill="#131313" d="M 5.59375 0 L 369.902344 0 L 369.902344 368.167969 L 5.59375 368.167969 Z M 5.59375 0 " fill-opacity="1" fill-rule="nonzero"/></g></g><g clip-path="url(#d09a1d5a5e)"><g clip-path="url(#1ec5118d69)"><path fill="#ffffff" d="M 5.59375 0 L 369.902344 0 L 369.902344 368.167969 L 5.59375 368.167969 Z M 5.59375 0 " fill-opacity="1" fill-rule="nonzero"/></g></g><g clip-path="url(#df4cccf94d)"><g clip-path="url(#7bffcdc0fa)"><path fill="#131313" d="M 5.59375 0 L 369.902344 0 L 369.902344 368.167969 L 5.59375 368.167969 Z M 5.59375 0 " fill-opacity="1" fill-rule="nonzero"/></g></g><g clip-path="url(#fcdb3ab27f)"><g clip-path="url(#b0b430b392)"><path fill="#ffffff" d="M 5.59375 0 L 369.902344 0 L 369.902344 368.167969 L 5.59375 368.167969 Z M 5.59375 0 " fill-opacity="1" fill-rule="nonzero"/></g></g><g clip-path="url(#e978a2009b)"><g clip-path="url(#2849ca1bc1)"><path fill="#131313" d="M 5.59375 0 L 369.902344 0 L 369.902344 368.167969 L 5.59375 368.167969 Z M 5.59375 0 " fill-opacity="1" fill-rule="nonzero"/></g></g><g clip-path="url(#0caaf4243b)"><g clip-path="url(#ff128f9084)"><path fill="#ffffff" d="M 5.59375 0 L 369.902344 0 L 369.902344 368.167969 L 5.59375 368.167969 Z M 5.59375 0 " fill-opacity="1" fill-rule="nonzero"/></g></g><g clip-path="url(#c3a38e9475)"><g clip-path="url(#6ee03021b0)"><path fill="#131313" d="M 5.59375 0 L 369.902344 0 L 369.902344 368.167969 L 5.59375 368.167969 Z M 5.59375 0 " fill-opacity="1" fill-rule="nonzero"/></g></g><g clip-path="url(#a86c4a86ea)"><g clip-path="url(#5128031eef)"><path fill="#ffffff" d="M 5.59375 0 L 369.902344 0 L 369.902344 368.167969 L 5.59375 368.167969 Z M 5.59375 0 " fill-opacity="1" fill-rule="nonzero"/></g></g><g clip-path="url(#bbf1105be5)"><g clip-path="url(#adabf3c6e1)"><path fill="#131313" d="M 5.59375 0 L 369.902344 0 L 369.902344 368.167969 L 5.59375 368.167969 Z M 5.59375 0 " fill-opacity="1" fill-rule="nonzero"/></g></g><g clip-path="url(#72eace1460)"><g clip-path="url(#ef132c86cc)"><path fill="#ffffff" d="M 5.59375 0 L 369.902344 0 L 369.902344 368.167969 L 5.59375 368.167969 Z M 5.59375 0 " fill-opacity="1" fill-rule="nonzero"/></g></g><g clip-path="url(#ce64077b9a)"><g clip-path="url(#50435b5ab9)"><path fill="#131313" d="M 5.59375 0 L 369.902344 0 L 369.902344 368.167969 L 5.59375 368.167969 Z M 5.59375 0 " fill-opacity="1" fill-rule="nonzero"/></g></g></svg>