<svg xmlns="http://www.w3.org/2000/svg" xmlns:xlink="http://www.w3.org/1999/xlink" width="1024" zoomAndPan="magnify" viewBox="0 0 768 576" height="768" preserveAspectRatio="xMidYMid meet" version="1.0"><defs><g/><clipPath id="0a5a38b7d2"><path d="M 34.628906 0 L 751.570312 0 L 751.570312 576 L 34.628906 576 Z M 34.628906 0 " clip-rule="nonzero"/></clipPath><clipPath id="767882057e"><path d="M 87.128906 0 L 699.070312 0 C 712.992188 0 726.347656 5.53125 736.191406 15.375 C 746.039062 25.222656 751.570312 38.574219 751.570312 52.5 L 751.570312 523.5 C 751.570312 537.425781 746.039062 550.777344 736.191406 560.625 C 726.347656 570.46875 712.992188 576 699.070312 576 L 87.128906 576 C 73.207031 576 59.851562 570.46875 50.007812 560.625 C 40.160156 550.777344 34.628906 537.425781 34.628906 523.5 L 34.628906 52.5 C 34.628906 38.574219 40.160156 25.222656 50.007812 15.375 C 59.851562 5.53125 73.207031 0 87.128906 0 Z M 87.128906 0 " clip-rule="nonzero"/></clipPath><clipPath id="acd005a026"><path d="M 104.691406 52.351562 L 172 52.351562 L 172 119.101562 L 104.691406 119.101562 Z M 104.691406 52.351562 " clip-rule="nonzero"/></clipPath><clipPath id="038d471dda"><path d="M 104.691406 160.074219 L 172 160.074219 L 172 226.824219 L 104.691406 226.824219 Z M 104.691406 160.074219 " clip-rule="nonzero"/></clipPath><clipPath id="4ed2cfe294"><path d="M 104.691406 307.867188 L 172 307.867188 L 172 374.617188 L 104.691406 374.617188 Z M 104.691406 307.867188 " clip-rule="nonzero"/></clipPath><clipPath id="67912ee68d"><path d="M 104.691406 463.054688 L 172 463.054688 L 172 529.804688 L 104.691406 529.804688 Z M 104.691406 463.054688 " clip-rule="nonzero"/></clipPath></defs><g clip-path="url(#0a5a38b7d2)"><g clip-path="url(#767882057e)"><path fill="#ffbd59" d="M 34.628906 0 L 751.570312 0 L 751.570312 576 L 34.628906 576 Z M 34.628906 0 " fill-opacity="1" fill-rule="nonzero"/></g></g><path fill="#f66b0e" d="M 129.796875 96.628906 L 137.132812 104.980469 L 137.394531 105.277344 L 176.996094 70.484375 L 169.398438 61.835938 L 138.316406 89.144531 L 127.476562 76.8125 L 118.957031 84.296875 Z M 129.796875 96.628906 " fill-opacity="1" fill-rule="nonzero"/><g clip-path="url(#acd005a026)"><path fill="#f66b0e" d="M 163.351562 110.847656 L 113.210938 110.847656 L 113.210938 60.707031 L 163.351562 60.707031 L 163.351562 62.136719 L 170.289062 56.058594 C 168.789062 53.824219 166.246094 52.351562 163.351562 52.351562 L 113.210938 52.351562 C 108.59375 52.351562 104.851562 56.09375 104.851562 60.707031 L 104.851562 110.847656 C 104.851562 115.460938 108.59375 119.207031 113.210938 119.207031 L 163.351562 119.207031 C 167.96875 119.207031 171.707031 115.460938 171.707031 110.847656 L 171.707031 80.074219 L 163.351562 87.414062 Z M 163.351562 110.847656 " fill-opacity="1" fill-rule="nonzero"/></g><path fill="#f66b0e" d="M 129.796875 204.351562 L 137.132812 212.703125 L 137.394531 213 L 176.996094 178.207031 L 169.398438 169.558594 L 138.316406 196.867188 L 127.476562 184.535156 L 118.957031 192.019531 Z M 129.796875 204.351562 " fill-opacity="1" fill-rule="nonzero"/><g clip-path="url(#038d471dda)"><path fill="#f66b0e" d="M 163.351562 218.570312 L 113.210938 218.570312 L 113.210938 168.429688 L 163.351562 168.429688 L 163.351562 169.859375 L 170.289062 163.78125 C 168.789062 161.546875 166.246094 160.074219 163.351562 160.074219 L 113.210938 160.074219 C 108.59375 160.074219 104.851562 163.816406 104.851562 168.429688 L 104.851562 218.570312 C 104.851562 223.183594 108.59375 226.929688 113.210938 226.929688 L 163.351562 226.929688 C 167.96875 226.929688 171.707031 223.183594 171.707031 218.570312 L 171.707031 187.796875 L 163.351562 195.136719 Z M 163.351562 218.570312 " fill-opacity="1" fill-rule="nonzero"/></g><path fill="#f66b0e" d="M 129.796875 352.148438 L 137.132812 360.5 L 137.394531 360.796875 L 176.996094 326 L 169.398438 317.355469 L 138.316406 344.664062 L 127.476562 332.328125 L 118.957031 339.816406 Z M 129.796875 352.148438 " fill-opacity="1" fill-rule="nonzero"/><g clip-path="url(#4ed2cfe294)"><path fill="#f66b0e" d="M 163.351562 366.367188 L 113.210938 366.367188 L 113.210938 316.226562 L 163.351562 316.226562 L 163.351562 317.65625 L 170.289062 311.578125 C 168.789062 309.339844 166.246094 307.867188 163.351562 307.867188 L 113.210938 307.867188 C 108.59375 307.867188 104.851562 311.609375 104.851562 316.226562 L 104.851562 366.367188 C 104.851562 370.980469 108.59375 374.722656 113.210938 374.722656 L 163.351562 374.722656 C 167.96875 374.722656 171.707031 370.980469 171.707031 366.367188 L 171.707031 335.589844 L 163.351562 342.933594 Z M 163.351562 366.367188 " fill-opacity="1" fill-rule="nonzero"/></g><path fill="#f66b0e" d="M 129.796875 507.335938 L 137.132812 515.6875 L 137.394531 515.984375 L 176.996094 481.1875 L 169.398438 472.542969 L 138.316406 499.851562 L 127.476562 487.515625 L 118.957031 495.003906 Z M 129.796875 507.335938 " fill-opacity="1" fill-rule="nonzero"/><g clip-path="url(#67912ee68d)"><path fill="#f66b0e" d="M 163.351562 521.554688 L 113.210938 521.554688 L 113.210938 471.414062 L 163.351562 471.414062 L 163.351562 472.84375 L 170.289062 466.765625 C 168.789062 464.527344 166.246094 463.054688 163.351562 463.054688 L 113.210938 463.054688 C 108.59375 463.054688 104.851562 466.796875 104.851562 471.414062 L 104.851562 521.554688 C 104.851562 526.167969 108.59375 529.910156 113.210938 529.910156 L 163.351562 529.910156 C 167.96875 529.910156 171.707031 526.167969 171.707031 521.554688 L 171.707031 490.777344 L 163.351562 498.121094 Z M 163.351562 521.554688 " fill-opacity="1" fill-rule="nonzero"/></g><g fill="#ffffff" fill-opacity="1"><g transform="translate(194.380494, 102.535988)"><g><path d="M 23.015625 -34.0625 L 23.015625 -30.4375 L 8.203125 -30.4375 L 8.203125 -18.953125 L 20.234375 -18.953125 L 20.234375 -15.34375 L 8.203125 -15.34375 L 8.203125 0 L 3.765625 0 L 3.765625 -34.0625 Z M 23.015625 -34.0625 "/></g></g></g><g fill="#ffffff" fill-opacity="1"><g transform="translate(219.005496, 102.535988)"><g><path d="M 6.0625 -31.125 C 5.207031 -31.125 4.488281 -31.414062 3.90625 -32 C 3.320312 -32.582031 3.03125 -33.300781 3.03125 -34.15625 C 3.03125 -35 3.320312 -35.710938 3.90625 -36.296875 C 4.488281 -36.890625 5.207031 -37.1875 6.0625 -37.1875 C 6.875 -37.1875 7.5625 -36.890625 8.125 -36.296875 C 8.695312 -35.710938 8.984375 -35 8.984375 -34.15625 C 8.984375 -33.300781 8.695312 -32.582031 8.125 -32 C 7.5625 -31.414062 6.875 -31.125 6.0625 -31.125 Z M 8.203125 -26.78125 L 8.203125 0 L 3.765625 0 L 3.765625 -26.78125 Z M 8.203125 -26.78125 "/></g></g></g><g fill="#ffffff" fill-opacity="1"><g transform="translate(231.024838, 102.535988)"><g><path d="M 8.203125 -36.15625 L 8.203125 0 L 3.765625 0 L 3.765625 -36.15625 Z M 8.203125 -36.15625 "/></g></g></g><g fill="#ffffff" fill-opacity="1"><g transform="translate(243.044181, 102.535988)"><g><path d="M 8.203125 -36.15625 L 8.203125 0 L 3.765625 0 L 3.765625 -36.15625 Z M 8.203125 -36.15625 "/></g></g></g><g fill="#ffffff" fill-opacity="1"><g transform="translate(255.063524, 102.535988)"><g/></g></g><g fill="#ffffff" fill-opacity="1"><g transform="translate(268.108913, 102.535988)"><g><path d="M 9.1875 -23.109375 L 9.1875 -7.328125 C 9.1875 -6.023438 9.460938 -5.101562 10.015625 -4.5625 C 10.566406 -4.03125 11.53125 -3.765625 12.90625 -3.765625 L 16.171875 -3.765625 L 16.171875 0 L 12.171875 0 C 9.691406 0 7.832031 -0.566406 6.59375 -1.703125 C 5.351562 -2.847656 4.734375 -4.722656 4.734375 -7.328125 L 4.734375 -23.109375 L 1.265625 -23.109375 L 1.265625 -26.78125 L 4.734375 -26.78125 L 4.734375 -33.515625 L 9.1875 -33.515625 L 9.1875 -26.78125 L 16.171875 -26.78125 L 16.171875 -23.109375 Z M 9.1875 -23.109375 "/></g></g></g><g fill="#ffffff" fill-opacity="1"><g transform="translate(285.893638, 102.535988)"><g><path d="M 17.046875 -27.265625 C 19.066406 -27.265625 20.890625 -26.832031 22.515625 -25.96875 C 24.148438 -25.101562 25.429688 -23.804688 26.359375 -22.078125 C 27.285156 -20.359375 27.75 -18.257812 27.75 -15.78125 L 27.75 0 L 23.359375 0 L 23.359375 -15.140625 C 23.359375 -17.816406 22.6875 -19.863281 21.34375 -21.28125 C 20.007812 -22.695312 18.1875 -23.40625 15.875 -23.40625 C 13.53125 -23.40625 11.664062 -22.671875 10.28125 -21.203125 C 8.894531 -19.734375 8.203125 -17.597656 8.203125 -14.796875 L 8.203125 0 L 3.765625 0 L 3.765625 -36.15625 L 8.203125 -36.15625 L 8.203125 -22.96875 C 9.085938 -24.332031 10.300781 -25.390625 11.84375 -26.140625 C 13.394531 -26.890625 15.128906 -27.265625 17.046875 -27.265625 Z M 17.046875 -27.265625 "/></g></g></g><g fill="#ffffff" fill-opacity="1"><g transform="translate(317.163482, 102.535988)"><g><path d="M 28.1875 -14.40625 C 28.1875 -13.5625 28.140625 -12.664062 28.046875 -11.71875 L 6.640625 -11.71875 C 6.804688 -9.082031 7.710938 -7.023438 9.359375 -5.546875 C 11.003906 -4.066406 13 -3.328125 15.34375 -3.328125 C 17.257812 -3.328125 18.859375 -3.773438 20.140625 -4.671875 C 21.429688 -5.566406 22.335938 -6.757812 22.859375 -8.25 L 27.65625 -8.25 C 26.9375 -5.675781 25.5 -3.582031 23.34375 -1.96875 C 21.195312 -0.363281 18.53125 0.4375 15.34375 0.4375 C 12.800781 0.4375 10.523438 -0.128906 8.515625 -1.265625 C 6.515625 -2.410156 4.941406 -4.03125 3.796875 -6.125 C 2.660156 -8.226562 2.09375 -10.664062 2.09375 -13.4375 C 2.09375 -16.207031 2.644531 -18.632812 3.75 -20.71875 C 4.863281 -22.800781 6.421875 -24.40625 8.421875 -25.53125 C 10.429688 -26.65625 12.738281 -27.21875 15.34375 -27.21875 C 17.882812 -27.21875 20.128906 -26.660156 22.078125 -25.546875 C 24.035156 -24.441406 25.539062 -22.921875 26.59375 -20.984375 C 27.65625 -19.046875 28.1875 -16.851562 28.1875 -14.40625 Z M 23.59375 -15.34375 C 23.59375 -17.03125 23.21875 -18.484375 22.46875 -19.703125 C 21.71875 -20.929688 20.695312 -21.863281 19.40625 -22.5 C 18.125 -23.132812 16.703125 -23.453125 15.140625 -23.453125 C 12.898438 -23.453125 10.988281 -22.734375 9.40625 -21.296875 C 7.820312 -19.867188 6.914062 -17.882812 6.6875 -15.34375 Z M 23.59375 -15.34375 "/></g></g></g><g fill="#ffffff" fill-opacity="1"><g transform="translate(347.456136, 102.535988)"><g/></g></g><g fill="#ffffff" fill-opacity="1"><g transform="translate(360.501525, 102.535988)"><g><path d="M 14.65625 -23.109375 L 9.03125 -23.109375 L 9.03125 0 L 4.59375 0 L 4.59375 -23.109375 L 1.125 -23.109375 L 1.125 -26.78125 L 4.59375 -26.78125 L 4.59375 -28.6875 C 4.59375 -31.675781 5.363281 -33.863281 6.90625 -35.25 C 8.457031 -36.632812 10.941406 -37.328125 14.359375 -37.328125 L 14.359375 -33.609375 C 12.410156 -33.609375 11.035156 -33.222656 10.234375 -32.453125 C 9.429688 -31.691406 9.03125 -30.4375 9.03125 -28.6875 L 9.03125 -26.78125 L 14.65625 -26.78125 Z M 14.65625 -23.109375 "/></g></g></g><g fill="#ffffff" fill-opacity="1"><g transform="translate(376.576177, 102.535988)"><g><path d="M 15.4375 0.4375 C 12.925781 0.4375 10.648438 -0.128906 8.609375 -1.265625 C 6.578125 -2.410156 4.984375 -4.03125 3.828125 -6.125 C 2.671875 -8.226562 2.09375 -10.664062 2.09375 -13.4375 C 2.09375 -16.175781 2.6875 -18.59375 3.875 -20.6875 C 5.070312 -22.789062 6.695312 -24.40625 8.75 -25.53125 C 10.800781 -26.65625 13.097656 -27.21875 15.640625 -27.21875 C 18.179688 -27.21875 20.476562 -26.65625 22.53125 -25.53125 C 24.582031 -24.40625 26.203125 -22.800781 27.390625 -20.71875 C 28.578125 -18.632812 29.171875 -16.207031 29.171875 -13.4375 C 29.171875 -10.664062 28.554688 -8.226562 27.328125 -6.125 C 26.109375 -4.03125 24.457031 -2.410156 22.375 -1.265625 C 20.289062 -0.128906 17.976562 0.4375 15.4375 0.4375 Z M 15.4375 -3.46875 C 17.03125 -3.46875 18.523438 -3.84375 19.921875 -4.59375 C 21.328125 -5.34375 22.460938 -6.46875 23.328125 -7.96875 C 24.191406 -9.46875 24.625 -11.289062 24.625 -13.4375 C 24.625 -15.582031 24.195312 -17.40625 23.34375 -18.90625 C 22.5 -20.40625 21.394531 -21.519531 20.03125 -22.25 C 18.664062 -22.988281 17.1875 -23.359375 15.59375 -23.359375 C 13.957031 -23.359375 12.460938 -22.988281 11.109375 -22.25 C 9.765625 -21.519531 8.679688 -20.40625 7.859375 -18.90625 C 7.046875 -17.40625 6.640625 -15.582031 6.640625 -13.4375 C 6.640625 -11.25 7.035156 -9.40625 7.828125 -7.90625 C 8.628906 -6.414062 9.695312 -5.300781 11.03125 -4.5625 C 12.375 -3.832031 13.84375 -3.46875 15.4375 -3.46875 Z M 15.4375 -3.46875 "/></g></g></g><g fill="#ffffff" fill-opacity="1"><g transform="translate(407.846021, 102.535988)"><g><path d="M 8.203125 -22.421875 C 8.984375 -23.953125 10.097656 -25.140625 11.546875 -25.984375 C 13.003906 -26.835938 14.773438 -27.265625 16.859375 -27.265625 L 16.859375 -22.671875 L 15.6875 -22.671875 C 10.695312 -22.671875 8.203125 -19.96875 8.203125 -14.5625 L 8.203125 0 L 3.765625 0 L 3.765625 -26.78125 L 8.203125 -26.78125 Z M 8.203125 -22.421875 "/></g></g></g><g fill="#ffffff" fill-opacity="1"><g transform="translate(426.070477, 102.535988)"><g><path d="M 35.953125 -27.265625 C 38.046875 -27.265625 39.90625 -26.832031 41.53125 -25.96875 C 43.15625 -25.101562 44.441406 -23.804688 45.390625 -22.078125 C 46.335938 -20.359375 46.8125 -18.257812 46.8125 -15.78125 L 46.8125 0 L 42.40625 0 L 42.40625 -15.140625 C 42.40625 -17.816406 41.742188 -19.863281 40.421875 -21.28125 C 39.109375 -22.695312 37.328125 -23.40625 35.078125 -23.40625 C 32.765625 -23.40625 30.925781 -22.660156 29.5625 -21.171875 C 28.195312 -19.691406 27.515625 -17.550781 27.515625 -14.75 L 27.515625 0 L 23.109375 0 L 23.109375 -15.140625 C 23.109375 -17.816406 22.445312 -19.863281 21.125 -21.28125 C 19.8125 -22.695312 18.03125 -23.40625 15.78125 -23.40625 C 13.46875 -23.40625 11.625 -22.660156 10.25 -21.171875 C 8.882812 -19.691406 8.203125 -17.550781 8.203125 -14.75 L 8.203125 0 L 3.765625 0 L 3.765625 -26.78125 L 8.203125 -26.78125 L 8.203125 -22.921875 C 9.085938 -24.316406 10.269531 -25.390625 11.75 -26.140625 C 13.226562 -26.890625 14.863281 -27.265625 16.65625 -27.265625 C 18.90625 -27.265625 20.894531 -26.757812 22.625 -25.75 C 24.351562 -24.738281 25.640625 -23.253906 26.484375 -21.296875 C 27.234375 -23.191406 28.46875 -24.660156 30.1875 -25.703125 C 31.914062 -26.742188 33.835938 -27.265625 35.953125 -27.265625 Z M 35.953125 -27.265625 "/></g></g></g><g fill="#ffffff" fill-opacity="1"><g transform="translate(197.79651, 210.258453)"><g><path d="M 23.015625 -34.0625 L 23.015625 -30.4375 L 8.203125 -30.4375 L 8.203125 -18.953125 L 20.234375 -18.953125 L 20.234375 -15.34375 L 8.203125 -15.34375 L 8.203125 0 L 3.765625 0 L 3.765625 -34.0625 Z M 23.015625 -34.0625 "/></g></g></g><g fill="#ffffff" fill-opacity="1"><g transform="translate(222.421511, 210.258453)"><g><path d="M 8.203125 -22.421875 C 8.984375 -23.953125 10.097656 -25.140625 11.546875 -25.984375 C 13.003906 -26.835938 14.773438 -27.265625 16.859375 -27.265625 L 16.859375 -22.671875 L 15.6875 -22.671875 C 10.695312 -22.671875 8.203125 -19.96875 8.203125 -14.5625 L 8.203125 0 L 3.765625 0 L 3.765625 -26.78125 L 8.203125 -26.78125 Z M 8.203125 -22.421875 "/></g></g></g><g fill="#ffffff" fill-opacity="1"><g transform="translate(240.645967, 210.258453)"><g><path d="M 28.1875 -14.40625 C 28.1875 -13.5625 28.140625 -12.664062 28.046875 -11.71875 L 6.640625 -11.71875 C 6.804688 -9.082031 7.710938 -7.023438 9.359375 -5.546875 C 11.003906 -4.066406 13 -3.328125 15.34375 -3.328125 C 17.257812 -3.328125 18.859375 -3.773438 20.140625 -4.671875 C 21.429688 -5.566406 22.335938 -6.757812 22.859375 -8.25 L 27.65625 -8.25 C 26.9375 -5.675781 25.5 -3.582031 23.34375 -1.96875 C 21.195312 -0.363281 18.53125 0.4375 15.34375 0.4375 C 12.800781 0.4375 10.523438 -0.128906 8.515625 -1.265625 C 6.515625 -2.410156 4.941406 -4.03125 3.796875 -6.125 C 2.660156 -8.226562 2.09375 -10.664062 2.09375 -13.4375 C 2.09375 -16.207031 2.644531 -18.632812 3.75 -20.71875 C 4.863281 -22.800781 6.421875 -24.40625 8.421875 -25.53125 C 10.429688 -26.65625 12.738281 -27.21875 15.34375 -27.21875 C 17.882812 -27.21875 20.128906 -26.660156 22.078125 -25.546875 C 24.035156 -24.441406 25.539062 -22.921875 26.59375 -20.984375 C 27.65625 -19.046875 28.1875 -16.851562 28.1875 -14.40625 Z M 23.59375 -15.34375 C 23.59375 -17.03125 23.21875 -18.484375 22.46875 -19.703125 C 21.71875 -20.929688 20.695312 -21.863281 19.40625 -22.5 C 18.125 -23.132812 16.703125 -23.453125 15.140625 -23.453125 C 12.898438 -23.453125 10.988281 -22.734375 9.40625 -21.296875 C 7.820312 -19.867188 6.914062 -17.882812 6.6875 -15.34375 Z M 23.59375 -15.34375 "/></g></g></g><g fill="#ffffff" fill-opacity="1"><g transform="translate(270.93863, 210.258453)"><g><path d="M 28.1875 -14.40625 C 28.1875 -13.5625 28.140625 -12.664062 28.046875 -11.71875 L 6.640625 -11.71875 C 6.804688 -9.082031 7.710938 -7.023438 9.359375 -5.546875 C 11.003906 -4.066406 13 -3.328125 15.34375 -3.328125 C 17.257812 -3.328125 18.859375 -3.773438 20.140625 -4.671875 C 21.429688 -5.566406 22.335938 -6.757812 22.859375 -8.25 L 27.65625 -8.25 C 26.9375 -5.675781 25.5 -3.582031 23.34375 -1.96875 C 21.195312 -0.363281 18.53125 0.4375 15.34375 0.4375 C 12.800781 0.4375 10.523438 -0.128906 8.515625 -1.265625 C 6.515625 -2.410156 4.941406 -4.03125 3.796875 -6.125 C 2.660156 -8.226562 2.09375 -10.664062 2.09375 -13.4375 C 2.09375 -16.207031 2.644531 -18.632812 3.75 -20.71875 C 4.863281 -22.800781 6.421875 -24.40625 8.421875 -25.53125 C 10.429688 -26.65625 12.738281 -27.21875 15.34375 -27.21875 C 17.882812 -27.21875 20.128906 -26.660156 22.078125 -25.546875 C 24.035156 -24.441406 25.539062 -22.921875 26.59375 -20.984375 C 27.65625 -19.046875 28.1875 -16.851562 28.1875 -14.40625 Z M 23.59375 -15.34375 C 23.59375 -17.03125 23.21875 -18.484375 22.46875 -19.703125 C 21.71875 -20.929688 20.695312 -21.863281 19.40625 -22.5 C 18.125 -23.132812 16.703125 -23.453125 15.140625 -23.453125 C 12.898438 -23.453125 10.988281 -22.734375 9.40625 -21.296875 C 7.820312 -19.867188 6.914062 -17.882812 6.6875 -15.34375 Z M 23.59375 -15.34375 "/></g></g></g><g fill="#ffffff" fill-opacity="1"><g transform="translate(301.231292, 210.258453)"><g/></g></g><g fill="#ffffff" fill-opacity="1"><g transform="translate(314.276681, 210.258453)"><g><path d="M 14.5625 0.34375 C 12.3125 0.34375 10.296875 -0.0507812 8.515625 -0.84375 C 6.742188 -1.644531 5.351562 -2.753906 4.34375 -4.171875 C 3.332031 -5.585938 2.8125 -7.226562 2.78125 -9.09375 L 7.53125 -9.09375 C 7.6875 -7.488281 8.34375 -6.140625 9.5 -5.046875 C 10.65625 -3.960938 12.34375 -3.421875 14.5625 -3.421875 C 16.675781 -3.421875 18.34375 -3.945312 19.5625 -5 C 20.789062 -6.0625 21.40625 -7.425781 21.40625 -9.09375 C 21.40625 -10.394531 21.046875 -11.453125 20.328125 -12.265625 C 19.609375 -13.078125 18.710938 -13.691406 17.640625 -14.109375 C 16.566406 -14.535156 15.117188 -14.992188 13.296875 -15.484375 C 11.046875 -16.078125 9.242188 -16.664062 7.890625 -17.25 C 6.535156 -17.832031 5.378906 -18.75 4.421875 -20 C 3.460938 -21.257812 2.984375 -22.945312 2.984375 -25.0625 C 2.984375 -26.914062 3.453125 -28.5625 4.390625 -30 C 5.335938 -31.4375 6.664062 -32.546875 8.375 -33.328125 C 10.082031 -34.109375 12.046875 -34.5 14.265625 -34.5 C 17.460938 -34.5 20.078125 -33.695312 22.109375 -32.09375 C 24.140625 -30.5 25.285156 -28.382812 25.546875 -25.75 L 20.671875 -25.75 C 20.503906 -27.050781 19.816406 -28.195312 18.609375 -29.1875 C 17.410156 -30.1875 15.816406 -30.6875 13.828125 -30.6875 C 11.972656 -30.6875 10.457031 -30.203125 9.28125 -29.234375 C 8.113281 -28.273438 7.53125 -26.9375 7.53125 -25.21875 C 7.53125 -23.976562 7.878906 -22.96875 8.578125 -22.1875 C 9.273438 -21.40625 10.132812 -20.804688 11.15625 -20.390625 C 12.1875 -19.984375 13.628906 -19.519531 15.484375 -19 C 17.734375 -18.382812 19.539062 -17.773438 20.90625 -17.171875 C 22.28125 -16.566406 23.453125 -15.640625 24.421875 -14.390625 C 25.398438 -13.140625 25.890625 -11.4375 25.890625 -9.28125 C 25.890625 -7.625 25.445312 -6.0625 24.5625 -4.59375 C 23.6875 -3.125 22.382812 -1.929688 20.65625 -1.015625 C 18.9375 -0.109375 16.90625 0.34375 14.5625 0.34375 Z M 14.5625 0.34375 "/></g></g></g><g fill="#ffffff" fill-opacity="1"><g transform="translate(342.956991, 210.258453)"><g><path d="M 35.953125 -27.265625 C 38.046875 -27.265625 39.90625 -26.832031 41.53125 -25.96875 C 43.15625 -25.101562 44.441406 -23.804688 45.390625 -22.078125 C 46.335938 -20.359375 46.8125 -18.257812 46.8125 -15.78125 L 46.8125 0 L 42.40625 0 L 42.40625 -15.140625 C 42.40625 -17.816406 41.742188 -19.863281 40.421875 -21.28125 C 39.109375 -22.695312 37.328125 -23.40625 35.078125 -23.40625 C 32.765625 -23.40625 30.925781 -22.660156 29.5625 -21.171875 C 28.195312 -19.691406 27.515625 -17.550781 27.515625 -14.75 L 27.515625 0 L 23.109375 0 L 23.109375 -15.140625 C 23.109375 -17.816406 22.445312 -19.863281 21.125 -21.28125 C 19.8125 -22.695312 18.03125 -23.40625 15.78125 -23.40625 C 13.46875 -23.40625 11.625 -22.660156 10.25 -21.171875 C 8.882812 -19.691406 8.203125 -17.550781 8.203125 -14.75 L 8.203125 0 L 3.765625 0 L 3.765625 -26.78125 L 8.203125 -26.78125 L 8.203125 -22.921875 C 9.085938 -24.316406 10.269531 -25.390625 11.75 -26.140625 C 13.226562 -26.890625 14.863281 -27.265625 16.65625 -27.265625 C 18.90625 -27.265625 20.894531 -26.757812 22.625 -25.75 C 24.351562 -24.738281 25.640625 -23.253906 26.484375 -21.296875 C 27.234375 -23.191406 28.46875 -24.660156 30.1875 -25.703125 C 31.914062 -26.742188 33.835938 -27.265625 35.953125 -27.265625 Z M 35.953125 -27.265625 "/></g></g></g><g fill="#ffffff" fill-opacity="1"><g transform="translate(393.281895, 210.258453)"><g><path d="M 2.09375 -13.484375 C 2.09375 -16.222656 2.644531 -18.625 3.75 -20.6875 C 4.863281 -22.757812 6.390625 -24.363281 8.328125 -25.5 C 10.265625 -26.644531 12.421875 -27.21875 14.796875 -27.21875 C 17.148438 -27.21875 19.1875 -26.710938 20.90625 -25.703125 C 22.632812 -24.691406 23.921875 -23.421875 24.765625 -21.890625 L 24.765625 -26.78125 L 29.265625 -26.78125 L 29.265625 0 L 24.765625 0 L 24.765625 -4.984375 C 23.890625 -3.421875 22.578125 -2.125 20.828125 -1.09375 C 19.085938 -0.0703125 17.0625 0.4375 14.75 0.4375 C 12.375 0.4375 10.222656 -0.144531 8.296875 -1.3125 C 6.378906 -2.488281 4.863281 -4.132812 3.75 -6.25 C 2.644531 -8.375 2.09375 -10.785156 2.09375 -13.484375 Z M 24.765625 -13.4375 C 24.765625 -15.457031 24.359375 -17.210938 23.546875 -18.703125 C 22.734375 -20.203125 21.632812 -21.351562 20.25 -22.15625 C 18.863281 -22.957031 17.34375 -23.359375 15.6875 -23.359375 C 14.019531 -23.359375 12.503906 -22.96875 11.140625 -22.1875 C 9.773438 -21.40625 8.679688 -20.265625 7.859375 -18.765625 C 7.046875 -17.265625 6.640625 -15.503906 6.640625 -13.484375 C 6.640625 -11.429688 7.046875 -9.644531 7.859375 -8.125 C 8.679688 -6.613281 9.773438 -5.457031 11.140625 -4.65625 C 12.503906 -3.863281 14.019531 -3.46875 15.6875 -3.46875 C 17.34375 -3.46875 18.863281 -3.863281 20.25 -4.65625 C 21.632812 -5.457031 22.734375 -6.613281 23.546875 -8.125 C 24.359375 -9.644531 24.765625 -11.414062 24.765625 -13.4375 Z M 24.765625 -13.4375 "/></g></g></g><g fill="#ffffff" fill-opacity="1"><g transform="translate(426.31066, 210.258453)"><g><path d="M 8.203125 -22.421875 C 8.984375 -23.953125 10.097656 -25.140625 11.546875 -25.984375 C 13.003906 -26.835938 14.773438 -27.265625 16.859375 -27.265625 L 16.859375 -22.671875 L 15.6875 -22.671875 C 10.695312 -22.671875 8.203125 -19.96875 8.203125 -14.5625 L 8.203125 0 L 3.765625 0 L 3.765625 -26.78125 L 8.203125 -26.78125 Z M 8.203125 -22.421875 "/></g></g></g><g fill="#ffffff" fill-opacity="1"><g transform="translate(444.535115, 210.258453)"><g><path d="M 9.1875 -23.109375 L 9.1875 -7.328125 C 9.1875 -6.023438 9.460938 -5.101562 10.015625 -4.5625 C 10.566406 -4.03125 11.53125 -3.765625 12.90625 -3.765625 L 16.171875 -3.765625 L 16.171875 0 L 12.171875 0 C 9.691406 0 7.832031 -0.566406 6.59375 -1.703125 C 5.351562 -2.847656 4.734375 -4.722656 4.734375 -7.328125 L 4.734375 -23.109375 L 1.265625 -23.109375 L 1.265625 -26.78125 L 4.734375 -26.78125 L 4.734375 -33.515625 L 9.1875 -33.515625 L 9.1875 -26.78125 L 16.171875 -26.78125 L 16.171875 -23.109375 Z M 9.1875 -23.109375 "/></g></g></g><g fill="#ffffff" fill-opacity="1"><g transform="translate(462.319833, 210.258453)"><g><path d="M 14.359375 -34.0625 C 18.078125 -34.0625 21.296875 -33.367188 24.015625 -31.984375 C 26.734375 -30.597656 28.816406 -28.617188 30.265625 -26.046875 C 31.710938 -23.472656 32.4375 -20.441406 32.4375 -16.953125 C 32.4375 -13.460938 31.710938 -10.441406 30.265625 -7.890625 C 28.816406 -5.335938 26.734375 -3.382812 24.015625 -2.03125 C 21.296875 -0.675781 18.078125 0 14.359375 0 L 3.765625 0 L 3.765625 -34.0625 Z M 14.359375 -3.671875 C 18.753906 -3.671875 22.109375 -4.832031 24.421875 -7.15625 C 26.742188 -9.488281 27.90625 -12.753906 27.90625 -16.953125 C 27.90625 -21.191406 26.738281 -24.5 24.40625 -26.875 C 22.070312 -29.25 18.722656 -30.4375 14.359375 -30.4375 L 8.203125 -30.4375 L 8.203125 -3.671875 Z M 14.359375 -3.671875 "/></g></g></g><g fill="#ffffff" fill-opacity="1"><g transform="translate(496.863222, 210.258453)"><g><path d="M 2.09375 -17.046875 C 2.09375 -20.367188 2.84375 -23.359375 4.34375 -26.015625 C 5.84375 -28.671875 7.882812 -30.75 10.46875 -32.25 C 13.0625 -33.75 15.941406 -34.5 19.109375 -34.5 C 22.816406 -34.5 26.054688 -33.601562 28.828125 -31.8125 C 31.597656 -30.019531 33.617188 -27.476562 34.890625 -24.1875 L 29.5625 -24.1875 C 28.613281 -26.238281 27.25 -27.816406 25.46875 -28.921875 C 23.695312 -30.035156 21.578125 -30.59375 19.109375 -30.59375 C 16.722656 -30.59375 14.585938 -30.035156 12.703125 -28.921875 C 10.816406 -27.816406 9.332031 -26.242188 8.25 -24.203125 C 7.175781 -22.171875 6.640625 -19.785156 6.640625 -17.046875 C 6.640625 -14.347656 7.175781 -11.976562 8.25 -9.9375 C 9.332031 -7.90625 10.816406 -6.332031 12.703125 -5.21875 C 14.585938 -4.113281 16.722656 -3.5625 19.109375 -3.5625 C 21.578125 -3.5625 23.695312 -4.109375 25.46875 -5.203125 C 27.25 -6.296875 28.613281 -7.867188 29.5625 -9.921875 L 34.890625 -9.921875 C 33.617188 -6.660156 31.597656 -4.140625 28.828125 -2.359375 C 26.054688 -0.585938 22.816406 0.296875 19.109375 0.296875 C 15.941406 0.296875 13.0625 -0.441406 10.46875 -1.921875 C 7.882812 -3.410156 5.84375 -5.472656 4.34375 -8.109375 C 2.84375 -10.742188 2.09375 -13.722656 2.09375 -17.046875 Z M 2.09375 -17.046875 "/></g></g></g><g fill="#ffffff" fill-opacity="1"><g transform="translate(534.582459, 210.258453)"><g><path d="M 23.890625 -7.578125 L 9.03125 -7.578125 L 6.296875 0 L 1.609375 0 L 13.921875 -33.859375 L 19.0625 -33.859375 L 31.3125 0 L 26.625 0 Z M 22.625 -11.1875 L 16.46875 -28.390625 L 10.3125 -11.1875 Z M 22.625 -11.1875 "/></g></g></g><g fill="#ffffff" fill-opacity="1"><g transform="translate(197.79651, 278.315958)"><g><path d="M 15.4375 0.4375 C 12.925781 0.4375 10.648438 -0.128906 8.609375 -1.265625 C 6.578125 -2.410156 4.984375 -4.03125 3.828125 -6.125 C 2.671875 -8.226562 2.09375 -10.664062 2.09375 -13.4375 C 2.09375 -16.175781 2.6875 -18.59375 3.875 -20.6875 C 5.070312 -22.789062 6.695312 -24.40625 8.75 -25.53125 C 10.800781 -26.65625 13.097656 -27.21875 15.640625 -27.21875 C 18.179688 -27.21875 20.476562 -26.65625 22.53125 -25.53125 C 24.582031 -24.40625 26.203125 -22.800781 27.390625 -20.71875 C 28.578125 -18.632812 29.171875 -16.207031 29.171875 -13.4375 C 29.171875 -10.664062 28.554688 -8.226562 27.328125 -6.125 C 26.109375 -4.03125 24.457031 -2.410156 22.375 -1.265625 C 20.289062 -0.128906 17.976562 0.4375 15.4375 0.4375 Z M 15.4375 -3.46875 C 17.03125 -3.46875 18.523438 -3.84375 19.921875 -4.59375 C 21.328125 -5.34375 22.460938 -6.46875 23.328125 -7.96875 C 24.191406 -9.46875 24.625 -11.289062 24.625 -13.4375 C 24.625 -15.582031 24.195312 -17.40625 23.34375 -18.90625 C 22.5 -20.40625 21.394531 -21.519531 20.03125 -22.25 C 18.664062 -22.988281 17.1875 -23.359375 15.59375 -23.359375 C 13.957031 -23.359375 12.460938 -22.988281 11.109375 -22.25 C 9.765625 -21.519531 8.679688 -20.40625 7.859375 -18.90625 C 7.046875 -17.40625 6.640625 -15.582031 6.640625 -13.4375 C 6.640625 -11.25 7.035156 -9.40625 7.828125 -7.90625 C 8.628906 -6.414062 9.695312 -5.300781 11.03125 -4.5625 C 12.375 -3.832031 13.84375 -3.46875 15.4375 -3.46875 Z M 15.4375 -3.46875 "/></g></g></g><g fill="#ffffff" fill-opacity="1"><g transform="translate(229.066354, 278.315958)"><g><path d="M 16.8125 -27.265625 C 20.0625 -27.265625 22.695312 -26.273438 24.71875 -24.296875 C 26.738281 -22.328125 27.75 -19.488281 27.75 -15.78125 L 27.75 0 L 23.359375 0 L 23.359375 -15.140625 C 23.359375 -17.816406 22.6875 -19.863281 21.34375 -21.28125 C 20.007812 -22.695312 18.1875 -23.40625 15.875 -23.40625 C 13.53125 -23.40625 11.664062 -22.671875 10.28125 -21.203125 C 8.894531 -19.734375 8.203125 -17.597656 8.203125 -14.796875 L 8.203125 0 L 3.765625 0 L 3.765625 -26.78125 L 8.203125 -26.78125 L 8.203125 -22.96875 C 9.085938 -24.332031 10.285156 -25.390625 11.796875 -26.140625 C 13.316406 -26.890625 14.988281 -27.265625 16.8125 -27.265625 Z M 16.8125 -27.265625 "/></g></g></g><g fill="#ffffff" fill-opacity="1"><g transform="translate(260.336198, 278.315958)"><g/></g></g><g fill="#ffffff" fill-opacity="1"><g transform="translate(273.381586, 278.315958)"><g><path d="M 26.828125 -26.78125 L 10.703125 12.609375 L 6.109375 12.609375 L 11.390625 -0.296875 L 0.59375 -26.78125 L 5.515625 -26.78125 L 13.921875 -5.078125 L 22.234375 -26.78125 Z M 26.828125 -26.78125 "/></g></g></g><g fill="#ffffff" fill-opacity="1"><g transform="translate(300.889275, 278.315958)"><g><path d="M 15.4375 0.4375 C 12.925781 0.4375 10.648438 -0.128906 8.609375 -1.265625 C 6.578125 -2.410156 4.984375 -4.03125 3.828125 -6.125 C 2.671875 -8.226562 2.09375 -10.664062 2.09375 -13.4375 C 2.09375 -16.175781 2.6875 -18.59375 3.875 -20.6875 C 5.070312 -22.789062 6.695312 -24.40625 8.75 -25.53125 C 10.800781 -26.65625 13.097656 -27.21875 15.640625 -27.21875 C 18.179688 -27.21875 20.476562 -26.65625 22.53125 -25.53125 C 24.582031 -24.40625 26.203125 -22.800781 27.390625 -20.71875 C 28.578125 -18.632812 29.171875 -16.207031 29.171875 -13.4375 C 29.171875 -10.664062 28.554688 -8.226562 27.328125 -6.125 C 26.109375 -4.03125 24.457031 -2.410156 22.375 -1.265625 C 20.289062 -0.128906 17.976562 0.4375 15.4375 0.4375 Z M 15.4375 -3.46875 C 17.03125 -3.46875 18.523438 -3.84375 19.921875 -4.59375 C 21.328125 -5.34375 22.460938 -6.46875 23.328125 -7.96875 C 24.191406 -9.46875 24.625 -11.289062 24.625 -13.4375 C 24.625 -15.582031 24.195312 -17.40625 23.34375 -18.90625 C 22.5 -20.40625 21.394531 -21.519531 20.03125 -22.25 C 18.664062 -22.988281 17.1875 -23.359375 15.59375 -23.359375 C 13.957031 -23.359375 12.460938 -22.988281 11.109375 -22.25 C 9.765625 -21.519531 8.679688 -20.40625 7.859375 -18.90625 C 7.046875 -17.40625 6.640625 -15.582031 6.640625 -13.4375 C 6.640625 -11.25 7.035156 -9.40625 7.828125 -7.90625 C 8.628906 -6.414062 9.695312 -5.300781 11.03125 -4.5625 C 12.375 -3.832031 13.84375 -3.46875 15.4375 -3.46875 Z M 15.4375 -3.46875 "/></g></g></g><g fill="#ffffff" fill-opacity="1"><g transform="translate(332.159119, 278.315958)"><g><path d="M 27.515625 -26.78125 L 27.515625 0 L 23.0625 0 L 23.0625 -3.953125 C 22.21875 -2.585938 21.035156 -1.519531 19.515625 -0.75 C 18.003906 0.0078125 16.335938 0.390625 14.515625 0.390625 C 12.429688 0.390625 10.554688 -0.0390625 8.890625 -0.90625 C 7.234375 -1.769531 5.921875 -3.0625 4.953125 -4.78125 C 3.992188 -6.507812 3.515625 -8.613281 3.515625 -11.09375 L 3.515625 -26.78125 L 7.921875 -26.78125 L 7.921875 -11.671875 C 7.921875 -9.035156 8.585938 -7.007812 9.921875 -5.59375 C 11.253906 -4.175781 13.078125 -3.46875 15.390625 -3.46875 C 17.765625 -3.46875 19.632812 -4.195312 21 -5.65625 C 22.375 -7.125 23.0625 -9.257812 23.0625 -12.0625 L 23.0625 -26.78125 Z M 27.515625 -26.78125 "/></g></g></g><g fill="#ffffff" fill-opacity="1"><g transform="translate(363.428963, 278.315958)"><g><path d="M 8.203125 -22.421875 C 8.984375 -23.953125 10.097656 -25.140625 11.546875 -25.984375 C 13.003906 -26.835938 14.773438 -27.265625 16.859375 -27.265625 L 16.859375 -22.671875 L 15.6875 -22.671875 C 10.695312 -22.671875 8.203125 -19.96875 8.203125 -14.5625 L 8.203125 0 L 3.765625 0 L 3.765625 -26.78125 L 8.203125 -26.78125 Z M 8.203125 -22.421875 "/></g></g></g><g fill="#ffffff" fill-opacity="1"><g transform="translate(381.653418, 278.315958)"><g/></g></g><g fill="#ffffff" fill-opacity="1"><g transform="translate(394.698807, 278.315958)"><g><path d="M 28.1875 -14.40625 C 28.1875 -13.5625 28.140625 -12.664062 28.046875 -11.71875 L 6.640625 -11.71875 C 6.804688 -9.082031 7.710938 -7.023438 9.359375 -5.546875 C 11.003906 -4.066406 13 -3.328125 15.34375 -3.328125 C 17.257812 -3.328125 18.859375 -3.773438 20.140625 -4.671875 C 21.429688 -5.566406 22.335938 -6.757812 22.859375 -8.25 L 27.65625 -8.25 C 26.9375 -5.675781 25.5 -3.582031 23.34375 -1.96875 C 21.195312 -0.363281 18.53125 0.4375 15.34375 0.4375 C 12.800781 0.4375 10.523438 -0.128906 8.515625 -1.265625 C 6.515625 -2.410156 4.941406 -4.03125 3.796875 -6.125 C 2.660156 -8.226562 2.09375 -10.664062 2.09375 -13.4375 C 2.09375 -16.207031 2.644531 -18.632812 3.75 -20.71875 C 4.863281 -22.800781 6.421875 -24.40625 8.421875 -25.53125 C 10.429688 -26.65625 12.738281 -27.21875 15.34375 -27.21875 C 17.882812 -27.21875 20.128906 -26.660156 22.078125 -25.546875 C 24.035156 -24.441406 25.539062 -22.921875 26.59375 -20.984375 C 27.65625 -19.046875 28.1875 -16.851562 28.1875 -14.40625 Z M 23.59375 -15.34375 C 23.59375 -17.03125 23.21875 -18.484375 22.46875 -19.703125 C 21.71875 -20.929688 20.695312 -21.863281 19.40625 -22.5 C 18.125 -23.132812 16.703125 -23.453125 15.140625 -23.453125 C 12.898438 -23.453125 10.988281 -22.734375 9.40625 -21.296875 C 7.820312 -19.867188 6.914062 -17.882812 6.6875 -15.34375 Z M 23.59375 -15.34375 "/></g></g></g><g fill="#ffffff" fill-opacity="1"><g transform="translate(424.991477, 278.315958)"><g><path d="M 35.953125 -27.265625 C 38.046875 -27.265625 39.90625 -26.832031 41.53125 -25.96875 C 43.15625 -25.101562 44.441406 -23.804688 45.390625 -22.078125 C 46.335938 -20.359375 46.8125 -18.257812 46.8125 -15.78125 L 46.8125 0 L 42.40625 0 L 42.40625 -15.140625 C 42.40625 -17.816406 41.742188 -19.863281 40.421875 -21.28125 C 39.109375 -22.695312 37.328125 -23.40625 35.078125 -23.40625 C 32.765625 -23.40625 30.925781 -22.660156 29.5625 -21.171875 C 28.195312 -19.691406 27.515625 -17.550781 27.515625 -14.75 L 27.515625 0 L 23.109375 0 L 23.109375 -15.140625 C 23.109375 -17.816406 22.445312 -19.863281 21.125 -21.28125 C 19.8125 -22.695312 18.03125 -23.40625 15.78125 -23.40625 C 13.46875 -23.40625 11.625 -22.660156 10.25 -21.171875 C 8.882812 -19.691406 8.203125 -17.550781 8.203125 -14.75 L 8.203125 0 L 3.765625 0 L 3.765625 -26.78125 L 8.203125 -26.78125 L 8.203125 -22.921875 C 9.085938 -24.316406 10.269531 -25.390625 11.75 -26.140625 C 13.226562 -26.890625 14.863281 -27.265625 16.65625 -27.265625 C 18.90625 -27.265625 20.894531 -26.757812 22.625 -25.75 C 24.351562 -24.738281 25.640625 -23.253906 26.484375 -21.296875 C 27.234375 -23.191406 28.46875 -24.660156 30.1875 -25.703125 C 31.914062 -26.742188 33.835938 -27.265625 35.953125 -27.265625 Z M 35.953125 -27.265625 "/></g></g></g><g fill="#ffffff" fill-opacity="1"><g transform="translate(475.316365, 278.315958)"><g><path d="M 2.09375 -13.484375 C 2.09375 -16.222656 2.644531 -18.625 3.75 -20.6875 C 4.863281 -22.757812 6.390625 -24.363281 8.328125 -25.5 C 10.265625 -26.644531 12.421875 -27.21875 14.796875 -27.21875 C 17.148438 -27.21875 19.1875 -26.710938 20.90625 -25.703125 C 22.632812 -24.691406 23.921875 -23.421875 24.765625 -21.890625 L 24.765625 -26.78125 L 29.265625 -26.78125 L 29.265625 0 L 24.765625 0 L 24.765625 -4.984375 C 23.890625 -3.421875 22.578125 -2.125 20.828125 -1.09375 C 19.085938 -0.0703125 17.0625 0.4375 14.75 0.4375 C 12.375 0.4375 10.222656 -0.144531 8.296875 -1.3125 C 6.378906 -2.488281 4.863281 -4.132812 3.75 -6.25 C 2.644531 -8.375 2.09375 -10.785156 2.09375 -13.484375 Z M 24.765625 -13.4375 C 24.765625 -15.457031 24.359375 -17.210938 23.546875 -18.703125 C 22.734375 -20.203125 21.632812 -21.351562 20.25 -22.15625 C 18.863281 -22.957031 17.34375 -23.359375 15.6875 -23.359375 C 14.019531 -23.359375 12.503906 -22.96875 11.140625 -22.1875 C 9.773438 -21.40625 8.679688 -20.265625 7.859375 -18.765625 C 7.046875 -17.265625 6.640625 -15.503906 6.640625 -13.484375 C 6.640625 -11.429688 7.046875 -9.644531 7.859375 -8.125 C 8.679688 -6.613281 9.773438 -5.457031 11.140625 -4.65625 C 12.503906 -3.863281 14.019531 -3.46875 15.6875 -3.46875 C 17.34375 -3.46875 18.863281 -3.863281 20.25 -4.65625 C 21.632812 -5.457031 22.734375 -6.613281 23.546875 -8.125 C 24.359375 -9.644531 24.765625 -11.414062 24.765625 -13.4375 Z M 24.765625 -13.4375 "/></g></g></g><g fill="#ffffff" fill-opacity="1"><g transform="translate(508.345146, 278.315958)"><g><path d="M 6.0625 -31.125 C 5.207031 -31.125 4.488281 -31.414062 3.90625 -32 C 3.320312 -32.582031 3.03125 -33.300781 3.03125 -34.15625 C 3.03125 -35 3.320312 -35.710938 3.90625 -36.296875 C 4.488281 -36.890625 5.207031 -37.1875 6.0625 -37.1875 C 6.875 -37.1875 7.5625 -36.890625 8.125 -36.296875 C 8.695312 -35.710938 8.984375 -35 8.984375 -34.15625 C 8.984375 -33.300781 8.695312 -32.582031 8.125 -32 C 7.5625 -31.414062 6.875 -31.125 6.0625 -31.125 Z M 8.203125 -26.78125 L 8.203125 0 L 3.765625 0 L 3.765625 -26.78125 Z M 8.203125 -26.78125 "/></g></g></g><g fill="#ffffff" fill-opacity="1"><g transform="translate(520.364489, 278.315958)"><g><path d="M 8.203125 -36.15625 L 8.203125 0 L 3.765625 0 L 3.765625 -36.15625 Z M 8.203125 -36.15625 "/></g></g></g><g fill="#ffffff" fill-opacity="1"><g transform="translate(194.380494, 358.272427)"><g><path d="M 29.5625 -24.1875 C 28.613281 -26.175781 27.242188 -27.710938 25.453125 -28.796875 C 23.660156 -29.890625 21.578125 -30.4375 19.203125 -30.4375 C 16.828125 -30.4375 14.6875 -29.890625 12.78125 -28.796875 C 10.875 -27.710938 9.375 -26.148438 8.28125 -24.109375 C 7.1875 -22.078125 6.640625 -19.722656 6.640625 -17.046875 C 6.640625 -14.378906 7.1875 -12.035156 8.28125 -10.015625 C 9.375 -7.992188 10.875 -6.4375 12.78125 -5.34375 C 14.6875 -4.257812 16.828125 -3.71875 19.203125 -3.71875 C 22.523438 -3.71875 25.257812 -4.707031 27.40625 -6.6875 C 29.5625 -8.675781 30.816406 -11.363281 31.171875 -14.75 L 17.59375 -14.75 L 17.59375 -18.375 L 35.90625 -18.375 L 35.90625 -14.953125 C 35.644531 -12.148438 34.765625 -9.582031 33.265625 -7.25 C 31.773438 -4.925781 29.804688 -3.085938 27.359375 -1.734375 C 24.921875 -0.378906 22.203125 0.296875 19.203125 0.296875 C 16.046875 0.296875 13.160156 -0.441406 10.546875 -1.921875 C 7.941406 -3.410156 5.878906 -5.472656 4.359375 -8.109375 C 2.847656 -10.742188 2.09375 -13.722656 2.09375 -17.046875 C 2.09375 -20.367188 2.847656 -23.359375 4.359375 -26.015625 C 5.878906 -28.671875 7.941406 -30.738281 10.546875 -32.21875 C 13.160156 -33.707031 16.046875 -34.453125 19.203125 -34.453125 C 22.816406 -34.453125 26.015625 -33.554688 28.796875 -31.765625 C 31.585938 -29.972656 33.617188 -27.445312 34.890625 -24.1875 Z M 29.5625 -24.1875 "/></g></g></g><g fill="#ffffff" fill-opacity="1"><g transform="translate(232.38092, 358.272427)"><g><path d="M 6.0625 -31.125 C 5.207031 -31.125 4.488281 -31.414062 3.90625 -32 C 3.320312 -32.582031 3.03125 -33.300781 3.03125 -34.15625 C 3.03125 -35 3.320312 -35.710938 3.90625 -36.296875 C 4.488281 -36.890625 5.207031 -37.1875 6.0625 -37.1875 C 6.875 -37.1875 7.5625 -36.890625 8.125 -36.296875 C 8.695312 -35.710938 8.984375 -35 8.984375 -34.15625 C 8.984375 -33.300781 8.695312 -32.582031 8.125 -32 C 7.5625 -31.414062 6.875 -31.125 6.0625 -31.125 Z M 8.203125 -26.78125 L 8.203125 0 L 3.765625 0 L 3.765625 -26.78125 Z M 8.203125 -26.78125 "/></g></g></g><g fill="#ffffff" fill-opacity="1"><g transform="translate(244.396483, 358.272427)"><g><path d="M 13.734375 -4.109375 L 22.03125 -26.78125 L 26.78125 -26.78125 L 16.265625 0 L 11.09375 0 L 0.59375 -26.78125 L 5.375 -26.78125 Z M 13.734375 -4.109375 "/></g></g></g><g fill="#ffffff" fill-opacity="1"><g transform="translate(271.797827, 358.272427)"><g><path d="M 28.1875 -14.40625 C 28.1875 -13.5625 28.140625 -12.664062 28.046875 -11.71875 L 6.640625 -11.71875 C 6.804688 -9.082031 7.710938 -7.023438 9.359375 -5.546875 C 11.003906 -4.066406 13 -3.328125 15.34375 -3.328125 C 17.257812 -3.328125 18.859375 -3.773438 20.140625 -4.671875 C 21.429688 -5.566406 22.335938 -6.757812 22.859375 -8.25 L 27.65625 -8.25 C 26.9375 -5.675781 25.5 -3.582031 23.34375 -1.96875 C 21.195312 -0.363281 18.53125 0.4375 15.34375 0.4375 C 12.800781 0.4375 10.523438 -0.128906 8.515625 -1.265625 C 6.515625 -2.410156 4.941406 -4.03125 3.796875 -6.125 C 2.660156 -8.226562 2.09375 -10.664062 2.09375 -13.4375 C 2.09375 -16.207031 2.644531 -18.632812 3.75 -20.71875 C 4.863281 -22.800781 6.421875 -24.40625 8.421875 -25.53125 C 10.429688 -26.65625 12.738281 -27.21875 15.34375 -27.21875 C 17.882812 -27.21875 20.128906 -26.660156 22.078125 -25.546875 C 24.035156 -24.441406 25.539062 -22.921875 26.59375 -20.984375 C 27.65625 -19.046875 28.1875 -16.851562 28.1875 -14.40625 Z M 23.59375 -15.34375 C 23.59375 -17.03125 23.21875 -18.484375 22.46875 -19.703125 C 21.71875 -20.929688 20.695312 -21.863281 19.40625 -22.5 C 18.125 -23.132812 16.703125 -23.453125 15.140625 -23.453125 C 12.898438 -23.453125 10.988281 -22.734375 9.40625 -21.296875 C 7.820312 -19.867188 6.914062 -17.882812 6.6875 -15.34375 Z M 23.59375 -15.34375 "/></g></g></g><g fill="#ffffff" fill-opacity="1"><g transform="translate(302.080941, 358.272427)"><g/></g></g><g fill="#ffffff" fill-opacity="1"><g transform="translate(315.122215, 358.272427)"><g><path d="M 26.828125 -26.78125 L 10.703125 12.609375 L 6.109375 12.609375 L 11.390625 -0.296875 L 0.59375 -26.78125 L 5.515625 -26.78125 L 13.921875 -5.078125 L 22.234375 -26.78125 Z M 26.828125 -26.78125 "/></g></g></g><g fill="#ffffff" fill-opacity="1"><g transform="translate(342.621245, 358.272427)"><g><path d="M 15.4375 0.4375 C 12.925781 0.4375 10.648438 -0.128906 8.609375 -1.265625 C 6.578125 -2.410156 4.984375 -4.03125 3.828125 -6.125 C 2.671875 -8.226562 2.09375 -10.664062 2.09375 -13.4375 C 2.09375 -16.175781 2.6875 -18.59375 3.875 -20.6875 C 5.070312 -22.789062 6.695312 -24.40625 8.75 -25.53125 C 10.800781 -26.65625 13.097656 -27.21875 15.640625 -27.21875 C 18.179688 -27.21875 20.476562 -26.65625 22.53125 -25.53125 C 24.582031 -24.40625 26.203125 -22.800781 27.390625 -20.71875 C 28.578125 -18.632812 29.171875 -16.207031 29.171875 -13.4375 C 29.171875 -10.664062 28.554688 -8.226562 27.328125 -6.125 C 26.109375 -4.03125 24.457031 -2.410156 22.375 -1.265625 C 20.289062 -0.128906 17.976562 0.4375 15.4375 0.4375 Z M 15.4375 -3.46875 C 17.03125 -3.46875 18.523438 -3.84375 19.921875 -4.59375 C 21.328125 -5.34375 22.460938 -6.46875 23.328125 -7.96875 C 24.191406 -9.46875 24.625 -11.289062 24.625 -13.4375 C 24.625 -15.582031 24.195312 -17.40625 23.34375 -18.90625 C 22.5 -20.40625 21.394531 -21.519531 20.03125 -22.25 C 18.664062 -22.988281 17.1875 -23.359375 15.59375 -23.359375 C 13.957031 -23.359375 12.460938 -22.988281 11.109375 -22.25 C 9.765625 -21.519531 8.679688 -20.40625 7.859375 -18.90625 C 7.046875 -17.40625 6.640625 -15.582031 6.640625 -13.4375 C 6.640625 -11.25 7.035156 -9.40625 7.828125 -7.90625 C 8.628906 -6.414062 9.695312 -5.300781 11.03125 -4.5625 C 12.375 -3.832031 13.84375 -3.46875 15.4375 -3.46875 Z M 15.4375 -3.46875 "/></g></g></g><g fill="#ffffff" fill-opacity="1"><g transform="translate(373.881239, 358.272427)"><g><path d="M 27.515625 -26.78125 L 27.515625 0 L 23.0625 0 L 23.0625 -3.953125 C 22.21875 -2.585938 21.035156 -1.519531 19.515625 -0.75 C 18.003906 0.0078125 16.335938 0.390625 14.515625 0.390625 C 12.429688 0.390625 10.554688 -0.0390625 8.890625 -0.90625 C 7.234375 -1.769531 5.921875 -3.0625 4.953125 -4.78125 C 3.992188 -6.507812 3.515625 -8.613281 3.515625 -11.09375 L 3.515625 -26.78125 L 7.921875 -26.78125 L 7.921875 -11.671875 C 7.921875 -9.035156 8.585938 -7.007812 9.921875 -5.59375 C 11.253906 -4.175781 13.078125 -3.46875 15.390625 -3.46875 C 17.765625 -3.46875 19.632812 -4.195312 21 -5.65625 C 22.375 -7.125 23.0625 -9.257812 23.0625 -12.0625 L 23.0625 -26.78125 Z M 27.515625 -26.78125 "/></g></g></g><g fill="#ffffff" fill-opacity="1"><g transform="translate(405.141244, 358.272427)"><g><path d="M 8.203125 -22.421875 C 8.984375 -23.953125 10.097656 -25.140625 11.546875 -25.984375 C 13.003906 -26.835938 14.773438 -27.265625 16.859375 -27.265625 L 16.859375 -22.671875 L 15.6875 -22.671875 C 10.695312 -22.671875 8.203125 -19.96875 8.203125 -14.5625 L 8.203125 0 L 3.765625 0 L 3.765625 -26.78125 L 8.203125 -26.78125 Z M 8.203125 -22.421875 "/></g></g></g><g fill="#ffffff" fill-opacity="1"><g transform="translate(423.359962, 358.272427)"><g/></g></g><g fill="#ffffff" fill-opacity="1"><g transform="translate(436.401237, 358.272427)"><g><path d="M 14.65625 -23.109375 L 9.03125 -23.109375 L 9.03125 0 L 4.59375 0 L 4.59375 -23.109375 L 1.125 -23.109375 L 1.125 -26.78125 L 4.59375 -26.78125 L 4.59375 -28.6875 C 4.59375 -31.675781 5.363281 -33.863281 6.90625 -35.25 C 8.457031 -36.632812 10.941406 -37.328125 14.359375 -37.328125 L 14.359375 -33.609375 C 12.410156 -33.609375 11.035156 -33.222656 10.234375 -32.453125 C 9.429688 -31.691406 9.03125 -30.4375 9.03125 -28.6875 L 9.03125 -26.78125 L 14.65625 -26.78125 Z M 14.65625 -23.109375 "/></g></g></g><g fill="#ffffff" fill-opacity="1"><g transform="translate(452.470824, 358.272427)"><g><path d="M 28.1875 -14.40625 C 28.1875 -13.5625 28.140625 -12.664062 28.046875 -11.71875 L 6.640625 -11.71875 C 6.804688 -9.082031 7.710938 -7.023438 9.359375 -5.546875 C 11.003906 -4.066406 13 -3.328125 15.34375 -3.328125 C 17.257812 -3.328125 18.859375 -3.773438 20.140625 -4.671875 C 21.429688 -5.566406 22.335938 -6.757812 22.859375 -8.25 L 27.65625 -8.25 C 26.9375 -5.675781 25.5 -3.582031 23.34375 -1.96875 C 21.195312 -0.363281 18.53125 0.4375 15.34375 0.4375 C 12.800781 0.4375 10.523438 -0.128906 8.515625 -1.265625 C 6.515625 -2.410156 4.941406 -4.03125 3.796875 -6.125 C 2.660156 -8.226562 2.09375 -10.664062 2.09375 -13.4375 C 2.09375 -16.207031 2.644531 -18.632812 3.75 -20.71875 C 4.863281 -22.800781 6.421875 -24.40625 8.421875 -25.53125 C 10.429688 -26.65625 12.738281 -27.21875 15.34375 -27.21875 C 17.882812 -27.21875 20.128906 -26.660156 22.078125 -25.546875 C 24.035156 -24.441406 25.539062 -22.921875 26.59375 -20.984375 C 27.65625 -19.046875 28.1875 -16.851562 28.1875 -14.40625 Z M 23.59375 -15.34375 C 23.59375 -17.03125 23.21875 -18.484375 22.46875 -19.703125 C 21.71875 -20.929688 20.695312 -21.863281 19.40625 -22.5 C 18.125 -23.132812 16.703125 -23.453125 15.140625 -23.453125 C 12.898438 -23.453125 10.988281 -22.734375 9.40625 -21.296875 C 7.820312 -19.867188 6.914062 -17.882812 6.6875 -15.34375 Z M 23.59375 -15.34375 "/></g></g></g><g fill="#ffffff" fill-opacity="1"><g transform="translate(482.753927, 358.272427)"><g><path d="M 28.1875 -14.40625 C 28.1875 -13.5625 28.140625 -12.664062 28.046875 -11.71875 L 6.640625 -11.71875 C 6.804688 -9.082031 7.710938 -7.023438 9.359375 -5.546875 C 11.003906 -4.066406 13 -3.328125 15.34375 -3.328125 C 17.257812 -3.328125 18.859375 -3.773438 20.140625 -4.671875 C 21.429688 -5.566406 22.335938 -6.757812 22.859375 -8.25 L 27.65625 -8.25 C 26.9375 -5.675781 25.5 -3.582031 23.34375 -1.96875 C 21.195312 -0.363281 18.53125 0.4375 15.34375 0.4375 C 12.800781 0.4375 10.523438 -0.128906 8.515625 -1.265625 C 6.515625 -2.410156 4.941406 -4.03125 3.796875 -6.125 C 2.660156 -8.226562 2.09375 -10.664062 2.09375 -13.4375 C 2.09375 -16.207031 2.644531 -18.632812 3.75 -20.71875 C 4.863281 -22.800781 6.421875 -24.40625 8.421875 -25.53125 C 10.429688 -26.65625 12.738281 -27.21875 15.34375 -27.21875 C 17.882812 -27.21875 20.128906 -26.660156 22.078125 -25.546875 C 24.035156 -24.441406 25.539062 -22.921875 26.59375 -20.984375 C 27.65625 -19.046875 28.1875 -16.851562 28.1875 -14.40625 Z M 23.59375 -15.34375 C 23.59375 -17.03125 23.21875 -18.484375 22.46875 -19.703125 C 21.71875 -20.929688 20.695312 -21.863281 19.40625 -22.5 C 18.125 -23.132812 16.703125 -23.453125 15.140625 -23.453125 C 12.898438 -23.453125 10.988281 -22.734375 9.40625 -21.296875 C 7.820312 -19.867188 6.914062 -17.882812 6.6875 -15.34375 Z M 23.59375 -15.34375 "/></g></g></g><g fill="#ffffff" fill-opacity="1"><g transform="translate(513.037052, 358.272427)"><g><path d="M 2.09375 -13.484375 C 2.09375 -16.222656 2.644531 -18.625 3.75 -20.6875 C 4.863281 -22.757812 6.390625 -24.363281 8.328125 -25.5 C 10.265625 -26.644531 12.441406 -27.21875 14.859375 -27.21875 C 16.941406 -27.21875 18.878906 -26.734375 20.671875 -25.765625 C 22.460938 -24.804688 23.828125 -23.546875 24.765625 -21.984375 L 24.765625 -36.15625 L 29.265625 -36.15625 L 29.265625 0 L 24.765625 0 L 24.765625 -5.03125 C 23.890625 -3.4375 22.585938 -2.125 20.859375 -1.09375 C 19.128906 -0.0703125 17.109375 0.4375 14.796875 0.4375 C 12.421875 0.4375 10.265625 -0.144531 8.328125 -1.3125 C 6.390625 -2.488281 4.863281 -4.132812 3.75 -6.25 C 2.644531 -8.375 2.09375 -10.785156 2.09375 -13.484375 Z M 24.765625 -13.4375 C 24.765625 -15.457031 24.359375 -17.210938 23.546875 -18.703125 C 22.734375 -20.203125 21.632812 -21.351562 20.25 -22.15625 C 18.863281 -22.957031 17.34375 -23.359375 15.6875 -23.359375 C 14.019531 -23.359375 12.503906 -22.96875 11.140625 -22.1875 C 9.773438 -21.40625 8.679688 -20.265625 7.859375 -18.765625 C 7.046875 -17.265625 6.640625 -15.503906 6.640625 -13.484375 C 6.640625 -11.429688 7.046875 -9.644531 7.859375 -8.125 C 8.679688 -6.613281 9.773438 -5.457031 11.140625 -4.65625 C 12.503906 -3.863281 14.019531 -3.46875 15.6875 -3.46875 C 17.34375 -3.46875 18.863281 -3.863281 20.25 -4.65625 C 21.632812 -5.457031 22.734375 -6.613281 23.546875 -8.125 C 24.359375 -9.644531 24.765625 -11.414062 24.765625 -13.4375 Z M 24.765625 -13.4375 "/></g></g></g><g fill="#ffffff" fill-opacity="1"><g transform="translate(546.055407, 358.272427)"><g><path d="M 8.203125 -21.796875 C 9.117188 -23.390625 10.457031 -24.691406 12.21875 -25.703125 C 13.976562 -26.710938 15.976562 -27.21875 18.21875 -27.21875 C 20.632812 -27.21875 22.800781 -26.644531 24.71875 -25.5 C 26.644531 -24.363281 28.160156 -22.757812 29.265625 -20.6875 C 30.367188 -18.625 30.921875 -16.222656 30.921875 -13.484375 C 30.921875 -10.785156 30.367188 -8.375 29.265625 -6.25 C 28.160156 -4.132812 26.640625 -2.488281 24.703125 -1.3125 C 22.765625 -0.144531 20.601562 0.4375 18.21875 0.4375 C 15.90625 0.4375 13.878906 -0.0664062 12.140625 -1.078125 C 10.398438 -2.085938 9.085938 -3.375 8.203125 -4.9375 L 8.203125 0 L 3.765625 0 L 3.765625 -36.15625 L 8.203125 -36.15625 Z M 26.390625 -13.484375 C 26.390625 -15.503906 25.976562 -17.265625 25.15625 -18.765625 C 24.34375 -20.265625 23.242188 -21.40625 21.859375 -22.1875 C 20.472656 -22.96875 18.953125 -23.359375 17.296875 -23.359375 C 15.671875 -23.359375 14.164062 -22.957031 12.78125 -22.15625 C 11.394531 -21.351562 10.285156 -20.195312 9.453125 -18.6875 C 8.617188 -17.175781 8.203125 -15.425781 8.203125 -13.4375 C 8.203125 -11.414062 8.617188 -9.644531 9.453125 -8.125 C 10.285156 -6.613281 11.394531 -5.457031 12.78125 -4.65625 C 14.164062 -3.863281 15.671875 -3.46875 17.296875 -3.46875 C 18.953125 -3.46875 20.472656 -3.863281 21.859375 -4.65625 C 23.242188 -5.457031 24.34375 -6.613281 25.15625 -8.125 C 25.976562 -9.644531 26.390625 -11.429688 26.390625 -13.484375 Z M 26.390625 -13.484375 "/></g></g></g><g fill="#ffffff" fill-opacity="1"><g transform="translate(579.073762, 358.272427)"><g><path d="M 2.09375 -13.484375 C 2.09375 -16.222656 2.644531 -18.625 3.75 -20.6875 C 4.863281 -22.757812 6.390625 -24.363281 8.328125 -25.5 C 10.265625 -26.644531 12.421875 -27.21875 14.796875 -27.21875 C 17.148438 -27.21875 19.1875 -26.710938 20.90625 -25.703125 C 22.632812 -24.691406 23.921875 -23.421875 24.765625 -21.890625 L 24.765625 -26.78125 L 29.265625 -26.78125 L 29.265625 0 L 24.765625 0 L 24.765625 -4.984375 C 23.890625 -3.421875 22.578125 -2.125 20.828125 -1.09375 C 19.085938 -0.0703125 17.0625 0.4375 14.75 0.4375 C 12.375 0.4375 10.222656 -0.144531 8.296875 -1.3125 C 6.378906 -2.488281 4.863281 -4.132812 3.75 -6.25 C 2.644531 -8.375 2.09375 -10.785156 2.09375 -13.484375 Z M 24.765625 -13.4375 C 24.765625 -15.457031 24.359375 -17.210938 23.546875 -18.703125 C 22.734375 -20.203125 21.632812 -21.351562 20.25 -22.15625 C 18.863281 -22.957031 17.34375 -23.359375 15.6875 -23.359375 C 14.019531 -23.359375 12.503906 -22.96875 11.140625 -22.1875 C 9.773438 -21.40625 8.679688 -20.265625 7.859375 -18.765625 C 7.046875 -17.265625 6.640625 -15.503906 6.640625 -13.484375 C 6.640625 -11.429688 7.046875 -9.644531 7.859375 -8.125 C 8.679688 -6.613281 9.773438 -5.457031 11.140625 -4.65625 C 12.503906 -3.863281 14.019531 -3.46875 15.6875 -3.46875 C 17.34375 -3.46875 18.863281 -3.863281 20.25 -4.65625 C 21.632812 -5.457031 22.734375 -6.613281 23.546875 -8.125 C 24.359375 -9.644531 24.765625 -11.414062 24.765625 -13.4375 Z M 24.765625 -13.4375 "/></g></g></g><g fill="#ffffff" fill-opacity="1"><g transform="translate(612.092117, 358.272427)"><g><path d="M 2.09375 -13.4375 C 2.09375 -16.207031 2.644531 -18.625 3.75 -20.6875 C 4.863281 -22.757812 6.40625 -24.363281 8.375 -25.5 C 10.34375 -26.644531 12.597656 -27.21875 15.140625 -27.21875 C 18.429688 -27.21875 21.144531 -26.414062 23.28125 -24.8125 C 25.414062 -23.21875 26.828125 -21.003906 27.515625 -18.171875 L 22.71875 -18.171875 C 22.257812 -19.804688 21.367188 -21.09375 20.046875 -22.03125 C 18.734375 -22.976562 17.097656 -23.453125 15.140625 -23.453125 C 12.597656 -23.453125 10.546875 -22.578125 8.984375 -20.828125 C 7.421875 -19.085938 6.640625 -16.625 6.640625 -13.4375 C 6.640625 -10.207031 7.421875 -7.710938 8.984375 -5.953125 C 10.546875 -4.203125 12.597656 -3.328125 15.140625 -3.328125 C 17.097656 -3.328125 18.726562 -3.78125 20.03125 -4.6875 C 21.332031 -5.601562 22.226562 -6.90625 22.71875 -8.59375 L 27.515625 -8.59375 C 26.796875 -5.863281 25.359375 -3.675781 23.203125 -2.03125 C 21.054688 -0.382812 18.367188 0.4375 15.140625 0.4375 C 12.597656 0.4375 10.34375 -0.128906 8.375 -1.265625 C 6.40625 -2.410156 4.863281 -4.023438 3.75 -6.109375 C 2.644531 -8.191406 2.09375 -10.632812 2.09375 -13.4375 Z M 2.09375 -13.4375 "/></g></g></g><g fill="#ffffff" fill-opacity="1"><g transform="translate(641.740278, 358.272427)"><g><path d="M 18.71875 0 L 8.203125 -11.828125 L 8.203125 0 L 3.765625 0 L 3.765625 -36.15625 L 8.203125 -36.15625 L 8.203125 -14.90625 L 18.515625 -26.78125 L 24.71875 -26.78125 L 12.109375 -13.4375 L 24.765625 0 Z M 18.71875 0 "/></g></g></g><g fill="#ffffff" fill-opacity="1"><g transform="translate(194.380494, 426.522425)"><g><path d="M 15.4375 0.4375 C 12.925781 0.4375 10.648438 -0.128906 8.609375 -1.265625 C 6.578125 -2.410156 4.984375 -4.03125 3.828125 -6.125 C 2.671875 -8.226562 2.09375 -10.664062 2.09375 -13.4375 C 2.09375 -16.175781 2.6875 -18.59375 3.875 -20.6875 C 5.070312 -22.789062 6.695312 -24.40625 8.75 -25.53125 C 10.800781 -26.65625 13.097656 -27.21875 15.640625 -27.21875 C 18.179688 -27.21875 20.476562 -26.65625 22.53125 -25.53125 C 24.582031 -24.40625 26.203125 -22.800781 27.390625 -20.71875 C 28.578125 -18.632812 29.171875 -16.207031 29.171875 -13.4375 C 29.171875 -10.664062 28.554688 -8.226562 27.328125 -6.125 C 26.109375 -4.03125 24.457031 -2.410156 22.375 -1.265625 C 20.289062 -0.128906 17.976562 0.4375 15.4375 0.4375 Z M 15.4375 -3.46875 C 17.03125 -3.46875 18.523438 -3.84375 19.921875 -4.59375 C 21.328125 -5.34375 22.460938 -6.46875 23.328125 -7.96875 C 24.191406 -9.46875 24.625 -11.289062 24.625 -13.4375 C 24.625 -15.582031 24.195312 -17.40625 23.34375 -18.90625 C 22.5 -20.40625 21.394531 -21.519531 20.03125 -22.25 C 18.664062 -22.988281 17.1875 -23.359375 15.59375 -23.359375 C 13.957031 -23.359375 12.460938 -22.988281 11.109375 -22.25 C 9.765625 -21.519531 8.679688 -20.40625 7.859375 -18.90625 C 7.046875 -17.40625 6.640625 -15.582031 6.640625 -13.4375 C 6.640625 -11.25 7.035156 -9.40625 7.828125 -7.90625 C 8.628906 -6.414062 9.695312 -5.300781 11.03125 -4.5625 C 12.375 -3.832031 13.84375 -3.46875 15.4375 -3.46875 Z M 15.4375 -3.46875 "/></g></g></g><g fill="#ffffff" fill-opacity="1"><g transform="translate(225.640488, 426.522425)"><g><path d="M 16.8125 -27.265625 C 20.0625 -27.265625 22.695312 -26.273438 24.71875 -24.296875 C 26.738281 -22.328125 27.75 -19.488281 27.75 -15.78125 L 27.75 0 L 23.359375 0 L 23.359375 -15.140625 C 23.359375 -17.816406 22.6875 -19.863281 21.34375 -21.28125 C 20.007812 -22.695312 18.1875 -23.40625 15.875 -23.40625 C 13.53125 -23.40625 11.664062 -22.671875 10.28125 -21.203125 C 8.894531 -19.734375 8.203125 -17.597656 8.203125 -14.796875 L 8.203125 0 L 3.765625 0 L 3.765625 -26.78125 L 8.203125 -26.78125 L 8.203125 -22.96875 C 9.085938 -24.332031 10.285156 -25.390625 11.796875 -26.140625 C 13.316406 -26.890625 14.988281 -27.265625 16.8125 -27.265625 Z M 16.8125 -27.265625 "/></g></g></g><g fill="#ffffff" fill-opacity="1"><g transform="translate(256.900481, 426.522425)"><g/></g></g><path fill="#5271ff" d="M 269.941406 429.523438 L 454.136719 429.523438 L 454.136719 434.023438 L 269.941406 434.023438 Z M 269.941406 429.523438 " fill-opacity="1" fill-rule="nonzero"/><g fill="#5271ff" fill-opacity="1"><g transform="translate(269.942991, 426.522425)"><g><path d="M 14.359375 -34.0625 C 18.078125 -34.0625 21.296875 -33.367188 24.015625 -31.984375 C 26.734375 -30.597656 28.816406 -28.617188 30.265625 -26.046875 C 31.710938 -23.472656 32.4375 -20.441406 32.4375 -16.953125 C 32.4375 -13.460938 31.710938 -10.441406 30.265625 -7.890625 C 28.816406 -5.335938 26.734375 -3.382812 24.015625 -2.03125 C 21.296875 -0.675781 18.078125 0 14.359375 0 L 3.765625 0 L 3.765625 -34.0625 Z M 14.359375 -3.671875 C 18.753906 -3.671875 22.109375 -4.832031 24.421875 -7.15625 C 26.742188 -9.488281 27.90625 -12.753906 27.90625 -16.953125 C 27.90625 -21.191406 26.738281 -24.5 24.40625 -26.875 C 22.070312 -29.25 18.722656 -30.4375 14.359375 -30.4375 L 8.203125 -30.4375 L 8.203125 -3.671875 Z M 14.359375 -3.671875 "/></g></g></g><g fill="#5271ff" fill-opacity="1"><g transform="translate(304.475513, 426.522425)"><g><path d="M 6.0625 -31.125 C 5.207031 -31.125 4.488281 -31.414062 3.90625 -32 C 3.320312 -32.582031 3.03125 -33.300781 3.03125 -34.15625 C 3.03125 -35 3.320312 -35.710938 3.90625 -36.296875 C 4.488281 -36.890625 5.207031 -37.1875 6.0625 -37.1875 C 6.875 -37.1875 7.5625 -36.890625 8.125 -36.296875 C 8.695312 -35.710938 8.984375 -35 8.984375 -34.15625 C 8.984375 -33.300781 8.695312 -32.582031 8.125 -32 C 7.5625 -31.414062 6.875 -31.125 6.0625 -31.125 Z M 8.203125 -26.78125 L 8.203125 0 L 3.765625 0 L 3.765625 -26.78125 Z M 8.203125 -26.78125 "/></g></g></g><g fill="#5271ff" fill-opacity="1"><g transform="translate(316.491077, 426.522425)"><g><path d="M 13.234375 0.4375 C 11.179688 0.4375 9.34375 0.0859375 7.71875 -0.609375 C 6.09375 -1.304688 4.804688 -2.28125 3.859375 -3.53125 C 2.910156 -4.789062 2.390625 -6.234375 2.296875 -7.859375 L 6.890625 -7.859375 C 7.015625 -6.523438 7.640625 -5.4375 8.765625 -4.59375 C 9.890625 -3.75 11.363281 -3.328125 13.1875 -3.328125 C 14.882812 -3.328125 16.222656 -3.695312 17.203125 -4.4375 C 18.179688 -5.1875 18.671875 -6.132812 18.671875 -7.28125 C 18.671875 -8.445312 18.144531 -9.316406 17.09375 -9.890625 C 16.050781 -10.460938 14.441406 -11.023438 12.265625 -11.578125 C 10.273438 -12.097656 8.648438 -12.625 7.390625 -13.15625 C 6.140625 -13.695312 5.066406 -14.5 4.171875 -15.5625 C 3.273438 -16.625 2.828125 -18.015625 2.828125 -19.734375 C 2.828125 -21.109375 3.234375 -22.363281 4.046875 -23.5 C 4.867188 -24.644531 6.023438 -25.550781 7.515625 -26.21875 C 9.015625 -26.882812 10.726562 -27.21875 12.65625 -27.21875 C 15.613281 -27.21875 18.003906 -26.46875 19.828125 -24.96875 C 21.660156 -23.46875 22.640625 -21.414062 22.765625 -18.8125 L 18.328125 -18.8125 C 18.222656 -20.207031 17.65625 -21.328125 16.625 -22.171875 C 15.601562 -23.023438 14.234375 -23.453125 12.515625 -23.453125 C 10.910156 -23.453125 9.632812 -23.109375 8.6875 -22.421875 C 7.75 -21.742188 7.28125 -20.847656 7.28125 -19.734375 C 7.28125 -18.859375 7.5625 -18.132812 8.125 -17.5625 C 8.695312 -16.988281 9.414062 -16.53125 10.28125 -16.1875 C 11.144531 -15.851562 12.34375 -15.472656 13.875 -15.046875 C 15.800781 -14.523438 17.363281 -14.007812 18.5625 -13.5 C 19.769531 -13 20.804688 -12.242188 21.671875 -11.234375 C 22.535156 -10.222656 22.984375 -8.90625 23.015625 -7.28125 C 23.015625 -5.8125 22.601562 -4.488281 21.78125 -3.3125 C 20.96875 -2.144531 19.820312 -1.226562 18.34375 -0.5625 C 16.863281 0.101562 15.160156 0.4375 13.234375 0.4375 Z M 13.234375 0.4375 "/></g></g></g><g fill="#5271ff" fill-opacity="1"><g transform="translate(341.987505, 426.522425)"><g><path d="M 2.09375 -13.4375 C 2.09375 -16.207031 2.644531 -18.625 3.75 -20.6875 C 4.863281 -22.757812 6.40625 -24.363281 8.375 -25.5 C 10.34375 -26.644531 12.597656 -27.21875 15.140625 -27.21875 C 18.429688 -27.21875 21.144531 -26.414062 23.28125 -24.8125 C 25.414062 -23.21875 26.828125 -21.003906 27.515625 -18.171875 L 22.71875 -18.171875 C 22.257812 -19.804688 21.367188 -21.09375 20.046875 -22.03125 C 18.734375 -22.976562 17.097656 -23.453125 15.140625 -23.453125 C 12.597656 -23.453125 10.546875 -22.578125 8.984375 -20.828125 C 7.421875 -19.085938 6.640625 -16.625 6.640625 -13.4375 C 6.640625 -10.207031 7.421875 -7.710938 8.984375 -5.953125 C 10.546875 -4.203125 12.597656 -3.328125 15.140625 -3.328125 C 17.097656 -3.328125 18.726562 -3.78125 20.03125 -4.6875 C 21.332031 -5.601562 22.226562 -6.90625 22.71875 -8.59375 L 27.515625 -8.59375 C 26.796875 -5.863281 25.359375 -3.675781 23.203125 -2.03125 C 21.054688 -0.382812 18.367188 0.4375 15.140625 0.4375 C 12.597656 0.4375 10.34375 -0.128906 8.375 -1.265625 C 6.40625 -2.410156 4.863281 -4.023438 3.75 -6.109375 C 2.644531 -8.191406 2.09375 -10.632812 2.09375 -13.4375 Z M 2.09375 -13.4375 "/></g></g></g><g fill="#5271ff" fill-opacity="1"><g transform="translate(371.635656, 426.522425)"><g><path d="M 15.4375 0.4375 C 12.925781 0.4375 10.648438 -0.128906 8.609375 -1.265625 C 6.578125 -2.410156 4.984375 -4.03125 3.828125 -6.125 C 2.671875 -8.226562 2.09375 -10.664062 2.09375 -13.4375 C 2.09375 -16.175781 2.6875 -18.59375 3.875 -20.6875 C 5.070312 -22.789062 6.695312 -24.40625 8.75 -25.53125 C 10.800781 -26.65625 13.097656 -27.21875 15.640625 -27.21875 C 18.179688 -27.21875 20.476562 -26.65625 22.53125 -25.53125 C 24.582031 -24.40625 26.203125 -22.800781 27.390625 -20.71875 C 28.578125 -18.632812 29.171875 -16.207031 29.171875 -13.4375 C 29.171875 -10.664062 28.554688 -8.226562 27.328125 -6.125 C 26.109375 -4.03125 24.457031 -2.410156 22.375 -1.265625 C 20.289062 -0.128906 17.976562 0.4375 15.4375 0.4375 Z M 15.4375 -3.46875 C 17.03125 -3.46875 18.523438 -3.84375 19.921875 -4.59375 C 21.328125 -5.34375 22.460938 -6.46875 23.328125 -7.96875 C 24.191406 -9.46875 24.625 -11.289062 24.625 -13.4375 C 24.625 -15.582031 24.195312 -17.40625 23.34375 -18.90625 C 22.5 -20.40625 21.394531 -21.519531 20.03125 -22.25 C 18.664062 -22.988281 17.1875 -23.359375 15.59375 -23.359375 C 13.957031 -23.359375 12.460938 -22.988281 11.109375 -22.25 C 9.765625 -21.519531 8.679688 -20.40625 7.859375 -18.90625 C 7.046875 -17.40625 6.640625 -15.582031 6.640625 -13.4375 C 6.640625 -11.25 7.035156 -9.40625 7.828125 -7.90625 C 8.628906 -6.414062 9.695312 -5.300781 11.03125 -4.5625 C 12.375 -3.832031 13.84375 -3.46875 15.4375 -3.46875 Z M 15.4375 -3.46875 "/></g></g></g><g fill="#5271ff" fill-opacity="1"><g transform="translate(402.895649, 426.522425)"><g><path d="M 8.203125 -22.421875 C 8.984375 -23.953125 10.097656 -25.140625 11.546875 -25.984375 C 13.003906 -26.835938 14.773438 -27.265625 16.859375 -27.265625 L 16.859375 -22.671875 L 15.6875 -22.671875 C 10.695312 -22.671875 8.203125 -19.96875 8.203125 -14.5625 L 8.203125 0 L 3.765625 0 L 3.765625 -26.78125 L 8.203125 -26.78125 Z M 8.203125 -22.421875 "/></g></g></g><g fill="#5271ff" fill-opacity="1"><g transform="translate(421.114368, 426.522425)"><g><path d="M 2.09375 -13.484375 C 2.09375 -16.222656 2.644531 -18.625 3.75 -20.6875 C 4.863281 -22.757812 6.390625 -24.363281 8.328125 -25.5 C 10.265625 -26.644531 12.441406 -27.21875 14.859375 -27.21875 C 16.941406 -27.21875 18.878906 -26.734375 20.671875 -25.765625 C 22.460938 -24.804688 23.828125 -23.546875 24.765625 -21.984375 L 24.765625 -36.15625 L 29.265625 -36.15625 L 29.265625 0 L 24.765625 0 L 24.765625 -5.03125 C 23.890625 -3.4375 22.585938 -2.125 20.859375 -1.09375 C 19.128906 -0.0703125 17.109375 0.4375 14.796875 0.4375 C 12.421875 0.4375 10.265625 -0.144531 8.328125 -1.3125 C 6.390625 -2.488281 4.863281 -4.132812 3.75 -6.25 C 2.644531 -8.375 2.09375 -10.785156 2.09375 -13.484375 Z M 24.765625 -13.4375 C 24.765625 -15.457031 24.359375 -17.210938 23.546875 -18.703125 C 22.734375 -20.203125 21.632812 -21.351562 20.25 -22.15625 C 18.863281 -22.957031 17.34375 -23.359375 15.6875 -23.359375 C 14.019531 -23.359375 12.503906 -22.96875 11.140625 -22.1875 C 9.773438 -21.40625 8.679688 -20.265625 7.859375 -18.765625 C 7.046875 -17.265625 6.640625 -15.503906 6.640625 -13.484375 C 6.640625 -11.429688 7.046875 -9.644531 7.859375 -8.125 C 8.679688 -6.613281 9.773438 -5.457031 11.140625 -4.65625 C 12.503906 -3.863281 14.019531 -3.46875 15.6875 -3.46875 C 17.34375 -3.46875 18.863281 -3.863281 20.25 -4.65625 C 21.632812 -5.457031 22.734375 -6.613281 23.546875 -8.125 C 24.359375 -9.644531 24.765625 -11.414062 24.765625 -13.4375 Z M 24.765625 -13.4375 "/></g></g></g><g fill="#ffffff" fill-opacity="1"><g transform="translate(194.380494, 513.036082)"><g><path d="M 23.015625 -34.0625 L 23.015625 -30.4375 L 8.203125 -30.4375 L 8.203125 -18.953125 L 20.234375 -18.953125 L 20.234375 -15.34375 L 8.203125 -15.34375 L 8.203125 0 L 3.765625 0 L 3.765625 -34.0625 Z M 23.015625 -34.0625 "/></g></g></g><g fill="#ffffff" fill-opacity="1"><g transform="translate(219.005496, 513.036082)"><g><path d="M 6.0625 -31.125 C 5.207031 -31.125 4.488281 -31.414062 3.90625 -32 C 3.320312 -32.582031 3.03125 -33.300781 3.03125 -34.15625 C 3.03125 -35 3.320312 -35.710938 3.90625 -36.296875 C 4.488281 -36.890625 5.207031 -37.1875 6.0625 -37.1875 C 6.875 -37.1875 7.5625 -36.890625 8.125 -36.296875 C 8.695312 -35.710938 8.984375 -35 8.984375 -34.15625 C 8.984375 -33.300781 8.695312 -32.582031 8.125 -32 C 7.5625 -31.414062 6.875 -31.125 6.0625 -31.125 Z M 8.203125 -26.78125 L 8.203125 0 L 3.765625 0 L 3.765625 -26.78125 Z M 8.203125 -26.78125 "/></g></g></g><g fill="#ffffff" fill-opacity="1"><g transform="translate(231.024838, 513.036082)"><g><path d="M 8.203125 -36.15625 L 8.203125 0 L 3.765625 0 L 3.765625 -36.15625 Z M 8.203125 -36.15625 "/></g></g></g><g fill="#ffffff" fill-opacity="1"><g transform="translate(243.044181, 513.036082)"><g><path d="M 8.203125 -36.15625 L 8.203125 0 L 3.765625 0 L 3.765625 -36.15625 Z M 8.203125 -36.15625 "/></g></g></g><g fill="#ffffff" fill-opacity="1"><g transform="translate(255.063524, 513.036082)"><g/></g></g><g fill="#ffffff" fill-opacity="1"><g transform="translate(268.108913, 513.036082)"><g><path d="M 2.09375 -13.484375 C 2.09375 -16.222656 2.644531 -18.625 3.75 -20.6875 C 4.863281 -22.757812 6.390625 -24.363281 8.328125 -25.5 C 10.265625 -26.644531 12.421875 -27.21875 14.796875 -27.21875 C 17.148438 -27.21875 19.1875 -26.710938 20.90625 -25.703125 C 22.632812 -24.691406 23.921875 -23.421875 24.765625 -21.890625 L 24.765625 -26.78125 L 29.265625 -26.78125 L 29.265625 0 L 24.765625 0 L 24.765625 -4.984375 C 23.890625 -3.421875 22.578125 -2.125 20.828125 -1.09375 C 19.085938 -0.0703125 17.0625 0.4375 14.75 0.4375 C 12.375 0.4375 10.222656 -0.144531 8.296875 -1.3125 C 6.378906 -2.488281 4.863281 -4.132812 3.75 -6.25 C 2.644531 -8.375 2.09375 -10.785156 2.09375 -13.484375 Z M 24.765625 -13.4375 C 24.765625 -15.457031 24.359375 -17.210938 23.546875 -18.703125 C 22.734375 -20.203125 21.632812 -21.351562 20.25 -22.15625 C 18.863281 -22.957031 17.34375 -23.359375 15.6875 -23.359375 C 14.019531 -23.359375 12.503906 -22.96875 11.140625 -22.1875 C 9.773438 -21.40625 8.679688 -20.265625 7.859375 -18.765625 C 7.046875 -17.265625 6.640625 -15.503906 6.640625 -13.484375 C 6.640625 -11.429688 7.046875 -9.644531 7.859375 -8.125 C 8.679688 -6.613281 9.773438 -5.457031 11.140625 -4.65625 C 12.503906 -3.863281 14.019531 -3.46875 15.6875 -3.46875 C 17.34375 -3.46875 18.863281 -3.863281 20.25 -4.65625 C 21.632812 -5.457031 22.734375 -6.613281 23.546875 -8.125 C 24.359375 -9.644531 24.765625 -11.414062 24.765625 -13.4375 Z M 24.765625 -13.4375 "/></g></g></g><g fill="#ffffff" fill-opacity="1"><g transform="translate(301.137686, 513.036082)"><g/></g></g><g fill="#ffffff" fill-opacity="1"><g transform="translate(314.183074, 513.036082)"><g><path d="M 2.09375 -13.484375 C 2.09375 -16.222656 2.644531 -18.625 3.75 -20.6875 C 4.863281 -22.757812 6.390625 -24.363281 8.328125 -25.5 C 10.265625 -26.644531 12.441406 -27.21875 14.859375 -27.21875 C 17.171875 -27.21875 19.195312 -26.703125 20.9375 -25.671875 C 22.675781 -24.648438 23.953125 -23.390625 24.765625 -21.890625 L 24.765625 -26.78125 L 29.265625 -26.78125 L 29.265625 12.703125 L 24.765625 12.703125 L 24.765625 -4.9375 C 23.921875 -3.4375 22.617188 -2.164062 20.859375 -1.125 C 19.097656 -0.0820312 17.046875 0.4375 14.703125 0.4375 C 12.359375 0.4375 10.222656 -0.144531 8.296875 -1.3125 C 6.378906 -2.488281 4.863281 -4.132812 3.75 -6.25 C 2.644531 -8.375 2.09375 -10.785156 2.09375 -13.484375 Z M 24.765625 -13.4375 C 24.765625 -15.457031 24.359375 -17.210938 23.546875 -18.703125 C 22.734375 -20.203125 21.632812 -21.351562 20.25 -22.15625 C 18.863281 -22.957031 17.34375 -23.359375 15.6875 -23.359375 C 14.019531 -23.359375 12.503906 -22.96875 11.140625 -22.1875 C 9.773438 -21.40625 8.679688 -20.265625 7.859375 -18.765625 C 7.046875 -17.265625 6.640625 -15.503906 6.640625 -13.484375 C 6.640625 -11.429688 7.046875 -9.644531 7.859375 -8.125 C 8.679688 -6.613281 9.773438 -5.457031 11.140625 -4.65625 C 12.503906 -3.863281 14.019531 -3.46875 15.6875 -3.46875 C 17.34375 -3.46875 18.863281 -3.863281 20.25 -4.65625 C 21.632812 -5.457031 22.734375 -6.613281 23.546875 -8.125 C 24.359375 -9.644531 24.765625 -11.414062 24.765625 -13.4375 Z M 24.765625 -13.4375 "/></g></g></g><g fill="#ffffff" fill-opacity="1"><g transform="translate(347.211856, 513.036082)"><g><path d="M 27.515625 -26.78125 L 27.515625 0 L 23.0625 0 L 23.0625 -3.953125 C 22.21875 -2.585938 21.035156 -1.519531 19.515625 -0.75 C 18.003906 0.0078125 16.335938 0.390625 14.515625 0.390625 C 12.429688 0.390625 10.554688 -0.0390625 8.890625 -0.90625 C 7.234375 -1.769531 5.921875 -3.0625 4.953125 -4.78125 C 3.992188 -6.507812 3.515625 -8.613281 3.515625 -11.09375 L 3.515625 -26.78125 L 7.921875 -26.78125 L 7.921875 -11.671875 C 7.921875 -9.035156 8.585938 -7.007812 9.921875 -5.59375 C 11.253906 -4.175781 13.078125 -3.46875 15.390625 -3.46875 C 17.765625 -3.46875 19.632812 -4.195312 21 -5.65625 C 22.375 -7.125 23.0625 -9.257812 23.0625 -12.0625 L 23.0625 -26.78125 Z M 27.515625 -26.78125 "/></g></g></g><g fill="#ffffff" fill-opacity="1"><g transform="translate(378.4817, 513.036082)"><g><path d="M 28.1875 -14.40625 C 28.1875 -13.5625 28.140625 -12.664062 28.046875 -11.71875 L 6.640625 -11.71875 C 6.804688 -9.082031 7.710938 -7.023438 9.359375 -5.546875 C 11.003906 -4.066406 13 -3.328125 15.34375 -3.328125 C 17.257812 -3.328125 18.859375 -3.773438 20.140625 -4.671875 C 21.429688 -5.566406 22.335938 -6.757812 22.859375 -8.25 L 27.65625 -8.25 C 26.9375 -5.675781 25.5 -3.582031 23.34375 -1.96875 C 21.195312 -0.363281 18.53125 0.4375 15.34375 0.4375 C 12.800781 0.4375 10.523438 -0.128906 8.515625 -1.265625 C 6.515625 -2.410156 4.941406 -4.03125 3.796875 -6.125 C 2.660156 -8.226562 2.09375 -10.664062 2.09375 -13.4375 C 2.09375 -16.207031 2.644531 -18.632812 3.75 -20.71875 C 4.863281 -22.800781 6.421875 -24.40625 8.421875 -25.53125 C 10.429688 -26.65625 12.738281 -27.21875 15.34375 -27.21875 C 17.882812 -27.21875 20.128906 -26.660156 22.078125 -25.546875 C 24.035156 -24.441406 25.539062 -22.921875 26.59375 -20.984375 C 27.65625 -19.046875 28.1875 -16.851562 28.1875 -14.40625 Z M 23.59375 -15.34375 C 23.59375 -17.03125 23.21875 -18.484375 22.46875 -19.703125 C 21.71875 -20.929688 20.695312 -21.863281 19.40625 -22.5 C 18.125 -23.132812 16.703125 -23.453125 15.140625 -23.453125 C 12.898438 -23.453125 10.988281 -22.734375 9.40625 -21.296875 C 7.820312 -19.867188 6.914062 -17.882812 6.6875 -15.34375 Z M 23.59375 -15.34375 "/></g></g></g><g fill="#ffffff" fill-opacity="1"><g transform="translate(408.774354, 513.036082)"><g><path d="M 13.234375 0.4375 C 11.179688 0.4375 9.34375 0.0859375 7.71875 -0.609375 C 6.09375 -1.304688 4.804688 -2.28125 3.859375 -3.53125 C 2.910156 -4.789062 2.390625 -6.234375 2.296875 -7.859375 L 6.890625 -7.859375 C 7.015625 -6.523438 7.640625 -5.4375 8.765625 -4.59375 C 9.890625 -3.75 11.363281 -3.328125 13.1875 -3.328125 C 14.882812 -3.328125 16.222656 -3.695312 17.203125 -4.4375 C 18.179688 -5.1875 18.671875 -6.132812 18.671875 -7.28125 C 18.671875 -8.445312 18.144531 -9.316406 17.09375 -9.890625 C 16.050781 -10.460938 14.441406 -11.023438 12.265625 -11.578125 C 10.273438 -12.097656 8.648438 -12.625 7.390625 -13.15625 C 6.140625 -13.695312 5.066406 -14.5 4.171875 -15.5625 C 3.273438 -16.625 2.828125 -18.015625 2.828125 -19.734375 C 2.828125 -21.109375 3.234375 -22.363281 4.046875 -23.5 C 4.867188 -24.644531 6.023438 -25.550781 7.515625 -26.21875 C 9.015625 -26.882812 10.726562 -27.21875 12.65625 -27.21875 C 15.613281 -27.21875 18.003906 -26.46875 19.828125 -24.96875 C 21.660156 -23.46875 22.640625 -21.414062 22.765625 -18.8125 L 18.328125 -18.8125 C 18.222656 -20.207031 17.65625 -21.328125 16.625 -22.171875 C 15.601562 -23.023438 14.234375 -23.453125 12.515625 -23.453125 C 10.910156 -23.453125 9.632812 -23.109375 8.6875 -22.421875 C 7.75 -21.742188 7.28125 -20.847656 7.28125 -19.734375 C 7.28125 -18.859375 7.5625 -18.132812 8.125 -17.5625 C 8.695312 -16.988281 9.414062 -16.53125 10.28125 -16.1875 C 11.144531 -15.851562 12.34375 -15.472656 13.875 -15.046875 C 15.800781 -14.523438 17.363281 -14.007812 18.5625 -13.5 C 19.769531 -13 20.804688 -12.242188 21.671875 -11.234375 C 22.535156 -10.222656 22.984375 -8.90625 23.015625 -7.28125 C 23.015625 -5.8125 22.601562 -4.488281 21.78125 -3.3125 C 20.96875 -2.144531 19.820312 -1.226562 18.34375 -0.5625 C 16.863281 0.101562 15.160156 0.4375 13.234375 0.4375 Z M 13.234375 0.4375 "/></g></g></g><g fill="#ffffff" fill-opacity="1"><g transform="translate(434.278824, 513.036082)"><g><path d="M 9.1875 -23.109375 L 9.1875 -7.328125 C 9.1875 -6.023438 9.460938 -5.101562 10.015625 -4.5625 C 10.566406 -4.03125 11.53125 -3.765625 12.90625 -3.765625 L 16.171875 -3.765625 L 16.171875 0 L 12.171875 0 C 9.691406 0 7.832031 -0.566406 6.59375 -1.703125 C 5.351562 -2.847656 4.734375 -4.722656 4.734375 -7.328125 L 4.734375 -23.109375 L 1.265625 -23.109375 L 1.265625 -26.78125 L 4.734375 -26.78125 L 4.734375 -33.515625 L 9.1875 -33.515625 L 9.1875 -26.78125 L 16.171875 -26.78125 L 16.171875 -23.109375 Z M 9.1875 -23.109375 "/></g></g></g><g fill="#ffffff" fill-opacity="1"><g transform="translate(452.063557, 513.036082)"><g><path d="M 6.0625 -31.125 C 5.207031 -31.125 4.488281 -31.414062 3.90625 -32 C 3.320312 -32.582031 3.03125 -33.300781 3.03125 -34.15625 C 3.03125 -35 3.320312 -35.710938 3.90625 -36.296875 C 4.488281 -36.890625 5.207031 -37.1875 6.0625 -37.1875 C 6.875 -37.1875 7.5625 -36.890625 8.125 -36.296875 C 8.695312 -35.710938 8.984375 -35 8.984375 -34.15625 C 8.984375 -33.300781 8.695312 -32.582031 8.125 -32 C 7.5625 -31.414062 6.875 -31.125 6.0625 -31.125 Z M 8.203125 -26.78125 L 8.203125 0 L 3.765625 0 L 3.765625 -26.78125 Z M 8.203125 -26.78125 "/></g></g></g><g fill="#ffffff" fill-opacity="1"><g transform="translate(464.0829, 513.036082)"><g><path d="M 15.4375 0.4375 C 12.925781 0.4375 10.648438 -0.128906 8.609375 -1.265625 C 6.578125 -2.410156 4.984375 -4.03125 3.828125 -6.125 C 2.671875 -8.226562 2.09375 -10.664062 2.09375 -13.4375 C 2.09375 -16.175781 2.6875 -18.59375 3.875 -20.6875 C 5.070312 -22.789062 6.695312 -24.40625 8.75 -25.53125 C 10.800781 -26.65625 13.097656 -27.21875 15.640625 -27.21875 C 18.179688 -27.21875 20.476562 -26.65625 22.53125 -25.53125 C 24.582031 -24.40625 26.203125 -22.800781 27.390625 -20.71875 C 28.578125 -18.632812 29.171875 -16.207031 29.171875 -13.4375 C 29.171875 -10.664062 28.554688 -8.226562 27.328125 -6.125 C 26.109375 -4.03125 24.457031 -2.410156 22.375 -1.265625 C 20.289062 -0.128906 17.976562 0.4375 15.4375 0.4375 Z M 15.4375 -3.46875 C 17.03125 -3.46875 18.523438 -3.84375 19.921875 -4.59375 C 21.328125 -5.34375 22.460938 -6.46875 23.328125 -7.96875 C 24.191406 -9.46875 24.625 -11.289062 24.625 -13.4375 C 24.625 -15.582031 24.195312 -17.40625 23.34375 -18.90625 C 22.5 -20.40625 21.394531 -21.519531 20.03125 -22.25 C 18.664062 -22.988281 17.1875 -23.359375 15.59375 -23.359375 C 13.957031 -23.359375 12.460938 -22.988281 11.109375 -22.25 C 9.765625 -21.519531 8.679688 -20.40625 7.859375 -18.90625 C 7.046875 -17.40625 6.640625 -15.582031 6.640625 -13.4375 C 6.640625 -11.25 7.035156 -9.40625 7.828125 -7.90625 C 8.628906 -6.414062 9.695312 -5.300781 11.03125 -4.5625 C 12.375 -3.832031 13.84375 -3.46875 15.4375 -3.46875 Z M 15.4375 -3.46875 "/></g></g></g><g fill="#ffffff" fill-opacity="1"><g transform="translate(495.352761, 513.036082)"><g><path d="M 16.8125 -27.265625 C 20.0625 -27.265625 22.695312 -26.273438 24.71875 -24.296875 C 26.738281 -22.328125 27.75 -19.488281 27.75 -15.78125 L 27.75 0 L 23.359375 0 L 23.359375 -15.140625 C 23.359375 -17.816406 22.6875 -19.863281 21.34375 -21.28125 C 20.007812 -22.695312 18.1875 -23.40625 15.875 -23.40625 C 13.53125 -23.40625 11.664062 -22.671875 10.28125 -21.203125 C 8.894531 -19.734375 8.203125 -17.597656 8.203125 -14.796875 L 8.203125 0 L 3.765625 0 L 3.765625 -26.78125 L 8.203125 -26.78125 L 8.203125 -22.96875 C 9.085938 -24.332031 10.285156 -25.390625 11.796875 -26.140625 C 13.316406 -26.890625 14.988281 -27.265625 16.8125 -27.265625 Z M 16.8125 -27.265625 "/></g></g></g><g fill="#ffffff" fill-opacity="1"><g transform="translate(526.622621, 513.036082)"><g><path d="M 16.8125 -27.265625 C 20.0625 -27.265625 22.695312 -26.273438 24.71875 -24.296875 C 26.738281 -22.328125 27.75 -19.488281 27.75 -15.78125 L 27.75 0 L 23.359375 0 L 23.359375 -15.140625 C 23.359375 -17.816406 22.6875 -19.863281 21.34375 -21.28125 C 20.007812 -22.695312 18.1875 -23.40625 15.875 -23.40625 C 13.53125 -23.40625 11.664062 -22.671875 10.28125 -21.203125 C 8.894531 -19.734375 8.203125 -17.597656 8.203125 -14.796875 L 8.203125 0 L 3.765625 0 L 3.765625 -26.78125 L 8.203125 -26.78125 L 8.203125 -22.96875 C 9.085938 -24.332031 10.285156 -25.390625 11.796875 -26.140625 C 13.316406 -26.890625 14.988281 -27.265625 16.8125 -27.265625 Z M 16.8125 -27.265625 "/></g></g></g><g fill="#ffffff" fill-opacity="1"><g transform="translate(557.892481, 513.036082)"><g><path d="M 2.09375 -13.484375 C 2.09375 -16.222656 2.644531 -18.625 3.75 -20.6875 C 4.863281 -22.757812 6.390625 -24.363281 8.328125 -25.5 C 10.265625 -26.644531 12.421875 -27.21875 14.796875 -27.21875 C 17.148438 -27.21875 19.1875 -26.710938 20.90625 -25.703125 C 22.632812 -24.691406 23.921875 -23.421875 24.765625 -21.890625 L 24.765625 -26.78125 L 29.265625 -26.78125 L 29.265625 0 L 24.765625 0 L 24.765625 -4.984375 C 23.890625 -3.421875 22.578125 -2.125 20.828125 -1.09375 C 19.085938 -0.0703125 17.0625 0.4375 14.75 0.4375 C 12.375 0.4375 10.222656 -0.144531 8.296875 -1.3125 C 6.378906 -2.488281 4.863281 -4.132812 3.75 -6.25 C 2.644531 -8.375 2.09375 -10.785156 2.09375 -13.484375 Z M 24.765625 -13.4375 C 24.765625 -15.457031 24.359375 -17.210938 23.546875 -18.703125 C 22.734375 -20.203125 21.632812 -21.351562 20.25 -22.15625 C 18.863281 -22.957031 17.34375 -23.359375 15.6875 -23.359375 C 14.019531 -23.359375 12.503906 -22.96875 11.140625 -22.1875 C 9.773438 -21.40625 8.679688 -20.265625 7.859375 -18.765625 C 7.046875 -17.265625 6.640625 -15.503906 6.640625 -13.484375 C 6.640625 -11.429688 7.046875 -9.644531 7.859375 -8.125 C 8.679688 -6.613281 9.773438 -5.457031 11.140625 -4.65625 C 12.503906 -3.863281 14.019531 -3.46875 15.6875 -3.46875 C 17.34375 -3.46875 18.863281 -3.863281 20.25 -4.65625 C 21.632812 -5.457031 22.734375 -6.613281 23.546875 -8.125 C 24.359375 -9.644531 24.765625 -11.414062 24.765625 -13.4375 Z M 24.765625 -13.4375 "/></g></g></g><g fill="#ffffff" fill-opacity="1"><g transform="translate(590.921262, 513.036082)"><g><path d="M 6.0625 -31.125 C 5.207031 -31.125 4.488281 -31.414062 3.90625 -32 C 3.320312 -32.582031 3.03125 -33.300781 3.03125 -34.15625 C 3.03125 -35 3.320312 -35.710938 3.90625 -36.296875 C 4.488281 -36.890625 5.207031 -37.1875 6.0625 -37.1875 C 6.875 -37.1875 7.5625 -36.890625 8.125 -36.296875 C 8.695312 -35.710938 8.984375 -35 8.984375 -34.15625 C 8.984375 -33.300781 8.695312 -32.582031 8.125 -32 C 7.5625 -31.414062 6.875 -31.125 6.0625 -31.125 Z M 8.203125 -26.78125 L 8.203125 0 L 3.765625 0 L 3.765625 -26.78125 Z M 8.203125 -26.78125 "/></g></g></g><g fill="#ffffff" fill-opacity="1"><g transform="translate(602.940605, 513.036082)"><g><path d="M 8.203125 -22.421875 C 8.984375 -23.953125 10.097656 -25.140625 11.546875 -25.984375 C 13.003906 -26.835938 14.773438 -27.265625 16.859375 -27.265625 L 16.859375 -22.671875 L 15.6875 -22.671875 C 10.695312 -22.671875 8.203125 -19.96875 8.203125 -14.5625 L 8.203125 0 L 3.765625 0 L 3.765625 -26.78125 L 8.203125 -26.78125 Z M 8.203125 -22.421875 "/></g></g></g><g fill="#ffffff" fill-opacity="1"><g transform="translate(621.165076, 513.036082)"><g><path d="M 28.1875 -14.40625 C 28.1875 -13.5625 28.140625 -12.664062 28.046875 -11.71875 L 6.640625 -11.71875 C 6.804688 -9.082031 7.710938 -7.023438 9.359375 -5.546875 C 11.003906 -4.066406 13 -3.328125 15.34375 -3.328125 C 17.257812 -3.328125 18.859375 -3.773438 20.140625 -4.671875 C 21.429688 -5.566406 22.335938 -6.757812 22.859375 -8.25 L 27.65625 -8.25 C 26.9375 -5.675781 25.5 -3.582031 23.34375 -1.96875 C 21.195312 -0.363281 18.53125 0.4375 15.34375 0.4375 C 12.800781 0.4375 10.523438 -0.128906 8.515625 -1.265625 C 6.515625 -2.410156 4.941406 -4.03125 3.796875 -6.125 C 2.660156 -8.226562 2.09375 -10.664062 2.09375 -13.4375 C 2.09375 -16.207031 2.644531 -18.632812 3.75 -20.71875 C 4.863281 -22.800781 6.421875 -24.40625 8.421875 -25.53125 C 10.429688 -26.65625 12.738281 -27.21875 15.34375 -27.21875 C 17.882812 -27.21875 20.128906 -26.660156 22.078125 -25.546875 C 24.035156 -24.441406 25.539062 -22.921875 26.59375 -20.984375 C 27.65625 -19.046875 28.1875 -16.851562 28.1875 -14.40625 Z M 23.59375 -15.34375 C 23.59375 -17.03125 23.21875 -18.484375 22.46875 -19.703125 C 21.71875 -20.929688 20.695312 -21.863281 19.40625 -22.5 C 18.125 -23.132812 16.703125 -23.453125 15.140625 -23.453125 C 12.898438 -23.453125 10.988281 -22.734375 9.40625 -21.296875 C 7.820312 -19.867188 6.914062 -17.882812 6.6875 -15.34375 Z M 23.59375 -15.34375 "/></g></g></g></svg>