<svg xmlns="http://www.w3.org/2000/svg" xmlns:xlink="http://www.w3.org/1999/xlink" width="500" zoomAndPan="magnify" viewBox="0 0 375 374.999991" height="500" preserveAspectRatio="xMidYMid meet" version="1.0"><defs><g/></defs><g fill="#545454" fill-opacity="1"><g transform="translate(15.262978, 128.700449)"><g><path d="M 23.222656 -56.515625 C 11.042969 -56.515625 3.167969 -49.046875 3.167969 -38.894531 C 3.167969 -34.1875 4.546875 -30.9375 7.308594 -28.097656 C 10.070312 -25.253906 15.753906 -23.0625 24.28125 -21.4375 C 30.371094 -20.21875 32.5625 -18.433594 32.5625 -15.511719 C 32.5625 -11.691406 28.988281 -9.5 23.792969 -9.5 C 17.539062 -9.5 13.640625 -12.097656 12.261719 -17.378906 L 0.242188 -14.617188 C 2.4375 -4.953125 10.71875 0.8125 22.738281 0.8125 C 42.386719 0.8125 45.796875 -12.097656 45.796875 -17.703125 C 45.796875 -25.09375 41.414062 -29.152344 38.085938 -31.101562 C 34.429688 -33.292969 28.503906 -34.753906 22.738281 -35.8125 C 18.269531 -36.621094 15.914062 -38.410156 15.914062 -41.171875 C 15.914062 -44.5 18.515625 -46.367188 23.628906 -46.367188 C 28.582031 -46.367188 31.589844 -44.582031 33.210938 -39.789062 L 44.253906 -43.445312 C 41.332031 -51.890625 34.511719 -56.515625 23.222656 -56.515625 Z M 23.222656 -56.515625 "/></g></g></g><g fill="#545454" fill-opacity="1"><g transform="translate(60.736843, 128.700449)"><g><path d="M 26.960938 -42.0625 C 21.519531 -42.0625 17.539062 -39.707031 15.511719 -34.917969 L 15.347656 -34.917969 L 15.347656 -41.25 L 3.980469 -41.25 L 3.980469 0 L 15.914062 0 L 15.914062 -23.0625 C 15.914062 -29.640625 17.457031 -32.480469 21.925781 -32.480469 C 25.496094 -32.480469 27.285156 -30.207031 27.285156 -25.742188 L 27.285156 0 L 39.222656 0 L 39.222656 -24.765625 C 39.222656 -31.75 43.445312 -32.398438 45.394531 -32.398438 C 48.722656 -32.398438 50.589844 -31.019531 50.589844 -26.554688 L 50.589844 0 L 62.527344 0 L 62.527344 -30.695312 C 62.527344 -39.300781 55.785156 -42.0625 50.265625 -42.0625 C 44.988281 -42.0625 40.277344 -39.628906 38.246094 -34.917969 C 35.730469 -39.871094 32.398438 -42.0625 26.960938 -42.0625 Z M 26.960938 -42.0625 "/></g></g></g><g fill="#545454" fill-opacity="1"><g transform="translate(124.075436, 128.700449)"><g><path d="M 23.304688 -42.0625 C 11.855469 -42.0625 4.628906 -37.273438 3.652344 -29.152344 L 14.941406 -28.097656 C 14.941406 -31.992188 18.109375 -34.105469 22.085938 -34.105469 C 25.171875 -34.105469 28.015625 -32.804688 28.015625 -28.339844 L 28.015625 -25.742188 L 20.871094 -25.09375 C 6.578125 -23.710938 2.4375 -17.378906 2.4375 -10.882812 C 2.4375 -3.652344 7.550781 0.8125 15.429688 0.8125 C 21.113281 0.8125 24.929688 -1.136719 28.582031 -6.414062 L 28.582031 -5.277344 C 28.582031 -3.574219 28.746094 -1.867188 29.152344 0 L 41.007812 0 C 40.359375 -2.191406 40.195312 -4.464844 40.195312 -5.847656 L 40.195312 -29.71875 C 40.195312 -38.976562 31.75 -42.0625 23.304688 -42.0625 Z M 15.105469 -12.179688 C 15.105469 -17.296875 21.273438 -19.082031 28.015625 -19.730469 L 28.015625 -16.078125 C 28.015625 -12.019531 25.824219 -6.738281 20.21875 -6.738281 C 17.050781 -6.738281 15.105469 -8.933594 15.105469 -12.179688 Z M 15.105469 -12.179688 "/></g></g></g><g fill="#545454" fill-opacity="1"><g transform="translate(164.677095, 128.700449)"><g><path d="M 24.28125 -42.0625 C 20.625 -42.0625 17.703125 -39.464844 16.078125 -33.535156 L 15.914062 -33.535156 L 15.914062 -41.25 L 4.789062 -41.25 L 4.789062 0 L 16.726562 0 L 16.726562 -16.160156 C 16.726562 -26.308594 20.058594 -29.964844 25.984375 -29.964844 L 26.960938 -29.964844 L 26.960938 -41.902344 C 25.902344 -41.980469 25.09375 -42.0625 24.28125 -42.0625 Z M 24.28125 -42.0625 "/></g></g></g><g fill="#545454" fill-opacity="1"><g transform="translate(189.038095, 128.700449)"><g><path d="M 19.082031 -54.242188 L 8.6875 -53.433594 L 7.632812 -41.332031 L 0.40625 -41.332031 L 0.40625 -31.832031 L 7.144531 -31.832031 L 7.144531 -11.691406 C 7.144531 -1.867188 11.691406 0.8125 21.601562 0.8125 C 23.386719 0.8125 26.230469 0.488281 28.582031 -0.0820312 L 28.582031 -9.09375 C 26.472656 -8.851562 25.578125 -8.769531 24.605469 -8.769531 C 20.136719 -8.769531 19.082031 -9.417969 19.082031 -14.941406 L 19.082031 -31.832031 L 27.933594 -31.832031 L 27.933594 -41.332031 L 19.082031 -41.332031 Z M 19.082031 -54.242188 "/></g></g></g><g fill="#545454" fill-opacity="1"><g transform="translate(216.647227, 128.700449)"><g><path d="M 4.871094 -55.707031 L 4.871094 0 L 23.710938 0 C 32.726562 0 39.300781 -2.761719 43.851562 -8.203125 C 48.398438 -13.640625 50.671875 -20.300781 50.671875 -28.015625 C 50.671875 -40.277344 44.253906 -50.753906 34.269531 -54.164062 C 31.261719 -55.21875 27.039062 -55.707031 21.679688 -55.707031 Z M 17.863281 -45.472656 L 21.761719 -45.472656 C 27.203125 -45.472656 29.800781 -44.90625 32.5625 -41.902344 C 35.324219 -38.894531 37.273438 -33.699219 37.273438 -28.421875 C 37.273438 -18.027344 32.238281 -12.34375 27.933594 -11.125 C 26.554688 -10.71875 25.171875 -10.476562 19.976562 -10.476562 L 17.863281 -10.476562 Z M 17.863281 -45.472656 "/></g></g></g><g fill="#545454" fill-opacity="1"><g transform="translate(266.993294, 128.700449)"><g><path d="M 27.527344 -56.515625 C 12.261719 -56.515625 2.515625 -44.824219 2.515625 -27.851562 C 2.515625 -10.882812 12.019531 0.8125 27.121094 0.8125 C 40.113281 0.8125 48.722656 -6.984375 50.101562 -19.488281 L 37.433594 -20.300781 C 36.460938 -13.480469 32.886719 -9.824219 27.773438 -9.824219 C 20.625 -9.824219 17.050781 -14.535156 17.050781 -27.203125 C 17.050781 -39.953125 20.542969 -46.042969 27.121094 -46.042969 C 32.96875 -46.042969 36.214844 -42.226562 36.460938 -34.105469 L 50.101562 -35 C 48.558594 -49.289062 40.765625 -56.515625 27.527344 -56.515625 Z M 27.527344 -56.515625 "/></g></g></g><g fill="#545454" fill-opacity="1"><g transform="translate(317.339347, 128.700449)"><g><path d="M 18.433594 -55.707031 L 0.488281 0 L 11.9375 0 L 15.429688 -11.449219 L 33.457031 -11.449219 L 36.867188 0 L 50.914062 0 L 33.457031 -55.707031 Z M 24.523438 -41.171875 L 30.453125 -21.679688 L 18.59375 -21.679688 Z M 24.523438 -41.171875 "/></g></g></g><g fill="#545454" fill-opacity="1"><g transform="translate(23.384636, 209.903818)"><g><path d="M 23.304688 -42.0625 C 11.855469 -42.0625 4.628906 -37.273438 3.652344 -29.152344 L 14.941406 -28.097656 C 14.941406 -31.992188 18.109375 -34.105469 22.085938 -34.105469 C 25.171875 -34.105469 28.015625 -32.804688 28.015625 -28.339844 L 28.015625 -25.742188 L 20.871094 -25.09375 C 6.578125 -23.710938 2.4375 -17.378906 2.4375 -10.882812 C 2.4375 -3.652344 7.550781 0.8125 15.429688 0.8125 C 21.113281 0.8125 24.929688 -1.136719 28.582031 -6.414062 L 28.582031 -5.277344 C 28.582031 -3.574219 28.746094 -1.867188 29.152344 0 L 41.007812 0 C 40.359375 -2.191406 40.195312 -4.464844 40.195312 -5.847656 L 40.195312 -29.71875 C 40.195312 -38.976562 31.75 -42.0625 23.304688 -42.0625 Z M 15.105469 -12.179688 C 15.105469 -17.296875 21.273438 -19.082031 28.015625 -19.730469 L 28.015625 -16.078125 C 28.015625 -12.019531 25.824219 -6.738281 20.21875 -6.738281 C 17.050781 -6.738281 15.105469 -8.933594 15.105469 -12.179688 Z M 15.105469 -12.179688 "/></g></g></g><g fill="#545454" fill-opacity="1"><g transform="translate(63.986298, 209.903818)"><g><path d="M 4.464844 -55.707031 L 4.464844 0 L 16.402344 0 L 16.402344 -55.707031 Z M 4.464844 -55.707031 "/></g></g></g><g fill="#545454" fill-opacity="1"><g transform="translate(81.851032, 209.903818)"><g><path d="M 26.878906 -42.0625 C 21.601562 -42.0625 18.351562 -39.707031 16.078125 -35.160156 L 15.914062 -35.160156 L 15.914062 -41.25 L 4.710938 -41.25 L 4.710938 13.886719 L 16.648438 13.886719 L 16.648438 -4.546875 L 16.808594 -4.546875 C 18.351562 -1.300781 21.761719 0.8125 26.308594 0.8125 C 36.378906 0.8125 42.0625 -7.144531 42.0625 -21.273438 C 42.0625 -35 35.648438 -42.0625 26.878906 -42.0625 Z M 29.558594 -20.789062 C 29.558594 -11.367188 27.203125 -7.632812 23.144531 -7.632812 C 21.355469 -7.632812 16.648438 -8.6875 16.648438 -15.753906 L 16.648438 -24.359375 C 16.648438 -30.855469 19.730469 -33.617188 23.222656 -33.617188 C 27.445312 -33.617188 29.558594 -29.640625 29.558594 -20.789062 Z M 29.558594 -20.789062 "/></g></g></g><g fill="#545454" fill-opacity="1"><g transform="translate(122.452691, 209.903818)"><g><path d="M 4.222656 -55.707031 L 4.222656 0 L 16.160156 0 L 16.160156 -24.359375 C 16.160156 -31.183594 19.976562 -32.5625 22.980469 -32.5625 C 26.230469 -32.5625 27.691406 -29.71875 27.691406 -24.847656 L 27.691406 0 L 39.628906 0 L 39.628906 -29.800781 C 39.628906 -38.003906 34.269531 -42.0625 27.039062 -42.0625 C 22.414062 -42.0625 17.945312 -39.707031 16.320312 -35.566406 L 16.160156 -35.566406 L 16.160156 -55.707031 Z M 4.222656 -55.707031 "/></g></g></g><g fill="#545454" fill-opacity="1"><g transform="translate(163.054349, 209.903818)"><g><path d="M 23.304688 -42.0625 C 11.855469 -42.0625 4.628906 -37.273438 3.652344 -29.152344 L 14.941406 -28.097656 C 14.941406 -31.992188 18.109375 -34.105469 22.085938 -34.105469 C 25.171875 -34.105469 28.015625 -32.804688 28.015625 -28.339844 L 28.015625 -25.742188 L 20.871094 -25.09375 C 6.578125 -23.710938 2.4375 -17.378906 2.4375 -10.882812 C 2.4375 -3.652344 7.550781 0.8125 15.429688 0.8125 C 21.113281 0.8125 24.929688 -1.136719 28.582031 -6.414062 L 28.582031 -5.277344 C 28.582031 -3.574219 28.746094 -1.867188 29.152344 0 L 41.007812 0 C 40.359375 -2.191406 40.195312 -4.464844 40.195312 -5.847656 L 40.195312 -29.71875 C 40.195312 -38.976562 31.75 -42.0625 23.304688 -42.0625 Z M 15.105469 -12.179688 C 15.105469 -17.296875 21.273438 -19.082031 28.015625 -19.730469 L 28.015625 -16.078125 C 28.015625 -12.019531 25.824219 -6.738281 20.21875 -6.738281 C 17.050781 -6.738281 15.105469 -8.933594 15.105469 -12.179688 Z M 15.105469 -12.179688 "/></g></g></g><g fill="#545454" fill-opacity="1"><g transform="translate(203.656008, 209.903818)"><g/></g></g><g fill="#545454" fill-opacity="1"><g transform="translate(224.768876, 209.903818)"><g><path d="M 19.082031 -54.242188 L 8.6875 -53.433594 L 7.632812 -41.332031 L 0.40625 -41.332031 L 0.40625 -31.832031 L 7.144531 -31.832031 L 7.144531 -11.691406 C 7.144531 -1.867188 11.691406 0.8125 21.601562 0.8125 C 23.386719 0.8125 26.230469 0.488281 28.582031 -0.0820312 L 28.582031 -9.09375 C 26.472656 -8.851562 25.578125 -8.769531 24.605469 -8.769531 C 20.136719 -8.769531 19.082031 -9.417969 19.082031 -14.941406 L 19.082031 -31.832031 L 27.933594 -31.832031 L 27.933594 -41.332031 L 19.082031 -41.332031 Z M 19.082031 -54.242188 "/></g></g></g><g fill="#545454" fill-opacity="1"><g transform="translate(252.378008, 209.903818)"><g><path d="M 21.761719 -42.0625 C 9.988281 -42.0625 2.03125 -32.804688 2.03125 -20.058594 C 2.03125 -7.632812 10.230469 0.8125 22.414062 0.8125 C 28.988281 0.8125 34.59375 -2.03125 38.085938 -6.820312 C 39.871094 -9.257812 40.925781 -11.449219 41.171875 -13.398438 L 30.125 -14.210938 C 30.125 -10.554688 26.632812 -7.714844 22.816406 -7.714844 C 17.703125 -7.714844 14.859375 -11.53125 14.859375 -16.484375 C 14.859375 -17.214844 14.941406 -17.863281 14.941406 -18.59375 L 41.414062 -18.59375 L 41.414062 -19.8125 C 41.414062 -34.835938 32.480469 -42.0625 21.761719 -42.0625 Z M 14.859375 -25.660156 C 15.429688 -31.75 18.351562 -34.269531 22.492188 -34.269531 C 26.796875 -34.269531 29.152344 -31.507812 29.476562 -25.660156 Z M 14.859375 -25.660156 "/></g></g></g><g fill="#545454" fill-opacity="1"><g transform="translate(292.979667, 209.903818)"><g><path d="M 20.058594 -42.0625 C 9.339844 -42.0625 2.4375 -37.027344 2.4375 -28.339844 C 2.4375 -22.738281 5.847656 -18.191406 12.34375 -16.648438 C 15.589844 -15.835938 19.164062 -15.183594 23.46875 -14.617188 C 25.984375 -14.292969 27.445312 -13.316406 27.445312 -11.207031 C 27.445312 -8.6875 23.953125 -7.308594 20.136719 -7.308594 C 15.347656 -7.308594 11.691406 -9.257812 11.125 -12.832031 L 0.8125 -11.367188 C 2.515625 -3.652344 9.011719 0.8125 19.652344 0.8125 C 32.074219 0.8125 38.003906 -5.765625 38.003906 -13.074219 C 38.003906 -20.464844 34.835938 -25.253906 22.25 -26.554688 C 15.511719 -27.285156 13.234375 -28.257812 13.234375 -30.777344 C 13.234375 -33.050781 15.511719 -34.429688 19.328125 -34.429688 C 23.304688 -34.429688 26.472656 -32.804688 27.445312 -28.910156 L 36.296875 -31.261719 C 33.457031 -38.976562 28.175781 -42.0625 20.058594 -42.0625 Z M 20.058594 -42.0625 "/></g></g></g><g fill="#545454" fill-opacity="1"><g transform="translate(330.333194, 209.903818)"><g><path d="M 19.082031 -54.242188 L 8.6875 -53.433594 L 7.632812 -41.332031 L 0.40625 -41.332031 L 0.40625 -31.832031 L 7.144531 -31.832031 L 7.144531 -11.691406 C 7.144531 -1.867188 11.691406 0.8125 21.601562 0.8125 C 23.386719 0.8125 26.230469 0.488281 28.582031 -0.0820312 L 28.582031 -9.09375 C 26.472656 -8.851562 25.578125 -8.769531 24.605469 -8.769531 C 20.136719 -8.769531 19.082031 -9.417969 19.082031 -14.941406 L 19.082031 -31.832031 L 27.933594 -31.832031 L 27.933594 -41.332031 L 19.082031 -41.332031 Z M 19.082031 -54.242188 "/></g></g></g><path fill="#fd883d" d="M 96.023438 240.777344 L 288.558594 240.777344 C 295.019531 240.777344 301.214844 243.34375 305.785156 247.910156 C 310.351562 252.480469 312.917969 258.675781 312.917969 265.136719 C 312.917969 271.597656 310.351562 277.792969 305.785156 282.363281 C 301.214844 286.933594 295.019531 289.5 288.558594 289.5 L 96.023438 289.5 C 82.570312 289.5 71.664062 278.589844 71.664062 265.136719 C 71.664062 251.683594 82.570312 240.777344 96.023438 240.777344 Z M 96.023438 240.777344 " fill-opacity="1" fill-rule="nonzero"/><g fill="#ffffff" fill-opacity="1"><g transform="translate(93.318072, 271.90435)"><g><path d="M 14.914062 -22.738281 L 12.152344 -22.738281 L 12.152344 -3.601562 C 11.3125 -4.765625 9.824219 -6.199219 8.445312 -7.199219 L 7.089844 -4.765625 C 9.472656 -2.894531 11.9375 -0.136719 13.535156 2.300781 C 15.132812 -0.136719 17.59375 -2.894531 19.976562 -4.765625 L 18.621094 -7.199219 C 17.242188 -6.199219 15.753906 -4.765625 14.914062 -3.601562 Z M 14.914062 -22.738281 "/></g></g></g><g fill="#ffffff" fill-opacity="1"><g transform="translate(120.385816, 271.90435)"><g/></g></g><g fill="#ffffff" fill-opacity="1"><g transform="translate(128.289599, 271.90435)"><g><path d="M 1.8125 -19.109375 L 1.8125 0 L 6.632812 0 L 6.632812 -6.820312 L 9.609375 -6.820312 L 13.425781 0 L 18.675781 0 L 14.265625 -7.632812 C 16.347656 -8.363281 18.191406 -9.664062 18.191406 -12.910156 C 18.191406 -18.378906 13.695312 -19.109375 10.855469 -19.109375 Z M 6.605469 -15.5625 L 10.582031 -15.5625 C 11.421875 -15.5625 13.425781 -15.511719 13.425781 -13.019531 C 13.425781 -12.425781 13.289062 -10.367188 10.554688 -10.367188 L 6.605469 -10.367188 Z M 6.605469 -15.5625 "/></g></g></g><g fill="#ffffff" fill-opacity="1"><g transform="translate(147.45356, 271.90435)"><g><path d="M 1.839844 0 L 16.808594 0 L 16.808594 -3.761719 L 6.605469 -3.761719 L 6.605469 -8.308594 L 15.347656 -8.308594 L 15.347656 -11.9375 L 6.605469 -11.9375 L 6.605469 -15.402344 L 15.96875 -15.402344 L 15.96875 -19.109375 L 1.839844 -19.109375 Z M 1.839844 0 "/></g></g></g><g fill="#ffffff" fill-opacity="1"><g transform="translate(164.939324, 271.90435)"><g><path d="M 18.921875 -15.347656 C 18.109375 -16.375 15.5625 -19.757812 10.503906 -19.757812 C 3.734375 -19.757812 1.082031 -14.101562 1.082031 -9.554688 C 1.082031 -4.710938 3.761719 0.433594 9.691406 0.433594 C 10.773438 0.433594 12.992188 0.351562 15.320312 -1.757812 L 15.320312 0 L 19.054688 0 L 19.054688 -10.609375 L 10.746094 -10.609375 L 10.746094 -6.984375 L 15.023438 -6.984375 C 14.859375 -4.25 12.585938 -3.410156 10.855469 -3.410156 C 6.523438 -3.410156 5.847656 -7.417969 5.847656 -9.691406 C 5.847656 -13.589844 7.769531 -15.863281 10.828125 -15.863281 C 13.019531 -15.863281 14.617188 -14.535156 15.292969 -13.15625 Z M 18.921875 -15.347656 "/></g></g></g><g fill="#ffffff" fill-opacity="1"><g transform="translate(185.240134, 271.90435)"><g><path d="M 6.578125 0 L 6.578125 -19.109375 L 1.8125 -19.109375 L 1.8125 0 Z M 6.578125 0 "/></g></g></g><g fill="#ffffff" fill-opacity="1"><g transform="translate(193.712338, 271.90435)"><g><path d="M 17.433594 -15.941406 C 15.5625 -17.730469 13.046875 -19.570312 9.011719 -19.570312 C 4.085938 -19.570312 1.300781 -16.945312 1.300781 -13.183594 C 1.300781 -9.824219 4.03125 -8.253906 7.390625 -7.796875 L 9.582031 -7.496094 C 11.289062 -7.28125 12.910156 -6.902344 12.910156 -5.550781 C 12.910156 -3.953125 10.800781 -3.328125 9.390625 -3.328125 C 7.335938 -3.328125 5.144531 -4.195312 3.871094 -5.738281 L 0.242188 -3.4375 C 2.191406 -1.164062 4.492188 0.433594 8.960938 0.433594 C 14.425781 0.433594 17.648438 -2.191406 17.648438 -6.226562 C 17.648438 -9.5 15.589844 -11.015625 10.609375 -11.71875 L 8.5 -12.019531 C 6.875 -12.261719 6.0625 -12.75 6.0625 -13.777344 C 6.0625 -14.671875 6.957031 -15.808594 8.90625 -15.808594 C 10.960938 -15.808594 12.53125 -14.859375 13.914062 -13.425781 Z M 17.433594 -15.941406 "/></g></g></g><g fill="#ffffff" fill-opacity="1"><g transform="translate(212.334944, 271.90435)"><g><path d="M 14.941406 -15.347656 L 14.941406 -19.109375 L 0.191406 -19.109375 L 0.191406 -15.347656 L 5.171875 -15.347656 L 5.171875 0 L 9.988281 0 L 9.988281 -15.347656 Z M 14.941406 -15.347656 "/></g></g></g><g fill="#ffffff" fill-opacity="1"><g transform="translate(227.547024, 271.90435)"><g><path d="M 1.839844 0 L 16.808594 0 L 16.808594 -3.761719 L 6.605469 -3.761719 L 6.605469 -8.308594 L 15.347656 -8.308594 L 15.347656 -11.9375 L 6.605469 -11.9375 L 6.605469 -15.402344 L 15.96875 -15.402344 L 15.96875 -19.109375 L 1.839844 -19.109375 Z M 1.839844 0 "/></g></g></g><g fill="#ffffff" fill-opacity="1"><g transform="translate(245.032787, 271.90435)"><g><path d="M 1.8125 -19.109375 L 1.8125 0 L 6.632812 0 L 6.632812 -6.820312 L 9.609375 -6.820312 L 13.425781 0 L 18.675781 0 L 14.265625 -7.632812 C 16.347656 -8.363281 18.191406 -9.664062 18.191406 -12.910156 C 18.191406 -18.378906 13.695312 -19.109375 10.855469 -19.109375 Z M 6.605469 -15.5625 L 10.582031 -15.5625 C 11.421875 -15.5625 13.425781 -15.511719 13.425781 -13.019531 C 13.425781 -12.425781 13.289062 -10.367188 10.554688 -10.367188 L 6.605469 -10.367188 Z M 6.605469 -15.5625 "/></g></g></g><g fill="#ffffff" fill-opacity="1"><g transform="translate(264.196748, 271.90435)"><g><path d="M 14.914062 -22.738281 L 12.152344 -22.738281 L 12.152344 -3.601562 C 11.3125 -4.765625 9.824219 -6.199219 8.445312 -7.199219 L 7.089844 -4.765625 C 9.472656 -2.894531 11.9375 -0.136719 13.535156 2.300781 C 15.132812 -0.136719 17.59375 -2.894531 19.976562 -4.765625 L 18.621094 -7.199219 C 17.242188 -6.199219 15.753906 -4.765625 14.914062 -3.601562 Z M 14.914062 -22.738281 "/></g></g></g></svg>